<?xml version="1.0" encoding="UTF-8"?>
<!DOCTYPE svg PUBLIC "-//W3C//DTD SVG 1.1//EN" "http://www.w3.org/Graphics/SVG/1.1/DTD/svg11.dtd">
<!-- Creator: CorelDRAW X8 -->
<svg xmlns="http://www.w3.org/2000/svg" xml:space="preserve" width="64px" height="64px" version="1.1" style="shape-rendering:geometricPrecision; text-rendering:geometricPrecision; image-rendering:optimizeQuality; fill-rule:evenodd; clip-rule:evenodd"
viewBox="0 0 1508047 1508047"
 xmlns:xlink="http://www.w3.org/1999/xlink">
 <defs>
  <style type="text/css">
   <![CDATA[
    .fil1 {fill:none}
    .fil0 {fill:black;fill-rule:nonzero}
   ]]>
  </style>
 </defs>
 <g id="Ebene_x0020_1">
  <metadata id="CorelCorpID_0Corel-Layer"/>
  <path class="fil0" d="M685448 923235c0,-19147 -1336,-37265 -3924,-53769 -2783,-16559 -7097,-32868 -13248,-48287 -6039,-15529 -15140,-27719 -27302,-36625 -12190,-9017 -26551,-13526 -43333,-13526 -23016,23016 -50708,34427 -83576,34427 -32980,0 -60866,-11411 -83688,-34427 -16865,0 -31254,4509 -43527,13526 -12079,8906 -21179,21096 -27302,36625 -6040,15419 -10353,31728 -13053,48287 -2672,16504 -4119,34622 -4119,53769 0,19760 5650,36348 17060,50152 11133,13692 24631,20595 40355,20595l228325 0c15725,0 29139,-6903 40466,-20595 11216,-13804 16866,-30392 16866,-50152zm-98549 -164954c19954,-20010 29918,-44362 29918,-72833 0,-28666 -9964,-52907 -29918,-72945 -20039,-20038 -44363,-30002 -72834,-30002 -28666,0 -53018,9964 -72945,30002 -20038,20038 -30002,44279 -30002,72945 0,28471 9964,52823 30002,72833 19927,20039 44279,29919 72945,29919 28471,0 52795,-9880 72834,-29919zm-312959 -278615l960389 0 0 -51459c0,-5010 -1642,-9018 -5093,-12385 -3172,-3256 -7096,-4787 -12162,-4787l-925990 0c-5066,0 -9185,1531 -12357,4787 -3173,3367 -4787,7375 -4787,12385l0 51459zm1028826 -51459l0 651549c0,23601 -8238,43612 -25132,60477 -16865,16893 -36903,25326 -60560,25326l-925990 0c-23657,0 -43890,-8433 -60672,-25326 -16754,-16865 -25103,-36876 -25103,-60477l0 -651549c0,-23601 8349,-43806 25103,-60505 16782,-16865 37015,-25187 60672,-25187l925990 0c23657,0 43695,8322 60560,25187 16894,16699 25132,36904 25132,60505zm-79096 311010c0,-16977 -13693,-30586 -30558,-30586l-132670 0 0 -132726c0,-16893 -13721,-30586 -30781,-30586l-61061 0c-16949,0 -30670,13693 -30670,30586l0 132726 -132670 0c-16865,0 -30558,13609 -30558,30586l0 61145c0,16977 13693,30669 30558,30669l132670 0 0 132671c0,16949 13721,30669 30670,30669l61061 0c17060,0 30781,-13720 30781,-30669l0 -132671 132670 0c16865,0 30558,-13692 30558,-30669l0 -61145z"/>
  <rect class="fil1" x="-5" y="-2" width="1508043" height="1508045"/>
 </g>
</svg>
