<?xml version="1.0" encoding="UTF-8"?>
<!DOCTYPE svg PUBLIC "-//W3C//DTD SVG 1.1//EN" "http://www.w3.org/Graphics/SVG/1.1/DTD/svg11.dtd">
<!-- Creator: CorelDRAW X8 -->
<svg xmlns="http://www.w3.org/2000/svg" xml:space="preserve" width="64px" height="64px" version="1.1" style="shape-rendering:geometricPrecision; text-rendering:geometricPrecision; image-rendering:optimizeQuality; fill-rule:evenodd; clip-rule:evenodd"
viewBox="0 0 9392514 9392514"
 xmlns:xlink="http://www.w3.org/1999/xlink">
 <defs>
  <style type="text/css">
   <![CDATA[
    .fil1 {fill:none}
    .fil0 {fill:black;fill-rule:nonzero}
   ]]>
  </style>
 </defs>
 <g id="Ebene_x0020_1">
  <metadata id="CorelCorpID_0Corel-Layer"/>
  <path class="fil0" d="M4269325 5750501c0,-119603 -8321,-232620 -24788,-334890 -17160,-103656 -43854,-204712 -81989,-301262 -37441,-96549 -94643,-172125 -170218,-228113 -75749,-55815 -165192,-83896 -270061,-83896 -143005,143004 -315823,214246 -520536,214246 -205232,0 -378571,-71242 -520881,-214246 -104870,0 -194486,28081 -270755,83896 -75576,55988 -132084,131564 -170218,228113 -37615,96550 -64829,197606 -81469,301262 -16468,102270 -25308,215287 -25308,334890 0,122550 34841,226033 106083,311836 69162,85802 153058,128444 250994,128444l1422068 0c97763,0 181659,-42642 252208,-128444 69855,-85803 104870,-189286 104870,-311836zm-613792 -1027550c124457,-124457 186166,-276301 186166,-453626 0,-178539 -61709,-329690 -186166,-454320 -124630,-124457 -276474,-186686 -453800,-186686 -178538,0 -329689,62229 -454320,186686 -124456,124630 -186685,275781 -186685,454320 0,177325 62229,329169 186685,453626 124631,124630 275782,186166 454320,186166 177326,0 329170,-61536 453800,-186166zm3604052 1148194l0 -214073c0,-31201 -10227,-55989 -29814,-76963 -19761,-20280 -45761,-29814 -76962,-29814l-2349082 0c-31894,0 -57202,9534 -76962,29814 -19588,20974 -29815,45762 -29815,76963l0 214073c0,30507 10227,56508 29815,76788 19760,19761 45068,29988 76962,29988l2349082 0c31201,0 57201,-10227 76962,-29988 19587,-20280 29814,-46281 29814,-76788zm-1281664 -854559l0 -214246c0,-30334 -10227,-56508 -29814,-76789 -20454,-19760 -46455,-29814 -76962,-29814l-1067418 0c-31894,0 -57202,10054 -76962,29814 -19588,20281 -29815,46455 -29815,76789l0 214246c0,31028 10227,55815 29815,76789 19760,20454 45068,29988 76962,29988l1067418 0c30507,0 56508,-9534 76962,-29988 19587,-20974 29814,-45761 29814,-76789zm1281664 0l0 -214246c0,-30334 -10227,-56508 -29814,-76789 -19761,-19760 -45761,-29814 -76962,-29814l-641179 0c-30508,0 -56508,10054 -76269,29814 -20281,20281 -29814,46455 -29814,76789l0 214246c0,31028 9533,55815 29814,76789 19761,20454 45761,29988 76269,29988l641179 0c31201,0 57201,-9534 76962,-29988 19587,-20974 29814,-45761 29814,-76789zm0 -854558l0 -213553c0,-31201 -10227,-57202 -29814,-76962 -19761,-19587 -45761,-29814 -76962,-29814l-2349082 0c-31894,0 -57202,10227 -76962,29814 -19588,19760 -29815,45761 -29815,76962l0 213553c0,31721 10227,56508 29815,76096 19760,20454 45068,31201 76962,31201l2349082 0c31201,0 57201,-10747 76962,-31201 19587,-19588 29814,-44375 29814,-76096zm-5552895 -1174194l5980521 0 0 -320850c0,-31200 -10227,-55988 -31201,-76962 -19587,-20280 -44375,-29814 -76269,-29814l-5766275 0c-31721,0 -57201,9534 -76962,29814 -19587,20974 -29814,45762 -29814,76962l0 320850zm6406933 -320850l0 4058025c0,146818 -51481,271968 -156351,376838 -104870,104870 -230020,157565 -377531,157565l-5766275 0c-147511,0 -273181,-52695 -378051,-157565 -104176,-104870 -156351,-230020 -156351,-376838l0 -4058025c0,-146817 52175,-272661 156351,-376837 104870,-104870 230540,-156871 378051,-156871l5766275 0c147511,0 272661,52001 377531,156871 104870,104176 156351,230020 156351,376837z"/>
  <rect class="fil1" x="-29" y="-13" width="9392494" height="9392505"/>
 </g>
</svg>
