<?xml version="1.0" encoding="UTF-8"?>
<!DOCTYPE svg PUBLIC "-//W3C//DTD SVG 1.1//EN" "http://www.w3.org/Graphics/SVG/1.1/DTD/svg11.dtd">
<!-- Creator: CorelDRAW X8 -->
<svg xmlns="http://www.w3.org/2000/svg" xml:space="preserve" width="64px" height="64px" version="1.1" style="shape-rendering:geometricPrecision; text-rendering:geometricPrecision; image-rendering:optimizeQuality; fill-rule:evenodd; clip-rule:evenodd"
viewBox="0 0 428626 428626"
 xmlns:xlink="http://www.w3.org/1999/xlink">
 <defs>
  <style type="text/css">
   <![CDATA[
    .fil0 {fill:none}
    .fil1 {fill:black}
   ]]>
  </style>
 </defs>
 <g id="Ebene_x0020_1">
  <metadata id="CorelCorpID_0Corel-Layer"/>
  <rect class="fil0" x="-1" y="-1" width="428625" height="428626"/>
  <path class="fil1" d="M43079 208816l0 96639c0,791 617,3339 886,4130 404,1202 744,2539 1329,3678 293,641 269,277 483,680 577,1068 245,823 1384,2413l2167 2974 2698 2326c680,435 1471,1202 2239,1510 854,301 1502,981 2420,1337 467,159 490,103 981,222 1408,364 3433,1439 5118,1439 1558,0 3338,95 4801,-189 1021,-182 1598,-119 2642,-483 831,-277 554,-490 1345,-830l1622 -736c767,-459 2452,-736 3101,-1503 640,-791 1653,-1495 2507,-2199 1013,-831 309,0 894,-1329 372,-815 617,-609 1013,-1369 482,-957 1313,-2025 1684,-2911 333,-862 1345,-2206 1559,-2998 190,-719 63,-1328 372,-2088 308,-830 371,-1044 482,-1898 926,-6621 459,-30059 459,-37163l0 -32796c0,-1645 190,-3061 190,-4627 0,-1527 -32,-3125 0,-4652 63,-2911 577,-7538 1321,-10417 640,-2484 269,-1867 1748,-4011 546,-830 1471,-989 2444,-830 1044,189 894,237 1377,1044 1044,1645 561,1708 957,3615 308,1471 395,3029 395,4532 -150,37629 0,75219 0,112848 0,4050 -498,16636 554,19214 237,609 127,269 301,981 221,886 798,1740 1289,2413 1131,1621 3773,4169 5885,4509 491,55 1685,205 2112,205 11090,0 95042,309 98626,-174 798,-158 1012,-435 1684,-767l159 -71c-752,-2136 -1132,-4390 -1132,-6684 0,-4327 1393,-8346 3956,-11818 1170,-1590 2365,-3156 3575,-4707l-16 -1495 -8203 -1226c-9310,-1637 -16089,-9872 -16089,-19309l0 -26571c0,-9041 6565,-17513 16240,-19411l8044 -1203 0 -680 -3417 -4185c-2966,-3583 -4699,-7934 -4699,-12609 0,-4176 1306,-7657 4050,-11810 1108,-1495 2484,-3251 4066,-5118l0 -11754c0,-1622 0,-2935 151,-4446 269,-2412 704,-5940 3646,-5323 1503,300 1005,672 1772,1621 1440,1772 1725,5577 2120,8274l253 3085c7475,-7301 16390,-13953 23367,-13953 4493,0 8765,1613 12459,4406l2840 2199c506,-72 1004,-119 1487,-119l735 8c451,-2603 997,-5181 1685,-7721l16 -63c-111,-2436 -332,-4643 -625,-7269 -182,-1345 -459,-1843 -585,-3117 -483,-3591 -1250,-5063 -1709,-7997 -284,-1661 -1139,-2737 -1471,-4296l-2302 -5576c-1044,-1930 -1748,-3861 -3188,-5609 -459,-553 -364,-886 -949,-1629 -308,-356 -609,-696 -894,-1100 -332,-522 -332,-767 -728,-1250 -340,-458 -585,-522 -854,-917 -498,-617 -103,-499 -894,-1139l-1843 -1930c-522,-435 -332,-522 -791,-1005 -459,-467 -609,-308 -1099,-862l-2025 -1938c-681,-641 -1472,-942 -2176,-1582l-2238 -1511c-736,-578 -1772,-791 -2476,-1313 -1203,-855 -1329,-617 -2737,-1226 -1646,-704 -2294,-1100 -4074,-1408 -878,-151 -831,-340 -1463,-522 -4660,-1472 -12839,-918 -17925,-918 -1994,0 -3615,-340 -5458,-182l-115870 0c-1353,0 -4050,55 -5490,396 -1036,213 -2507,395 -3520,854 -1479,641 -2974,585 -4477,1408 -514,277 -308,277 -1076,498 -1985,578 -5940,3030 -7562,4280l-1962 1629c-490,491 -862,491 -1345,1013 -340,372 -308,427 -680,767l-2325 2199c-309,309 -309,562 -554,870 -277,356 -522,396 -854,760 -372,450 -254,577 -610,949 -1510,1558 -743,791 -1993,2571l-2326 3654c-498,918 -1226,1891 -1534,2872 -214,585 -40,190 -253,585 -1408,2421 -2017,3924 -2903,6866l-831 2144c-277,641 -214,118 -435,1036 -87,340 -111,918 -174,1416 -222,1313 -1076,3156 -1353,4715 -158,1044 -95,1716 -269,2729 -158,949 -530,1321 -593,2325 -63,1013 -150,2025 -237,2880 -127,735 -404,2207 -404,2824zm100010 -43475l20068 0c1954,0 3576,2570 3576,5758l0 18938c0,3179 -1622,5782 -3576,5782l-20068 0c-1970,0 -3591,-2603 -3591,-5782l0 -18938c0,-3188 1621,-5758 3591,-5758zm3370 34836l13329 0c2207,0 2294,641 2879,4280 3465,22038 6985,44060 10418,66035 1685,10718 4137,17988 -3093,25487 -4422,4572 -8741,9168 -13084,13708 -2120,2136 -5363,2081 -7380,0 -4968,-5189 -8250,-8519 -13242,-13708 -7261,-7499 -4809,-14769 -3124,-25487 3433,-21975 6953,-43997 10410,-66035 585,-3639 711,-4280 2887,-4280zm-50341 -111566c0,3132 -32,5545 427,8614 127,918 245,2207 340,3030l1195 5885c640,1954 1099,4533 2080,6281 467,736 245,490 467,1376 300,1195 2689,5640 3433,6985l1954 3188c308,467 490,617 767,1076 459,767 1076,1186 1408,1930 372,791 63,427 672,949 617,522 372,237 831,981l1558 1803c1558,1812 5767,5490 6067,5862l3987 2935c1258,862 2816,2048 4169,2547 1289,459 277,-40 1163,640 893,673 1534,673 2420,1132l4651 2056c950,364 1511,665 2516,823 1962,309 3496,1171 5482,1479 949,143 2365,182 3188,293 5758,830 8645,925 14404,0 2848,-419 2547,-150 5917,-941 941,-222 1582,-681 2571,-799 1099,-151 1685,-459 2666,-855l7285 -3188c831,-640 1835,-885 2792,-1566 578,-395 119,-150 554,-427 483,-364 578,-182 1163,-617 672,-482 1471,-1036 2080,-1495l1930 -1440c617,-340 522,-490 894,-886l1076 -711c396,-269 546,-641 854,-918 420,-427 578,-403 981,-823l4256 -4509c459,-458 308,-577 704,-1075 214,-238 546,-420 854,-768 435,-569 246,-633 617,-1131l2231 -2942c562,-673 372,-1068 894,-1749 245,-269 158,-55 459,-482 158,-277 522,-1100 617,-1226 419,-989 830,-1385 1289,-2302l767 -1843c1005,-1772 704,-1796 1219,-3180l1131 -2452c340,-1013 340,-1749 767,-2848 1076,-2634 649,-3860 1202,-5854 1432,-5482 1226,-11454 578,-17125 -119,-1140 -158,-1931 -467,-2943 -395,-1289 -237,-1930 -459,-3180 -174,-1171 -878,-2911 -1250,-3923 -435,-1171 87,-712 -1502,-4573 -467,-1099 -578,-2302 -1377,-2998 -403,-403 -364,-704 -609,-1194 -221,-435 -807,-1021 -1289,-2270 -459,-1163 -768,-1076 -1290,-2112 -308,-586 -245,-673 -617,-1195 -1226,-1756 -609,-862 -1344,-2302l-404 -522c-514,-799 -1004,-1898 -1645,-2594 -522,-594 -926,-1266 -1566,-1788 -950,-791 -246,-32 -823,-949 -467,-704 -3710,-3584 -4382,-4383 -1013,-1036 -3378,-2824 -4691,-3860 -522,-427 -617,-277 -1163,-633 -1107,-680 -3006,-2151 -4200,-2737l-4691 -2175c-1559,-886 -6249,-2579 -7721,-2729 -458,-55 -941,-87 -1376,-245 -585,-174 -546,-301 -1226,-483 -483,-95 -1163,-126 -1622,-221 -4564,-942 -7625,-823 -12166,-823l-3156 150c-2144,0 -3765,459 -5782,894l-12483 4288 -3203 1677c-348,253 -744,585 -1052,806 -894,523 -1195,420 -2081,1227 -609,609 -1353,830 -1993,1376 -894,823 -2935,2112 -3797,2943l-2603 2539c-743,490 -1012,1163 -1685,1716 -553,459 -395,459 -830,981 -396,459 -427,309 -831,767 -332,372 -427,704 -727,1045l-1511 1890c-855,1266 -2168,2611 -2808,3963l-1266 2104c-356,617 -269,744 -514,1139 -340,641 -277,151 -712,1076 -309,673 -665,1804 -1068,2476 -578,949 -1076,2634 -1566,3528 -641,1187 -823,2872 -1226,3987 -214,641 -238,301 -459,1036 -151,491 -214,886 -396,1503 -332,1139 -395,1377 -522,2816 -118,1171 -459,1653 -641,2856 -126,1036 -181,2017 -308,3029 -127,918 -427,2366 -427,3307zm228132 214582c0,16881 -13772,30652 -30652,30652 -16881,0 -30652,-13771 -30652,-30652 0,-16880 13771,-30652 30652,-30652 16880,0 30652,13772 30652,30652zm61297 -13052c0,-2041 -1479,-3931 -3481,-4287l-21911 -3370c-1179,-3955 -2871,-7902 -4904,-11731 4073,-5616 8471,-10900 12545,-16406 617,-831 965,-1693 965,-2761 0,-933 -237,-1898 -814,-2610 -5039,-7072 -13408,-14476 -19784,-20353 -823,-704 -1891,-1210 -2966,-1210 -1060,0 -2176,356 -2896,1067l-16983 12847c-3473,-1820 -7048,-3267 -10766,-4438l-3354 -22022c-261,-2041 -2151,-3623 -4303,-3623l-26594 0c-2144,0 -3829,1463 -4304,3354 -1930,7198 -2649,14974 -3472,22291 -3702,1171 -7428,2753 -10893,4541l-16532 -12807c-926,-704 -2033,-1210 -3109,-1210 -4042,0 -20203,17489 -23106,21421 -561,854 -1068,1684 -1068,2752 0,1068 507,2033 1211,2903 4437,5364 8741,10766 12814,16525 -1938,3568 -3480,7143 -4690,11003l-22252 3330c-1772,356 -3243,2548 -3243,4327l0 26571c0,2041 1471,3931 3472,4287l21912 3259c1186,4066 2863,8006 4896,11834 -4066,5624 -8472,10908 -12538,16414 -617,831 -965,1685 -965,2761 0,925 246,1890 823,2752 5039,6930 13400,14334 19768,20093 830,822 1890,1328 2966,1328 1076,0 2183,-363 3006,-1075l16873 -12839c3480,1820 7056,3244 10774,4438l3353 22022c246,2041 2160,3615 4304,3615l26594 0c2152,0 3829,-1463 4303,-3370 1930,-7174 2642,-14950 3465,-22267 3710,-1194 7436,-2753 10908,-4548l16525 12949c925,569 2041,1075 3101,1075 4042,0 20210,-17600 23106,-21421 711,-862 1075,-1684 1075,-2752 0,-1076 -506,-2184 -1210,-2998 -4446,-5411 -8733,-10671 -12807,-16533 1923,-3472 3354,-7040 4683,-10916l22125 -3314c1899,-356 3378,-2547 3378,-4335l0 -26563z"/>
 </g>
</svg>
