<?xml version="1.0" encoding="UTF-8"?>
<!DOCTYPE svg PUBLIC "-//W3C//DTD SVG 1.1//EN" "http://www.w3.org/Graphics/SVG/1.1/DTD/svg11.dtd">
<!-- Creator: CorelDRAW X8 -->
<svg xmlns="http://www.w3.org/2000/svg" xml:space="preserve" width="64px" height="64px" version="1.1" style="shape-rendering:geometricPrecision; text-rendering:geometricPrecision; image-rendering:optimizeQuality; fill-rule:evenodd; clip-rule:evenodd"
viewBox="0 0 346060 346060"
 xmlns:xlink="http://www.w3.org/1999/xlink">
 <defs>
  <style type="text/css">
   <![CDATA[
    .fil0 {fill:none}
    .fil1 {fill:black}
   ]]>
  </style>
 </defs>
 <g id="Ebene_x0020_1">
  <metadata id="CorelCorpID_0Corel-Layer"/>
  <rect class="fil0" x="-1" width="346059" height="346059"/>
  <path class="fil1" d="M250792 200881c0,1795 -1354,3168 -3155,3168l-18891 0c-1795,0 -3155,-1373 -3155,-3168l0 -15902c0,-1788 1360,-3168 3155,-3168l18891 0c1801,0 3155,1380 3155,3168l0 15902zm12620 88173c0,1769 -1386,3129 -3155,3129l-44144 0c-1769,0 -3148,-1360 -3148,-3129l0 -15654c0,-1775 1379,-3148 3148,-3148l9478 0 0 -31556 -9478 0c-1769,0 -3148,-1380 -3148,-3142l0 -15807c0,-1769 1379,-3148 3148,-3148l31524 0c1801,0 3155,1379 3155,3148l0 50505 9465 0c1769,0 3155,1373 3155,3148l0 15654zm42591 -50326c0,-9235 -1826,-18023 -5115,-25974 -3430,-8283 -8488,-15775 -14734,-22040 -6278,-6252 -13763,-11317 -22072,-14759 -7945,-3289 -16700,-5122 -25897,-5122 -9197,0 -17965,1833 -25917,5128 -8308,3449 -15787,8494 -22001,14727 -6265,6272 -11330,13783 -14766,22072 -3289,7958 -5122,16739 -5122,25968 0,9203 1827,17965 5116,25897 3436,8283 8481,15762 14714,21982 6246,6240 13738,11298 22028,14728 7957,3289 16726,5115 25948,5115 9222,0 17997,-1826 25948,-5115 8290,-3430 15781,-8482 22040,-14728 6227,-6214 11285,-13679 14715,-21956 3289,-7939 5115,-16714 5115,-25923zm6463 -30738c3928,9496 6106,19906 6106,30738 0,10838 -2178,21241 -6106,30732 -4068,9803 -10058,18661 -17460,26038 -7377,7363 -16254,13341 -26108,17416 -9497,3927 -19894,6111 -30713,6111 -10857,0 -21248,-2184 -30732,-6111 -9848,-4081 -18706,-10059 -26082,-17416 -7396,-7396 -13387,-16254 -17455,-26064 -3927,-9484 -6112,-19868 -6112,-30706 0,-10838 2191,-21235 6119,-30732 4081,-9867 10071,-18751 17448,-26140 7382,-7402 16260,-13399 26088,-17474 9504,-3940 19894,-6124 30726,-6124 10838,0 21222,2190 30706,6118 9836,4075 18700,10072 26108,17461 7415,7421 13393,16298 17467,26153zm-242578 -138396c0,2408 -32,4272 338,6629 83,722 185,1712 268,2357l946 4540c510,1514 887,3507 1679,4848 345,575 173,370 358,1054 236,926 2139,4349 2740,5390l1583 2465c230,351 371,473 582,830 364,594 868,907 1136,1495 301,600 64,332 543,728 498,396 281,185 639,753l1271 1405c1239,1380 4611,4228 4854,4516l3180 2260c977,677 2255,1597 3315,1993 1041,339 217,-45 945,479 696,530 1207,511 1929,869l3723 1596c760,281 1188,511 1999,633 1571,236 2784,913 4394,1149 773,96 1871,121 2542,217 4598,658 6891,709 11495,13 2287,-338 2044,-141 4739,-760 741,-153 1265,-511 2057,-594 881,-115 1354,-377 2133,-658l5824 -2478c664,-485 1450,-670 2216,-1181 473,-313 122,-134 447,-358 390,-274 467,-140 920,-472 543,-371 1188,-799 1667,-1150l1546 -1099c498,-274 427,-389 715,-708l856 -550c306,-198 434,-472 696,-696 325,-326 472,-319 772,-645l3392 -3474c370,-358 249,-447 568,-830 173,-186 454,-326 683,-575 358,-454 205,-498 499,-881l1794 -2280c435,-511 294,-824 703,-1322 198,-237 121,-64 370,-403 109,-198 428,-856 466,-945 358,-754 690,-1054 1048,-1769l594 -1418c817,-1373 568,-1405 1002,-2459l895 -1890c268,-798 268,-1360 632,-2216 843,-2031 498,-2983 939,-4503 1162,-4234 983,-8858 472,-13226 -102,-869 -134,-1488 -377,-2274 -319,-977 -191,-1501 -357,-2465 -154,-900 -703,-2235 -1009,-3034 -326,-900 76,-530 -1214,-3512 -351,-837 -460,-1769 -1079,-2318 -326,-301 -313,-524 -498,-920 -173,-319 -645,-779 -1048,-1763 -357,-887 -594,-811 -1021,-1628 -224,-441 -186,-530 -473,-926 -964,-1322 -505,-639 -1079,-1769l-313 -409c-415,-601 -805,-1437 -1316,-2012 -415,-428 -741,-958 -1252,-1347 -772,-620 -204,-39 -657,-748 -371,-555 -2970,-2765 -3526,-3365 -779,-824 -2695,-2197 -3730,-2996 -415,-325 -485,-198 -932,-485 -881,-537 -2389,-1667 -3347,-2127l-3761 -1679c-1239,-677 -4988,-1967 -6176,-2114 -345,-39 -741,-51 -1079,-160 -473,-166 -441,-249 -1003,-383 -383,-77 -913,-102 -1284,-179 -3653,-722 -6086,-626 -9720,-626l-2510 134c-1731,0 -3008,332 -4649,664l-9963 3315 -2568 1303c-274,185 -568,441 -817,607 -715,402 -971,338 -1660,958 -511,479 -1086,632 -1604,1066 -689,620 -2356,1616 -3052,2261l-2076 1980c-575,357 -805,887 -1328,1309 -454,364 -313,364 -671,760 -313,370 -338,230 -664,581 -268,288 -345,562 -575,811l-1207 1456c-702,984 -1750,2025 -2254,3066l-1016 1622c-287,485 -217,575 -415,881 -249,511 -204,122 -543,837 -268,511 -549,1399 -868,1910 -467,728 -850,2037 -1239,2707 -511,946 -652,2229 -984,3079 -172,517 -179,249 -364,798 -121,383 -172,703 -313,1169 -294,868 -338,1086 -434,2171 -89,894 -370,1284 -498,2210 -102,811 -160,1565 -243,2357 -108,709 -338,1807 -338,2548zm40215 85854l10647 0c1756,0 1833,498 2312,3321 2765,17007 5575,33995 8321,50970 1329,8271 3296,13872 -2490,19671 -3532,3519 -6955,7076 -10455,10570 -1673,1673 -4285,1609 -5895,0 -3966,-3979 -6572,-6572 -10570,-10570 -5805,-5799 -3844,-11400 -2509,-19671 2759,-16975 5549,-33963 8347,-50970 434,-2823 543,-3321 2292,-3321zm-2695 -26907l16037 0c1571,0 2861,1999 2861,4452l0 14612c0,2465 -1290,4477 -2861,4477l-16037 0c-1577,0 -2880,-2012 -2880,-4477l0 -14612c0,-2453 1303,-4452 2880,-4452zm-79920 33568l0 74607c0,607 510,2587 708,3200 326,919 588,1960 1054,2835 262,511 217,224 403,530 466,818 185,633 1098,1872l1737 2292 2140 1795c555,332 1188,926 1794,1150 684,255 1201,772 1961,1053 364,134 364,64 747,154 1131,306 2753,1130 4113,1130 1239,0 2657,64 3845,-140 785,-160 1258,-109 2095,-403 670,-198 459,-370 1066,-638l1316 -562c619,-358 1954,-550 2465,-1169 511,-601 1328,-1143 2024,-1693 805,-645 230,0 703,-1002 294,-652 466,-498 798,-1080 377,-728 1048,-1552 1354,-2254 262,-645 1067,-1699 1239,-2312 141,-536 70,-1028 294,-1603 249,-632 306,-817 396,-1456 734,-5122 377,-23215 377,-28720l0 -25291c0,-1284 147,-2369 147,-3576 0,-1188 -39,-2408 -20,-3596 45,-2248 460,-5818 1073,-8041 505,-1928 230,-1436 1386,-3091 435,-651 1163,-753 1955,-651 836,153 721,198 1111,805 836,1283 447,1341 747,2810 262,1111 332,2324 332,3493 -115,29046 0,58073 0,87119 0,3129 -383,12856 447,14835 192,454 83,211 224,760 172,665 657,1335 1041,1846 913,1271 3001,3206 4687,3481 403,64 1354,159 1699,159 8865,0 75942,256 78816,-140 256,-45 441,-109 607,-185 -1041,-2057 -2006,-4158 -2893,-6297 -4522,-10947 -7038,-22915 -7038,-35394 0,-12505 2516,-24499 7051,-35446 2394,-5786 5364,-11285 8826,-16407l0 -13877c0,-1265 0,-2268 127,-3430 198,-1871 556,-4611 2906,-4132 1188,255 805,524 1412,1265 1168,1366 1373,4304 1686,6386l313 3347 64 1890c1532,-1782 3116,-3500 4777,-5160 7957,-7971 17397,-14511 27832,-19173 -351,-1667 -792,-2733 -1066,-4483 -230,-1277 -914,-2114 -1163,-3327l-1858 -4286c-837,-1520 -1380,-2995 -2542,-4336 -371,-447 -281,-703 -767,-1271 -223,-287 -472,-530 -715,-837 -268,-389 -268,-574 -575,-977 -261,-351 -479,-389 -696,-696 -402,-473 -64,-383 -683,-881l-1482 -1501c-421,-326 -281,-383 -638,-767 -371,-376 -486,-242 -869,-670l-1641 -1488c-530,-511 -1150,-741 -1737,-1226l-1769 -1163c-594,-447 -1437,-619 -1999,-1028 -939,-658 -1035,-473 -2178,-945 -1329,-530 -1814,-843 -3238,-1079 -735,-122 -690,-262 -1194,-416 -3711,-1130 -10244,-696 -14319,-696 -1597,0 -2893,-268 -4362,-140l-92585 0c-1086,0 -3219,57 -4369,306 -862,173 -2011,300 -2823,658 -1175,479 -2375,460 -3570,1099 -434,210 -261,198 -868,370 -1597,447 -4739,2338 -6042,3327l-1584 1239c-376,384 -657,384 -1066,799 -262,268 -249,313 -530,568l-1878 1699c-236,243 -236,434 -415,683 -236,281 -422,281 -703,569 -300,370 -204,453 -479,734 -1200,1220 -593,632 -1603,1999l-1852 2829c-402,696 -964,1456 -1239,2197 -159,454 -19,141 -204,454 -1098,1884 -1597,3033 -2299,5301l-677 1666c-211,499 -166,96 -332,805 -70,268 -96,696 -160,1079 -153,1010 -849,2440 -1060,3647 -147,786 -89,1329 -249,2101 -109,728 -383,1022 -441,1795 -44,779 -127,1571 -217,2229 -77,562 -306,1692 -306,2165z"/>
 </g>
</svg>
