<?xml version="1.0" encoding="UTF-8"?>
<!DOCTYPE svg PUBLIC "-//W3C//DTD SVG 1.1//EN" "http://www.w3.org/Graphics/SVG/1.1/DTD/svg11.dtd">
<!-- Creator: CorelDRAW X8 -->
<svg xmlns="http://www.w3.org/2000/svg" xml:space="preserve" width="64px" height="64px" version="1.1" style="shape-rendering:geometricPrecision; text-rendering:geometricPrecision; image-rendering:optimizeQuality; fill-rule:evenodd; clip-rule:evenodd"
viewBox="0 0 819839 819839"
 xmlns:xlink="http://www.w3.org/1999/xlink">
 <defs>
  <style type="text/css">
   <![CDATA[
    .fil1 {fill:none}
    .fil0 {fill:black;fill-rule:nonzero}
   ]]>
  </style>
 </defs>
 <g id="Ebene_x0020_1">
  <metadata id="CorelCorpID_0Corel-Layer"/>
  <path class="fil0" d="M430451 466022c-2163,2073 -3192,4479 -3192,7202 0,2739 1029,5144 3192,7202l90539 90538 -45058 45103c-3934,3934 -5961,8594 -5961,14041 0,5417 2027,10167 5961,14101 3934,3934 8700,5961 14102,5961l140165 31c5431,-31 10091,-2058 14025,-5992 4010,-3903 5962,-8684 5962,-14101l30 -140165c-30,-5417 -1982,-10107 -5992,-14011 -3934,-3994 -8594,-5976 -14025,-5991 -5432,15 -10168,1967 -14117,5991l-45042 45027 -90614 -90614c-2028,-2042 -4463,-3086 -7202,-3086 -2723,0 -5023,1029 -7187,3086l-35586 35677zm-260812 -276366l30 140165c0,5401 1952,10092 5976,14101 3919,3934 8609,5886 14011,5886 5431,-30 10197,-1952 14131,-5886l45027 -45133 90615 90614c2042,2043 4523,3193 7201,3193 2679,0 5160,-1150 7202,-3193l35692 -35692c2028,-2027 3072,-4463 3072,-7186 0,-2739 -1044,-5054 -3072,-7202l-90629 -90509 45027 -45027c3934,-4039 5977,-8684 6007,-14131 -30,-5432 -2073,-10077 -6007,-14117 -3903,-3903 -8700,-5855 -14101,-5855l-140165 -30c-5432,30 -10107,1982 -14011,5885 -3994,4040 -5976,8685 -6006,14117z"/>
  <rect class="fil1" x="-3" y="-1" width="819838" height="819839"/>
 </g>
</svg>
