<?xml version="1.0" encoding="UTF-8"?>
<!DOCTYPE svg PUBLIC "-//W3C//DTD SVG 1.1//EN" "http://www.w3.org/Graphics/SVG/1.1/DTD/svg11.dtd">
<!-- Creator: CorelDRAW X8 -->
<svg xmlns="http://www.w3.org/2000/svg" xml:space="preserve" width="64px" height="64px" version="1.1" style="shape-rendering:geometricPrecision; text-rendering:geometricPrecision; image-rendering:optimizeQuality; fill-rule:evenodd; clip-rule:evenodd"
viewBox="0 0 819839 819839"
 xmlns:xlink="http://www.w3.org/1999/xlink">
 <defs>
  <style type="text/css">
   <![CDATA[
    .fil1 {fill:none}
    .fil0 {fill:black;fill-rule:nonzero}
   ]]>
  </style>
 </defs>
 <g id="Ebene_x0020_1">
  <metadata id="CorelCorpID_0Corel-Layer"/>
  <path class="fil0" d="M673259 329110c3873,3843 5734,8306 5734,13526 0,5220 -1861,9699 -5734,13526l-153722 153737c-3767,3768 -8352,5765 -13556,5765 -5190,0 -9668,-1997 -13436,-5765 -3873,-3767 -5764,-8351 -5764,-13526l0 -76891 -67254 0c-19654,0 -37129,650 -52652,1816 -15494,1255 -30926,3404 -46283,6475 -15342,3117 -28611,7338 -39914,12815 -11362,5372 -21863,12271 -31727,20804 -9790,8503 -17778,18641 -23966,30306 -6279,11756 -11106,25676 -14616,41608 -3480,16083 -5190,34178 -5190,54377 0,11015 454,23316 1422,36933 0,1165 288,3570 802,7081 454,3525 742,6097 742,7898 0,3056 -832,5567 -2512,7534 -1710,1967 -4161,3057 -7081,3057 -3253,0 -6022,-1695 -8442,-5114 -1453,-1801 -2709,-4025 -3859,-6643 -1255,-2602 -2617,-5658 -4130,-8987 -1453,-3374 -2512,-5825 -3162,-7232 -25373,-57040 -38098,-102173 -38098,-135445 0,-39807 5281,-73169 15887,-99994 32454,-80614 120102,-120981 262779,-120981l67254 0 0 -76876c0,-5189 1891,-9759 5764,-13526 3768,-3767 8246,-5765 13436,-5765 5204,0 9789,1998 13556,5765l153722 153722z"/>
  <rect class="fil1" x="-3" y="-1" width="819838" height="819839"/>
 </g>
</svg>
