<?xml version="1.0" encoding="UTF-8"?>
<!DOCTYPE svg PUBLIC "-//W3C//DTD SVG 1.1//EN" "http://www.w3.org/Graphics/SVG/1.1/DTD/svg11.dtd">
<!-- Creator: CorelDRAW X8 -->
<svg xmlns="http://www.w3.org/2000/svg" xml:space="preserve" width="64px" height="64px" version="1.1" style="shape-rendering:geometricPrecision; text-rendering:geometricPrecision; image-rendering:optimizeQuality; fill-rule:evenodd; clip-rule:evenodd"
viewBox="0 0 1508047 1508047"
 xmlns:xlink="http://www.w3.org/1999/xlink">
 <defs>
  <style type="text/css">
   <![CDATA[
    .fil1 {fill:none}
    .fil0 {fill:black;fill-rule:nonzero}
   ]]>
  </style>
 </defs>
 <g id="Ebene_x0020_1">
  <metadata id="CorelCorpID_0Corel-Layer"/>
  <path class="fil0" d="M1197620 1181228c0,21819 -17116,39743 -37961,39743l-264477 0c-20651,0 -37767,-17951 -37795,-39743 28,-10297 4064,-20317 11161,-27720l85023 -89059 -162672 -170325 -183962 -55 -45726 0 -231526 55c-5121,0 -10492,-2338 -13720,-5761 -3396,-3534 -5539,-9240 -5539,-14388l0 -92232 0 -55439 0 -92232c0,-5232 2143,-10882 5539,-14416 3200,-3340 8599,-5594 13720,-5734l231526 28 45726 0 183962 -28 162672 -170325 -85023 -89059c-7097,-7431 -11133,-17422 -11161,-27719 28,-21792 17144,-39743 37795,-39743l264477 0c20845,0 37961,17895 37961,39743l0 277001c0,21597 -17143,39492 -37961,39548 -9824,-56 -19398,-4259 -26439,-11634l-85079 -89114 -194010 203221 -1920 2421c-3618,3702 -3702,7515 0,11494l1920 2450 194010 203221 85079 -89115c7041,-7375 16615,-11577 26439,-11633 20818,56 37961,17951 37961,39548l0 277001z"/>
  <rect class="fil1" x="-5" y="-2" width="1508043" height="1508045"/>
 </g>
</svg>
