<?xml version="1.0" encoding="UTF-8"?>
<!DOCTYPE svg PUBLIC "-//W3C//DTD SVG 1.1//EN" "http://www.w3.org/Graphics/SVG/1.1/DTD/svg11.dtd">
<!-- Creator: CorelDRAW X8 -->
<svg xmlns="http://www.w3.org/2000/svg" xml:space="preserve" width="64px" height="64px" version="1.1" style="shape-rendering:geometricPrecision; text-rendering:geometricPrecision; image-rendering:optimizeQuality; fill-rule:evenodd; clip-rule:evenodd"
viewBox="0 0 471676 471676"
 xmlns:xlink="http://www.w3.org/1999/xlink">
 <defs>
  <style type="text/css">
   <![CDATA[
    .fil1 {fill:none}
    .fil0 {fill:black;fill-rule:nonzero}
   ]]>
  </style>
 </defs>
 <g id="Ebene_x0020_1">
  <metadata id="CorelCorpID_0Corel-Layer"/>
  <path class="fil0" d="M217105 374775c2603,-2594 4074,-6224 4144,-9811l43 -99739c-26,-3673 -1540,-7199 -4143,-9819 -2612,-2594 -6137,-4108 -9723,-4047l-99739 43c-3700,-17 -7304,1454 -9924,4048 -2576,2603 -3978,6145 -3934,9819l-44 11481c-70,3587 1402,7199 4022,9819 2576,2568 6180,4048 9793,3978l44951 70 -53926 53926c-5528,5528 -4405,13553 809,18768l9819 9818c5215,5215 13240,6338 18742,810l53952 -53952 70 44977c-70,3587 1401,7217 3978,9793 2620,2620 6232,4092 9906,4092l11481 0c3587,-88 7129,-1472 9723,-4074zm0 -277900c2603,2620 4074,6224 4144,9837l43 99739c-26,3673 -1540,7199 -4143,9810 -2612,2603 -6137,4117 -9723,4056l-99739 -52c-3700,26 -7304,-1445 -9924,-4047 -2576,-2595 -3978,-6137 -3934,-9811l-44 -11481c-70,-3587 1402,-7199 4022,-9819 2576,-2577 6180,-4048 9793,-3978l44951 -70 -53926 -53926c-5528,-5528 -4405,-13562 809,-18776l9819 -9810c5215,-5215 13240,-6337 18742,-819l53952 53961 70 -44977c-70,-3613 1401,-7217 3978,-9793 2620,-2620 6232,-4091 9906,-4091l11481 0c3587,87 7129,1471 9723,4047zm37474 0c-2594,2620 -4073,6224 -4134,9837l-44 99739c18,3673 1541,7199 4135,9810 2620,2603 6137,4117 9723,4056l99739 -52c3700,26 7312,-1445 9906,-4047 2594,-2595 3978,-6137 3961,-9811l17 -11481c70,-3587 -1384,-7199 -4004,-9819 -2568,-2577 -6198,-4048 -9784,-3978l-44978 -70 53953 -53926c5518,-5528 4395,-13562 -836,-18776l-9793 -9810c-5214,-5215 -13249,-6337 -18767,-819l-53935 53961 -61 -44977c61,-3613 -1410,-7217 -3987,-9793 -2620,-2620 -6224,-4091 -9897,-4091l-11490 0c-3587,87 -7130,1471 -9724,4047zm0 277900c-2594,-2594 -4073,-6224 -4134,-9811l-44 -99739c18,-3673 1541,-7199 4135,-9819 2620,-2594 6137,-4108 9723,-4047l99739 43c3700,-17 7312,1454 9906,4048 2594,2603 3978,6145 3961,9819l17 11481c70,3587 -1384,7199 -4004,9819 -2568,2568 -6198,4048 -9784,3978l-44978 70 53953 53926c5518,5528 4395,13553 -836,18768l-9793 9818c-5214,5215 -13249,6338 -18767,810l-53935 -53952 -61 44977c61,3587 -1410,7217 -3987,9793 -2620,2620 -6224,4092 -9897,4092l-11490 0c-3587,-88 -7130,-1472 -9724,-4074z"/>
  <rect class="fil1" x="-1" y="-1" width="471675" height="471676"/>
 </g>
</svg>
