<?xml version="1.0" encoding="UTF-8"?>
<!DOCTYPE svg PUBLIC "-//W3C//DTD SVG 1.1//EN" "http://www.w3.org/Graphics/SVG/1.1/DTD/svg11.dtd">
<!-- Creator: CorelDRAW X8 -->
<svg xmlns="http://www.w3.org/2000/svg" xml:space="preserve" width="64px" height="64px" version="1.1" style="shape-rendering:geometricPrecision; text-rendering:geometricPrecision; image-rendering:optimizeQuality; fill-rule:evenodd; clip-rule:evenodd"
viewBox="0 0 1508047 1508047"
 xmlns:xlink="http://www.w3.org/1999/xlink">
 <defs>
  <style type="text/css">
   <![CDATA[
    .fil1 {fill:none}
    .fil0 {fill:black;fill-rule:nonzero}
   ]]>
  </style>
 </defs>
 <g id="Ebene_x0020_1">
  <metadata id="CorelCorpID_0Corel-Layer"/>
  <path class="fil0" d="M1287431 752159c0,5733 -2004,10715 -6262,14722l-236897 218696c-6707,5761 -13860,7069 -21792,3757 -7737,-3757 -11661,-9852 -11661,-17951l0 -138320 -770443 0c-5733,0 -10520,-1837 -14194,-5483 -3729,-3924 -5566,-8460 -5566,-14193l0 -118560c0,-5900 1837,-10520 5566,-14194 3674,-3729 8461,-5566 14194,-5566l770443 0 0 -138320c0,-8627 3924,-14722 11661,-18034 7932,-3117 15085,-2171 21792,3145l236897 216107c4258,4091 6262,8878 6262,14194z"/>
  <rect class="fil1" x="-5" y="-2" width="1508043" height="1508045"/>
 </g>
</svg>
