<?xml version="1.0" encoding="UTF-8"?>
<!DOCTYPE svg PUBLIC "-//W3C//DTD SVG 1.1//EN" "http://www.w3.org/Graphics/SVG/1.1/DTD/svg11.dtd">
<!-- Creator: CorelDRAW X8 -->
<svg xmlns="http://www.w3.org/2000/svg" xml:space="preserve" width="64px" height="64px" version="1.1" style="shape-rendering:geometricPrecision; text-rendering:geometricPrecision; image-rendering:optimizeQuality; fill-rule:evenodd; clip-rule:evenodd"
viewBox="0 0 373589 373589"
 xmlns:xlink="http://www.w3.org/1999/xlink">
 <defs>
  <style type="text/css">
   <![CDATA[
    .fil1 {fill:none}
    .fil0 {fill:#2B2A29;fill-rule:nonzero}
   ]]>
  </style>
 </defs>
 <g id="Ebene_x0020_1">
  <metadata id="CorelCorpID_0Corel-Layer"/>
  <path class="fil0" d="M282132 81080c2951,0 5378,986 7364,2978 1985,1986 2978,4413 2978,7364l0 58686c0,2875 -958,5344 -2944,7329 -1985,1986 -4488,2979 -7363,2979 -2875,0 -5378,-993 -7357,-2979l-14658 -14658 -44001 44002 44001 44001 14658 -14658c1979,-1986 4447,-2944 7357,-2979 2875,0 5343,1028 7329,3013 1992,1986 2978,4420 2978,7295l35 58728c-35,2909 -1028,5336 -3013,7322 -1986,1985 -4420,2985 -7329,3013l-58721 -28c-2875,-7 -5309,-993 -7295,-2979 -1985,-1985 -3013,-4453 -3013,-7328 35,-2910 993,-5378 2979,-7364l14658 -14658 -44001 -44001 -44001 44001 14657 14658c1986,1986 2979,4482 2979,7364 0,2875 -993,5370 -2979,7356 -1985,1986 -4453,2944 -7329,2951l-58693 0c-2944,0 -5371,-1000 -7356,-2979 -1993,-1992 -2986,-4419 -2986,-7363l0 -58693c0,-2875 1000,-5309 2986,-7295 1985,-1985 4447,-3013 7329,-3013 2909,35 5370,993 7356,2979l14692 14692 44001 -44001 -44035 -44036 -14658 14658c-1986,1986 -4419,2979 -7363,2979 -2875,0 -5309,-993 -7295,-2979 -1985,-1985 -3013,-4454 -3013,-7329l0 -58693c0,-2937 993,-5371 2986,-7363 1985,-1986 4419,-2972 7356,-2972l58693 0c2876,0 5344,1020 7329,3006 1986,1993 2979,4419 2979,7295 0,2950 -993,5377 -2979,7363l-14657 14658 44035 44035 44001 -44001 -14692 -14692c-1986,-1986 -2944,-4447 -2979,-7357 0,-2882 1028,-5343 3013,-7329 1986,-1985 4420,-2978 7295,-2978l58686 0z"/>
  <rect class="fil1" x="-1" y="-1" width="373588" height="373588"/>
 </g>
</svg>
