<?xml version="1.0" encoding="UTF-8"?>
<!DOCTYPE svg PUBLIC "-//W3C//DTD SVG 1.1//EN" "http://www.w3.org/Graphics/SVG/1.1/DTD/svg11.dtd">
<!-- Creator: CorelDRAW X8 -->
<svg xmlns="http://www.w3.org/2000/svg" xml:space="preserve" width="64px" height="64px" version="1.1" style="shape-rendering:geometricPrecision; text-rendering:geometricPrecision; image-rendering:optimizeQuality; fill-rule:evenodd; clip-rule:evenodd"
viewBox="0 0 9392514 9392514"
 xmlns:xlink="http://www.w3.org/1999/xlink">
 <defs>
  <style type="text/css">
   <![CDATA[
    .fil1 {fill:none}
    .fil0 {fill:black;fill-rule:nonzero}
   ]]>
  </style>
 </defs>
 <g id="Ebene_x0020_1">
  <metadata id="CorelCorpID_0Corel-Layer"/>
  <path class="fil0" d="M1374053 4684470c0,35881 12481,66735 39002,91696l1475456 1362266c41774,35708 86322,43855 135724,23228 48188,-23228 72629,-61362 72629,-111804l0 -861318 4798526 0c35708,0 65522,-11440 88403,-34148 23227,-24440 34668,-52695 34668,-88576l0 -738248c0,-36921 -11441,-65695 -34668,-88402 -22881,-23401 -52695,-34668 -88403,-34668l-4798526 0 0 -861492c0,-53735 -24441,-91696 -72629,-112323 -49402,-19414 -93950,-13520 -135724,19587l-1475456 1345799c-26521,25481 -39002,55295 -39002,88403z"/>
  <rect class="fil1" x="-29" y="-13" width="9392494" height="9392505"/>
 </g>
</svg>
