<?xml version="1.0" encoding="UTF-8"?>
<!DOCTYPE svg PUBLIC "-//W3C//DTD SVG 1.1//EN" "http://www.w3.org/Graphics/SVG/1.1/DTD/svg11.dtd">
<!-- Creator: CorelDRAW X8 -->
<svg xmlns="http://www.w3.org/2000/svg" xml:space="preserve" width="64px" height="64px" version="1.1" style="shape-rendering:geometricPrecision; text-rendering:geometricPrecision; image-rendering:optimizeQuality; fill-rule:evenodd; clip-rule:evenodd"
viewBox="0 0 819839 819839"
 xmlns:xlink="http://www.w3.org/1999/xlink">
 <defs>
  <style type="text/css">
   <![CDATA[
    .fil1 {fill:none}
    .fil0 {fill:black;fill-rule:nonzero}
   ]]>
  </style>
 </defs>
 <g id="Ebene_x0020_1">
  <metadata id="CorelCorpID_0Corel-Layer"/>
  <path class="fil0" d="M667298 465326c0,1150 -106,1967 -303,2391 -14797,61973 -45738,112053 -92914,150544 -47070,38491 -102219,57737 -165553,57737 -33725,0 -66316,-6416 -97877,-19155 -31546,-12619 -59582,-30820 -84320,-54317l-44694 44709c-4343,4327 -9623,6506 -15614,6506 -6007,0 -11182,-2179 -15524,-6506 -4448,-4463 -6627,-9638 -6627,-15629l0 -155205c0,-5991 2179,-11181 6627,-15629 4342,-4342 9517,-6521 15524,-6521l155189 0c6007,0 11287,2179 15614,6521 4358,4448 6627,9638 6627,15629 0,6007 -2269,11181 -6627,15630l-47478 47387c16446,15312 34966,27098 55769,35389 20789,8277 42425,12407 64772,12407 31032,0 59900,-7444 86590,-22453 26810,-14994 48325,-35692 64454,-62079 2603,-3934 8700,-17384 18429,-40458 1861,-5371 5280,-7973 10349,-7973l66511 0c3011,0 5599,1044 7777,3313 2270,2179 3299,4766 3299,7762zm8700 -277183l0 155204c0,6007 -2179,11272 -6627,15615 -4343,4357 -9517,6626 -15524,6626l-155189 0c-6007,0 -11287,-2269 -15630,-6626 -4342,-4343 -6627,-9608 -6627,-15615 0,-6006 2285,-11181 6627,-15523l47811 -47796c-34148,-31667 -74500,-47494 -120950,-47494 -30941,0 -59809,7444 -86604,22453 -26796,15100 -48220,35692 -64349,62079 -2602,3934 -8699,17385 -18428,40564 -1861,5265 -5280,7958 -10349,7958l-69008 0c-2996,0 -5583,-1134 -7762,-3313 -2164,-2164 -3298,-4857 -3298,-7868l0 -2375c14993,-61867 46237,-112054 93519,-150545 47387,-38385 102854,-57630 166279,-57630 33725,0 66512,6415 98391,19245 31864,12725 60218,30836 84941,54227l45012 -44710c4342,-4448 9623,-6612 15614,-6612 6007,0 11181,2164 15524,6612 4448,4358 6627,9517 6627,15524z"/>
  <rect class="fil1" x="-3" y="-1" width="819838" height="819839"/>
 </g>
</svg>
