<?xml version="1.0" encoding="UTF-8"?>
<!DOCTYPE svg PUBLIC "-//W3C//DTD SVG 1.1//EN" "http://www.w3.org/Graphics/SVG/1.1/DTD/svg11.dtd">
<!-- Creator: CorelDRAW X8 -->
<svg xmlns="http://www.w3.org/2000/svg" xml:space="preserve" width="64px" height="64px" version="1.1" style="shape-rendering:geometricPrecision; text-rendering:geometricPrecision; image-rendering:optimizeQuality; fill-rule:evenodd; clip-rule:evenodd"
viewBox="0 0 263851 263851"
 xmlns:xlink="http://www.w3.org/1999/xlink">
 <defs>
  <style type="text/css">
   <![CDATA[
    .fil1 {fill:none}
    .fil0 {fill:black;fill-rule:nonzero}
   ]]>
  </style>
 </defs>
 <g id="Ebene_x0020_1">
  <metadata id="CorelCorpID_0Corel-Layer"/>
  <path class="fil0" d="M207463 131935c0,-3496 -1348,-6900 -3802,-9261l-66798 -66827c-2484,-2484 -5858,-3925 -9354,-3925 -3496,0 -6778,1441 -9233,3925l-7698 7698c-2454,2362 -3895,5736 -3895,9232 0,3496 1441,6871 3895,9233l30054 30204 -72223 0c-7391,0 -12022,6170 -12022,13128l0 13157c0,6992 4631,13128 12022,13128l72223 0 -30054 30087c-2454,2484 -3895,5853 -3895,9354 0,3497 1441,6866 3895,9354l7698 7699c2455,2357 5737,3803 9233,3803 3496,0 6870,-1446 9354,-3803l66798 -66861c2454,-2454 3802,-5858 3802,-9325z"/>
  <rect class="fil1" x="-1" width="263850" height="263850"/>
 </g>
</svg>
