<?xml version="1.0" encoding="UTF-8"?>
<!DOCTYPE svg PUBLIC "-//W3C//DTD SVG 1.1//EN" "http://www.w3.org/Graphics/SVG/1.1/DTD/svg11.dtd">
<!-- Creator: CorelDRAW X8 -->
<svg xmlns="http://www.w3.org/2000/svg" xml:space="preserve" width="64px" height="64px" version="1.1" style="shape-rendering:geometricPrecision; text-rendering:geometricPrecision; image-rendering:optimizeQuality; fill-rule:evenodd; clip-rule:evenodd"
viewBox="0 0 9392514 9392514"
 xmlns:xlink="http://www.w3.org/1999/xlink">
 <defs>
  <style type="text/css">
   <![CDATA[
    .fil1 {fill:none}
    .fil0 {fill:black;fill-rule:nonzero}
   ]]>
  </style>
 </defs>
 <g id="Ebene_x0020_1">
  <metadata id="CorelCorpID_0Corel-Layer"/>
  <path class="fil0" d="M2202958 2617756l0 1454483c0,56161 20280,105563 62055,146297 40734,40735 89096,62056 145431,62056l1454482 0c91176,0 155138,-43508 192059,-129831 36748,-84416 21321,-159125 -45588,-223953l-448080 -448080c319983,-296755 698207,-445133 1133633,-445133 224994,0 439240,43681 643779,131044 204539,88229 382038,206446 531456,355864 149244,149244 267634,326743 354823,531282 88403,203672 131911,418959 131911,643952 0,224993 -43508,440106 -131911,644819 -87189,204539 -205579,380998 -354823,530415 -149418,149245 -326917,267635 -531456,355864 -204539,87189 -418785,130870 -643779,130870 -257927,0 -501294,-56161 -731141,-168658 -228807,-112496 -422772,-271621 -580857,-477200 -15600,-21321 -39868,-34841 -74709,-38655 -32934,0 -59108,9707 -81469,28948l-444959 448079c-19414,17508 -29121,39695 -30161,66909 -1040,27041 6760,51308 24267,72802 235567,286008 521749,507015 857158,664233 335583,157044 689540,235567 1061871,235567 337490,0 659380,-66909 966709,-198819 307328,-131911 573056,-309409 796143,-532323 223086,-223086 400411,-487774 532322,-795103 131910,-307502 197779,-630432 197779,-967748 0,-337490 -65869,-660419 -197779,-967748 -131911,-307329 -309236,-572190 -532322,-795103 -223087,-223087 -488815,-400585 -796143,-532323 -307329,-131910 -629219,-197952 -966709,-197952 -319116,0 -626445,60148 -924240,180445 -297622,119257 -562310,288955 -794063,508055l-421732 -418959c-63096,-67775 -138671,-82336 -226900,-45415 -84416,36748 -127057,100710 -127057,191019z"/>
  <rect class="fil1" x="-29" y="-13" width="9392494" height="9392505"/>
 </g>
</svg>
