<?xml version="1.0" encoding="UTF-8"?>
<!DOCTYPE svg PUBLIC "-//W3C//DTD SVG 1.1//EN" "http://www.w3.org/Graphics/SVG/1.1/DTD/svg11.dtd">
<!-- Creator: CorelDRAW X8 -->
<svg xmlns="http://www.w3.org/2000/svg" xml:space="preserve" width="64px" height="64px" version="1.1" style="shape-rendering:geometricPrecision; text-rendering:geometricPrecision; image-rendering:optimizeQuality; fill-rule:evenodd; clip-rule:evenodd"
viewBox="0 0 562939 562939"
 xmlns:xlink="http://www.w3.org/1999/xlink">
 <defs>
  <style type="text/css">
   <![CDATA[
    .fil1 {fill:none}
    .fil0 {fill:black;fill-rule:nonzero}
   ]]>
  </style>
 </defs>
 <g id="Ebene_x0020_1">
  <metadata id="CorelCorpID_0Corel-Layer"/>
  <path class="fil0" d="M340292 373516c-21,4893 1828,9682 5329,13163 7158,7179 19033,7147 26253,-73l91933 -91932c7189,-7169 7220,-19075 41,-26253l-91932 -91933c-7220,-7230 -19147,-7220 -26326,-41 -3501,3480 -5319,8280 -5298,13173l-21 39832 -11802 0 -16996 0 -65503 -11 -123120 -71092c-1673,-976 -3844,-1257 -5558,-779 -1735,447 -3501,1818 -4415,3439l-18129 31416c-956,1621 -1278,3844 -790,5537 468,1735 1849,3502 3449,4426l137156 79185 -136719 78957c-1611,924 -2992,2690 -3460,4436 -478,1693 -166,3916 800,5527l18118 31406c915,1631 2681,2992 4416,3459 1724,478 3896,187 5558,-779l122798 -70915 65399 -21 16996 0 11802 0 21 39873z"/>
  <rect class="fil1" x="-2" y="-1" width="562937" height="562938"/>
 </g>
</svg>
