<?xml version="1.0" encoding="UTF-8"?>
<!DOCTYPE svg PUBLIC "-//W3C//DTD SVG 1.1//EN" "http://www.w3.org/Graphics/SVG/1.1/DTD/svg11.dtd">
<!-- Creator: CorelDRAW X8 -->
<svg xmlns="http://www.w3.org/2000/svg" xml:space="preserve" width="64px" height="64px" version="1.1" style="shape-rendering:geometricPrecision; text-rendering:geometricPrecision; image-rendering:optimizeQuality; fill-rule:evenodd; clip-rule:evenodd"
viewBox="0 0 309274 309274"
 xmlns:xlink="http://www.w3.org/1999/xlink">
 <defs>
  <style type="text/css">
   <![CDATA[
    .fil1 {fill:none}
    .fil0 {fill:black;fill-rule:nonzero}
   ]]>
  </style>
 </defs>
 <g id="Ebene_x0020_1">
  <metadata id="CorelCorpID_0Corel-Layer"/>
  <path class="fil0" d="M66094 154654c0,-4098 1581,-8088 4458,-10856l78292 -78326c2910,-2916 6866,-4600 10964,-4600 4098,0 7945,1684 10822,4600l9023 9018c2871,2768 4561,6724 4561,10822 0,4098 -1690,8053 -4561,10822l-35233 35404 84656 0c8664,0 14092,7232 14092,15388l0 15422c0,8196 -5428,15388 -14092,15388l-84656 0 35233 35261c2871,2911 4561,6867 4561,10965 0,4098 -1690,8053 -4561,10964l-9023 9024c-2877,2762 -6724,4457 -10822,4457 -4098,0 -8054,-1695 -10964,-4457l-78292 -78366c-2877,-2877 -4458,-6866 -4458,-10930z"/>
  <rect class="fil1" x="-1" width="309273" height="309273"/>
 </g>
</svg>
