<?xml version="1.0" encoding="UTF-8"?>
<!DOCTYPE svg PUBLIC "-//W3C//DTD SVG 1.1//EN" "http://www.w3.org/Graphics/SVG/1.1/DTD/svg11.dtd">
<!-- Creator: CorelDRAW X8 -->
<svg xmlns="http://www.w3.org/2000/svg" xml:space="preserve" width="64px" height="64px" version="1.1" style="shape-rendering:geometricPrecision; text-rendering:geometricPrecision; image-rendering:optimizeQuality; fill-rule:evenodd; clip-rule:evenodd"
viewBox="0 0 373589 373589"
 xmlns:xlink="http://www.w3.org/1999/xlink">
 <defs>
  <style type="text/css">
   <![CDATA[
    .fil1 {fill:none}
    .fil0 {fill:black;fill-rule:nonzero}
   ]]>
  </style>
 </defs>
 <g id="Ebene_x0020_1">
  <metadata id="CorelCorpID_0Corel-Layer"/>
  <path class="fil0" d="M58411 276458c0,14348 4819,26289 14520,35983 9631,9638 21628,14458 35927,14458 16485,0 30833,-6074 43098,-18347l142456 -142290c13802,-14071 20759,-30612 20759,-49675 0,-19443 -6736,-35928 -20208,-49510 -13424,-13582 -29853,-20373 -49296,-20373 -19332,0 -36038,6894 -50055,20697l-110961 111134c-1206,1261 -1868,2571 -1868,4047 0,1972 1868,4819 5640,8549 3730,3723 6577,5585 8494,5585 1586,0 3013,-600 4212,-1862l111134 -111292c9687,-9418 20752,-14127 33183,-14127 12983,0 23938,4599 32867,13741 8928,9204 13361,20270 13361,33190 0,12873 -4660,23938 -13913,33191l-142338 142510c-7674,7722 -16547,11556 -26565,11556 -7832,0 -14299,-2572 -19449,-7722 -5144,-5095 -7715,-11611 -7715,-19443 0,-10025 3888,-18836 11555,-26565l106576 -106521c3178,-2957 6846,-4440 10956,-4440 3557,0 6515,1152 8818,3510 2351,2296 3509,5253 3509,8818 0,3888 -1538,7501 -4606,10790l-75199 75192c-1206,1206 -1806,2572 -1806,4054 0,1917 1862,4819 5695,8597 3778,3785 6626,5695 8597,5695 1483,0 2800,-600 4054,-1854l75144 -75199c7722,-7453 11556,-16547 11556,-27275 0,-10025 -3448,-18567 -10404,-25524 -7012,-6957 -15499,-10459 -25524,-10459 -10735,0 -19877,3882 -27330,11555l-106521 106576c-12217,11942 -18353,26345 -18353,43050z"/>
  <rect class="fil1" x="-1" y="-1" width="373588" height="373588"/>
 </g>
</svg>
