<?xml version="1.0" encoding="UTF-8"?>
<!DOCTYPE svg PUBLIC "-//W3C//DTD SVG 1.1//EN" "http://www.w3.org/Graphics/SVG/1.1/DTD/svg11.dtd">
<!-- Creator: CorelDRAW X8 -->
<svg xmlns="http://www.w3.org/2000/svg" xml:space="preserve" width="64px" height="64px" version="1.1" style="shape-rendering:geometricPrecision; text-rendering:geometricPrecision; image-rendering:optimizeQuality; fill-rule:evenodd; clip-rule:evenodd"
viewBox="0 0 290165 290165"
 xmlns:xlink="http://www.w3.org/1999/xlink">
 <defs>
  <style type="text/css">
   <![CDATA[
    .fil1 {fill:none}
    .fil0 {fill:black}
   ]]>
  </style>
 </defs>
 <g id="Ebene_x0020_1">
  <metadata id="CorelCorpID_0Corel-Layer"/>
  <path class="fil0" d="M199591 42444c-36350,0 -72683,0 -109022,0 -9398,0 -17093,7695 -17093,17098 0,62739 0,125440 0,188179l71606 -45062 71607 45062c0,-62739 0,-125440 0,-188179 0,-9403 -7695,-17098 -17098,-17098zm-101697 60837c1243,-1237 2978,-1981 4750,-1981l29008 0 16 -29024c0,-1756 728,-3491 1949,-4718 1243,-1237 2978,-1981 4750,-1981l13409 0c1805,0 3513,744 4750,1965 1242,1243 1981,2962 1981,4750l0 29008 29008 0c1805,0 3513,744 4750,1981 1242,1243 1981,2946 1965,4750l16 13409c0,1773 -739,3513 -1981,4750 -1221,1226 -2961,1965 -4734,1965l-29024 16 0 29008c0,1773 -739,3497 -1981,4734 -1237,1242 -2961,1965 -4750,1981l-13409 0c-1788,-16 -3507,-739 -4750,-1981 -1237,-1221 -1949,-2961 -1965,-4734l0 -29008 -29008 0c-1788,-16 -3507,-739 -4750,-1981 -1237,-1237 -1965,-2961 -1981,-4750l0 -13409c16,-1788 744,-3507 1981,-4750z"/>
  <rect class="fil1" x="-1" width="290164" height="290164"/>
 </g>
</svg>
