<?xml version="1.0" encoding="UTF-8"?>
<!DOCTYPE svg PUBLIC "-//W3C//DTD SVG 1.1//EN" "http://www.w3.org/Graphics/SVG/1.1/DTD/svg11.dtd">
<!-- Creator: CorelDRAW X8 -->
<svg xmlns="http://www.w3.org/2000/svg" xml:space="preserve" width="64px" height="64px" version="1.1" style="shape-rendering:geometricPrecision; text-rendering:geometricPrecision; image-rendering:optimizeQuality; fill-rule:evenodd; clip-rule:evenodd"
viewBox="0 0 471676 471676"
 xmlns:xlink="http://www.w3.org/1999/xlink">
 <defs>
  <style type="text/css">
   <![CDATA[
    .fil1 {fill:none}
    .fil0 {fill:black;fill-rule:nonzero}
   ]]>
  </style>
 </defs>
 <g id="Ebene_x0020_1">
  <metadata id="CorelCorpID_0Corel-Layer"/>
  <path class="fil0" d="M372511 299304c0,4849 -1828,8749 -5466,11560 -1254,4483 -1880,12030 -1880,22598 0,10567 626,18123 1880,22597 3638,3230 5466,7086 5466,11560l0 9793c0,4057 -1410,7495 -4274,10359 -2863,2864 -6302,4265 -10358,4265l-200149 0c-16304,0 -30101,-5675 -41504,-17079 -11403,-11394 -17079,-25200 -17079,-41495l0 -195257c0,-16295 5676,-30092 17079,-41495 11403,-11403 25200,-17079 41504,-17079l200149 0c4056,0 7495,1402 10358,4265 2864,2873 4274,6303 4274,10368l0 205040zm-195256 -137926l0 12238c0,784 418,1611 1193,2446 835,784 1671,1193 2454,1193l129388 0c775,0 1610,-409 2446,-1193 783,-835 1201,-1662 1201,-2446l0 -12238c0,-784 -418,-1620 -1201,-2447 -836,-783 -1671,-1201 -2446,-1201l-129388 0c-783,0 -1619,418 -2454,1201 -775,827 -1193,1663 -1193,2447zm0 39049l0 12239c0,783 418,1610 1193,2446 835,783 1671,1201 2454,1201l129388 0c775,0 1610,-418 2446,-1201 783,-836 1201,-1663 1201,-2446l0 -12239c0,-775 -418,-1610 -1201,-2446 -836,-783 -1671,-1201 -2446,-1201l-129388 0c-783,0 -1619,418 -2454,1201 -775,836 -1193,1671 -1193,2446zm154379 152560c-418,-5310 -627,-11813 -627,-19525 0,-7704 209,-14215 627,-19525l-173904 0c-5310,0 -9845,1924 -13745,5780 -3856,3900 -5788,8435 -5788,13745 0,5310 1932,9845 5788,13745 3900,3856 8435,5780 13745,5780l173904 0z"/>
  <rect class="fil1" x="-1" y="-1" width="471675" height="471676"/>
 </g>
</svg>
