<?xml version="1.0" encoding="UTF-8"?>
<!DOCTYPE svg PUBLIC "-//W3C//DTD SVG 1.1//EN" "http://www.w3.org/Graphics/SVG/1.1/DTD/svg11.dtd">
<!-- Creator: CorelDRAW X8 -->
<svg xmlns="http://www.w3.org/2000/svg" xml:space="preserve" width="64px" height="64px" version="1.1" style="shape-rendering:geometricPrecision; text-rendering:geometricPrecision; image-rendering:optimizeQuality; fill-rule:evenodd; clip-rule:evenodd"
viewBox="0 0 290165 290165"
 xmlns:xlink="http://www.w3.org/1999/xlink">
 <defs>
  <style type="text/css">
   <![CDATA[
    .fil1 {fill:none}
    .fil0 {fill:black}
   ]]>
  </style>
 </defs>
 <g id="Ebene_x0020_1">
  <metadata id="CorelCorpID_0Corel-Layer"/>
  <path class="fil0" d="M58530 55247l19958 0 0 7835c0,7223 5698,13119 12675,13119l1896 0c6977,0 12675,-5896 12675,-13119l0 -7835 25731 0 0 7835c0,7223 5697,13119 12675,13119l1890 0c6978,0 12675,-5896 12675,-13119l0 -7835 25731 0 0 7835c0,7223 5698,13119 12675,13119l1896 0c6978,0 12675,-5896 12675,-13119l0 -7835 19958 0c8847,0 16081,7492 16081,16649l0 169383c0,9152 -7234,16643 -16081,16643l-173110 0c-8847,0 -16081,-7491 -16081,-16643l0 -169383c0,-9157 7234,-16649 16081,-16649zm123919 107212l31456 0c1172,0 2125,991 2125,2207l0 20557c0,1216 -953,2207 -2125,2207l-31456 0c-1172,0 -2126,-991 -2126,-2207l0 -20557c0,-1216 954,-2207 2126,-2207zm0 -37940l31456 0c1172,0 2125,991 2125,2207l0 20557c0,1216 -953,2207 -2125,2207l-31456 0c-1172,0 -2126,-991 -2126,-2207l0 -20557c0,-1216 954,-2207 2126,-2207zm-52500 75880l31455 0c1168,0 2126,991 2126,2207l0 20557c0,1216 -958,2207 -2126,2207l-31455 0c-1173,0 -2126,-991 -2126,-2207l0 -20557c0,-1216 953,-2207 2126,-2207zm0 -37940l31455 0c1168,0 2126,991 2126,2207l0 20557c0,1216 -958,2207 -2126,2207l-31455 0c-1173,0 -2126,-991 -2126,-2207l0 -20557c0,-1216 953,-2207 2126,-2207zm0 -37940l31455 0c1168,0 2126,991 2126,2207l0 20557c0,1216 -958,2207 -2126,2207l-31455 0c-1173,0 -2126,-991 -2126,-2207l0 -20557c0,-1216 953,-2207 2126,-2207zm-52500 75880l31455 0c1168,0 2126,991 2126,2207l0 20557c0,1216 -958,2207 -2126,2207l-31455 0c-1173,0 -2131,-991 -2131,-2207l0 -20557c0,-1216 958,-2207 2131,-2207zm0 -37940l31455 0c1168,0 2126,991 2126,2207l0 20557c0,1216 -958,2207 -2126,2207l-31455 0c-1173,0 -2131,-991 -2131,-2207l0 -20557c0,-1216 958,-2207 2131,-2207zm0 -37940l31455 0c1168,0 2126,991 2126,2207l0 20557c0,1216 -958,2207 -2126,2207l-31455 0c-1173,0 -2131,-991 -2131,-2207l0 -20557c0,-1216 958,-2207 2131,-2207zm13714 -92277l1896 0c5199,0 9457,4402 9457,9789l0 21051c0,5387 -4258,9794 -9457,9794l-1896 0c-5200,0 -9457,-4407 -9457,-9794l0 -21051c0,-5387 4257,-9789 9457,-9789zm105948 0l1896 0c5200,0 9457,4402 9457,9789l0 21051c0,5387 -4257,9794 -9457,9794l-1896 0c-5199,0 -9457,-4407 -9457,-9794l0 -21051c0,-5387 4258,-9789 9457,-9789zm-52971 0l1890 0c5205,0 9462,4402 9462,9789l0 21051c0,5387 -4257,9794 -9462,9794l-1890 0c-5205,0 -9462,-4407 -9462,-9794l0 -21051c0,-5387 4257,-9789 9462,-9789zm-85374 65304l172639 0 0 144419 -172639 0 0 -144419z"/>
  <rect class="fil1" x="-1" width="290164" height="290164"/>
 </g>
</svg>
