<?xml version="1.0" encoding="UTF-8"?>
<!DOCTYPE svg PUBLIC "-//W3C//DTD SVG 1.1//EN" "http://www.w3.org/Graphics/SVG/1.1/DTD/svg11.dtd">
<!-- Creator: CorelDRAW X8 -->
<svg xmlns="http://www.w3.org/2000/svg" xml:space="preserve" width="64px" height="64px" version="1.1" style="shape-rendering:geometricPrecision; text-rendering:geometricPrecision; image-rendering:optimizeQuality; fill-rule:evenodd; clip-rule:evenodd"
viewBox="0 0 1508047 1508047"
 xmlns:xlink="http://www.w3.org/1999/xlink">
 <defs>
  <style type="text/css">
   <![CDATA[
    .fil1 {fill:none}
    .fil0 {fill:black;fill-rule:nonzero}
   ]]>
  </style>
 </defs>
 <g id="Ebene_x0020_1">
  <metadata id="CorelCorpID_0Corel-Layer"/>
  <path class="fil0" d="M723020 1208391c0,-4954 -3006,-18201 -8990,-39548 -5844,-21457 -12858,-45726 -20984,-73056 -8377,-27441 -12858,-43082 -13721,-47201 -557,-1781 -1558,-7932 -3451,-18118 -1865,-10242 -3896,-18369 -5844,-24519 -2060,-6373 -5149,-11216 -9268,-14639 -6707,-6513 -18369,-9630 -34872,-9630 -10381,0 -26301,1225 -47758,3646 -21374,2449 -37488,3646 -48537,3646 -15558,0 -26106,-2449 -32062,-7292 -2616,-2226 -5315,-5956 -7570,-10603 -2254,-4954 -3840,-9463 -5037,-13721 -1308,-4286 -2700,-9796 -4564,-16532 -1781,-6512 -2783,-10798 -3256,-12607 -16894,-58167 -25299,-116333 -25299,-174055 0,-58027 8405,-115971 25299,-174277 473,-1864 1475,-6150 3256,-12663 1864,-6540 3256,-12051 4564,-16364 1197,-4453 2783,-8934 5037,-13693 2255,-4843 4954,-8294 7570,-10548 5956,-5121 16504,-7542 32062,-7542 11049,0 27163,1224 48537,3618 21457,2644 37377,3924 47758,3924 16503,0 28165,-3256 34872,-9602 4119,-3729 7208,-8572 9268,-14722 1948,-6095 3979,-14306 5844,-24631 1893,-10269 2894,-16142 3451,-18034 863,-4091 5344,-19760 13721,-47090 8126,-27330 15140,-51877 20984,-73307 5984,-21374 8990,-34427 8990,-39603 0,-9936 -9992,-21987 -29779,-35902 -19760,-13860 -36932,-23406 -51571,-29000 -9073,-3618 -19203,-5510 -30725,-5510 -15447,0 -37851,4091 -66850,12496 -26161,7764 -47981,16893 -65988,27524 -18090,10854 -34232,25744 -48509,45170 -14555,19287 -24908,35234 -31449,47647 -6707,12690 -16949,34176 -31226,64762 -2616,5511 -4676,9797 -6067,13053 -22321,48593 -37767,97798 -46367,147504 -8766,49622 -13052,105117 -13052,166790 0,61368 4286,116890 13052,166708 8600,49539 24046,98800 46367,147476 25437,55522 44390,92287 56719,109988 28722,41440 69605,70440 122401,86776 1196,362 2727,1002 4119,1392 28999,8210 51403,12329 66850,12329 11522,0 21652,-1865 30725,-5510 14639,-5316 31811,-15113 51571,-29000 19787,-13916 29779,-25967 29779,-35930zm483618 -471428c0,-12496 -4843,-24714 -13637,-33147l-239096 -239234c-8906,-8906 -20984,-14055 -33508,-14055 -12524,0 -24241,5149 -33036,14055l-27552 27552c-8795,8461 -13944,20540 -13944,33036 0,12524 5149,24602 13944,33063l107566 108151 -258521 0c-26467,0 -43055,22042 -43055,47006l0 47062c0,25048 16588,46979 43055,46979l258521 0 -107566 107706c-8795,8905 -13944,20984 -13944,33508 0,12524 5149,24603 13944,33481l27552 27524c8795,8461 20512,13638 33036,13638 12524,0 24602,-5177 33508,-13638l239096 -239290c8794,-8795 13637,-20984 13637,-33397z"/>
  <rect class="fil1" x="-5" y="-2" width="1508043" height="1508045"/>
 </g>
</svg>
