<?xml version="1.0" encoding="UTF-8"?>
<!DOCTYPE svg PUBLIC "-//W3C//DTD SVG 1.1//EN" "http://www.w3.org/Graphics/SVG/1.1/DTD/svg11.dtd">
<!-- Creator: CorelDRAW X8 -->
<svg xmlns="http://www.w3.org/2000/svg" xml:space="preserve" width="64px" height="64px" version="1.1" style="shape-rendering:geometricPrecision; text-rendering:geometricPrecision; image-rendering:optimizeQuality; fill-rule:evenodd; clip-rule:evenodd"
viewBox="0 0 9392514 9392514"
 xmlns:xlink="http://www.w3.org/1999/xlink">
 <defs>
  <style type="text/css">
   <![CDATA[
    .fil1 {fill:none}
    .fil0 {fill:black;fill-rule:nonzero}
   ]]>
  </style>
 </defs>
 <g id="Ebene_x0020_1">
  <metadata id="CorelCorpID_0Corel-Layer"/>
  <path class="fil0" d="M4503158 7526180c0,-30855 -18721,-113364 -55815,-246314 -36574,-133644 -80256,-284795 -130524,-455014 -52521,-170911 -80429,-268327 -85456,-293982 -3640,-11093 -9880,-49401 -21667,-112843 -11614,-63788 -24441,-114403 -36574,-152711 -12654,-39694 -32068,-69855 -57549,-91176 -41774,-40561 -114403,-59975 -217193,-59975 -64655,0 -163804,7627 -297448,22707 -133298,15254 -233660,22708 -302302,22708 -97070,0 -162765,-15254 -199860,-45415 -16120,-13867 -33107,-37094 -46974,-66042 -14041,-30854 -23921,-58935 -31375,-85456 -8320,-26694 -16987,-61015 -28600,-102963 -11094,-40561 -17334,-67255 -20281,-78522 -105043,-362277 -157565,-724555 -157565,-1084058 0,-361411 52522,-722301 157565,-1085445 2947,-11614 9187,-38308 20281,-78869 11613,-40735 20280,-75056 28600,-101923 7454,-27734 17334,-55642 31375,-85283 13867,-30161 30854,-51655 46974,-65695 37095,-31894 102790,-46975 199860,-46975 68642,0 169004,7627 302302,22534 133644,16467 232793,24441 297448,24441 102790,0 175419,-20281 217193,-59802 25481,-23227 44895,-53388 57549,-91696 12133,-37961 24960,-89096 36574,-153404 11787,-63962 18027,-100536 21667,-112324 5027,-25480 32935,-123070 85456,-293288 50268,-170218 93950,-323103 130524,-456573 37094,-133124 55815,-214420 55815,-246661 0,-61882 -62228,-136937 -185472,-223606 -123070,-86323 -229847,-145778 -321196,-180619 -56335,-22534 -119604,-34321 -191192,-34321 -96376,0 -235741,25481 -416532,77829 -162765,48361 -298663,105216 -410812,171432 -112670,67602 -213380,160338 -302129,281328 -90656,120123 -155138,219446 -195873,296755 -41774,79042 -105736,212860 -194485,403359 -16467,34321 -29295,61015 -37961,81295 -138671,302649 -235221,609111 -288782,918694 -54602,309062 -81296,654699 -81296,1038817 0,382211 26694,728021 81296,1038297 53561,308542 150111,615351 288782,918520 158604,345810 276474,574790 353263,685033 179059,258101 433520,438720 762516,540469 7453,2254 16814,6240 25481,8667 180791,51135 320156,76789 416532,76789 71588,0 134857,-11614 191192,-34321 91349,-33108 198126,-94123 321196,-180619 123244,-86669 185472,-161724 185472,-223779zm-356210 -2936179c0,-77829 30160,-153925 84589,-206446l1489497 -1490017c55121,-55469 130523,-87536 208352,-87536 78003,0 151151,32067 205926,87536l171779 171605c54428,52695 86495,127923 86495,205752 0,78003 -32067,153232 -86495,205926l-670300 673593 1610314 0c164671,0 267981,137284 267981,292769l0 293115c0,156005 -103310,292595 -267981,292595l-1610314 0 670300 670820c54428,55468 86495,130697 86495,208699 0,78003 -32067,153231 -86495,208526l-171779 171432c-54775,52695 -127923,84936 -205926,84936 -77829,0 -153231,-32241 -208352,-84936l-1489497 -1490363c-54429,-54775 -84589,-130698 -84589,-208006z"/>
  <rect class="fil1" x="-29" y="-13" width="9392494" height="9392505"/>
 </g>
</svg>
