<?xml version="1.0" encoding="UTF-8"?>
<!DOCTYPE svg PUBLIC "-//W3C//DTD SVG 1.1//EN" "http://www.w3.org/Graphics/SVG/1.1/DTD/svg11.dtd">
<!-- Creator: CorelDRAW X8 -->
<svg xmlns="http://www.w3.org/2000/svg" xml:space="preserve" width="64px" height="64px" version="1.1" style="shape-rendering:geometricPrecision; text-rendering:geometricPrecision; image-rendering:optimizeQuality; fill-rule:evenodd; clip-rule:evenodd"
viewBox="0 0 639608 639608"
 xmlns:xlink="http://www.w3.org/1999/xlink">
 <defs>
  <style type="text/css">
   <![CDATA[
    .fil1 {fill:none}
    .fil0 {fill:black;fill-rule:nonzero}
   ]]>
  </style>
 </defs>
 <g id="Ebene_x0020_1">
  <metadata id="CorelCorpID_0Corel-Layer"/>
  <path class="fil0" d="M294532 548387c0,-2089 -1310,-7731 -3825,-16856 -2526,-9124 -5477,-19453 -8947,-31091 -3565,-11639 -5477,-18332 -5819,-20067 -260,-791 -697,-3388 -1476,-7732 -779,-4343 -1652,-7826 -2526,-10422 -862,-2692 -2172,-4781 -3907,-6257 -2868,-2785 -7814,-4084 -14849,-4084 -4427,0 -11214,520 -20327,1558 -9124,1051 -15982,1570 -20680,1570 -6599,0 -11120,-1038 -13634,-3128 -1133,-956 -2254,-2514 -3210,-4521 -957,-2077 -1653,-3989 -2172,-5819 -520,-1818 -1134,-4167 -1913,-7035 -779,-2774 -1215,-4604 -1392,-5383 -7213,-24753 -10766,-49517 -10766,-74093 0,-24670 3553,-49340 10766,-74188 177,-779 613,-2608 1392,-5382 779,-2786 1393,-5123 1913,-6953 519,-1912 1215,-3824 2172,-5819 956,-2089 2077,-3565 3210,-4521 2514,-2172 7035,-3211 13634,-3211 4698,0 11556,520 20680,1570 9113,1122 15900,1641 20327,1641 7035,0 11981,-1381 14849,-4072 1735,-1570 3045,-3660 3907,-6257 874,-2608 1747,-6079 2526,-10517 779,-4344 1216,-6858 1476,-7637 342,-1747 2254,-8428 5819,-20067 3470,-11638 6421,-22061 8947,-31186 2515,-9124 3825,-14684 3825,-16856 0,-4249 -4261,-9384 -12689,-15286 -8428,-5902 -15723,-9986 -21979,-12335 -3813,-1558 -8157,-2349 -13020,-2349 -6610,0 -16160,1747 -28495,5300 -11119,3305 -20421,7212 -28058,11733 -7731,4604 -14589,10942 -20680,19193 -6162,8251 -10588,15027 -13374,20327 -2868,5382 -7212,14507 -13291,27538 -1122,2349 -1995,4167 -2609,5560 -9467,20669 -16065,41609 -19713,62797 -3730,21117 -5559,44737 -5559,70977 0,26146 1829,49765 5559,70965 3648,21106 10246,42046 19713,62809 10860,23620 18945,39260 24151,46814 12252,17636 29628,29971 52126,36923 519,165 1121,425 1735,602 12335,3470 21885,5217 28495,5217 4863,0 9207,-790 13020,-2349 6256,-2254 13551,-6433 21979,-12335 8428,-5902 12689,-11036 12689,-15286zm46200 -265553c-5040,0 -9384,-1818 -13019,-5465 -3742,-3742 -5560,-8086 -5560,-13291 0,-5123 1818,-9562 5560,-13209 7106,-7212 10670,-15888 10670,-26146 0,-10068 -3564,-18933 -10670,-26488 -3742,-3647 -5560,-8085 -5560,-13126 0,-5028 1818,-9372 5560,-13019 3635,-3742 7979,-5560 13019,-5560 5041,0 9373,1818 13115,5560 14507,14507 21801,32047 21801,52633 0,20504 -7294,38044 -21801,52646 -4085,3647 -8428,5465 -13115,5465zm65748 47169c-3470,3647 -7814,5477 -13114,5477 -5205,0 -9549,-1830 -13031,-5477 -3730,-3730 -5560,-8074 -5560,-13115 0,-5040 1830,-9384 5560,-13114 21719,-22061 32579,-48467 32579,-79051 0,-30666 -10860,-57072 -32579,-79133 -3730,-3648 -5560,-8074 -5560,-13114 0,-5041 1830,-9385 5560,-13032 3647,-3730 7991,-5560 13031,-5560 5040,0 9467,1830 13114,5560 29109,29014 43616,64190 43616,105279 0,41090 -14507,76183 -43616,105280zm52646 52645c-3470,3648 -7814,5465 -13114,5465 -5218,0 -9561,-1817 -13032,-5465 -3730,-3742 -5559,-8085 -5559,-13114 0,-5040 1829,-9384 5559,-13126 17458,-17623 30832,-37784 40216,-60448 9467,-22675 14165,-46484 14165,-71237 0,-24847 -4698,-48561 -14165,-71319 -9384,-22664 -22758,-42825 -40216,-60448 -3730,-3659 -5559,-8086 -5559,-13126 0,-5028 1829,-9372 5559,-13020 3648,-3742 7991,-5559 13032,-5559 5040,0 9467,1817 13114,5559 21105,21106 37348,45257 48561,72358 11285,27185 16845,55680 16845,85555 0,29793 -5560,58371 -16845,85473 -11213,27196 -27456,51252 -48561,72452z"/>
  <rect class="fil1" x="-2" y="-1" width="639607" height="639607"/>
 </g>
</svg>
