<?xml version="1.0" encoding="UTF-8"?>
<!DOCTYPE svg PUBLIC "-//W3C//DTD SVG 1.1//EN" "http://www.w3.org/Graphics/SVG/1.1/DTD/svg11.dtd">
<!-- Creator: CorelDRAW X8 -->
<svg xmlns="http://www.w3.org/2000/svg" xml:space="preserve" width="64px" height="64px" version="1.1" style="shape-rendering:geometricPrecision; text-rendering:geometricPrecision; image-rendering:optimizeQuality; fill-rule:evenodd; clip-rule:evenodd"
viewBox="0 0 819839 819839"
 xmlns:xlink="http://www.w3.org/1999/xlink">
 <defs>
  <style type="text/css">
   <![CDATA[
    .fil0 {fill:none}
    .fil1 {fill:black;fill-rule:nonzero}
   ]]>
  </style>
 </defs>
 <g id="Ebene_x0020_1">
  <metadata id="CorelCorpID_0Corel-Layer"/>
  <rect class="fil0" x="-3" y="-1" width="819838" height="819839"/>
  <path class="fil1" d="M698844 273325c0,-9471 -3783,-18822 -10470,-25706l-50656 -51276c-6793,-6763 -16022,-10591 -25388,-10591 -9350,0 -18580,3828 -25373,10591l-244502 247952 -109557 -111342c-6779,-6763 -16023,-10606 -25374,-10606 -9350,0 -18595,3843 -25388,10606l-50655 51276c-6688,6869 -10470,16219 -10470,25691 0,9471 3782,18822 10470,25706l134930 136594 50655 51276c6794,6763 16038,10606 25389,10606 9350,0 18594,-3843 25388,-10606l50655 -51276 269876 -273204c6687,-6869 10470,-16219 10470,-25691z"/>
 </g>
</svg>
