<?xml version="1.0" encoding="UTF-8"?>
<!DOCTYPE svg PUBLIC "-//W3C//DTD SVG 1.1//EN" "http://www.w3.org/Graphics/SVG/1.1/DTD/svg11.dtd">
<!-- Creator: CorelDRAW X8 -->
<svg xmlns="http://www.w3.org/2000/svg" xml:space="preserve" width="64px" height="64px" version="1.1" style="shape-rendering:geometricPrecision; text-rendering:geometricPrecision; image-rendering:optimizeQuality; fill-rule:evenodd; clip-rule:evenodd"
viewBox="0 0 9392514 9392514"
 xmlns:xlink="http://www.w3.org/1999/xlink">
 <defs>
  <style type="text/css">
   <![CDATA[
    .fil1 {fill:none}
    .fil0 {fill:black;fill-rule:nonzero}
   ]]>
  </style>
 </defs>
 <g id="Ebene_x0020_1">
  <metadata id="CorelCorpID_0Corel-Layer"/>
  <path class="fil0" d="M2226705 899453l4939451 0c159298,0 305422,65348 410118,170565 105043,104350 170392,250301 170392,410292l0 6432067c0,159992 -65349,306116 -170045,410812 -105043,104697 -251167,170045 -410465,170045l-4939451 0c-159298,0 -305422,-65348 -410119,-170391 -105043,-104350 -170391,-250474 -170391,-410466l0 -6432067c0,-159991 65348,-305942 170045,-410812 105043,-104697 251167,-170045 410465,-170045zm4939451 401278l-4939451 0c-49401,0 -94816,19934 -126364,52002 -32587,33454 -53041,78695 -53041,127577l0 6432067c0,48882 20454,94297 53041,126711 31548,32934 76963,53041 126364,53041l4939451 0c49401,0 94816,-20107 126363,-52175 32588,-33280 53042,-78695 53042,-127577l0 -6432067c0,-48882 -20454,-94123 -53042,-126711 -31547,-32934 -76962,-52868 -126363,-52868zm-2896831 1698890l2387736 0 0 401105 -2387736 0 0 -401105zm0 1747944l2387736 0 0 401105 -2387736 0 0 -401105zm0 1748291l2387736 0 0 401105 -2387736 0 0 -401105zm-417226 286008c20107,19588 29814,43682 29814,72629 0,28081 -9707,52175 -29814,71762l-143871 144391c-20107,19761 -44201,29814 -72629,29814 -28080,0 -52174,-10053 -71935,-29814l-312529 -312009 -311663 312009c-20107,19761 -44028,29814 -72628,29814 -28081,0 -52175,-10053 -72109,-29814l-144391 -144391c-19761,-19587 -29814,-43681 -29814,-71762 0,-28947 10053,-53041 29814,-72629l312009 -312182 -312009 -312009c-19761,-19761 -29814,-43681 -29814,-72282 0,-28428 10053,-52522 29814,-72109l144391 -144564c19934,-19587 44028,-29641 72109,-29641 28600,0 52521,10054 72628,29641l311663 312182 312529 -312182c19761,-19587 43855,-29641 71935,-29641 28428,0 52522,10054 72629,29641l143871 144564c20107,19587 29814,43681 29814,72109 0,28601 -9707,52521 -29814,72282l-312009 312009 312009 312182zm388451 -2608742c0,-28601 -11613,-56682 -31721,-77136l-153231 -153231c-20454,-20107 -48534,-31721 -77135,-31721 -28081,0 -56162,11614 -76616,31721l-739635 741368 -331769 -332983c-20454,-20107 -48535,-31721 -76616,-31721 -28601,0 -56162,11614 -77136,31721l-153231 153231c-20107,20454 -31721,48535 -31721,77136 0,28081 11614,56162 31721,76616l408386 408385 153231 153231c20454,20107 48534,31721 77135,31721 28081,0 56162,-11614 76616,-31721l153231 -153231 816770 -816771c20108,-20454 31721,-48534 31721,-76615zm0 -1748465c0,-28427 -11613,-56161 -31721,-76962l-153231 -153231c-20454,-20107 -48534,-31721 -77135,-31721 -28081,0 -56162,11614 -76616,31721l-739635 741368 -331769 -332983c-20454,-20107 -48535,-31721 -76616,-31721 -28601,0 -56162,11614 -77136,31721l-153231 153231c-20107,20801 -31721,48535 -31721,77136 0,28081 11614,56162 31721,76616l408386 408385 153231 153231c20454,20454 48534,31721 77135,31721 28081,0 56162,-11267 76616,-31721l153231 -153231 816770 -816771c20108,-20627 31721,-48188 31721,-76789z"/>
  <rect class="fil1" x="-29" y="-13" width="9392494" height="9392505"/>
 </g>
</svg>
