<?xml version="1.0" encoding="UTF-8"?>
<!DOCTYPE svg PUBLIC "-//W3C//DTD SVG 1.1//EN" "http://www.w3.org/Graphics/SVG/1.1/DTD/svg11.dtd">
<!-- Creator: CorelDRAW X8 -->
<svg xmlns="http://www.w3.org/2000/svg" xml:space="preserve" width="64px" height="64px" version="1.1" style="shape-rendering:geometricPrecision; text-rendering:geometricPrecision; image-rendering:optimizeQuality; fill-rule:evenodd; clip-rule:evenodd"
viewBox="0 0 993230 993230"
 xmlns:xlink="http://www.w3.org/1999/xlink">
 <defs>
  <style type="text/css">
   <![CDATA[
    .fil1 {fill:none}
    .fil0 {fill:black;fill-rule:nonzero}
   ]]>
  </style>
 </defs>
 <g id="Ebene_x0020_1">
  <metadata id="CorelCorpID_0Corel-Layer"/>
  <path class="fil0" d="M840725 351130c0,-11310 -9367,-20713 -20768,-20713l-108331 0 19 1045 0 82833c0,19100 -8744,36202 -22436,47585 1118,4656 1723,9476 1723,14462l0 206213 129025 0c11401,0 20768,-9495 20768,-20805l0 -310620zm20694 -144936c0,-11401 -9385,-20768 -20694,-20768l-497312 0c-11328,0 -20695,9367 -20695,20768l0 63367 327118 0c26432,0 49069,16772 57886,40198l133003 0c11309,0 20694,-9403 20694,-20713l0 -82852zm-398054 332232c0,11328 -9367,20695 -20713,20695l-82944 0c-11309,0 -20676,-9367 -20676,-20695 0,-11310 9367,-20676 20676,-20676l82944 0c11346,0 20713,9366 20713,20676zm186489 -62047c0,-11310 -9385,-20695 -20804,-20695l-455740 0c-11419,0 -20786,9385 -20786,20695l0 310620c0,11310 9367,20787 20786,20787l455740 0c11419,0 20804,-9477 20804,-20787l0 -310620zm20676 -144917c0,-11420 -9366,-20805 -20676,-20805l-497330 0c-11310,0 -20694,9385 -20694,20805l0 82833c0,11328 9384,20695 20694,20695l497330 0c11310,0 20676,-9367 20676,-20695l0 -82833z"/>
  <rect class="fil1" x="-3" y="-1" width="993228" height="993230"/>
 </g>
</svg>
