<?xml version="1.0" encoding="UTF-8"?>
<!DOCTYPE svg PUBLIC "-//W3C//DTD SVG 1.1//EN" "http://www.w3.org/Graphics/SVG/1.1/DTD/svg11.dtd">
<!-- Creator: CorelDRAW X8 -->
<svg xmlns="http://www.w3.org/2000/svg" xml:space="preserve" width="64px" height="64px" version="1.1" style="shape-rendering:geometricPrecision; text-rendering:geometricPrecision; image-rendering:optimizeQuality; fill-rule:evenodd; clip-rule:evenodd"
viewBox="0 0 428626 428626"
 xmlns:xlink="http://www.w3.org/1999/xlink">
 <defs>
  <style type="text/css">
   <![CDATA[
    .fil1 {fill:none}
    .fil0 {fill:black;fill-rule:nonzero}
   ]]>
  </style>
 </defs>
 <g id="Ebene_x0020_1">
  <metadata id="CorelCorpID_0Corel-Layer"/>
  <path class="fil0" d="M199695 156457c0,4810 -3987,8812 -8820,8812l-35359 0c-4825,0 -8828,-4002 -8828,-8812 0,-4825 4003,-8835 8828,-8835l35359 0c4833,0 8820,4010 8820,8835zm79514 -26459c0,-4834 -4003,-8836 -8859,-8836l-194309 0c-4856,0 -8859,4002 -8859,8836l0 132425c0,4810 4003,8860 8859,8860l82283 0 0 -14286c0,-9540 6914,-18502 17213,-20583l9239 -1376c-1408,-1756 -2832,-3504 -4248,-5244 -3148,-3797 -4991,-8385 -4991,-13353 0,-4525 1440,-8314 4279,-12482 7151,-9754 25282,-29403 37606,-29403 4809,0 9413,1748 13194,4667l5229 4050c546,-3385 1210,-6716 2096,-9959 2247,-9366 10592,-15971 20266,-15971l21002 0 0 -27345zm8820 -61796c0,-4856 -4003,-8859 -8820,-8859l-212027 0c-4825,0 -8820,4003 -8820,8859l0 35328c0,4809 3995,8820 8820,8820l212027 0c4817,0 8820,-4011 8820,-8820l0 -35328zm16968 203184c0,17972 -14658,32630 -32630,32630 -17972,0 -32630,-14658 -32630,-32630 0,-17972 14658,-32630 32630,-32630 17972,0 32630,14658 32630,32630zm65259 -13906c0,-2160 -1558,-4177 -3694,-4565l-23327 -3567c-1266,-4232 -3054,-8417 -5237,-12498 4343,-5973 9026,-11613 13369,-17474 648,-886 1036,-1788 1036,-2935 0,-989 -277,-2017 -870,-2776 -5379,-7547 -14294,-15426 -21073,-21667 -870,-759 -2002,-1297 -3149,-1297 -1147,0 -2325,388 -3085,1147l-18082 13661c-3695,-1938 -7507,-3457 -11462,-4715l-3584 -23461c-261,-2160 -2278,-3845 -4572,-3845l-28319 0c-2294,0 -4089,1566 -4572,3584 -2064,7657 -2824,15923 -3694,23722 -3955,1258 -7926,2919 -11612,4826l-17601 -13622c-980,-759 -2159,-1297 -3306,-1297 -4295,0 -21508,18621 -24593,22813 -609,910 -1147,1780 -1147,2927 0,1147 538,2160 1297,3085 4715,5711 9279,11462 13622,17592 -2049,3813 -3694,7610 -4984,11724l-23691 3535c-1891,388 -3457,2714 -3457,4620l0 28287c0,2168 1566,4185 3702,4572l23328 3457c1257,4343 3053,8535 5220,12609 -4342,5972 -9025,11604 -13352,17466 -665,886 -1037,1796 -1037,2943 0,980 262,2017 871,2934 5379,7381 14278,15259 21057,21398 886,870 2017,1400 3164,1400 1147,0 2326,-372 3196,-1147l17972 -13653c3694,1930 7507,3448 11462,4714l3583 23454c261,2168 2278,3844 4572,3844l28319 0c2294,0 4066,-1566 4572,-3583 2065,-7657 2824,-15907 3694,-23715 3955,-1266 7911,-2927 11613,-4833l17600 13772c981,617 2159,1147 3306,1147 4296,0 21509,-18724 24594,-22798 759,-917 1147,-1787 1147,-2934 0,-1147 -538,-2326 -1298,-3196 -4730,-5751 -9294,-11351 -13621,-17601 2048,-3686 3567,-7491 4967,-11612l23573 -3536c2025,-387 3583,-2713 3583,-4603l0 -28303z"/>
  <rect class="fil1" x="-1" y="-1" width="428625" height="428626"/>
 </g>
</svg>
