<?xml version="1.0" encoding="UTF-8"?>
<!DOCTYPE svg PUBLIC "-//W3C//DTD SVG 1.1//EN" "http://www.w3.org/Graphics/SVG/1.1/DTD/svg11.dtd">
<!-- Creator: CorelDRAW X8 -->
<svg xmlns="http://www.w3.org/2000/svg" xml:space="preserve" width="64px" height="64px" version="1.1" style="shape-rendering:geometricPrecision; text-rendering:geometricPrecision; image-rendering:optimizeQuality; fill-rule:evenodd; clip-rule:evenodd"
viewBox="0 0 346060 346060"
 xmlns:xlink="http://www.w3.org/1999/xlink">
 <defs>
  <style type="text/css">
   <![CDATA[
    .fil1 {fill:none}
    .fil0 {fill:black;fill-rule:nonzero}
   ]]>
  </style>
 </defs>
 <g id="Ebene_x0020_1">
  <metadata id="CorelCorpID_0Corel-Layer"/>
  <path class="fil0" d="M197247 164932c0,4406 -3653,8053 -8059,8053l-32310 0c-4406,0 -8060,-3647 -8060,-8053 0,-4407 3654,-8060 8060,-8060l32310 0c4406,0 8059,3653 8059,8060zm72647 -24180c0,-4406 -3653,-8059 -8098,-8059l-177526 0c-4445,0 -8098,3653 -8098,8059l0 120999c0,4407 3653,8098 8098,8098l177526 0c4445,0 8098,-3691 8098,-8098l0 -120999zm8060 -56450c0,-4445 -3653,-8098 -8060,-8098l-193722 0c-4407,0 -8060,3653 -8060,8098l0 32271c0,4407 3653,8060 8060,8060l193722 0c4407,0 8060,-3653 8060,-8060l0 -32271z"/>
  <rect class="fil1" x="-1" width="346059" height="346059"/>
 </g>
</svg>
