<?xml version="1.0" encoding="UTF-8"?>
<!DOCTYPE svg PUBLIC "-//W3C//DTD SVG 1.1//EN" "http://www.w3.org/Graphics/SVG/1.1/DTD/svg11.dtd">
<!-- Creator: CorelDRAW X8 -->
<svg xmlns="http://www.w3.org/2000/svg" xml:space="preserve" width="64px" height="64px" version="1.1" style="shape-rendering:geometricPrecision; text-rendering:geometricPrecision; image-rendering:optimizeQuality; fill-rule:evenodd; clip-rule:evenodd"
viewBox="0 0 993230 993230"
 xmlns:xlink="http://www.w3.org/1999/xlink">
 <defs>
  <style type="text/css">
   <![CDATA[
    .fil1 {fill:none}
    .fil0 {fill:black;fill-rule:nonzero}
   ]]>
  </style>
 </defs>
 <g id="Ebene_x0020_1">
  <metadata id="CorelCorpID_0Corel-Layer"/>
  <path class="fil0" d="M517970 706017l-190504 -190522c-5279,-5389 -7900,-11658 -7900,-18935 0,-7277 2621,-13527 7900,-18916l190504 -190523c5407,-5279 11658,-7900 18935,-7900 7258,0 13546,2621 18935,7900l42727 42856c5389,5279 8028,11658 8028,18935 0,7259 -2639,13527 -8028,18788l-128842 128860 128842 128860c5389,5261 8028,11658 8028,18917 0,7277 -2639,13546 -8028,18806l-42727 42874c-5389,5261 -11677,8029 -18935,8029 -7277,0 -13528,-2768 -18935,-8029zm-300429 -371274c-28833,49381 -43241,103418 -43241,161817 0,58546 14408,112437 43241,161818 28814,49381 67931,88497 117312,117330 49381,28833 103289,43241 161817,43241 58400,0 112308,-14408 161689,-43241 49381,-28833 88498,-67949 117331,-117330 28815,-49381 43222,-103272 43222,-161818 0,-58399 -14407,-112436 -43222,-161817 -28833,-49381 -67950,-88498 -117331,-117202 -49381,-28815 -103289,-43241 -161689,-43241 -58528,0 -112436,14426 -161817,43241 -49381,28704 -88498,67821 -117312,117202z"/>
  <rect class="fil1" x="-3" y="-1" width="993228" height="993230"/>
 </g>
</svg>
