<?xml version="1.0" encoding="UTF-8"?>
<!DOCTYPE svg PUBLIC "-//W3C//DTD SVG 1.1//EN" "http://www.w3.org/Graphics/SVG/1.1/DTD/svg11.dtd">
<!-- Creator: CorelDRAW X8 -->
<svg xmlns="http://www.w3.org/2000/svg" xml:space="preserve" width="64px" height="64px" version="1.1" style="shape-rendering:geometricPrecision; text-rendering:geometricPrecision; image-rendering:optimizeQuality; fill-rule:evenodd; clip-rule:evenodd"
viewBox="0 0 2221364 2221364"
 xmlns:xlink="http://www.w3.org/1999/xlink">
 <defs>
  <style type="text/css">
   <![CDATA[
    .fil1 {fill:none}
    .fil0 {fill:black;fill-rule:nonzero}
   ]]>
  </style>
 </defs>
 <g id="Ebene_x0020_1">
  <metadata id="CorelCorpID_0Corel-Layer"/>
  <path class="fil0" d="M1062840 1579010l426104 -426103c11766,-12053 17628,-26073 17628,-42348 0,-16275 -5862,-30255 -17628,-42307l-426104 -426104c-12052,-11806 -26072,-17669 -42348,-17669 -16234,0 -30254,5863 -42348,17669l-95559 95847c-12053,11806 -17956,26073 -17956,42348 0,16234 5903,30254 17956,42020l288155 288196 -288155 288196c-12053,11765 -17956,26073 -17956,42307 0,16275 5903,30295 17956,42061l95559 95887c12094,11766 26114,17956 42348,17956 16276,0 30296,-6190 42348,-17956zm671911 -830356c64485,110441 96749,231294 96749,361905 0,130938 -32264,251464 -96749,361905 -64444,110441 -151928,197925 -262369,262410 -110441,64485 -230967,96708 -361905,96708 -130611,0 -251178,-32223 -361618,-96708 -110441,-64485 -197884,-151969 -262369,-262410 -64486,-110441 -96708,-230967 -96708,-361905 0,-130611 32222,-251464 96708,-361905 64485,-110441 151928,-197925 262369,-262123 110440,-64445 231007,-96708 361618,-96708 130938,0 251464,32263 361905,96708 110441,64198 197925,151682 262369,262123z"/>
  <rect class="fil1" x="-7" y="-3" width="2221359" height="2221361"/>
 </g>
</svg>
