<?xml version="1.0" encoding="UTF-8"?>
<!DOCTYPE svg PUBLIC "-//W3C//DTD SVG 1.1//EN" "http://www.w3.org/Graphics/SVG/1.1/DTD/svg11.dtd">
<!-- Creator: CorelDRAW X8 -->
<svg xmlns="http://www.w3.org/2000/svg" xml:space="preserve" width="64px" height="64px" version="1.1" style="shape-rendering:geometricPrecision; text-rendering:geometricPrecision; image-rendering:optimizeQuality; fill-rule:evenodd; clip-rule:evenodd"
viewBox="0 0 9392514 9392514"
 xmlns:xlink="http://www.w3.org/1999/xlink">
 <defs>
  <style type="text/css">
   <![CDATA[
    .fil1 {fill:none}
    .fil0 {fill:black;fill-rule:nonzero}
   ]]>
  </style>
 </defs>
 <g id="Ebene_x0020_1">
  <metadata id="CorelCorpID_0Corel-Layer"/>
  <path class="fil0" d="M7024018 3608559c0,-41948 -17680,-80776 -45934,-109030 -27908,-28428 -66736,-46108 -109030,-46108l-4345247 0c-41948,0 -80776,17854 -109030,46108 -28601,27907 -46108,66562 -46108,109030 0,20454 3987,40041 11440,57201 7627,18201 19934,36055 35881,52002l2170197 2173663c16294,15774 34841,28428 54428,36748 16814,7107 35535,11094 55815,11094 19934,0 38828,-3987 55815,-10921 19414,-8493 38135,-21147 54429,-36921l2170196 -2172970c15774,-16640 28081,-34494 35881,-52695 7280,-17160 11267,-36747 11267,-57201zm172992 -328477c84589,84243 137284,200900 137284,328477 0,60841 -13000,121163 -36748,177325 -24094,56855 -58762,108683 -101403,151151l-2173143 2175397c-43681,42641 -94470,76962 -149765,100536 -56508,23574 -116136,36574 -176805,36574 -60841,0 -120470,-13000 -176285,-36574 -55815,-23574 -106776,-57895 -150458,-100536l-2172796 -2175571c-42988,-42294 -77483,-94122 -101577,-150977 -23747,-56162 -36921,-116484 -36921,-177325 0,-126884 53042,-243541 137458,-327957 83722,-84589 200379,-137457 327956,-137457l4345247 0c127230,0 243540,52868 327956,136937z"/>
  <rect class="fil1" x="-29" y="-13" width="9392494" height="9392505"/>
 </g>
</svg>
