<?xml version="1.0" encoding="UTF-8"?>
<!DOCTYPE svg PUBLIC "-//W3C//DTD SVG 1.1//EN" "http://www.w3.org/Graphics/SVG/1.1/DTD/svg11.dtd">
<!-- Creator: CorelDRAW X8 -->
<svg xmlns="http://www.w3.org/2000/svg" xml:space="preserve" width="64px" height="64px" version="1.1" style="shape-rendering:geometricPrecision; text-rendering:geometricPrecision; image-rendering:optimizeQuality; fill-rule:evenodd; clip-rule:evenodd"
viewBox="0 0 1508047 1508047"
 xmlns:xlink="http://www.w3.org/1999/xlink">
 <defs>
  <style type="text/css">
   <![CDATA[
    .fil1 {fill:none}
    .fil0 {fill:black;fill-rule:nonzero}
   ]]>
  </style>
 </defs>
 <g id="Ebene_x0020_1">
  <metadata id="CorelCorpID_0Corel-Layer"/>
  <path class="fil0" d="M1127765 928690c0,6763 -2839,12969 -7403,17506 -4481,4564 -10715,7403 -17506,7403l-697666 0c-6735,0 -12941,-2867 -17505,-7403 -4592,-4481 -7403,-10687 -7403,-17506 0,-3284 668,-6429 1837,-9184 1224,-2922 3228,-5789 5761,-8349l348443 -349000c2616,-2505 5594,-4537 8767,-5900 2671,-1141 5705,-1781 8933,-1781 3229,0 6262,640 8962,1753 3145,1391 6123,3423 8739,5928l348443 348916c2533,2644 4536,5511 5761,8433 1169,2755 1837,5900 1837,9184zm27775 52740c13582,-13526 22042,-32256 22042,-52740 0,-9768 -2115,-19454 -5928,-28471 -3868,-9128 -9434,-17450 -16281,-24268l-348888 -349279c-7042,-6846 -15196,-12356 -24074,-16141 -9045,-3758 -18647,-5873 -28388,-5873 -9768,0 -19342,2115 -28304,5873 -8961,3785 -17116,9295 -24157,16141l-348861 349306c-6874,6791 -12440,15113 -16309,24241 -3812,9017 -5928,18703 -5928,28471 0,20400 8517,39130 22070,52656 13443,13582 32173,22070 52656,22070l697666 0c20428,0 39103,-8488 52684,-21986z"/>
  <rect class="fil1" x="-5" y="-2" width="1508043" height="1508045"/>
 </g>
</svg>
