<?xml version="1.0" encoding="UTF-8"?>
<!DOCTYPE svg PUBLIC "-//W3C//DTD SVG 1.1//EN" "http://www.w3.org/Graphics/SVG/1.1/DTD/svg11.dtd">
<!-- Creator: CorelDRAW X8 -->
<svg xmlns="http://www.w3.org/2000/svg" xml:space="preserve" width="64px" height="64px" version="1.1" style="shape-rendering:geometricPrecision; text-rendering:geometricPrecision; image-rendering:optimizeQuality; fill-rule:evenodd; clip-rule:evenodd"
viewBox="0 0 1508047 1508047"
 xmlns:xlink="http://www.w3.org/1999/xlink">
 <defs>
  <style type="text/css">
   <![CDATA[
    .fil0 {fill:none}
    .fil1 {fill:black;fill-rule:nonzero}
   ]]>
  </style>
 </defs>
 <g id="Ebene_x0020_1">
  <metadata id="CorelCorpID_0Corel-Layer"/>
  <rect class="fil0" x="-5" y="-2" width="1508043" height="1508045"/>
  <path class="fil1" d="M365810 958191c-12886,12858 -19231,28610 -19231,47285 0,18452 6345,34204 19231,47062l93233 94569c12914,12858 28471,19287 46701,19287 18229,0 33814,-6429 46505,-19287l201774 -204251 201580 204251c12913,12858 28471,19287 46700,19287 18257,0 33815,-6429 46700,-19287l93234 -94569c12691,-12858 19231,-28610 19231,-47062 0,-18675 -6540,-34427 -19231,-47285l-201579 -204251 201579 -204084c12691,-12858 19231,-28611 19231,-47257 0,-18480 -6540,-34232 -19231,-47090l-93234 -94570c-12885,-12858 -28443,-19259 -46700,-19259 -18229,0 -33787,6401 -46700,19259l-201580 204279 -201774 -204279c-12691,-12858 -28276,-19259 -46505,-19259 -18230,0 -33787,6401 -46701,19259l-93233 94570c-12886,12858 -19231,28610 -19231,47090 0,18646 6345,34399 19231,47257l201607 204084 -201607 204251z"/>
 </g>
</svg>
