<?xml version="1.0" encoding="UTF-8"?>
<!DOCTYPE svg PUBLIC "-//W3C//DTD SVG 1.1//EN" "http://www.w3.org/Graphics/SVG/1.1/DTD/svg11.dtd">
<!-- Creator: CorelDRAW X8 -->
<svg xmlns="http://www.w3.org/2000/svg" xml:space="preserve" width="64px" height="64px" version="1.1" style="shape-rendering:geometricPrecision; text-rendering:geometricPrecision; image-rendering:optimizeQuality; fill-rule:evenodd; clip-rule:evenodd"
viewBox="0 0 562939 562939"
 xmlns:xlink="http://www.w3.org/1999/xlink">
 <defs>
  <style type="text/css">
   <![CDATA[
    .fil1 {fill:none}
    .fil0 {fill:black;fill-rule:nonzero}
   ]]>
  </style>
 </defs>
 <g id="Ebene_x0020_1">
  <metadata id="CorelCorpID_0Corel-Layer"/>
  <path class="fil0" d="M216289 141955c-2514,0 -4842,1060 -6535,2764 -1704,1672 -2763,4000 -2763,6534l0 260432c0,2514 1070,4841 2763,6535 1673,1714 3989,2763 6535,2763 1226,0 2400,-239 3428,-685 1091,-458 2161,-1195 3117,-2151l130278 -130070c935,-977 1693,-2089 2192,-3262 436,-1008 665,-2141 665,-3346 0,-1205 -229,-2337 -644,-3345 -520,-1164 -1278,-2286 -2213,-3262l-130237 -130070c-997,-946 -2067,-1694 -3158,-2151 -1028,-436 -2202,-686 -3428,-686zm-19688 -10368c5050,-5070 12041,-8228 19688,-8228 3646,0 7262,790 10628,2213 3407,1444 6514,3522 9059,6067l130382 130247c2556,2628 4613,5672 6025,8986 1403,3377 2182,6961 2182,10597 0,3647 -779,7221 -2182,10566 -1412,3345 -3469,6400 -6025,9018l-130393 130226c-2534,2576 -5641,4644 -9048,6088 -3366,1423 -6982,2213 -10628,2213 -7605,0 -14597,-3180 -19656,-8229 -5070,-5028 -8239,-12020 -8239,-19666l0 -260432c0,-7625 3169,-14596 8207,-19666z"/>
  <rect class="fil1" x="-2" y="-1" width="562937" height="562938"/>
 </g>
</svg>
