<?xml version="1.0" encoding="UTF-8"?>
<!DOCTYPE svg PUBLIC "-//W3C//DTD SVG 1.1//EN" "http://www.w3.org/Graphics/SVG/1.1/DTD/svg11.dtd">
<!-- Creator: CorelDRAW X8 -->
<svg xmlns="http://www.w3.org/2000/svg" xml:space="preserve" width="64px" height="64px" version="1.1" style="shape-rendering:geometricPrecision; text-rendering:geometricPrecision; image-rendering:optimizeQuality; fill-rule:evenodd; clip-rule:evenodd"
viewBox="0 0 9392514 9392514"
 xmlns:xlink="http://www.w3.org/1999/xlink">
 <defs>
  <style type="text/css">
   <![CDATA[
    .fil1 {fill:none}
    .fil0 {fill:black}
   ]]>
  </style>
 </defs>
 <g id="Ebene_x0020_1">
  <metadata id="CorelCorpID_0Corel-Layer"/>
  <path class="fil0" d="M1984898 3662987c0,635112 1214582,1124793 2711532,1124793 1497644,0 2711359,-489681 2711359,-1124793l0 -909160c0,-82856 -20454,-162938 -60148,-240594 -114230,472867 -1257050,856639 -2651211,856639 -1393467,0 -2537154,-383772 -2651384,-856639 -38827,77656 -60148,157738 -60148,240594l0 909160zm2711532 -2384096c-1469563,0 -2661264,412718 -2661264,922160 0,509441 1191701,922160 2661264,922160 1469563,0 2661091,-412719 2661091,-922160 0,-509442 -1191528,-922160 -2661091,-922160zm-2711532 4047104c0,635112 1214582,1112486 2711532,1112486 1497644,0 2711359,-477374 2711359,-1112486l0 -909160c0,-83029 -20454,-162938 -60148,-240593 -114230,472867 -1257050,874839 -2651211,874839 -1393467,0 -2537154,-401972 -2651384,-874839 -38827,77655 -60148,157564 -60148,240593l0 909160zm0 1663009l0 0c867,635112 1214582,1124619 2711532,1124619l0 0 0 0c17507,0 35015,0 52522,0 1473376,-11440 2658837,-497134 2658837,-1124619l0 -909160c0,-83029 -20454,-162938 -60148,-240594 -105736,436986 -1092552,804117 -2344402,855772l-4507 0 -4680 867 -5200 0 -4680 0 -4507 0 -4507 693 -4680 0 -28947 867 -4507 0 -4507 693 -4680 0 -5373 0 -4507 0 -4507 0 -4680 693 -5200 0 -23748 867 0 0 -4506 0 -5374 0 -28081 693 -5373 0 -4507 0 -9880 0 -4680 0 -4507 0 -43508 867 -14387 0 -5374 0 -47841 693 -5374 0c-762169,0 -1449109,-117176 -1934109,-300048l0 0c-14388,-5200 -28081,-10574 -41082,-15947l0 0c-67775,-26695 -131737,-54775 -190325,-83723l0 0c-11441,-6067 -23574,-11440 -34321,-17507 -11441,-6067 -22708,-12307 -34148,-18374l0 0c-10747,-5200 -21320,-11440 -32067,-17507l0 0c-10574,-6067 -21321,-12827 -31895,-19067l0 0c-9880,-6067 -19934,-12134 -29814,-18201 -9880,-6760 -19760,-13000 -28947,-19067 -18894,-12827 -37268,-25827 -54775,-38828l0 0c-8321,-6760 -16814,-12827 -25134,-19760 -8321,-6067 -15948,-13001 -24268,-19761l0 0c-7627,-6934 -15254,-13000 -22880,-19761l0 0c-6934,-6933 -14561,-13867 -21321,-20627 -6934,-6933 -13694,-13694 -19761,-20627l0 0c-6933,-6760 -13000,-13694 -19067,-20454l0 0c-6067,-6934 -12134,-13694 -17507,-20627l0 0c-6067,-7627 -11440,-14387 -15947,-21321 -5374,-6760 -10747,-14387 -15254,-21321 -4680,-6760 -9187,-14387 -13694,-21320 -3813,-6760 -7627,-14387 -11440,-21321 -3813,-7627 -7627,-14387 -10747,-22014 -2947,-6933 -6067,-14560 -9014,-22187 -3120,-6760 -5373,-14387 -7627,-21321 -2426,-7627 -4680,-15080 -6240,-22014l-1386 3120 -2427 3814 -1387 3640 -1560 3813 -2253 3814 -1560 3120 -1560 3813 -1560 3814 0 0 -1387 3813 0 0 -1560 3814 -1560 3813 0 0 -1560 2947 0 0 -1560 3813 -1387 3814 -1560 3813 0 0 -1560 3814 0 0 -1560 3813 -694 3814 0 0 -1560 3120 -1560 3813 0 0 -1386 3814 0 0 -867 3813 -1560 3813 -693 3814 0 0 -1560 3813 0 0 -694 3640 -1560 3814 -693 3813 -1560 3120 -867 3814 -693 3813 -694 3814 -1560 3813 -866 3814 -694 3813 -693 3814 -867 3813 -693 3813 -693 3814 -867 3813 -694 3814 0 0 -866 3813 -694 3640 0 0 -693 3814 0 3813 0 0 -867 3814 -693 3813 0 3814 -867 3813 -693 3813 0 3814 -693 3813 0 3814 -867 3813 0 3814 0 3813 -693 3814 0 0 0 3813 0 3813 0 4507 0 3814 0 3813 0 3814 -867 3813 0 909160 0 0z"/>
  <rect class="fil1" x="-29" y="-13" width="9392494" height="9392505"/>
 </g>
</svg>
