<?xml version="1.0" encoding="UTF-8"?>
<!DOCTYPE svg PUBLIC "-//W3C//DTD SVG 1.1//EN" "http://www.w3.org/Graphics/SVG/1.1/DTD/svg11.dtd">
<!-- Creator: CorelDRAW X8 -->
<svg xmlns="http://www.w3.org/2000/svg" xml:space="preserve" width="64px" height="64px" version="1.1" style="shape-rendering:geometricPrecision; text-rendering:geometricPrecision; image-rendering:optimizeQuality; fill-rule:evenodd; clip-rule:evenodd"
viewBox="0 0 263851 263851"
 xmlns:xlink="http://www.w3.org/1999/xlink">
 <defs>
  <style type="text/css">
   <![CDATA[
    .fil0 {fill:none}
    .fil1 {fill:black;fill-rule:nonzero}
   ]]>
  </style>
 </defs>
 <g id="Ebene_x0020_1">
  <metadata id="CorelCorpID_0Corel-Layer"/>
  <rect class="fil0" x="-1" width="263850" height="263850"/>
  <g id="_1622643038800">
   <g>
    <path class="fil1" d="M178832 85029l0 21809c-25,3292 -1729,6491 -4782,8259l-37255 21488c-2932,1953 -6837,2206 -10090,322l-37177 -21464c-3185,-1554 -5381,-4826 -5381,-8605l0 -43624c25,-3287 1729,-6491 4782,-8259l37815 -21809c2839,-1627 6447,-1748 9491,0l37216 21469c3185,1548 5381,4820 5381,8599l0 21815z"/>
   </g>
   <g>
    <path class="fil1" d="M234990 178807l0 21815c-24,3287 -1734,6491 -4782,8258l-37260 21484c-2931,1958 -6837,2211 -10089,326l-37173 -21469c-3189,-1548 -5385,-4820 -5385,-8599l0 -43624c24,-3292 1733,-6491 4781,-8259l37816 -21810c2843,-1631 6452,-1748 9490,0l37216 21464c3190,1554 5386,4826 5386,8605l0 21809z"/>
   </g>
   <g>
    <path class="fil1" d="M123540 178807l0 21815c-24,3287 -1728,6491 -4781,8258l-37256 21484c-2931,1958 -6836,2211 -10089,326l-37178 -21469c-3184,-1548 -5380,-4820 -5380,-8599l0 -43624c24,-3292 1728,-6491 4781,-8259l37816 -21810c2839,-1631 6447,-1748 9490,0l37217 21464c3184,1554 5380,4826 5380,8605l0 21809z"/>
   </g>
  </g>
 </g>
</svg>
