<?xml version="1.0" encoding="UTF-8"?>
<!DOCTYPE svg PUBLIC "-//W3C//DTD SVG 1.1//EN" "http://www.w3.org/Graphics/SVG/1.1/DTD/svg11.dtd">
<!-- Creator: CorelDRAW X8 -->
<svg xmlns="http://www.w3.org/2000/svg" xml:space="preserve" width="64px" height="64px" version="1.1" style="shape-rendering:geometricPrecision; text-rendering:geometricPrecision; image-rendering:optimizeQuality; fill-rule:evenodd; clip-rule:evenodd"
viewBox="0 0 428626 428626"
 xmlns:xlink="http://www.w3.org/1999/xlink">
 <defs>
  <style type="text/css">
   <![CDATA[
    .fil1 {fill:none}
    .fil0 {fill:black;fill-rule:nonzero}
   ]]>
  </style>
 </defs>
 <g id="Ebene_x0020_1">
  <metadata id="CorelCorpID_0Corel-Layer"/>
  <path class="fil0" d="M205169 151252l43862 0c-3543,-16105 -11651,-30510 -22876,-41750 -15307,-15330 -36554,-24822 -60039,-24822 -23502,0 -44733,9492 -60039,24798 -15370,15378 -24862,36609 -24862,60110 0,23478 9492,44733 24799,60039 12862,12799 29790,21556 48687,24103l0 -52018c0,-13898 5688,-26523 14816,-35652 9121,-9120 21746,-14808 35652,-14808zm76856 0l47327 0c13883,0 26531,5688 35652,14808 9120,9129 14808,21754 14808,35652l0 124207c0,13883 -5688,26531 -14808,35652 -9121,9128 -21769,14816 -35652,14816l-124183 0c-13906,0 -26531,-5688 -35652,-14816 -9128,-9121 -14816,-21769 -14816,-35652l0 -39559c-27844,-2705 -52856,-15140 -71540,-33816 -21231,-21279 -34378,-50658 -34378,-82956 0,-32305 13147,-61644 34378,-82891 21318,-21303 50657,-34442 82955,-34442 32305,0 61684,13139 82915,34394 17166,17102 29063,39544 32994,64603zm585 32472c-3219,26721 -15456,50745 -33531,68820 -16501,16492 -37946,28105 -61898,32471l0 40904c0,4913 2049,9453 5292,12696 3243,3243 7760,5292 12696,5292l124183 0c4905,0 9445,-2049 12688,-5292 3244,-3243 5300,-7783 5300,-12696l0 -124207c0,-4928 -2056,-9445 -5300,-12688 -3243,-3243 -7783,-5300 -12688,-5300l-46742 0zm-95429 68123c14982,-3820 28406,-11651 38974,-22220 12174,-12173 20717,-28105 23699,-45903l-44685 0c-4936,0 -9453,2057 -12696,5300 -3243,3243 -5292,7760 -5292,12688l0 50135z"/>
  <rect class="fil1" x="-1" y="-1" width="428625" height="428626"/>
 </g>
</svg>
