<?xml version="1.0" encoding="UTF-8"?>
<!DOCTYPE svg PUBLIC "-//W3C//DTD SVG 1.1//EN" "http://www.w3.org/Graphics/SVG/1.1/DTD/svg11.dtd">
<!-- Creator: CorelDRAW X8 -->
<svg xmlns="http://www.w3.org/2000/svg" xml:space="preserve" width="64px" height="64px" version="1.1" style="shape-rendering:geometricPrecision; text-rendering:geometricPrecision; image-rendering:optimizeQuality; fill-rule:evenodd; clip-rule:evenodd"
viewBox="0 0 346060 346060"
 xmlns:xlink="http://www.w3.org/1999/xlink">
 <defs>
  <style type="text/css">
   <![CDATA[
    .fil1 {fill:none}
    .fil0 {fill:black;fill-rule:nonzero}
   ]]>
  </style>
 </defs>
 <g id="Ebene_x0020_1">
  <metadata id="CorelCorpID_0Corel-Layer"/>
  <path class="fil0" d="M83172 42030l101213 0c11310,0 21618,4630 29059,12070 7434,7434 12064,17723 12064,29052l0 37393 37374 0c11316,0 21624,4637 29058,12071 7434,7434 12071,17729 12071,29059l0 101232c0,11311 -4637,21618 -12071,29052 -7434,7441 -17742,12071 -29058,12071l-101214 0c-11330,0 -21618,-4630 -29052,-12071 -7440,-7434 -12071,-17741 -12071,-29052l0 -37393 -37373 0c-11330,0 -21619,-4636 -29059,-12070 -7434,-7434 -12071,-17742 -12071,-29059l0 -101233c0,-11329 4637,-21618 12071,-29052 7440,-7440 17729,-12070 29059,-12070zm142336 104981l0 37374c0,11317 -4630,21625 -12064,29059 -7441,7434 -17749,12070 -29059,12070l-37374 0 0 37393c0,3998 1673,7696 4317,10340 2644,2644 6323,4317 10340,4317l101214 0c4004,0 7702,-1673 10346,-4317 2644,-2644 4317,-6342 4317,-10340l0 -101232c0,-4018 -1673,-7703 -4317,-10347 -2644,-2644 -6342,-4317 -10346,-4317l-37374 0zm-63840 -26466l37374 0 0 -37393c0,-4017 -1673,-7695 -4317,-10339 -2638,-2644 -6342,-4318 -10340,-4318l-101213 0c-4018,0 -7703,1674 -10347,4318 -2644,2644 -4317,6322 -4317,10339l0 101233c0,4004 1673,7702 4317,10346 2644,2644 6329,4317 10347,4317l37373 0 0 -37373c0,-11330 4631,-21625 12071,-29059 7434,-7434 17722,-12071 29052,-12071zm37374 26466l-37374 0c-4017,0 -7696,1673 -10340,4317 -2644,2644 -4317,6329 -4317,10347l0 37373 37374 0c3998,0 7702,-1673 10340,-4317 2644,-2644 4317,-6342 4317,-10346l0 -37374z"/>
  <rect class="fil1" x="-1" width="346059" height="346059"/>
 </g>
</svg>
