<?xml version="1.0" encoding="UTF-8"?>
<!DOCTYPE svg PUBLIC "-//W3C//DTD SVG 1.1//EN" "http://www.w3.org/Graphics/SVG/1.1/DTD/svg11.dtd">
<!-- Creator: CorelDRAW X8 -->
<svg xmlns="http://www.w3.org/2000/svg" xml:space="preserve" width="64px" height="64px" version="1.1" style="shape-rendering:geometricPrecision; text-rendering:geometricPrecision; image-rendering:optimizeQuality; fill-rule:evenodd; clip-rule:evenodd"
viewBox="0 0 290165 290165"
 xmlns:xlink="http://www.w3.org/1999/xlink">
 <defs>
  <style type="text/css">
   <![CDATA[
    .fil0 {fill:none}
    .fil1 {fill:black;fill-rule:nonzero}
   ]]>
  </style>
 </defs>
 <g id="Ebene_x0020_1">
  <metadata id="CorelCorpID_0Corel-Layer"/>
  <rect class="fil0" x="-1" width="290164" height="290164"/>
  <g id="_2543981736496">
   <path class="fil1" d="M228989 96390c4322,7411 7583,15208 9757,23358 2180,8150 3272,16595 3272,25324 0,17580 -4348,33795 -13029,48671 -4337,7379 -9424,14030 -15309,19910l-33 27c-5911,5912 -12557,11015 -19904,15304 -7417,4332 -15197,7583 -23348,9773 -8134,2174 -16579,3261 -25329,3261 -17543,0 -33768,-4348 -48644,-13034 -7406,-4327 -14062,-9425 -19937,-15304 -5869,-5869 -10972,-12520 -15304,-19937 -4333,-7470 -7599,-15240 -9757,-23342 -2185,-8140 -3272,-16585 -3272,-25329 0,-8740 1087,-17174 3272,-25324 2174,-8156 5430,-15947 9757,-23358 4305,-7374 9419,-14025 15352,-19937 5859,-5864 12504,-10962 19899,-15251 7406,-4348 15198,-7604 23332,-9784 8145,-2179 16579,-3266 25302,-3266 8750,0 17195,1087 25329,3266 8151,2180 15931,5436 23348,9768 7385,4305 14025,9398 19899,15267 5923,5912 11053,12568 15347,19937zm-6704 27754c-1767,-6640 -4450,-13044 -8022,-19160 -3609,-6179 -7818,-11690 -12616,-16477 -4841,-4835 -10330,-9045 -16467,-12600 -6152,-3583 -12546,-6255 -19176,-8033 -6645,-1772 -13623,-2661 -20938,-2661 -7293,0 -14255,889 -20900,2661 -6640,1778 -13023,4450 -19150,8033 -6158,3555 -11652,7765 -16493,12600 -4798,4787 -9012,10292 -12622,16477 -3566,6116 -6243,12520 -8027,19160 -1778,6651 -2656,13623 -2656,20928 0,7298 878,14287 2656,20927 1789,6672 4461,13066 8017,19155 3588,6126 7813,11620 12654,16466 4856,4852 10345,9066 16471,12643 12204,7128 25565,10705 40050,10705 7315,0 14293,-900 20938,-2672 6630,-1767 13024,-4461 19150,-8033 6174,-3609 11679,-7807 16466,-12611l32 -32c4825,-4825 9040,-10308 12611,-16440 7133,-12230 10700,-25591 10700,-40108 0,-7305 -895,-14277 -2678,-20928z"/>
   <path class="fil1" d="M178599 92871l0 70938 -67023 33490 0 -70927 67023 -33501zm-50262 77348l33501 -16767 -33501 -16723 0 33490z"/>
  </g>
 </g>
</svg>
