<?xml version="1.0" encoding="UTF-8"?>
<!DOCTYPE svg PUBLIC "-//W3C//DTD SVG 1.1//EN" "http://www.w3.org/Graphics/SVG/1.1/DTD/svg11.dtd">
<!-- Creator: CorelDRAW X8 -->
<svg xmlns="http://www.w3.org/2000/svg" xml:space="preserve" width="64px" height="64px" version="1.1" style="shape-rendering:geometricPrecision; text-rendering:geometricPrecision; image-rendering:optimizeQuality; fill-rule:evenodd; clip-rule:evenodd"
viewBox="0 0 639608 639608"
 xmlns:xlink="http://www.w3.org/1999/xlink">
 <defs>
  <style type="text/css">
   <![CDATA[
    .fil0 {fill:none}
    .fil1 {fill:black}
   ]]>
  </style>
 </defs>
 <g id="Ebene_x0020_1">
  <metadata id="CorelCorpID_0Corel-Layer"/>
  <rect class="fil0" x="-2" y="-1" width="639607" height="639607"/>
  <path class="fil1" d="M219589 79948l200407 0c21707,0 39472,17753 39472,39461l0 400790c0,21708 -17765,39461 -39472,39461l-200407 0c-21696,0 -39461,-17753 -39461,-39461l0 -400790c0,-21708 17765,-39461 39461,-39461zm100203 389388c10482,0 18981,8499 18981,18981 0,10482 -8499,18981 -18981,18981 -10482,0 -18969,-8499 -18969,-18981 0,-10482 8487,-18981 18969,-18981zm-77410 -162988c-9656,0 -17493,-7838 -17493,-17482 0,-9656 7837,-17493 17493,-17493l157866 0c9656,0 17493,7837 17493,17493 0,9644 -7837,17482 -17493,17482l-157866 0zm0 -67731c-9656,0 -17493,-7826 -17493,-17482 0,-9656 7837,-17493 17493,-17493l157866 0c9656,0 17493,7837 17493,17493 0,9656 -7837,17482 -17493,17482l-157866 0zm0 -67720c-9656,0 -17493,-7837 -17493,-17493 0,-9656 7837,-17482 17493,-17482l157866 0c9656,0 17493,7826 17493,17482 0,9656 -7837,17493 -17493,17493l-157866 0z"/>
 </g>
</svg>
