<?xml version="1.0" encoding="UTF-8"?>
<!DOCTYPE svg PUBLIC "-//W3C//DTD SVG 1.1//EN" "http://www.w3.org/Graphics/SVG/1.1/DTD/svg11.dtd">
<!-- Creator: CorelDRAW X8 -->
<svg xmlns="http://www.w3.org/2000/svg" xml:space="preserve" width="64px" height="64px" version="1.1" style="shape-rendering:geometricPrecision; text-rendering:geometricPrecision; image-rendering:optimizeQuality; fill-rule:evenodd; clip-rule:evenodd"
viewBox="0 0 373589 373589"
 xmlns:xlink="http://www.w3.org/1999/xlink">
 <defs>
  <style type="text/css">
   <![CDATA[
    .fil1 {fill:none}
    .fil0 {fill:black;fill-rule:nonzero}
   ]]>
  </style>
 </defs>
 <g id="Ebene_x0020_1">
  <metadata id="CorelCorpID_0Corel-Layer"/>
  <path class="fil0" d="M315571 100509c4281,0 7936,1565 10914,4736 3027,3124 4516,6943 4516,11425l0 204989c0,4481 -1489,8308 -4516,11431 -2978,3172 -6633,4730 -10914,4730l-154549 0c-4281,0 -7928,-1558 -10914,-4730 -3026,-3123 -4516,-6950 -4516,-11431l0 -48579 -87588 0c-4275,0 -7936,-1558 -10914,-4682 -3027,-3171 -4516,-6991 -4516,-11472l0 -113271c0,-4481 1055,-9466 3220,-14851 2165,-5384 4709,-9666 7735,-12789l65671 -68760c2979,-3171 7067,-5839 12210,-8108 5144,-2268 9901,-3378 14182,-3378l66960 0c4282,0 7936,1565 10914,4737 3027,3123 4523,6949 4523,11479l0 55274c7302,-4530 14176,-6750 20615,-6750l66967 0zm-87582 35893l-48124 50392 48124 0 0 -50392zm-103018 -64733l-48124 50392 48124 0 0 -50392zm31584 109086l50854 -53261 0 -70124 -61817 0 0 70124c0,4482 -1489,8308 -4522,11431 -2979,3172 -6633,4730 -10963,4730l-66911 0 0 107879 82396 0 0 -43146c0,-4530 1055,-9459 3220,-14844 2117,-5385 4709,-9666 7743,-12789zm153824 135519l0 -194213 -61775 0 0 70125c0,4530 -1531,8301 -4516,11472 -3027,3124 -6632,4730 -10955,4730l-66967 0 0 107886 144213 0z"/>
  <rect class="fil1" x="-1" y="-1" width="373588" height="373588"/>
 </g>
</svg>
