<?xml version="1.0" encoding="UTF-8"?>
<!DOCTYPE svg PUBLIC "-//W3C//DTD SVG 1.1//EN" "http://www.w3.org/Graphics/SVG/1.1/DTD/svg11.dtd">
<!-- Creator: CorelDRAW X8 -->
<svg xmlns="http://www.w3.org/2000/svg" xml:space="preserve" width="64px" height="64px" version="1.1" style="shape-rendering:geometricPrecision; text-rendering:geometricPrecision; image-rendering:optimizeQuality; fill-rule:evenodd; clip-rule:evenodd"
viewBox="0 0 993230 993230"
 xmlns:xlink="http://www.w3.org/1999/xlink">
 <defs>
  <style type="text/css">
   <![CDATA[
    .fil1 {fill:none}
    .fil0 {fill:black;fill-rule:nonzero}
   ]]>
  </style>
 </defs>
 <g id="Ebene_x0020_1">
  <metadata id="CorelCorpID_0Corel-Layer"/>
  <path class="fil0" d="M810224 265345c8468,8469 15543,19852 21556,34149 5994,14353 8981,27440 8981,39501l0 516192c0,11896 -4179,22069 -12592,30373 -8286,8450 -18459,12574 -30520,12574l-602251 0c-11878,0 -22069,-4124 -30354,-12574 -8469,-8304 -12575,-18477 -12575,-30373l0 -716960c0,-12061 4106,-22235 12575,-30538 8285,-8395 18476,-12575 30354,-12575l401537 0c12007,0 25168,2970 39447,8982 14352,5994 25680,13143 34148,21556l139694 139693zm-600345 199009l573473 0 0 -82411 -186417 0c-11951,0 -22124,-4180 -30427,-12575 -8396,-8303 -12575,-18476 -12575,-30373l0 -186471 -344054 0 0 311830zm573473 283676l-573473 0 0 92805 573473 0 0 -92805zm-410171 -91834c-1027,0 -2108,275 -3135,807 -989,513 -2016,1191 -2987,1943 -2457,2621 -4913,4857 -7314,6562 -2401,1778 -5041,3208 -7772,4344 -2804,1100 -5774,1888 -8982,2292 -3262,458 -6855,696 -10814,696 -6746,0 -13033,-1485 -18862,-4472 -5829,-2970 -10925,-7259 -15214,-12978 -4344,-5719 -7772,-12684 -10356,-20988 -2457,-8230 -3758,-17670 -3758,-28302 0,-10521 1136,-19833 3428,-28081 2291,-8230 5535,-15196 9715,-20860 4179,-5719 9146,-10063 15049,-13051 5829,-2914 12281,-4399 19374,-4399 6526,0 11952,752 16131,2346 4179,1540 7607,3208 10411,5041 2786,1888 5133,3538 7021,5133 1888,1558 3831,2346 5902,2346 1998,0 3593,-458 4674,-1302 1155,-861 2181,-1888 3098,-2932l12813 -18001c-6691,-7552 -15104,-13674 -25168,-18238 -10008,-4637 -21501,-6984 -34588,-6984 -12813,0 -24599,2402 -35286,7314 -10759,4857 -19906,11676 -27623,20420 -7662,8743 -13656,19210 -17835,31271 -4234,12189 -6416,25515 -6416,39977 0,14408 2017,27679 5958,39795 3941,12134 9550,22601 16918,31399 7332,8799 16241,15617 26762,20585 10522,4912 22363,7387 35505,7387 14481,0 27056,-2640 37577,-7735 10576,-5206 19393,-12685 26359,-22473l-15324 -16570c-1485,-1558 -3208,-2292 -5261,-2292zm167610 -110365l9824 -18128c-6745,-6526 -14865,-11603 -24360,-15159 -9495,-3593 -19778,-5426 -30868,-5426 -9843,0 -18532,1595 -26193,4748 -7662,3153 -14078,7368 -19394,12629 -5205,5206 -9201,11273 -11951,18019 -2731,6800 -4051,13729 -4051,20823 0,8963 1192,16405 3593,22472 2346,6049 5444,11090 9385,15196 3886,4069 8340,7387 13381,9843 4967,2511 10118,4582 15269,6342 5260,1778 10356,3373 15379,4931 4967,1485 9440,3318 13326,5371 3886,2108 7038,4692 9440,7827 2401,3097 3592,7148 3592,12134 0,8743 -2456,15324 -7313,19833 -4858,4454 -11677,6691 -20475,6691 -6012,0 -11273,-862 -15544,-2695 -4418,-1760 -8303,-3758 -11621,-5939 -3263,-2236 -6177,-4234 -8634,-6012 -2511,-1815 -4912,-2731 -7258,-2731 -1723,0 -3373,458 -4858,1374 -1540,789 -2749,1998 -3611,3483l-11364 18238c3592,3886 7827,7442 12519,10522 4802,3098 9880,5774 15214,8010 5316,2218 10906,3996 16680,5151 5848,1246 11621,1888 17505,1888 10302,0 19504,-1668 27514,-4986 7992,-3318 14792,-7772 20346,-13546 5554,-5664 9715,-12354 12629,-20016 2933,-7717 4290,-15947 4290,-24709 0,-8065 -1192,-14921 -3538,-20585 -2401,-5664 -5609,-10411 -9495,-14297 -3941,-3886 -8450,-7149 -13436,-9715 -5022,-2566 -10173,-4802 -15434,-6690 -5205,-1888 -10356,-3666 -15379,-5316 -4985,-1668 -9495,-3556 -13436,-5664 -3959,-2053 -7093,-4583 -9494,-7442 -2347,-2860 -3557,-6507 -3557,-10851 0,-6929 2182,-12538 6636,-16827 4399,-4271 10980,-6453 19796,-6453 4968,0 9312,752 13143,2053 3776,1430 7149,2915 9953,4528 2915,1595 5371,3079 7552,4399 2108,1430 4106,2053 5939,2053 1943,0 3611,-403 4913,-1246 1319,-807 2456,-2182 3446,-4125zm42654 -36531l70955 193895 34534 0 70974 -193895 -30941 0c-3208,0 -5884,843 -8176,2566 -2236,1723 -3721,3666 -4527,5884l-36294 114196c-1613,3941 -3042,8358 -4362,13032 -1302,4748 -2511,9679 -3593,14884 -1265,-5095 -2566,-9953 -4069,-14645 -1485,-4638 -2915,-8982 -4399,-12978l-36477 -114489c-1081,-2511 -2640,-4564 -4747,-6122 -2053,-1540 -4748,-2328 -8121,-2328l-30757 0zm27898 -353293l0 168526 168508 0c-3080,-8578 -6287,-14756 -9880,-18348l-140280 -140280c-3592,-3593 -9770,-6800 -18348,-9898z"/>
  <rect class="fil1" x="-3" y="-1" width="993228" height="993230"/>
 </g>
</svg>
