<?xml version="1.0" encoding="UTF-8"?>
<!DOCTYPE svg PUBLIC "-//W3C//DTD SVG 1.1//EN" "http://www.w3.org/Graphics/SVG/1.1/DTD/svg11.dtd">
<!-- Creator: CorelDRAW X8 -->
<svg xmlns="http://www.w3.org/2000/svg" xml:space="preserve" width="64px" height="64px" version="1.1" style="shape-rendering:geometricPrecision; text-rendering:geometricPrecision; image-rendering:optimizeQuality; fill-rule:evenodd; clip-rule:evenodd"
viewBox="0 0 471676 471676"
 xmlns:xlink="http://www.w3.org/1999/xlink">
 <defs>
  <style type="text/css">
   <![CDATA[
    .fil1 {fill:none}
    .fil0 {fill:black;fill-rule:nonzero}
   ]]>
  </style>
 </defs>
 <g id="Ebene_x0020_1">
  <metadata id="CorelCorpID_0Corel-Layer"/>
  <path class="fil0" d="M378518 275140c-879,3665 -3012,6459 -6416,8435 -3386,1950 -6859,2368 -10480,1323 -3804,-1018 -6598,-3151 -8470,-6398 -1889,-3264 -2342,-6746 -1314,-10550 4700,-17915 5832,-35925 3438,-54083 -2350,-18175 -8191,-35306 -17427,-51297 -9253,-16069 -21161,-29640 -35759,-40825 -14528,-11142 -30676,-19168 -48546,-24060 -3778,-949 -6616,-3134 -8488,-6389 -1880,-3256 -2324,-6747 -1279,-10516 975,-3752 3099,-6555 6354,-8443 3265,-1872 6807,-2351 10542,-1289 21518,5754 41025,15303 58391,28630 17436,13362 31659,29692 42802,49008 11116,19255 18192,39798 21004,61534 2899,21753 1384,43350 -4352,64920zm-53665 -14363c-879,3647 -3003,6450 -6424,8426 -3378,1942 -6842,2385 -10463,1306 -3796,-1001 -6599,-3125 -8479,-6398 -1889,-3247 -2333,-6729 -1297,-10541 5789,-22354 2960,-43463 -8443,-63240 -11456,-19812 -28317,-32826 -50584,-38980 -3769,-967 -6598,-3151 -8487,-6398 -1880,-3256 -2324,-6747 -1271,-10498 966,-3778 3090,-6572 6355,-8444 3264,-1880 6798,-2368 10532,-1314 29640,7886 52151,25217 67471,51767 15329,26558 19046,54640 11090,84314zm-60080 -5954c-3256,1889 -6747,2307 -10455,1323 -3812,-1010 -6607,-3133 -8565,-6520 -1907,-3316 -2377,-6842 -1332,-10602 1915,-7321 992,-14258 -2838,-20883 -3778,-6520 -9366,-10916 -16791,-13144 -3778,-957 -6616,-3134 -8496,-6389 -1872,-3256 -2316,-6746 -1262,-10498 975,-3769 3099,-6564 6354,-8452 3247,-1872 6729,-2325 10533,-1297 14789,3960 26062,12578 33731,25879 7651,13248 9479,27315 5553,42157 -1270,3865 -3403,6668 -6432,8426zm46387 99574c-774,-1358 -3717,-4527 -8748,-9471 -5031,-4953 -10811,-10524 -17383,-16765 -6651,-6189 -10376,-9802 -11247,-10794 -461,-401 -1706,-1924 -3839,-4448 -2132,-2507 -3995,-4440 -5519,-5789 -1558,-1410 -3194,-2281 -4857,-2568 -2890,-757 -6572,261 -11124,2881 -2864,1663 -7051,4518 -12544,8601 -5519,4082 -9749,6955 -12787,8722 -4257,2463 -7565,3482 -9985,3073 -1070,-192 -2393,-792 -3751,-1724 -1411,-992 -2551,-1958 -3587,-2942 -1010,-1001 -2272,-2281 -3856,-3839 -1541,-1515 -2507,-2524 -2899,-2968 -13892,-13310 -25435,-27969 -34619,-43855 -9192,-15947 -16095,-33217 -20699,-51950 -201,-592 -592,-1924 -1115,-4021 -531,-2081 -1018,-3813 -1366,-5188 -375,-1437 -644,-2925 -749,-4588 -174,-1697 9,-3073 374,-4100 819,-2350 3360,-4709 7617,-7181 3038,-1750 7652,-3952 13945,-6703 6320,-2664 10890,-4857 13754,-6511 4535,-2629 7225,-5371 8078,-8174 522,-1662 609,-3490 182,-5519 -417,-2002 -1149,-4570 -2289,-7729 -1114,-3091 -1784,-4875 -1898,-5484 -435,-1245 -1688,-6285 -3725,-15138 -2107,-8809 -4083,-16661 -5858,-23477 -1776,-6842 -3021,-10924 -3813,-12326 -1593,-2750 -6250,-4465 -13902,-5144 -7642,-670 -13892,-592 -18802,226 -3047,409 -6146,1532 -9305,3343 -4266,2463 -9784,7155 -16426,14058 -5937,6276 -10507,12265 -13762,18036 -3256,5867 -5336,12535 -6190,20126 -905,7642 -1244,13666 -1053,18123 148,4552 731,12065 1680,22754 157,1941 253,3439 383,4570 1593,16887 5153,32887 10690,47937 5466,15042 13092,30998 22884,47937 9767,16905 19752,31494 30075,43785 10237,12283 22328,23338 36169,33226 15842,11221 26889,18315 33069,21249 14511,6815 30327,8330 47467,4413 383,-78 888,-139 1349,-235 9262,-2376 16095,-4814 20343,-7269 3152,-1828 5667,-3943 7565,-6389 3194,-3786 6346,-9209 9592,-16165 3230,-6963 4074,-11864 2481,-14606z"/>
  <rect class="fil1" x="-1" y="-1" width="471675" height="471676"/>
 </g>
</svg>
