<?xml version="1.0" encoding="UTF-8"?>
<!DOCTYPE svg PUBLIC "-//W3C//DTD SVG 1.1//EN" "http://www.w3.org/Graphics/SVG/1.1/DTD/svg11.dtd">
<!-- Creator: CorelDRAW X8 -->
<svg xmlns="http://www.w3.org/2000/svg" xml:space="preserve" width="64px" height="64px" version="1.1" style="shape-rendering:geometricPrecision; text-rendering:geometricPrecision; image-rendering:optimizeQuality; fill-rule:evenodd; clip-rule:evenodd"
viewBox="0 0 2221364 2221364"
 xmlns:xlink="http://www.w3.org/1999/xlink">
 <defs>
  <style type="text/css">
   <![CDATA[
    .fil1 {fill:none}
    .fil0 {fill:black;fill-rule:nonzero}
   ]]>
  </style>
 </defs>
 <g id="Ebene_x0020_1">
  <metadata id="CorelCorpID_0Corel-Layer"/>
  <path class="fil0" d="M642025 1774557c-15414,0 -28901,-8896 -36486,-22137l-168859 -168777c-52391,-52433 -78669,-121838 -78628,-191242 -328,-69159 26073,-138605 78669,-191243l675437 -675436c52965,-52597 122247,-78998 191242,-78998 69200,0 138605,26401 191242,78998l235764 235804c52678,52720 79038,122084 79038,191283 0,68954 -26401,138195 -78997,190915l-537406 537651 627472 0c23654,0 42840,20908 42840,46612 0,25704 -19186,46570 -42840,46570l-1178488 0zm110933 -93182l221620 0 308898 -308857 -399907 -399908 -337554 337800c-22466,22425 -33740,52187 -33740,81991 -286,29598 11028,59361 33699,81990l206984 206984z"/>
  <rect class="fil1" x="-7" y="-3" width="2221359" height="2221361"/>
 </g>
</svg>
