<?xml version="1.0" encoding="UTF-8"?>
<!DOCTYPE svg PUBLIC "-//W3C//DTD SVG 1.1//EN" "http://www.w3.org/Graphics/SVG/1.1/DTD/svg11.dtd">
<!-- Creator: CorelDRAW X8 -->
<svg xmlns="http://www.w3.org/2000/svg" xml:space="preserve" width="64px" height="64px" version="1.1" style="shape-rendering:geometricPrecision; text-rendering:geometricPrecision; image-rendering:optimizeQuality; fill-rule:evenodd; clip-rule:evenodd"
viewBox="0 0 9392514 9392514"
 xmlns:xlink="http://www.w3.org/1999/xlink">
 <defs>
  <style type="text/css">
   <![CDATA[
    .fil0 {fill:none}
    .fil1 {fill:black}
   ]]>
  </style>
 </defs>
 <g id="Ebene_x0020_1">
  <metadata id="CorelCorpID_0Corel-Layer"/>
  <rect class="fil0" x="-29" y="-13" width="9392494" height="9392505"/>
  <g id="_1930675888160">
   <path class="fil1" d="M5449412 3631439l241114 240421c287915,288435 431786,667526 431786,1046443 0,378918 -143871,757836 -431786,1046444l-76096 75923c-174725,174205 -457093,174205 -631125,-694 -174031,-174032 -174725,-456226 0,-630432l76096 -75922c113710,-114576 170565,-265208 170565,-415319 0,-150804 -57548,-301608 -170565,-414625l-197259 -197259 1907 -2080 9706 -319463 310450 -693 -141965 -381691 407172 28947z"/>
   <polygon class="fil1" points="5656552,565083 4577694,2790575 4557933,351184 "/>
   <path class="fil1" d="M6702649 4875836l1231396 1249943c287221,286355 430399,665272 431092,1044883l0 6934c-1386,377531 -145257,755235 -431092,1040204l-391225 391918c-287048,286528 -666139,430399 -1046444,430399l0 1387c-378224,0 -757835,-143871 -1045750,-431786l-1748811 -1748638c-287742,-287915 -431613,-667526 -431613,-1045750 0,-378918 143871,-758703 431613,-1046444l76095 -76096c174725,-174032 457094,-174032 631125,0 174725,174032 174725,457094 0,631125l-75402 76096c-114403,113710 -171258,264514 -171258,415319 0,150111 57548,300742 171258,414625l1748291 1748638c113710,113883 264514,170738 414452,170738l1387 693c149418,0 299529,-56855 413932,-171431l391225 -391918c115270,-114404 172125,-264515 172125,-413932l0 -2081c0,-149244 -56855,-298662 -172125,-413758l-814691 -805157c195353,-333850 309756,-590737 214420,-1075911z"/>
   <path class="fil1" d="M2646531 5792622l-1132073 -1137446c-287049,-287222 -486561,-713461 -487081,-1092379l0 -6760c1213,-378398 145257,-755235 430919,-1040897l391398 -391398c287048,-287048 665966,-430399 1046270,-430919l0 -1387c378398,693 758009,143871 1045751,432306l37788 37788 -18547 308369 -299529 -9707 73322 402318 -363144 -51481 -2080 2080 -58935 -58242c-113710,-113710 -264514,-170565 -414626,-170565l-1386 -1387c-149245,0 -299356,57549 -413759,171952l-391398 391398c-115097,115097 -171952,264514 -171952,413759l0 2773c0,148725 56855,298836 171952,413239l776383 768236c-166405,357597 -296582,665966 -219273,1048350z"/>
   <polygon class="fil1" points="6967510,1564899 4883462,3048502 7504166,2678251 "/>
  </g>
 </g>
</svg>
