<?xml version="1.0" encoding="UTF-8"?>
<!DOCTYPE svg PUBLIC "-//W3C//DTD SVG 1.1//EN" "http://www.w3.org/Graphics/SVG/1.1/DTD/svg11.dtd">
<!-- Creator: CorelDRAW X8 -->
<svg xmlns="http://www.w3.org/2000/svg" xml:space="preserve" width="64px" height="64px" version="1.1" style="shape-rendering:geometricPrecision; text-rendering:geometricPrecision; image-rendering:optimizeQuality; fill-rule:evenodd; clip-rule:evenodd"
viewBox="0 0 2221364 2221364"
 xmlns:xlink="http://www.w3.org/1999/xlink">
 <defs>
  <style type="text/css">
   <![CDATA[
    .fil0 {fill:none}
    .fil1 {fill:black}
   ]]>
  </style>
 </defs>
 <g id="Ebene_x0020_1">
  <metadata id="CorelCorpID_0Corel-Layer"/>
  <rect class="fil0" x="-7" y="-3" width="2221359" height="2221361"/>
  <path class="fil1" d="M1585242 994829l291229 295125c67929,67642 101791,157134 101955,246749l0 1640c-328,89124 -34354,178288 -101955,245602l-92526 92567c-67929,67601 -157544,101586 -247487,101586l0 328c-89452,0 -179272,-33985 -247324,-101914l-413641 -412944c-68052,-67970 -102078,-157585 -102078,-246914 0,-89451 34026,-179108 102078,-247078l17996 -17955c41324,-41078 108105,-41078 149264,0 41364,41118 41364,107940 0,149017l-17792 17956c-27098,26893 -40544,62476 -40544,98060 0,35461 13610,71045 40544,97897l413436 412903c26893,26893 62559,40298 98061,40298l327 164c35338,0 70799,-13405 97897,-40462l92526 -92526c27221,-27016 40667,-62477 40667,-97733l0 -492c0,-35255 -13446,-70552 -40667,-97732l-192718 -190095c46201,-78792 73258,-139506 50752,-254047zm-644075 -640918l347639 347106 57065 56778c68052,68134 102078,157586 102078,247078 0,89452 -34026,178944 -102078,247078l-17997 17956c-41323,41077 -108104,41077 -149263,-164 -41200,-41118 -41364,-107776 0,-148853l17956 -17956c26933,-27057 40380,-62641 40380,-98061 0,-35624 -13611,-71208 -40380,-97896l-46653 -46612 492 -492 -353009 -352558 -14430 -13282c-26893,-26852 -62559,-40258 -98061,-40258l-328 -328c-35338,0 -70799,13570 -97896,40586l-92526 92403c-27221,27180 -40668,62476 -40668,97732l0 656c0,35092 13447,70553 40668,97569l183617 181362c-39396,84491 -70184,157299 -51859,247570l-267739 -268600c-67929,-67806 -115074,-168449 -115238,-257901l0 -1640c328,-89287 34354,-178288 101955,-245766l92526 -92403c67929,-67765 157545,-101586 247488,-101750l0 -328c89452,164 179272,33985 247324,102078l8937 8896z"/>
 </g>
</svg>
