<?xml version="1.0" encoding="UTF-8"?>
<!DOCTYPE svg PUBLIC "-//W3C//DTD SVG 1.1//EN" "http://www.w3.org/Graphics/SVG/1.1/DTD/svg11.dtd">
<!-- Creator: CorelDRAW X8 -->
<svg xmlns="http://www.w3.org/2000/svg" xml:space="preserve" width="64px" height="64px" version="1.1" style="shape-rendering:geometricPrecision; text-rendering:geometricPrecision; image-rendering:optimizeQuality; fill-rule:evenodd; clip-rule:evenodd"
viewBox="0 0 290165 290165"
 xmlns:xlink="http://www.w3.org/1999/xlink">
 <defs>
  <style type="text/css">
   <![CDATA[
    .fil1 {fill:none}
    .fil0 {fill:black}
   ]]>
  </style>
 </defs>
 <g id="Ebene_x0020_1">
  <metadata id="CorelCorpID_0Corel-Layer"/>
  <path class="fil0" d="M67259 117333c15320,0 27738,12429 27738,27755 0,15315 -12418,27749 -27738,27749 -15332,0 -27750,-12434 -27750,-27749 0,-15326 12418,-27755 27750,-27755zm77823 0c15321,0 27745,12429 27745,27755 0,15315 -12424,27749 -27745,27749 -15331,0 -27744,-12434 -27744,-27749 0,-15326 12413,-27755 27744,-27755zm77819 0c15331,0 27755,12429 27755,27755 0,15315 -12424,27749 -27755,27749 -15321,0 -27744,-12434 -27744,-27749 0,-15326 12423,-27755 27744,-27755z"/>
  <rect class="fil1" x="-1" width="290164" height="290164"/>
 </g>
</svg>
