<?xml version="1.0" encoding="UTF-8"?>
<!DOCTYPE svg PUBLIC "-//W3C//DTD SVG 1.1//EN" "http://www.w3.org/Graphics/SVG/1.1/DTD/svg11.dtd">
<!-- Creator: CorelDRAW X8 -->
<svg xmlns="http://www.w3.org/2000/svg" xml:space="preserve" width="64px" height="64px" version="1.1" style="shape-rendering:geometricPrecision; text-rendering:geometricPrecision; image-rendering:optimizeQuality; fill-rule:evenodd; clip-rule:evenodd"
viewBox="0 0 562939 562939"
 xmlns:xlink="http://www.w3.org/1999/xlink">
 <defs>
  <style type="text/css">
   <![CDATA[
    .fil1 {fill:none}
    .fil0 {fill:black;fill-rule:nonzero}
   ]]>
  </style>
 </defs>
 <g id="Ebene_x0020_1">
  <metadata id="CorelCorpID_0Corel-Layer"/>
  <path class="fil0" d="M387105 434385c3085,-3158 4695,-6836 4695,-11095 0,-4270 -1610,-7938 -4695,-11106 -3086,-3086 -6836,-4634 -11106,-4634 -4270,0 -7937,1548 -11033,4634 -3159,3168 -4696,6836 -4696,11106 0,4259 1537,7937 4696,11095 3096,3096 6763,4633 11033,4633 4270,0 8020,-1537 11106,-4633zm63009 0c3158,-3158 4706,-6836 4706,-11095 0,-4270 -1548,-7938 -4706,-11106 -3086,-3086 -6763,-4634 -11023,-4634 -4270,0 -8020,1548 -11106,4634 -3096,3168 -4706,6836 -4706,11106 0,4259 1610,7937 4706,11095 3086,3096 6836,4633 11106,4633 4260,0 7937,-1537 11023,-4633zm36174 -66240l0 78821c0,6545 -2275,12134 -6836,16695 -4633,4634 -10212,6909 -16757,6909l-362431 0c-6545,0 -12134,-2275 -16695,-6909 -4633,-4561 -6909,-10150 -6909,-16695l0 -78821c0,-6545 2276,-12135 6909,-16768 4561,-4561 10150,-6846 16695,-6846l114487 0 33235 33462c9557,9195 20736,13828 33525,13828 12799,0 23978,-4633 33452,-13828l33463 -33462 114269 0c6545,0 12124,2285 16757,6846 4561,4633 6836,10223 6836,16768zm-79995 -140086c2795,6774 1694,12509 -3459,17215l-110290 110290c-2940,3168 -6618,4706 -11033,4706 -4478,0 -8156,-1538 -11096,-4706l-110300 -110290c-5070,-4706 -6243,-10441 -3449,-17215 2784,-6389 7646,-9630 14555,-9630l63009 0 0 -110290c0,-4259 1548,-7947 4634,-11033 3169,-3158 6846,-4706 11106,-4706l63009 0c4270,0 8020,1548 11106,4706 3096,3086 4706,6774 4706,11033l0 110290 63009 0c6847,0 11698,3241 14493,9630z"/>
  <rect class="fil1" x="-2" y="-1" width="562937" height="562938"/>
 </g>
</svg>
