<?xml version="1.0" encoding="UTF-8"?>
<!DOCTYPE svg PUBLIC "-//W3C//DTD SVG 1.1//EN" "http://www.w3.org/Graphics/SVG/1.1/DTD/svg11.dtd">
<!-- Creator: CorelDRAW X8 -->
<svg xmlns="http://www.w3.org/2000/svg" xml:space="preserve" width="64px" height="64px" version="1.1" style="shape-rendering:geometricPrecision; text-rendering:geometricPrecision; image-rendering:optimizeQuality; fill-rule:evenodd; clip-rule:evenodd"
viewBox="0 0 373589 373589"
 xmlns:xlink="http://www.w3.org/1999/xlink">
 <defs>
  <style type="text/css">
   <![CDATA[
    .fil1 {fill:none}
    .fil0 {fill:black;fill-rule:nonzero}
   ]]>
  </style>
 </defs>
 <g id="Ebene_x0020_1">
  <metadata id="CorelCorpID_0Corel-Layer"/>
  <path class="fil0" d="M129466 158830c0,-4371 -3613,-7991 -7963,-7991l-111747 0c-4358,0 -7970,3620 -7970,7991 0,2117 896,4130 2371,5619l55833 55901c1544,1489 3516,2386 5626,2386 2137,0 4102,-897 5639,-2386l55832 -55901c1490,-1489 2379,-3502 2379,-5619zm124268 60334c0,-3675 -255,-7142 -759,-10293 -531,-3172 -1351,-6274 -2516,-9246 -1152,-2958 -2910,-5288 -5240,-6998 -2317,-1724 -5068,-2578 -8287,-2578 -4392,4385 -9701,6577 -15975,6577 -6316,0 -11631,-2192 -16009,-6577 -3227,0 -5964,854 -8315,2578 -2317,1710 -4054,4040 -5226,6998 -1145,2972 -1993,6074 -2496,9246 -510,3151 -786,6618 -786,10293 0,3772 1082,6936 3268,9584 2117,2627 4688,3943 7701,3943l43677 0c2999,0 5585,-1316 7736,-3943 2158,-2648 3227,-5812 3227,-9584zm-18857 -31549c3833,-3827 5722,-8501 5722,-13941 0,-5474 -1889,-10121 -5722,-13948 -3820,-3833 -8480,-5736 -13920,-5736 -5481,0 -10135,1903 -13955,5736 -3833,3827 -5743,8474 -5743,13948 0,5440 1910,10114 5743,13941 3820,3812 8474,5715 13955,5715 5440,0 10100,-1903 13920,-5715zm110692 35252l0 -6578c0,-951 -310,-1710 -917,-2358 -613,-620 -1406,-924 -2365,-924l-72144 0c-972,0 -1752,304 -2358,924 -607,648 -917,1407 -917,2358l0 6578c0,930 310,1737 917,2365 606,606 1386,916 2358,916l72144 0c959,0 1752,-310 2365,-916 607,-628 917,-1435 917,-2365zm-39361 -26241l0 -6577c0,-938 -317,-1745 -917,-2372 -620,-586 -1427,-903 -2365,-903l-32783 0c-972,0 -1752,317 -2358,903 -607,627 -917,1434 -917,2372l0 6577c0,958 310,1717 917,2358 606,627 1386,917 2358,917l32783 0c938,0 1745,-290 2365,-917 600,-641 917,-1400 917,-2358zm39361 0l0 -6577c0,-938 -310,-1745 -917,-2372 -613,-586 -1406,-903 -2365,-903l-19684 0c-937,0 -1744,317 -2351,903 -620,627 -917,1434 -917,2372l0 6577c0,958 297,1717 917,2358 607,627 1414,917 2351,917l19684 0c959,0 1752,-290 2365,-917 607,-641 917,-1400 917,-2358zm0 -26248l0 -6549c0,-966 -310,-1759 -917,-2365 -613,-600 -1406,-924 -2365,-924l-72144 0c-972,0 -1752,324 -2358,924 -607,606 -917,1399 -917,2365l0 6549c0,973 310,1731 917,2338 606,634 1386,958 2358,958l72144 0c959,0 1752,-324 2365,-958 607,-607 917,-1365 917,-2338zm-170537 -36065l183658 0 0 -9859c0,-952 -304,-1710 -945,-2351 -607,-628 -1372,-917 -2337,-917l-177094 0c-972,0 -1758,289 -2365,917 -600,641 -917,1399 -917,2351l0 9859zm196764 -9859l0 124640c0,4502 -1579,8356 -4812,11576 -3213,3219 -7060,4840 -11576,4840l-177094 0c-4537,0 -8391,-1621 -11610,-4840 -3199,-3220 -4806,-7074 -4806,-11576l0 -124640c0,-4496 1607,-8356 4806,-11556 3219,-3226 7073,-4819 11610,-4819l177094 0c4516,0 8363,1593 11576,4819 3233,3200 4812,7060 4812,11556z"/>
  <rect class="fil1" x="-1" y="-1" width="373588" height="373588"/>
 </g>
</svg>
