<?xml version="1.0" encoding="UTF-8"?>
<!DOCTYPE svg PUBLIC "-//W3C//DTD SVG 1.1//EN" "http://www.w3.org/Graphics/SVG/1.1/DTD/svg11.dtd">
<!-- Creator: CorelDRAW X8 -->
<svg xmlns="http://www.w3.org/2000/svg" xml:space="preserve" width="64px" height="64px" version="1.1" style="shape-rendering:geometricPrecision; text-rendering:geometricPrecision; image-rendering:optimizeQuality; fill-rule:evenodd; clip-rule:evenodd"
viewBox="0 0 263851 263851"
 xmlns:xlink="http://www.w3.org/1999/xlink">
 <defs>
  <style type="text/css">
   <![CDATA[
    .fil1 {fill:none}
    .fil0 {fill:black;fill-rule:nonzero}
   ]]>
  </style>
 </defs>
 <g id="Ebene_x0020_1">
  <metadata id="CorelCorpID_0Corel-Layer"/>
  <path class="fil0" d="M91505 111664c0,-3082 -2557,-5644 -5639,-5644l-78966 0c-3082,0 -5634,2562 -5634,5644 0,1495 628,2922 1685,3978l39451 39500c1086,1057 2474,1685 3983,1685 1495,0 2893,-628 3974,-1685l39456 -39500c1052,-1056 1690,-2483 1690,-3978zm170768 -30667c-161,1777 -545,3442 -1018,4587 -453,1198 -1022,2059 -1709,2590 -648,570 -1539,857 -2215,857l-44229 0 0 112916c0,710 -282,1772 -871,2522 -609,735 -1583,1339 -2912,1826 -1344,428 -3258,857 -5508,1091 -5356,574 -11033,652 -16365,0 -2294,-263 -4154,-663 -5513,-1091 -1329,-487 -2400,-1188 -2897,-1826 -521,-658 -886,-1622 -886,-2522l0 -112916 -44214 0c-774,0 -1719,-346 -2317,-857 -551,-472 -1155,-1392 -1627,-2590 -409,-1145 -823,-2742 -1018,-4587 -428,-4251 -428,-12758 0,-17004 195,-1909 609,-3555 1018,-4694 472,-1198 1028,-2006 1627,-2532 642,-526 1431,-765 2317,-765l123395 0c783,0 1528,239 2215,765 687,526 1256,1334 1709,2532 473,1139 823,2785 1018,4694 443,4119 370,12909 0,17004z"/>
  <rect class="fil1" x="-1" width="263850" height="263850"/>
 </g>
</svg>
