<?xml version="1.0" encoding="UTF-8"?>
<!DOCTYPE svg PUBLIC "-//W3C//DTD SVG 1.1//EN" "http://www.w3.org/Graphics/SVG/1.1/DTD/svg11.dtd">
<!-- Creator: CorelDRAW X8 -->
<svg xmlns="http://www.w3.org/2000/svg" xml:space="preserve" width="64px" height="64px" version="1.1" style="shape-rendering:geometricPrecision; text-rendering:geometricPrecision; image-rendering:optimizeQuality; fill-rule:evenodd; clip-rule:evenodd"
viewBox="0 0 309274 309274"
 xmlns:xlink="http://www.w3.org/1999/xlink">
 <defs>
  <style type="text/css">
   <![CDATA[
    .fil1 {fill:none}
    .fil0 {fill:black;fill-rule:nonzero}
   ]]>
  </style>
 </defs>
 <g id="Ebene_x0020_1">
  <metadata id="CorelCorpID_0Corel-Layer"/>
  <path class="fil0" d="M106921 131527c0,-3590 -2979,-6587 -6581,-6587l-92275 0c-3607,0 -6587,2997 -6587,6587 0,1758 737,3424 1975,4651l46101 46175c1261,1216 2893,1958 4646,1958 1758,0 3384,-742 4651,-1958l46095 -46175c1239,-1227 1975,-2893 1975,-4651zm110500 121355l85648 0c2540,0 5217,-2163 4641,-4640l-27014 -112429 -160 86c-571,399 -1142,696 -1730,981l-371 291 -5325 2221c-1176,445 -2083,753 -2083,633 -725,263 -1387,468 -1918,571 -1330,297 -2483,428 -3807,616 -3813,588 -6678,566 -10239,40 -651,-57 -1290,-85 -1952,-194 -1245,-165 -2175,-496 -2951,-759 -1216,-165 -2112,-473 -3625,-1061l-2368 -1016c-896,-314 -1695,-668 -2483,-1130 -685,-314 -1324,-680 -1958,-1079l-26957 112229c-559,2426 2089,4640 4652,4640zm12505 -151925c0,1615 -11,2859 223,4463 63,474 131,1141 200,1558l645 3054c331,1033 570,2374 1107,3287 257,377 120,240 257,702 148,640 1421,2928 1832,3625l1067 1655c160,234 251,325 405,559 251,434 560,628 765,1005 194,405 23,211 365,479 309,291 183,149 429,520l850 941c833,925 3093,2854 3259,3037l2152 1524c639,456 1501,1090 2214,1335 708,246 154,-17 634,320 479,377 845,377 1296,611l2522 1044c514,217 788,365 1342,451 1044,148 1860,594 2956,754 508,85 1267,85 1712,154 3088,445 4641,468 7734,17 1541,-234 1376,-86 3179,-503 526,-102 862,-348 1393,-410 582,-80 908,-246 1427,-463l3933 -1655c456,-320 987,-440 1501,-782 308,-245 68,-108 296,-245 274,-183 303,-120 611,-314 360,-246 811,-543 1142,-794l1033 -736c319,-183 268,-251 462,-462l594 -366c194,-148 279,-331 462,-490 211,-206 297,-194 525,-411l2277 -2340c257,-240 177,-320 383,-566 137,-119 308,-205 439,-399 257,-303 143,-308 354,-582l1199 -1524c280,-354 211,-588 485,-896 137,-172 80,-52 240,-291 80,-120 302,-571 331,-617 234,-491 462,-708 702,-1193l399 -959c543,-924 377,-941 685,-1638l582 -1278c183,-537 183,-925 428,-1496 566,-1358 337,-1992 623,-3036 787,-2848 673,-5959 342,-8910 -91,-576 -103,-993 -262,-1518 -229,-679 -149,-1004 -246,-1672 -114,-577 -474,-1473 -673,-2026 -234,-594 34,-343 -805,-2352 -251,-571 -326,-1193 -754,-1570 -216,-205 -205,-371 -348,-616 -91,-223 -428,-531 -673,-1187 -263,-605 -400,-548 -691,-1113 -154,-297 -120,-343 -331,-617 -651,-896 -325,-428 -708,-1192l-222 -274c-269,-394 -548,-976 -891,-1342 -279,-297 -502,-662 -844,-942 -514,-393 -120,0 -440,-502 -251,-348 -1980,-1826 -2374,-2231 -514,-554 -1792,-1490 -2512,-2010 -279,-228 -331,-137 -616,-331 -599,-359 -1638,-1141 -2266,-1438l-2528 -1119c-828,-479 -3351,-1335 -4138,-1432 -263,-29 -526,-40 -754,-114 -308,-86 -285,-166 -656,-263 -263,-34 -605,-80 -868,-125 -2454,-474 -4092,-417 -6546,-417l-1701 91c-1153,0 -2021,217 -3117,451l-6695 2215 -1741 907c-171,114 -371,303 -536,405 -474,263 -662,217 -1130,640 -331,308 -748,405 -1073,713 -474,417 -1587,1090 -2055,1530l-1398 1318c-377,268 -543,582 -908,891 -291,251 -183,251 -428,525 -234,239 -234,154 -451,382 -194,177 -234,377 -405,537l-811 981c-468,668 -1153,1353 -1506,2072l-680 1096c-182,314 -148,382 -274,588 -182,314 -148,63 -382,536 -165,354 -354,959 -576,1308 -309,479 -565,1375 -817,1820 -371,640 -468,1501 -673,2084 -126,325 -126,165 -257,542 -91,239 -108,462 -211,770 -194,571 -217,731 -280,1467 -68,599 -251,856 -319,1478 -92,543 -137,1056 -200,1587 -63,462 -223,1216 -223,1730zm-70683 96019l56306 0 7425 -30924 -14457 -60227 -126 80c-456,308 -890,554 -1352,765l-292 205 -4143 1747c-908,342 -1627,588 -1627,502 -559,189 -1062,360 -1478,434 -1050,245 -1947,337 -2974,491 -2962,445 -5177,416 -7979,17 -502,-46 -993,-69 -1524,-131 -948,-143 -1672,-383 -2289,-600 -936,-154 -1632,-388 -2819,-839l-1833 -782c-713,-245 -1335,-530 -1940,-884 -525,-251 -1010,-520 -1513,-834l-20992 87367c-451,1878 1626,3613 3607,3613zm9749 -118291c0,1273 -18,2243 165,3488 51,376 103,879 154,1215l502 2375c257,805 463,1855 874,2557 171,297 74,194 171,559 137,485 1153,2260 1444,2820l828 1284c137,177 205,257 308,434 205,325 462,496 599,776 166,325 40,166 297,394 251,217 143,108 342,394l657 736c645,719 2403,2220 2534,2357l1672 1193c502,354 1165,851 1735,1033 525,183 109,-28 491,263 371,279 628,279 1005,462l1946 828c405,148 634,279 1062,325 810,137 1449,468 2300,599 394,63 987,63 1335,109 2409,359 3613,376 6033,23 1176,-189 1051,-75 2460,-406 400,-68 657,-239 1091,-308 445,-63 702,-194 1113,-342l3053 -1290c348,-263 748,-366 1159,-628 245,-166 57,-74 245,-188 200,-155 240,-80 474,-252 280,-182 616,-422 879,-587l810 -600c252,-137 206,-188 360,-359l462 -274c154,-132 206,-263 360,-394 165,-154 228,-154 399,-314l1793 -1815c182,-194 125,-263 291,-434 97,-108 222,-171 336,-325 194,-229 109,-240 292,-463l913 -1175c239,-251 171,-451 394,-691 91,-131 45,-57 165,-228 91,-103 246,-434 251,-491 189,-377 383,-542 565,-930l308 -737c417,-725 286,-736 531,-1284l457 -993c148,-417 148,-702 320,-1159 450,-1073 256,-1546 502,-2363 599,-2220 519,-4634 257,-6934 -63,-457 -75,-788 -206,-1182 -165,-531 -108,-793 -188,-1301 -74,-457 -365,-1153 -520,-1587 -188,-462 35,-274 -622,-1821 -205,-451 -251,-953 -576,-1238 -194,-154 -177,-274 -291,-468 -57,-172 -320,-428 -537,-908 -177,-496 -291,-439 -519,-879 -120,-234 -103,-279 -257,-485 -514,-685 -257,-348 -554,-919l-182 -217c-211,-314 -411,-759 -674,-1044 -240,-234 -377,-508 -668,-737 -416,-313 -85,-5 -348,-376 -200,-291 -1541,-1444 -1838,-1752 -405,-434 -1404,-1136 -1952,-1576 -228,-177 -262,-97 -502,-257 -434,-285 -1250,-873 -1741,-1113l-1975 -873c-639,-365 -2608,-1039 -3230,-1113 -194,-17 -400,-23 -571,-74 -240,-97 -217,-137 -514,-211 -205,-40 -473,-69 -684,-103 -1907,-360 -3180,-308 -5103,-308l-1319 51c-896,0 -1569,189 -2431,348l-5188 1735 -1364 691c-149,103 -286,234 -428,320 -377,205 -503,177 -868,513 -263,229 -588,320 -845,560 -365,308 -1221,822 -1586,1181l-1096 1016c-303,189 -423,462 -708,702 -228,183 -166,183 -343,400 -154,188 -176,120 -353,297 -132,148 -183,302 -297,410l-639 788c-360,514 -908,1050 -1176,1615l-531 845c-148,234 -108,291 -217,440 -143,268 -97,57 -291,445 -120,279 -280,736 -445,999 -246,388 -451,1067 -657,1427 -274,502 -342,1158 -513,1615 -103,257 -103,131 -189,422 -68,183 -85,354 -177,599 -154,451 -165,566 -222,1148 -46,468 -183,662 -240,1158 -74,406 -103,817 -154,1233 -51,354 -165,942 -165,1324z"/>
  <rect class="fil1" x="-1" width="309273" height="309273"/>
 </g>
</svg>
