<?xml version="1.0" encoding="UTF-8"?>
<!DOCTYPE svg PUBLIC "-//W3C//DTD SVG 1.1//EN" "http://www.w3.org/Graphics/SVG/1.1/DTD/svg11.dtd">
<!-- Creator: CorelDRAW X8 -->
<svg xmlns="http://www.w3.org/2000/svg" xml:space="preserve" width="64px" height="64px" version="1.1" style="shape-rendering:geometricPrecision; text-rendering:geometricPrecision; image-rendering:optimizeQuality; fill-rule:evenodd; clip-rule:evenodd"
viewBox="0 0 471676 471676"
 xmlns:xlink="http://www.w3.org/1999/xlink">
 <defs>
  <style type="text/css">
   <![CDATA[
    .fil1 {fill:none}
    .fil0 {fill:black;fill-rule:nonzero}
   ]]>
  </style>
 </defs>
 <g id="Ebene_x0020_1">
  <metadata id="CorelCorpID_0Corel-Layer"/>
  <path class="fil0" d="M146266 378613l-24234 0 0 -28969 -28961 0 0 -24234 20578 -20656 53282 53273 -20665 20586zm118594 -210324c0,1358 -453,2716 -1628,3865l-122850 122850c-1088,1149 -2420,1567 -3865,1567 -2899,0 -4918,-2045 -4918,-4944 0,-1358 452,-2777 1540,-3865l122851 -122850c1175,-1149 2507,-1576 3864,-1576 2925,0 5006,2054 5006,4953zm-12248 -43532l-188380 188597 0 94090 94099 0 188588 -188380 -94307 -94307zm154832 21805c0,-7721 -3195,-15172 -8418,-20665l-53256 -52986c-5484,-5484 -12935,-8679 -20656,-8679 -7721,0 -15155,3195 -20369,8679l-37648 37361 94307 94307 37622 -37648c5223,-5214 8418,-12648 8418,-20369z"/>
  <rect class="fil1" x="-1" y="-1" width="471675" height="471676"/>
 </g>
</svg>
