<?xml version="1.0" encoding="UTF-8"?>
<!DOCTYPE svg PUBLIC "-//W3C//DTD SVG 1.1//EN" "http://www.w3.org/Graphics/SVG/1.1/DTD/svg11.dtd">
<!-- Creator: CorelDRAW X8 -->
<svg xmlns="http://www.w3.org/2000/svg" xml:space="preserve" width="64px" height="64px" version="1.1" style="shape-rendering:geometricPrecision; text-rendering:geometricPrecision; image-rendering:optimizeQuality; fill-rule:evenodd; clip-rule:evenodd"
viewBox="0 0 309274 309274"
 xmlns:xlink="http://www.w3.org/1999/xlink">
 <defs>
  <style type="text/css">
   <![CDATA[
    .fil1 {fill:none}
    .fil0 {fill:black;fill-rule:nonzero}
   ]]>
  </style>
 </defs>
 <g id="Ebene_x0020_1">
  <metadata id="CorelCorpID_0Corel-Layer"/>
  <path class="fil0" d="M178050 253824c199,-2180 308,-4914 308,-8128 0,-3339 -109,-6101 -303,-8287 -200,-2255 -531,-4349 -970,-6261 -331,-1444 -793,-2751 -1358,-3899 -400,-879 -942,-1638 -1559,-2288l-80 -80c-553,-583 -1289,-1142 -2146,-1638 -998,-583 -2180,-1062 -3510,-1439l-80 -40c-1518,-439 -3390,-787 -5570,-1016 -2221,-239 -4875,-354 -7917,-354 -3031,0 -5679,115 -7899,354 -2089,217 -4001,577 -5674,1056l-159 40c-1387,371 -2569,839 -3511,1370 -799,451 -1495,987 -2049,1587 -542,576 -1061,1392 -1546,2391 -560,1062 -1016,2397 -1370,3956 -445,1974 -776,4063 -982,6261 -200,2197 -297,4983 -297,8287 0,3225 103,5965 308,8145 212,2215 526,4207 931,5873l40 126c348,1512 787,2779 1295,3795 440,879 982,1667 1581,2312 537,537 1239,1039 2049,1501 999,559 2204,1033 3551,1399l159 39c1661,474 3585,822 5714,1056 2197,229 4828,349 7859,349 3031,0 5679,-120 7877,-349 2220,-245 4109,-576 5610,-1010 1382,-422 2597,-919 3636,-1501 902,-502 1661,-1067 2220,-1644 594,-611 1113,-1347 1558,-2231 548,-1085 1005,-2335 1319,-3716l40 -86c388,-1649 713,-3653 925,-5930zm-4310 -64976c1319,-2602 5988,-129962 6621,-144580l-325 -1244 -377 -314c-474,-331 -1107,-662 -1866,-964 -1096,-406 -2432,-857 -3910,-1222 -1244,-308 -2671,-593 -4269,-787 -1930,-274 -4133,-469 -6553,-583l-8447 -165 -8367 148 -6792 502c-1707,172 -3208,429 -4481,714 -1501,365 -2762,759 -3801,1164 -600,223 -1108,514 -1513,822 -325,171 -473,776 -616,1136l-120 793c611,14298 5377,142360 6569,144580l1165 645 2426 799 3938 697c2951,445 6798,673 11592,673l6461 -154c3362,-342 5782,-616 9075,-1210l2306 -753 1284 -697z"/>
  <rect class="fil1" x="-1" width="309273" height="309273"/>
 </g>
</svg>
