<?xml version="1.0" encoding="UTF-8"?>
<!DOCTYPE svg PUBLIC "-//W3C//DTD SVG 1.1//EN" "http://www.w3.org/Graphics/SVG/1.1/DTD/svg11.dtd">
<!-- Creator: CorelDRAW X8 -->
<svg xmlns="http://www.w3.org/2000/svg" xml:space="preserve" width="64px" height="64px" version="1.1" style="shape-rendering:geometricPrecision; text-rendering:geometricPrecision; image-rendering:optimizeQuality; fill-rule:evenodd; clip-rule:evenodd"
viewBox="0 0 290165 290165"
 xmlns:xlink="http://www.w3.org/1999/xlink">
 <defs>
  <style type="text/css">
   <![CDATA[
    .fil0 {fill:none}
    .fil1 {fill:black}
   ]]>
  </style>
 </defs>
 <g id="Ebene_x0020_1">
  <metadata id="CorelCorpID_0Corel-Layer"/>
  <rect class="fil0" x="-1" width="290164" height="290164"/>
  <path class="fil1" d="M30432 61839l0 166663c0,2967 1034,5826 2062,7893 1328,2656 2437,3824 4407,5778 4016,3979 9666,4916 15444,4916l109557 0c5869,0 11321,-1221 15332,-5253 3893,-3914 6136,-8354 6136,-14442l0 -40725 -19031 0 0 41389 -114875 0 0 -165994 4873 0c867,0 1007,155 1548,155 540,0 674,-155 1547,-155l9741 0c873,0 1007,155 1547,155 541,0 680,-155 1548,-155l9741 0c873,0 1012,155 1547,155 541,0 680,-155 1553,-155l9516 0c873,0 1012,155 1548,155 540,0 680,-155 1553,-155l9735 0c873,0 1012,155 1553,155 535,0 675,-155 1547,-155l4649 0c0,6142 -456,40853 476,44227 450,1633 969,2335 1885,3427 1789,2126 4311,3470 7379,3470l41389 0 0 35193 -65518 0c-2496,0 -4648,2196 -4648,4648l0 9736c0,2757 2479,4648 5756,4648l121735 0 0 19256c0,2977 1960,4868 5087,4868 2169,0 3727,-2067 4927,-3261l8187 -8193c3176,-3171 3604,-3958 7187,-7198 530,-482 492,-680 996,-1215 369,-391 717,-573 1071,-927l3143 -3271c1419,-1420 2672,-2678 4091,-4097 2228,-2222 3379,-2715 3379,-5923 0,-1911 -1745,-3641 -3154,-5033 -1462,-1446 -2752,-2747 -4209,-4204 -2816,-2822 -5478,-5478 -8295,-8300 -1419,-1419 -2677,-2678 -4096,-4097l-3042 -3154c-744,-942 -1001,-653 -2120,-2088l-5345 -5275c-2666,-2645 -7807,-771 -7807,3824l0 19256 -38294 0 0 -52013c0,-9666 -4990,-13510 -10565,-19090 -1124,-1125 -28355,-28580 -29709,-29608 -648,-487 -1328,-1039 -2035,-1505 -1982,-1301 -5842,-2795 -8370,-2918 -3384,-161 -7722,69 -11304,10 -739,-10 -1248,-139 -1585,-155 -729,-43 -739,150 -1725,150l-9516 0c-872,0 -1012,-161 -1547,-161 -541,0 -680,161 -1553,161l-9735 0c-873,0 -1013,-161 -1553,-161 -536,0 -675,161 -1548,161l-9296 0c-932,0 -1232,-161 -1789,-177 -680,-21 -964,177 -1976,177l-9296 0c-868,0 -1007,-161 -1548,-161 -540,0 -674,161 -1547,161 -2142,0 -18480,-182 -20622,182 -6062,1039 -10592,4348 -13591,9425 -1248,2115 -2528,5741 -2528,8980zm101809 32318l30325 0c-1087,-2057 -3598,-3749 -4573,-4724l-8487 -8551c-589,-777 -1211,-1328 -1934,-2051l-7529 -7529c-658,-659 -1199,-1259 -1874,-1880 -434,-396 -626,-439 -980,-793 -1371,-1370 -2383,-3079 -4948,-4798l0 30326z"/>
 </g>
</svg>
