<?xml version="1.0" encoding="UTF-8"?>
<!DOCTYPE svg PUBLIC "-//W3C//DTD SVG 1.1//EN" "http://www.w3.org/Graphics/SVG/1.1/DTD/svg11.dtd">
<!-- Creator: CorelDRAW X8 -->
<svg xmlns="http://www.w3.org/2000/svg" xml:space="preserve" width="64px" height="64px" version="1.1" style="shape-rendering:geometricPrecision; text-rendering:geometricPrecision; image-rendering:optimizeQuality; fill-rule:evenodd; clip-rule:evenodd"
viewBox="0 0 1508047 1508047"
 xmlns:xlink="http://www.w3.org/1999/xlink">
 <defs>
  <style type="text/css">
   <![CDATA[
    .fil0 {fill:none}
    .fil1 {fill:black;fill-rule:nonzero}
   ]]>
  </style>
 </defs>
 <g id="Ebene_x0020_1">
  <metadata id="CorelCorpID_0Corel-Layer"/>
  <rect class="fil0" x="-5" y="-2" width="1508043" height="1508045"/>
  <path class="fil1" d="M1235331 341096l0 467504c0,15780 -5733,29417 -17450,40856 -11438,11716 -25075,17450 -40883,17450 -15808,0 -29612,-5873 -41190,-17450l-114246 -114274 -224846 224735c-5956,5983 -13081,9267 -20985,9267 -7931,0 -15112,-3340 -21012,-9267l-196681 -196626c-5872,-5956 -8989,-13108 -8989,-20985 0,-7931 2866,-14889 8989,-21012l224846 -224762 -114274 -114302c-11577,-11578 -17450,-25326 -17450,-41134 0,-15808 5706,-29445 17450,-40912 11467,-11689 25104,-17422 40912,-17422l467476 0c15808,0 29445,5733 40883,17422 11717,11467 17450,25104 17450,40912zm-273466 691376l0 -47953 0 -10938c0,-106258 114858,-106063 114858,0l0 5873 0 53018 0 106759c0,23684 -8433,44251 -25131,60950 -16671,16671 -37043,25103 -60922,25103l-631707 0c-24046,0 -44418,-8405 -61089,-25103 -16698,-16699 -25131,-37043 -25131,-60950l0 -631818c0,-23934 8572,-44390 25131,-60977 16532,-16559 37043,-25104 61089,-25104l189640 0c106287,0 106092,114859 0,114859l-161002 0 0 574235 574264 0 0 -77954z"/>
 </g>
</svg>
