<?xml version="1.0" encoding="UTF-8"?>
<!DOCTYPE svg PUBLIC "-//W3C//DTD SVG 1.1//EN" "http://www.w3.org/Graphics/SVG/1.1/DTD/svg11.dtd">
<!-- Creator: CorelDRAW X8 -->
<svg xmlns="http://www.w3.org/2000/svg" xml:space="preserve" width="64px" height="64px" version="1.1" style="shape-rendering:geometricPrecision; text-rendering:geometricPrecision; image-rendering:optimizeQuality; fill-rule:evenodd; clip-rule:evenodd"
viewBox="0 0 309274 309274"
 xmlns:xlink="http://www.w3.org/1999/xlink">
 <defs>
  <style type="text/css">
   <![CDATA[
    .fil1 {fill:none}
    .fil0 {fill:black;fill-rule:nonzero}
   ]]>
  </style>
 </defs>
 <g id="Ebene_x0020_1">
  <metadata id="CorelCorpID_0Corel-Layer"/>
  <path class="fil0" d="M109176 204636l10387 -18784c-7722,-5616 -13766,-12660 -18110,-21181 -4338,-8556 -6529,-17551 -6529,-27071 0,-10748 2705,-20736 8122,-30011 -20342,10428 -37260,26112 -50753,47054 14806,22927 33795,39605 56883,49993zm49998 -96613c1233,-1273 1872,-2786 1872,-4538 0,-1786 -639,-3305 -1872,-4538 -1232,-1232 -2745,-1866 -4537,-1866 -11107,0 -20616,3978 -28584,11940 -7962,7923 -11940,17477 -11940,28579 0,1757 639,3270 1872,4543 1233,1233 2745,1866 4537,1866 1747,0 3265,-633 4538,-1866 1238,-1273 1872,-2786 1872,-4543 0,-7643 2705,-14172 8116,-19583 5417,-5411 11946,-8162 19589,-8162 1792,0 3305,-600 4537,-1832zm50245 -30011c0,639 -40,1033 -120,1193 -9441,16797 -23493,41997 -42123,75597 -18669,33556 -32681,58715 -41996,75432l-6530 11861c-873,1432 -2146,2112 -3738,2112 -1079,0 -7009,-3105 -17837,-9315 -1432,-873 -2151,-2146 -2151,-3739 0,-1038 1952,-4937 5856,-11586 -12700,-5776 -24406,-13459 -35114,-23048 -10707,-9594 -19982,-20501 -27784,-32681 -1793,-2746 -2666,-5817 -2666,-9195 0,-3345 873,-6410 2666,-9201 13618,-20856 30495,-37339 50632,-49440 20188,-12060 42236,-18110 66123,-18110 7922,0 15924,759 24006,2266l7163 -12934c913,-1432 2146,-2151 3744,-2151 434,0 1273,279 2426,839 1153,513 2506,1193 4104,2026 1592,879 3059,1672 4418,2466 1312,799 2705,1638 4178,2471 1472,839 2351,1353 2631,1552 1392,874 2112,2072 2112,3585zm4937 59588c0,12345 -3505,23612 -10548,33800 -7015,10148 -16290,17477 -27836,21889l37305 -66871c713,3979 1079,7723 1079,11182zm57042 7842c1786,3031 2665,6096 2665,9201 0,3144 -879,6204 -2665,9195 -3465,5690 -8322,12140 -14532,19348 -13339,15280 -28783,27146 -46294,35582 -17563,8441 -36192,12659 -55935,12659l9874 -17596c18829,-1587 36261,-7683 52310,-18270 16039,-10548 29418,-24201 40165,-40918 -10188,-15885 -22728,-28944 -37579,-39172l8402 -14925c8441,5690 16557,12494 24320,20376 7802,7922 14212,16084 19269,24520z"/>
  <rect class="fil1" x="-1" width="309273" height="309273"/>
 </g>
</svg>
