<?xml version="1.0" encoding="UTF-8"?>
<!DOCTYPE svg PUBLIC "-//W3C//DTD SVG 1.1//EN" "http://www.w3.org/Graphics/SVG/1.1/DTD/svg11.dtd">
<!-- Creator: CorelDRAW X8 -->
<svg xmlns="http://www.w3.org/2000/svg" xml:space="preserve" width="64px" height="64px" version="1.1" style="shape-rendering:geometricPrecision; text-rendering:geometricPrecision; image-rendering:optimizeQuality; fill-rule:evenodd; clip-rule:evenodd"
viewBox="0 0 263851 263851"
 xmlns:xlink="http://www.w3.org/1999/xlink">
 <defs>
  <style type="text/css">
   <![CDATA[
    .fil1 {fill:none}
    .fil0 {fill:black;fill-rule:nonzero}
   ]]>
  </style>
 </defs>
 <g id="Ebene_x0020_1">
  <metadata id="CorelCorpID_0Corel-Layer"/>
  <path class="fil0" d="M219272 131930c-19473,30102 -50866,51070 -87395,51070 -36496,0 -67826,-20968 -87259,-51070 10805,-16755 25583,-31125 43288,-40235 -4518,7747 -6895,16648 -6895,25656 0,28135 22765,51070 50866,51070 28101,0 50967,-22935 50967,-51070 0,-9008 -2376,-17909 -6934,-25656 17773,9110 32557,23480 43362,40235zm-81927 -43770c0,2960 -2479,5473 -5468,5473 -12948,0 -23651,10703 -23651,23718 0,2956 -2512,5469 -5468,5469 -2961,0 -5439,-2513 -5439,-5469 0,-19063 15562,-34660 34558,-34660 2989,0 5468,2484 5468,5469zm96471 43770c0,-2858 -886,-5473 -2278,-7849 -20934,-34456 -59260,-57697 -99661,-57697 -40333,0 -78631,23241 -99559,57697 -1359,2376 -2279,4991 -2279,7849 0,2854 920,5468 2279,7879 20928,34421 59226,57663 99559,57663 40401,0 78727,-23140 99661,-57663 1392,-2411 2278,-5025 2278,-7879z"/>
  <rect class="fil1" x="-1" width="263850" height="263850"/>
 </g>
</svg>
