<?xml version="1.0" encoding="UTF-8"?>
<!DOCTYPE svg PUBLIC "-//W3C//DTD SVG 1.1//EN" "http://www.w3.org/Graphics/SVG/1.1/DTD/svg11.dtd">
<!-- Creator: CorelDRAW X8 -->
<svg xmlns="http://www.w3.org/2000/svg" xml:space="preserve" width="64px" height="64px" version="1.1" style="shape-rendering:geometricPrecision; text-rendering:geometricPrecision; image-rendering:optimizeQuality; fill-rule:evenodd; clip-rule:evenodd"
viewBox="0 0 346060 346060"
 xmlns:xlink="http://www.w3.org/1999/xlink">
 <defs>
  <style type="text/css">
   <![CDATA[
    .fil0 {fill:none}
    .fil1 {fill:black;fill-rule:nonzero}
   ]]>
  </style>
 </defs>
 <g id="Ebene_x0020_1">
  <metadata id="CorelCorpID_0Corel-Layer"/>
  <rect class="fil0" x="-1" width="346059" height="346059"/>
  <g id="_1622671644208">
   <path class="fil1" d="M235707 118962c0,-8130 -1852,-15698 -5607,-22660 -3756,-6967 -8680,-12722 -14728,-17160 -6041,-4445 -12722,-7920 -20085,-10449 -7313,-2573 -14772,-3832 -22283,-3832 -7510,0 -14919,1259 -22282,3832 -7313,2529 -14038,6004 -20086,10449 -5997,4438 -10921,10193 -14682,17160 -3749,6962 -5601,14530 -5601,22660 0,11355 3653,21497 11067,30380 1118,1258 2778,3130 4969,5601 2242,2472 3902,4337 5026,5550 13891,17256 21599,34015 23011,50364l37201 0c1418,-16349 9076,-33108 23017,-50364 1073,-1213 2734,-3078 4975,-5550 2242,-2471 3903,-4343 4969,-5601 7415,-8883 11119,-19025 11119,-30380zm20916 0c0,17454 -5608,32545 -16816,45261 -4924,5505 -8979,10448 -12192,14689 -3219,4291 -6437,9688 -9701,16145 -3270,6463 -5122,12517 -5562,18169 5121,3181 7708,7773 7708,13878 0,4139 -1367,7773 -4100,10806 2733,3021 4100,6655 4100,10800 0,5850 -2491,10442 -7364,13673 1412,2619 2095,5250 2095,7971 0,5154 -1705,9184 -5122,11962 -3410,2829 -7651,4240 -12626,4240 -2197,4944 -5460,8878 -9803,11809 -4388,2976 -9114,4439 -14236,4439 -5115,0 -9848,-1463 -14191,-4439 -4336,-2931 -7600,-6865 -9797,-11809 -5026,0 -9215,-1411 -12626,-4240 -3468,-2778 -5173,-6808 -5173,-11962 0,-2721 735,-5352 2146,-7971 -4924,-3231 -7364,-7823 -7364,-13673 0,-4145 1367,-7779 4101,-10800 -2734,-3033 -4101,-6667 -4101,-10806 0,-6105 2536,-10697 7658,-13878 -441,-5652 -2242,-11706 -5512,-18169 -3263,-6457 -6533,-11854 -9752,-16145 -3212,-4241 -7261,-9184 -12141,-14689 -11208,-12716 -16815,-27807 -16815,-45261 0,-11158 2433,-21555 7261,-31192 4828,-9637 11215,-17614 19115,-23969 7900,-6412 16816,-11406 26766,-15040 9950,-3685 20092,-5499 30425,-5499 10340,0 20526,1814 30477,5499 9943,3634 18865,8628 26766,15040 7900,6355 14241,14332 19114,23969 4829,9637 7262,20034 7262,31192z"/>
   <path class="fil1" d="M140925 93984c2120,-1801 4445,-3545 6916,-5192 2517,-1603 5218,-3047 8118,-4273 2931,-1233 6086,-2190 9432,-2861 3373,-715 7019,-1067 10902,-1067 5410,0 10308,735 14721,2210 4369,1488 8181,3621 11292,6355 3154,2733 5613,6022 7312,9873 1731,3864 2606,8213 2606,12971 0,4682 -671,8667 -1993,11981 -1322,3353 -2963,6253 -4988,8724 -2005,2485 -4215,4669 -6603,6515 -2382,1858 -4631,3563 -6725,5147 -2127,1571 -3960,3123 -5544,4662 -1571,1546 -2503,3289 -2835,5250l-2255 13099 -16311 0 -1807 -14811c-345,-2893 32,-5409 1251,-7561 1195,-2121 2778,-4088 4771,-5889 1967,-1775 4158,-3519 6597,-5192 2414,-1673 4669,-3442 6796,-5365 2094,-1903 3863,-4087 5275,-6539 1424,-2478 2127,-5371 2127,-8699 0,-4145 -1444,-7434 -4337,-9848 -2906,-2407 -6706,-3627 -11445,-3627 -3372,0 -6233,377 -8557,1117 -2344,767 -4337,1584 -5985,2440 -1679,920 -3091,1718 -4208,2484 -1137,748 -2197,1137 -3187,1137 -2165,0 -3838,-1003 -5033,-2931l-6303 -10110zm40477 98614c71,-830 115,-1865 115,-3085 0,-1264 -44,-2324 -115,-3148 -76,-856 -198,-1654 -370,-2389 -128,-536 -300,-1041 -517,-1469 -154,-345 -352,-632 -594,-875l-32 -25c-211,-224 -486,-441 -811,-626 -377,-230 -830,-409 -1329,-549l-25 -19c-581,-160 -1297,-294 -2127,-384 -843,-89 -1852,-140 -3008,-140 -1149,0 -2159,51 -3002,140 -791,83 -1526,224 -2152,403l-64 13c-530,146 -983,319 -1328,517 -313,179 -575,383 -786,613 -210,211 -408,530 -587,900 -211,409 -383,914 -524,1501 -172,754 -300,1559 -370,2389 -77,824 -122,1890 -122,3148 0,1227 45,2268 122,3098 83,843 198,1590 351,2235l19 38c134,582 300,1061 492,1450 172,332 370,632 600,875 198,198 473,402 779,568 384,211 843,396 1354,531l64 25c626,179 1361,307 2172,396 830,83 1833,134 2982,134 1156,0 2159,-51 2995,-134 843,-89 1565,-217 2140,-389 517,-160 977,-339 1379,-569 339,-191 626,-402 837,-619 223,-237 421,-511 594,-856 211,-409 377,-882 498,-1412l19 -32c141,-619 275,-1379 351,-2254z"/>
  </g>
 </g>
</svg>
