<?xml version="1.0" encoding="UTF-8"?>
<!DOCTYPE svg PUBLIC "-//W3C//DTD SVG 1.1//EN" "http://www.w3.org/Graphics/SVG/1.1/DTD/svg11.dtd">
<!-- Creator: CorelDRAW X8 -->
<svg xmlns="http://www.w3.org/2000/svg" xml:space="preserve" width="64px" height="64px" version="1.1" style="shape-rendering:geometricPrecision; text-rendering:geometricPrecision; image-rendering:optimizeQuality; fill-rule:evenodd; clip-rule:evenodd"
viewBox="0 0 309274 309274"
 xmlns:xlink="http://www.w3.org/1999/xlink">
 <defs>
  <style type="text/css">
   <![CDATA[
    .fil1 {fill:none}
    .fil0 {fill:black;fill-rule:nonzero}
   ]]>
  </style>
 </defs>
 <g id="Ebene_x0020_1">
  <metadata id="CorelCorpID_0Corel-Layer"/>
  <path class="fil0" d="M187102 106596c0,1301 -434,2420 -1393,3361 -907,942 -1992,1439 -3247,1439 -1250,0 -2335,-497 -3248,-1439 -908,-941 -1387,-2060 -1387,-3361 0,-4618 -2597,-8162 -7837,-10674 -5199,-2505 -10353,-3761 -15376,-3761 -1261,0 -2340,-451 -3253,-1438 -908,-942 -1382,-2061 -1382,-3362 0,-1296 474,-2420 1382,-3362 913,-942 1992,-1432 3253,-1432 4851,0 9657,804 14423,2420 4806,1569 9013,4303 12648,8070 3596,3813 5417,8339 5417,13539zm23218 0c0,-7220 -1649,-13944 -4982,-20131 -3339,-6187 -7711,-11296 -13082,-15245 -5377,-3944 -11307,-7038 -17848,-9281 -6495,-2283 -13127,-3402 -19794,-3402 -6672,0 -13259,1119 -19800,3402 -6495,2243 -12471,5337 -17848,9281 -5325,3949 -9703,9058 -13036,15245 -3333,6187 -4983,12911 -4983,20131 0,10091 3248,19097 9835,26991 993,1119 2465,2780 4417,4977 1992,2192 3465,3853 4464,4932 12345,15330 19189,30216 20445,44742l33052 0c1256,-14526 8054,-29412 20445,-44742 953,-1079 2426,-2740 4418,-4932 1992,-2197 3464,-3858 4418,-4977 6586,-7894 9879,-16900 9879,-26991zm18579 0c0,15513 -4983,28915 -14943,40216 -4372,4885 -7973,9280 -10827,13047 -2860,3807 -5719,8607 -8624,14344 -2900,5741 -4549,11118 -4937,16141 4549,2825 6843,6906 6843,12328 0,3676 -1210,6906 -3641,9595 2431,2688 3641,5919 3641,9594 0,5200 -2209,9281 -6541,12152 1256,2329 1866,4663 1866,7083 0,4572 -1518,8156 -4549,10628 -3036,2511 -6803,3767 -11221,3767 -1952,4389 -4851,7888 -8704,10490 -3898,2643 -8105,3944 -12648,3944 -4549,0 -8756,-1301 -12608,-3944 -3859,-2602 -6758,-6101 -8704,-10490 -4464,0 -8191,-1256 -11221,-3767 -3077,-2472 -4595,-6056 -4595,-10628 0,-2420 651,-4754 1906,-7083 -4372,-2871 -6541,-6952 -6541,-12152 0,-3675 1216,-6906 3642,-9594 -2426,-2689 -3642,-5919 -3642,-9595 0,-5422 2255,-9503 6804,-12328 -388,-5023 -1992,-10400 -4897,-16141 -2900,-5737 -5805,-10537 -8665,-14344 -2853,-3767 -6455,-8162 -10781,-13047 -9966,-11301 -14949,-24703 -14949,-40216 0,-9909 2169,-19144 6456,-27705 4292,-8567 9965,-15650 16980,-21301 7020,-5691 14943,-10131 23784,-13356 8835,-3276 17847,-4886 27031,-4886 9178,0 18230,1610 27071,4886 8836,3225 16764,7665 23778,13356 7021,5651 12654,12734 16986,21301 4287,8561 6450,17796 6450,27705z"/>
  <rect class="fil1" x="-1" width="309273" height="309273"/>
 </g>
</svg>
