<?xml version="1.0" encoding="UTF-8"?>
<!DOCTYPE svg PUBLIC "-//W3C//DTD SVG 1.1//EN" "http://www.w3.org/Graphics/SVG/1.1/DTD/svg11.dtd">
<!-- Creator: CorelDRAW X8 -->
<svg xmlns="http://www.w3.org/2000/svg" xml:space="preserve" width="64px" height="64px" version="1.1" style="shape-rendering:geometricPrecision; text-rendering:geometricPrecision; image-rendering:optimizeQuality; fill-rule:evenodd; clip-rule:evenodd"
viewBox="0 0 1895630 1895630"
 xmlns:xlink="http://www.w3.org/1999/xlink">
 <defs>
  <style type="text/css">
   <![CDATA[
    .fil1 {fill:none;fill-rule:nonzero}
    .fil0 {fill:black;fill-rule:nonzero}
   ]]>
  </style>
 </defs>
 <g id="Ebene_x0020_1">
  <metadata id="CorelCorpID_0Corel-Layer"/>
  <g id="_2367155585040">
   <path class="fil0" d="M1066235 503661c0,24629 8536,45444 25923,62866 17387,17387 38272,25888 62901,25888l503556 0 0 1214461c0,24629 -8501,45479 -25888,62866 -17387,17352 -38237,25888 -62866,25888l-1244127 0c-24664,0 -45514,-8501 -62866,-25888 -17387,-17387 -25923,-38237 -25923,-62866l0 -1718052c0,-24629 8536,-45514 25923,-62866 17352,-17387 38202,-25923 62866,-25923l385101 0 0 118455 118455 0 0 -118455 236945 0 0 503591 0 35zm-473855 -385136l0 118490 118455 0 0 -118490 -118455 0zm118455 1421670c61607,0 111843,-23369 150045,-70457 38238,-46738 52441,-101068 42331,-162710l-66644 -322235c-2204,-9795 -7277,-18331 -14553,-25923 -7557,-7242 -16058,-11055 -25888,-11055l-85326 0 0 -118455 118490 0 0 -118490 -118490 0 0 -118455 118490 0 0 -118455 -118490 0 0 -118490 118490 0 0 -118455 -118490 0 0 118455 -118455 0 0 118490 118455 0 0 118455 -118455 0 0 118455 118455 0 0 118490 -118455 0 0 118455 -70457 359213c-12314,59088 630,112823 38867,160821 38237,48347 88439,72346 150045,72346l35 0zm122268 -196189c0,-27182 -11719,-50551 -35368,-70457 -23369,-19591 -51811,-29701 -84976,-29701 -33514,0 -61606,10110 -85325,29701 -23369,19906 -35054,43275 -35054,70457 0,27183 11685,50552 35054,70458 23719,19591 51811,29386 85325,29386 33165,0 61607,-9795 84976,-29386 23684,-19906 35368,-43275 35368,-70458zm825512 -892156c0,-24663 -8501,-45828 -25888,-63215l-362711 -362677c-17352,-17387 -38517,-25923 -63181,-25923l-22110 0 0 473890 473890 0 0 -22110 0 35z"/>
   <rect class="fil1" x="-6" y="-1" width="1895619" height="1895632"/>
  </g>
 </g>
</svg>
