<?xml version="1.0" encoding="UTF-8"?>
<!DOCTYPE svg PUBLIC "-//W3C//DTD SVG 1.1//EN" "http://www.w3.org/Graphics/SVG/1.1/DTD/svg11.dtd">
<!-- Creator: CorelDRAW X8 -->
<svg xmlns="http://www.w3.org/2000/svg" xml:space="preserve" width="64px" height="64px" version="1.1" style="shape-rendering:geometricPrecision; text-rendering:geometricPrecision; image-rendering:optimizeQuality; fill-rule:evenodd; clip-rule:evenodd"
viewBox="0 0 1895630 1895630"
 xmlns:xlink="http://www.w3.org/1999/xlink">
 <defs>
  <style type="text/css">
   <![CDATA[
    .fil1 {fill:none;fill-rule:nonzero}
    .fil0 {fill:black;fill-rule:nonzero}
   ]]>
  </style>
 </defs>
 <g id="Ebene_x0020_1">
  <metadata id="CorelCorpID_0Corel-Layer"/>
  <g id="_2367158432224">
   <path class="fil0" d="M1066235 503661c0,24629 8536,45444 25923,62866 17387,17387 38272,25888 62901,25888l503556 0 0 1214461c0,24629 -8501,45479 -25888,62866 -17387,17352 -38237,25923 -62866,25923l-1244127 0c-24664,0 -45514,-8536 -62866,-25923 -17387,-17387 -25923,-38202 -25923,-62866l0 -1718052c0,-24629 8536,-45514 25923,-62866 17352,-17387 38202,-25958 62866,-25958l740501 0 0 503626 0 35zm211057 444154c-9795,0 -19276,3184 -27812,9166 -8466,6332 -12944,14238 -12944,24034 -36943,170581 -61571,292534 -73886,366770 -5072,41735 -7591,76474 -7591,103656l0 11055c-4723,-36978 -42016,-197483 -110899,-481481 -2518,-9796 -7591,-17702 -14833,-24034 -7591,-5982 -16127,-9166 -25923,-9166l-107400 0c-12349,0 -22145,3184 -29701,9166 -7277,6332 -12314,14238 -14868,24034l-33200 140879c-47053,187688 -71681,292570 -74200,314679 -4758,-66644 -31905,-217354 -81198,-451780 0,-12314 -4443,-21480 -12944,-27812 -8850,-5982 -18016,-9166 -27812,-9166l-92567 0c-14868,0 -26552,5703 -35403,16757 -8536,11055 -10425,23999 -5353,38867l136787 622082c2519,9795 8221,17666 16757,23999 8851,6017 18017,9165 27812,9165l137101 0c9796,0 18962,-3148 27812,-9165 8502,-6333 13889,-14204 16408,-23999l81512 -337104c7557,-27182 11020,-51811 11020,-73956l3813 0 3813 36978c4758,29701 20851,97640 48033,203466l40756 170616c2519,9795 7907,17666 16722,23999 8536,6017 17702,9165 27813,9165l140599 0c9796,0 18961,-3148 27812,-9165 8501,-6333 14204,-14204 16723,-23999l140564 -622047c2519,-14868 -594,-27812 -9165,-38867 -8851,-11089 -20536,-16792 -35334,-16792l-88789 0 -35 0zm381323 -495965c0,-24663 -8501,-45828 -25888,-63215l-362711 -362677c-17352,-17387 -38517,-25958 -63181,-25958l-22110 0 0 473925 473890 0 0 -22110 0 35z"/>
   <rect class="fil1" x="-13" y="-6" width="1895633" height="1895643"/>
  </g>
 </g>
</svg>
