<?xml version="1.0" encoding="UTF-8"?>
<!DOCTYPE svg PUBLIC "-//W3C//DTD SVG 1.1//EN" "http://www.w3.org/Graphics/SVG/1.1/DTD/svg11.dtd">
<!-- Creator: CorelDRAW X8 -->
<svg xmlns="http://www.w3.org/2000/svg" xml:space="preserve" width="64px" height="64px" version="1.1" style="shape-rendering:geometricPrecision; text-rendering:geometricPrecision; image-rendering:optimizeQuality; fill-rule:evenodd; clip-rule:evenodd"
viewBox="0 0 666653 666653"
 xmlns:xlink="http://www.w3.org/1999/xlink">
 <defs>
  <style type="text/css">
   <![CDATA[
    .fil1 {fill:none;fill-rule:nonzero}
    .fil0 {fill:black;fill-rule:nonzero}
   ]]>
  </style>
 </defs>
 <g id="Ebene_x0020_1">
  <metadata id="CorelCorpID_0Corel-Layer"/>
  <g id="_2367155578864">
   <path class="fil0" d="M583312 158894c0,-8674 -2989,-16117 -9104,-22232l-127558 -127545c-6102,-6115 -13558,-9117 -22219,-9117l-7776 0 0 166657 166645 0 0 -7775 12 12zm-177102 49434l177090 0 0 427112c0,8662 -2990,15982 -9104,22097 -6115,6102 -13447,9116 -22109,9116l-437533 0c-8674,0 -16007,-3002 -22109,-9116 -6114,-6115 -9116,-13435 -9116,-22097l0 -604215c0,-8661 3002,-16006 9116,-22108 6102,-6115 13435,-9117 22109,-9117l260419 0 0 177115c0,8661 3001,15981 9116,22108 6115,6115 13460,9105 22121,9105l0 0zm-162769 313764l26107 -27337c885,-1661 1328,-3666 1328,-5881 0,-2116 -885,-3666 -2657,-4564l-52116 -46875 52116 -46776c1772,-886 2657,-2436 2657,-4552 0,-2227 -443,-4220 -1328,-5893l-26107 -27325c-788,-899 -2338,-1354 -4565,-1354 -2104,0 -3666,443 -4552,1354l-84547 79440c-1784,1661 -2669,3445 -2669,5106 0,1784 885,3556 2669,5229l84547 79428c886,886 2448,1329 4552,1329 2227,0 3777,-443 4565,-1329zm67777 65121c1661,885 3445,664 5217,-665 1673,-1218 2559,-2780 2559,-4552l80769 -274666c0,-1771 -443,-3555 -1329,-5216 -885,-1784 -2239,-3113 -3887,-3900l-36442 -10433c-1784,-898 -3556,-677 -5229,664 -1771,1218 -2670,2781 -2670,4552l-80658 274654c0,1771 443,3555 1328,5216 788,1784 2116,3125 3888,3888l36454 10445 0 13zm208328 -144549c1661,-1673 2546,-3445 2546,-5229 0,-1661 -885,-3445 -2546,-5106l-84670 -79440c-886,-899 -2337,-1354 -4552,-1354 -2116,0 -3666,443 -4552,1354l-26009 27325c-886,1673 -1329,3666 -1329,5893 0,2116 886,3666 2559,4552l52104 46776 -52104 46875c-1673,898 -2559,2448 -2559,4564 0,2215 443,4220 1329,5881l26009 27337c886,886 2436,1329 4552,1329 2215,0 3666,-443 4552,-1329l84670 -79428z"/>
   <rect class="fil1" x="-1" y="2" width="666654" height="666658"/>
  </g>
 </g>
</svg>
