<?xml version="1.0" encoding="UTF-8"?>
<!DOCTYPE svg PUBLIC "-//W3C//DTD SVG 1.1//EN" "http://www.w3.org/Graphics/SVG/1.1/DTD/svg11.dtd">
<!-- Creator: CorelDRAW X8 -->
<svg xmlns="http://www.w3.org/2000/svg" xml:space="preserve" width="64px" height="64px" version="1.1" style="shape-rendering:geometricPrecision; text-rendering:geometricPrecision; image-rendering:optimizeQuality; fill-rule:evenodd; clip-rule:evenodd"
viewBox="0 0 1134451 1134472"
 xmlns:xlink="http://www.w3.org/1999/xlink">
 <defs>
  <style type="text/css">
   <![CDATA[
    .fil1 {fill:none}
    .fil0 {fill:#E31E24;fill-rule:nonzero}
   ]]>
  </style>
 </defs>
 <g id="Ebene_x0020_1">
  <metadata id="CorelCorpID_0Corel-Layer"/>
  <path class="fil0" d="M782869 37706c-10447,-10447 -24495,-19198 -42166,-26610 -17712,-7411 -33895,-11096 -48781,-11096l-497529 0c-14676,0 -27259,5171 -37476,15556 -10447,10217 -15535,22778 -15535,37664l0 1028242c0,14655 5088,27217 15535,37455 10217,10447 22800,15555 37476,15555l745435 0c14886,0 27489,-5108 37727,-15555 10363,-10238 15514,-22800 15514,-37455l0 -780420c0,-14802 -3685,-31069 -11096,-48739 -7391,-17691 -16226,-31677 -26589,-42103l-172515 -172494 0 0zm135018 245540l-208086 0 0 -208043c10594,3810 18215,7767 22674,12185l173185 173205c4438,4439 8416,12102 12227,22674l0 -21zm-278976 -212377l0 230215c0,14718 5151,27301 15514,37560 10259,10342 22821,15493 37497,15493l230278 0 0 709466c-283310,0 -426807,0 -710095,0l0 -992734c188887,0 237940,0 426806,0z"/>
  <path class="fil0" d="M423791 462900c8542,-7244 17880,-14236 27846,-20831 10091,-6490 20978,-12311 32639,-17231 11766,-4920 24475,-8814 37937,-11536 13608,-2847 28243,-4271 43924,-4271 21732,0 41433,2973 59166,8940 17607,5967 32912,14509 45452,25500 12709,11013 22549,24245 29416,39779 6992,15535 10489,33017 10489,52194 0,18759 -2722,34838 -8040,48175 -5297,13462 -11912,25123 -20057,35089 -8039,9965 -16979,18780 -26547,26170 -9610,7516 -18654,14362 -27091,20727 -8521,6323 -15912,12541 -22255,18759 -6365,6218 -10113,13211 -11411,21125l-9065 52717 -65656 0 -7265 -59585c-1403,-11661 146,-21752 5066,-30441 4795,-8542 11139,-16435 19157,-23700 7914,-7118 16707,-14111 26547,-20852 9715,-6721 18780,-13860 27322,-21627 8437,-7642 15556,-16456 21250,-26275 5695,-9987 8563,-21627 8563,-34985 0,-16707 -5841,-29918 -17481,-39632 -11662,-9694 -26966,-14634 -45997,-14634 -13609,0 -25124,1549 -34440,4543 -9464,3098 -17503,6343 -24098,9840 -6721,3622 -12415,6867 -16958,9965 -4544,2994 -8815,4544 -12834,4544 -8668,0 -15409,-4020 -20183,-11788l-25396 -40679zm67227 430764c0,-7893 1423,-15410 4250,-22402 2994,-7119 6992,-13211 12185,-18257 5192,-5066 11263,-9086 18403,-12185 7118,-2973 14634,-4522 22778,-4522 8040,0 15681,1549 22800,4522 6993,3099 13211,7119 18382,12185 5192,5046 9337,11138 12310,18257 2973,6992 4544,14509 4544,22402 0,8039 -1571,15681 -4544,22673 -2973,7119 -7118,13190 -12310,18257 -5171,5046 -11389,9065 -18382,11913 -7119,2973 -14760,4396 -22800,4396 -8144,0 -15660,-1423 -22778,-4396 -7140,-2848 -13211,-6867 -18403,-11913 -5193,-5067 -9191,-11138 -12185,-18257 -2827,-6992 -4250,-14634 -4250,-22673z"/>
  <rect class="fil1" x="-10" y="2" width="1134472" height="1134472"/>
 </g>
</svg>
