<?xml version="1.0" encoding="UTF-8"?>
<!DOCTYPE svg PUBLIC "-//W3C//DTD SVG 1.1//EN" "http://www.w3.org/Graphics/SVG/1.1/DTD/svg11.dtd">
<!-- Creator: CorelDRAW X8 -->
<svg xmlns="http://www.w3.org/2000/svg" xml:space="preserve" width="64px" height="64px" version="1.1" style="shape-rendering:geometricPrecision; text-rendering:geometricPrecision; image-rendering:optimizeQuality; fill-rule:evenodd; clip-rule:evenodd"
viewBox="0 0 666653 666653"
 xmlns:xlink="http://www.w3.org/1999/xlink">
 <defs>
  <style type="text/css">
   <![CDATA[
    .fil2 {fill:none;fill-rule:nonzero}
    .fil0 {fill:#2B2A29;fill-rule:nonzero}
    .fil1 {fill:#FEFEFE;fill-rule:nonzero}
   ]]>
  </style>
 </defs>
 <g id="Ebene_x0020_1">
  <metadata id="CorelCorpID_0Corel-Layer"/>
  <g id="_2819315037440">
   <path class="fil0" d="M374997 177115c0,8661 2990,15981 9104,22108 6115,6115 13448,9117 22109,9117l177102 0 0 427088c0,8674 -2989,16006 -9116,22109 -6102,6114 -13423,9116 -22109,9116l-437546 0c-8661,0 -15994,-2989 -22108,-9116 -6102,-6103 -9104,-13423 -9104,-22109l0 -604203c0,-8674 3002,-15994 9104,-22121 6114,-6102 13447,-9104 22108,-9104l260456 0 0 177115 0 0zm208328 -18246c0,-8661 -3002,-16104 -9117,-22219l-127546 -127558c-6114,-6102 -13558,-9092 -22231,-9092l-7763 0 0 166657 166644 0 0 -7788 13 0z"/>
   <path class="fil1" d="M249038 303270c5020,-4257 10495,-8366 16364,-12241 5930,-3814 12327,-7234 19180,-10126 6914,-2891 14382,-5179 22293,-6779 7997,-1673 16597,-2509 25800,-2509 12782,0 24360,1747 34780,5253 10347,3506 19328,8526 26710,14985 7468,6471 13251,14247 17286,23376 4109,9129 6152,19402 6152,30671 0,11024 -1587,20473 -4725,28310 -3112,7911 -6988,14763 -11798,20620 -4712,5856 -9954,11035 -15588,15378 -5635,4417 -10950,8440 -15908,12180 -5020,3716 -9351,7370 -13091,11024 -3728,3654 -5930,7763 -6693,12414l-5327 30979 -38594 0 -4257 -35015c-837,-6852 86,-12782 2965,-17888 2829,-5020 6545,-9658 11269,-13927 4626,-4171 9818,-8293 15588,-12254 5709,-3949 11036,-8145 16056,-12709 4958,-4491 9129,-9670 12487,-15441 3347,-5868 5020,-12709 5020,-20558 0,-9818 -3420,-17581 -10273,-23290 -6853,-5696 -15834,-8599 -27005,-8599 -7997,0 -14764,910 -20251,2669 -5549,1821 -10273,3728 -14149,5783 -3961,2128 -7308,4035 -9977,5856 -2658,1759 -5168,2670 -7542,2670 -5094,0 -9055,-2362 -11873,-6927l-14899 -23905 0 0zm39493 253136c0,-4639 837,-9055 2510,-13165 1759,-4183 4109,-7763 7160,-10728 3039,-2977 6619,-5339 10803,-7160 4183,-1747 8599,-2658 13398,-2658 4712,0 9202,911 13398,2658 4109,1821 7763,4183 10802,7160 3051,2965 5475,6545 7234,10728 1747,4110 2657,8526 2657,13165 0,4724 -910,9215 -2657,13324 -1759,4183 -4183,7751 -7234,10728 -3039,2965 -6693,5327 -10802,7001 -4196,1747 -8686,2583 -13398,2583 -4799,0 -9215,-836 -13398,-2583 -4184,-1674 -7764,-4036 -10803,-7001 -3051,-2977 -5401,-6545 -7160,-10728 -1673,-4109 -2510,-8600 -2510,-13324z"/>
  </g>
  <rect class="fil2" x="2" y="-2" width="666653" height="666654"/>
 </g>
</svg>
