<?xml version="1.0" encoding="UTF-8"?>
<!DOCTYPE svg PUBLIC "-//W3C//DTD SVG 1.1//EN" "http://www.w3.org/Graphics/SVG/1.1/DTD/svg11.dtd">
<!-- Creator: CorelDRAW X8 -->
<svg xmlns="http://www.w3.org/2000/svg" xml:space="preserve" width="64px" height="64px" version="1.1" style="shape-rendering:geometricPrecision; text-rendering:geometricPrecision; image-rendering:optimizeQuality; fill-rule:evenodd; clip-rule:evenodd"
viewBox="0 0 390191 390191"
 xmlns:xlink="http://www.w3.org/1999/xlink">
 <defs>
  <style type="text/css">
   <![CDATA[
    .fil1 {fill:none;fill-rule:nonzero}
    .fil0 {fill:black;fill-rule:nonzero}
   ]]>
  </style>
 </defs>
 <g id="Ebene_x0020_1">
  <metadata id="CorelCorpID_0Corel-Layer"/>
  <g id="_2367158430624">
   <path class="fil0" d="M196586 206545l-21329 0 0 46497 20616 0c6568,0 11774,-2211 15612,-6503 3831,-4291 5718,-9887 5718,-16778 0,-6826 -1757,-12422 -5329,-16778 -3579,-4292 -8648,-6438 -15288,-6438zm139497 -126550c3579,3579 5329,7936 5329,13013l0 4551 -97544 0 0 -97552 4551 0c5077,0 9433,1757 13005,5336l74659 74652 0 0zm-116605 23677c0,5070 1757,9354 5336,12940 3579,3579 7871,5329 12940,5329l103658 0 0 249982c0,5069 -1750,9361 -5329,12940 -3579,3571 -7870,5336 -12947,5336l-256088 0c-5077,0 -9368,-1757 -12940,-5336 -3579,-3579 -5336,-7864 -5336,-12940l0 -353640c0,-5069 1757,-9368 5336,-12940 3572,-3579 7863,-5343 12940,-5343l152430 0 0 103665 0 7zm40390 125700c0,-16713 -5076,-30697 -15222,-41881 -10204,-11190 -23670,-16778 -40383,-16778l-61778 0c-2541,0 -4687,908 -6437,2665 -1822,1757 -2672,3967 -2672,6502l0 152372c0,2535 850,4746 2672,6503 1750,1757 3896,2664 6437,2664l23670 0c2535,0 4681,-907 6438,-2664 1822,-1757 2664,-3968 2664,-6503l0 -43443 6114 0c20357,1037 36357,-979 47994,-6049 20357,-8648 30503,-26471 30503,-53388z"/>
   <rect class="fil1" y="-1" width="390192" height="390194"/>
  </g>
 </g>
</svg>
