<?xml version="1.0" encoding="UTF-8"?>
<!DOCTYPE svg PUBLIC "-//W3C//DTD SVG 1.1//EN" "http://www.w3.org/Graphics/SVG/1.1/DTD/svg11.dtd">
<!-- Creator: CorelDRAW X8 -->
<svg xmlns="http://www.w3.org/2000/svg" xml:space="preserve" width="64px" height="64px" version="1.1" style="shape-rendering:geometricPrecision; text-rendering:geometricPrecision; image-rendering:optimizeQuality; fill-rule:evenodd; clip-rule:evenodd"
viewBox="0 0 390191 390199"
 xmlns:xlink="http://www.w3.org/1999/xlink">
 <defs>
  <style type="text/css">
   <![CDATA[
    .fil1 {fill:none;fill-rule:nonzero}
    .fil0 {fill:black;fill-rule:nonzero}
   ]]>
  </style>
 </defs>
 <g id="Ebene_x0020_1">
  <metadata id="CorelCorpID_0Corel-Layer"/>
  <g id="_2367155578128">
   <path class="fil0" d="M341412 93000c0,-5069 -1750,-9433 -5321,-13005l-74660 -74659c-3579,-3579 -7935,-5336 -13005,-5336l-4558 0 0 97544 97544 0 0 -4551 0 7zm-103658 28941l103658 0 0 249982c0,5069 -1757,9361 -5329,12947 -3579,3572 -7870,5329 -12947,5329l-256088 0c-5077,0 -9368,-1750 -12940,-5329 -3579,-3579 -5336,-7871 -5336,-12947l0 -353647c0,-5069 1757,-9361 5336,-12940 3572,-3579 7863,-5336 12940,-5336l152437 0 0 103665c0,5070 1750,9369 5322,12940 3579,3579 7871,5336 12947,5336zm-102880 12163c-10146,0 -18794,3571 -25880,10729 -7158,7086 -10665,15734 -10665,25880 0,10146 3507,18795 10665,25880 7086,7151 15604,10665 25491,10665 9952,0 18600,-3514 25952,-10665 7338,-7085 11054,-15734 11054,-25880 0,-10146 -3709,-18794 -11054,-25880 -7352,-7158 -15870,-10729 -25563,-10729l0 0zm158544 182926l0 -85382 -30489 -30431c-1498,-1563 -3579,-2276 -6114,-2276 -2542,0 -4817,706 -6834,2276l-78490 79210 -30503 -30438c-2017,-1563 -4162,-2276 -6503,-2276 -2275,0 -4162,713 -5725,2276l-30431 30438 0 36603 195096 0 -7 0z"/>
   <rect class="fil1" y="2" width="390189" height="390192"/>
  </g>
 </g>
</svg>
