<?xml version="1.0" encoding="UTF-8"?>
<!DOCTYPE svg PUBLIC "-//W3C//DTD SVG 1.1//EN" "http://www.w3.org/Graphics/SVG/1.1/DTD/svg11.dtd">
<!-- Creator: CorelDRAW X8 -->
<svg xmlns="http://www.w3.org/2000/svg" xml:space="preserve" width="64px" height="64px" version="1.1" style="shape-rendering:geometricPrecision; text-rendering:geometricPrecision; image-rendering:optimizeQuality; fill-rule:evenodd; clip-rule:evenodd"
viewBox="0 0 390191 390191"
 xmlns:xlink="http://www.w3.org/1999/xlink">
 <defs>
  <style type="text/css">
   <![CDATA[
    .fil1 {fill:none;fill-rule:nonzero}
    .fil0 {fill:black;fill-rule:nonzero}
   ]]>
  </style>
 </defs>
 <g id="Ebene_x0020_1">
  <metadata id="CorelCorpID_0Corel-Layer"/>
  <g id="_2367056322208">
   <path class="fil0" d="M219478 103665c0,5070 1757,9361 5336,12940 3579,3579 7871,5329 12940,5329l103658 0 0 249989c0,5069 -1750,9354 -5329,12932 -3579,3572 -7870,5336 -12947,5336l-256088 0c-5077,0 -9368,-1757 -12940,-5336 -3579,-3578 -5336,-7863 -5336,-12932l0 -353647c0,-5069 1757,-9368 5336,-12940 3572,-3579 7863,-5336 12940,-5336l152430 0 0 103665 0 0zm48779 179801l0 -6049c0,-2535 -914,-4738 -2671,-6502 -1750,-1743 -3968,-2665 -6503,-2665l-127982 0c-2535,0 -4746,922 -6503,2665 -1757,1757 -2664,3967 -2664,6502l0 6049c0,2542 907,4753 2664,6502 1757,1757 3968,2672 6503,2672l127982 0c2535,0 4753,-915 6503,-2672 1757,-1742 2671,-3960 2671,-6502zm0 -48765l0 -6049c0,-2535 -914,-4745 -2671,-6502 -1750,-1757 -3968,-2665 -6503,-2665l-127982 0c-2535,0 -4746,908 -6503,2665 -1757,1750 -2664,3967 -2664,6502l0 6049c0,2535 907,4745 2664,6502 1757,1757 3968,2672 6503,2672l127982 0c2535,0 4753,-915 6503,-2672 1757,-1757 2671,-3967 2671,-6502zm0 -54821c0,-2535 -914,-4745 -2671,-6502 -1750,-1757 -3968,-2665 -6503,-2665l-127982 0c-2535,0 -4746,908 -6503,2665 -1757,1749 -2664,3967 -2664,6502l0 6049c0,2535 907,4738 2664,6502 1757,1750 3968,2665 6503,2665l127982 0c2535,0 4753,-915 6503,-2665 1757,-1757 2671,-3967 2671,-6502l0 -6049zm73155 -86880c0,-5076 -1750,-9433 -5329,-13012l-74659 -74652c-3572,-3579 -7928,-5336 -13005,-5336l-4551 0 0 97544 97537 0 0 -4551 7 7z"/>
   <rect class="fil1" y="1" width="390192" height="390194"/>
  </g>
 </g>
</svg>
