<?xml version="1.0" encoding="UTF-8"?>
<!DOCTYPE svg PUBLIC "-//W3C//DTD SVG 1.1//EN" "http://www.w3.org/Graphics/SVG/1.1/DTD/svg11.dtd">
<!-- Creator: CorelDRAW X8 -->
<svg xmlns="http://www.w3.org/2000/svg" xml:space="preserve" width="64px" height="64px" version="1.1" style="shape-rendering:geometricPrecision; text-rendering:geometricPrecision; image-rendering:optimizeQuality; fill-rule:evenodd; clip-rule:evenodd"
viewBox="0 0 1895630 1895630"
 xmlns:xlink="http://www.w3.org/1999/xlink">
 <defs>
  <style type="text/css">
   <![CDATA[
    .fil1 {fill:none;fill-rule:nonzero}
    .fil0 {fill:black;fill-rule:nonzero}
   ]]>
  </style>
 </defs>
 <g id="Ebene_x0020_1">
  <metadata id="CorelCorpID_0Corel-Layer"/>
  <g id="_2367175232000">
   <path class="fil0" d="M1066235 503661c0,24629 8536,45444 25923,62866 17387,17387 38272,25888 62901,25888l503556 0 0 1214461c0,24629 -8501,45479 -25888,62866 -17387,17352 -38237,25923 -62866,25923l-1244127 0c-24664,0 -45514,-8536 -62866,-25923 -17387,-17387 -25923,-38202 -25923,-62866l0 -1718052c0,-24629 8536,-45514 25923,-62866 17352,-17387 38202,-25958 62866,-25958l740501 0 0 503626 0 35zm222112 392343l0 3813c9796,-17387 10425,-33514 1924,-48347 -8501,-14868 -21515,-22110 -38867,-22110l-129545 0c-17387,0 -29701,7242 -36977,22110l-137102 255591c-22110,-49292 -41980,-88789 -59052,-118490 -22425,-39496 -48383,-85290 -78049,-137101 -7277,-14868 -19591,-22110 -36943,-22110l-129545 0c-17387,0 -30331,7871 -38902,23999 -8536,16128 -7871,31590 1924,46458l222112 344031 -222112 348158c-9795,14868 -10425,29701 -1924,44570 8536,14833 21515,22109 38902,22109l129545 0c17352,0 29666,-7276 36943,-22109l70457 -122269 66644 -133323 137102 255592c7276,14833 19590,22109 36977,22109l129545 0c17352,0 30331,-7276 38867,-22109 8501,-14869 7872,-30961 -1924,-48348l-222112 -344380 222112 -347844zm370268 -444154c0,-24663 -8501,-45828 -25888,-63215l-362711 -362677c-17352,-17387 -38517,-25958 -63181,-25958l-22110 0 0 473925 473890 0 0 -22110 0 35z"/>
   <rect class="fil1" x="-13" y="-6" width="1895633" height="1895643"/>
  </g>
 </g>
</svg>
