<?xml version="1.0" encoding="UTF-8"?>
<!DOCTYPE svg PUBLIC "-//W3C//DTD SVG 1.1//EN" "http://www.w3.org/Graphics/SVG/1.1/DTD/svg11.dtd">
<!-- Creator: CorelDRAW X8 -->
<svg xmlns="http://www.w3.org/2000/svg" xml:space="preserve" width="64px" height="64px" version="1.1" style="shape-rendering:geometricPrecision; text-rendering:geometricPrecision; image-rendering:optimizeQuality; fill-rule:evenodd; clip-rule:evenodd"
viewBox="0 0 666653 666653"
 xmlns:xlink="http://www.w3.org/1999/xlink">
 <defs>
  <style type="text/css">
   <![CDATA[
    .fil1 {fill:none;fill-rule:nonzero}
    .fil0 {fill:black;fill-rule:nonzero}
   ]]>
  </style>
 </defs>
 <g id="Ebene_x0020_1">
  <metadata id="CorelCorpID_0Corel-Layer"/>
  <g id="_2367158431552">
   <path class="fil0" d="M320322 333327c3445,-6890 5229,-18886 5229,-35778 0,-17002 -2670,-25442 -7886,-25442 -1673,0 -2559,7886 -2559,23437 0,15674 1784,28235 5216,37783l0 0zm-2657 61220c12217,22551 27325,40329 45669,53333 -15674,3556 -36897,10446 -63890,20891l-18221 7776c11331,-20780 23438,-48216 36442,-82000zm-122342 162781c4343,-11331 17778,-27337 40342,-48228l5217 -3887c-8662,13004 -16893,24335 -24779,33895 -5216,6889 -10002,11884 -14333,14886 -4331,3113 -6447,4109 -6447,3334zm210899 -348988c-8673,0 -16018,-3002 -22133,-9129 -6102,-6102 -9092,-13447 -9092,-22109l0 -177102 -260443 0c-8674,0 -16007,2990 -22109,9117 -6114,6114 -9116,13447 -9116,22108l0 604215c0,8662 3002,15994 9116,22109 6102,6115 13435,9117 22109,9117l437533 0c8674,0 16019,-2990 22121,-9117 6102,-6115 9104,-13435 9104,-22109l0 -427100 -177090 0zm-10334 223989c50319,-7000 82430,-3998 96333,9105 5216,5228 7984,12340 8440,21444 430,9116 -2449,17113 -8440,24114 -6115,6890 -14776,10445 -26120,10445 -11220,0 -24434,-2227 -39665,-6557 -15219,-4331 -29773,-10446 -43663,-18221 -17335,2559 -45116,10445 -83329,23449l-19463 6435c-16536,28666 -31103,49335 -43652,61897 -12561,12549 -24557,18885 -35777,18885 -4331,0 -9338,-1108 -14997,-3224 -5672,-2227 -10224,-5438 -13669,-9781 -10445,-13890 -6115,-30437 12992,-49556 13890,-13878 33452,-26882 58563,-38989l0 0c15661,-27780 33439,-65120 53444,-112007 -6115,-23437 -10002,-42556 -11774,-57332 -2559,-17335 -2116,-31668 1329,-42888 1771,-8662 7443,-14555 16892,-17557 9547,-3113 18885,-2448 28002,1895 9104,4331 14997,12549 17667,24778 2546,9547 2546,22995 0,40330 -898,9559 -3556,23437 -7899,41670l-1218 1329c12106,31225 30782,54662 56004,70336l0 0zm178320 -295654c6102,6102 9104,13558 9104,22219l0 7775 -166657 0 0 -166669 7776 0c8661,0 16117,3002 22231,9117l127546 127558 0 0zm-96333 332096l-3875 1218c-3556,886 -8785,886 -15674,0 -9547,-2559 -21666,-6890 -36442,-12992 15662,-898 28666,-455 39001,1329 7886,886 13115,2559 15662,5216 2669,2559 2989,4343 1341,5229l-13 0z"/>
   <rect class="fil1" x="-1" y="-2" width="666654" height="666658"/>
  </g>
 </g>
</svg>
