<?xml version="1.0" encoding="UTF-8"?>
<!DOCTYPE svg PUBLIC "-//W3C//DTD SVG 1.1//EN" "http://www.w3.org/Graphics/SVG/1.1/DTD/svg11.dtd">
<!-- Creator: CorelDRAW X8 -->
<svg xmlns="http://www.w3.org/2000/svg" xml:space="preserve" width="64px" height="64px" version="1.1" style="shape-rendering:geometricPrecision; text-rendering:geometricPrecision; image-rendering:optimizeQuality; fill-rule:evenodd; clip-rule:evenodd"
viewBox="0 0 309274 309274"
 xmlns:xlink="http://www.w3.org/1999/xlink">
 <defs>
  <style type="text/css">
   <![CDATA[
    .fil1 {fill:none}
    .fil0 {fill:black;fill-rule:nonzero}
   ]]>
  </style>
 </defs>
 <g id="Ebene_x0020_1">
  <metadata id="CorelCorpID_0Corel-Layer"/>
  <path class="fil0" d="M248179 65604c-1318,-3077 -4400,-5194 -7876,-5194l-171355 0c-3481,0 -6558,2117 -7876,5194 -1359,3236 -680,6997 1877,9394l65969 65969 0 65090c0,2277 959,4395 2557,5999l34263 34262c1598,1758 3756,2558 6039,2558 1039,0 2237,-280 3316,-680 3082,-1324 5240,-4400 5240,-7876l0 -99353 66003 -65969c2522,-2397 3202,-6158 1843,-9394z"/>
  <rect class="fil1" x="-1" width="309273" height="309273"/>
 </g>
</svg>
