<?xml version="1.0" encoding="UTF-8"?>
<!DOCTYPE svg PUBLIC "-//W3C//DTD SVG 1.1//EN" "http://www.w3.org/Graphics/SVG/1.1/DTD/svg11.dtd">
<!-- Creator: CorelDRAW X8 -->
<svg xmlns="http://www.w3.org/2000/svg" xml:space="preserve" width="64px" height="64px" version="1.1" style="shape-rendering:geometricPrecision; text-rendering:geometricPrecision; image-rendering:optimizeQuality; fill-rule:evenodd; clip-rule:evenodd"
viewBox="0 0 346060 346060"
 xmlns:xlink="http://www.w3.org/1999/xlink">
 <defs>
  <style type="text/css">
   <![CDATA[
    .fil1 {fill:none}
    .fil0 {fill:black}
   ]]>
  </style>
 </defs>
 <g id="Ebene_x0020_1">
  <metadata id="CorelCorpID_0Corel-Layer"/>
  <path class="fil0" d="M180815 53551c0,8775 1705,14778 4662,22161l2727 5486c977,1661 1801,3513 2900,5071l4706 6406c32,38 77,95 109,134 3423,4234 7198,8309 11285,11911l7198 6571c32,32 89,83 127,115l256 224c2663,2331 7102,6412 9196,8922l3111 3417c32,38 76,95 108,127l5818 6508c32,38 77,96 109,134l3283 3966c740,946 1194,1297 1954,2146l5326 7000c1590,2165 3794,4956 5148,7178l12255 20360c1316,2357 1852,4963 2331,5640 665,945 1041,1283 1565,2548 1105,2676 1079,3691 1463,4573l2912 7472c332,1603 1290,2631 1686,4375 383,1679 -211,1143 588,3014 1405,3296 2452,11636 3052,15558 198,1290 39,2567 237,3876 536,3551 -58,8034 -135,11502 -25,1233 -357,1923 -453,2925 -511,5046 -2267,12320 -4177,17091l-1066 2554c-384,907 -779,1546 -1195,2434 -447,964 -740,1558 -1124,2503 -313,773 -670,1501 -1124,2254 -472,786 -938,1437 -1379,2249 -1201,2235 -2587,4470 -4190,6437l-4362 5544c-1628,1928 -3359,3940 -5230,5639l-383 345c-211,204 -128,121 -364,364l-2293 2293c-1986,1577 -3692,3384 -5697,4936 -198,154 -358,288 -530,435l-17173 12064c-403,198 -652,319 -1105,581l-2670 1680c-1737,1015 -3455,2088 -5333,2880l-3301 1769c-1361,824 -3360,2018 -4944,2357 -875,185 -875,281 -479,-479l2759 -4299c562,-804 958,-1309 1501,-2120l2497 -4515c824,-1520 1923,-3027 2625,-4618 396,-906 562,-1622 1041,-2580 409,-804 779,-1622 1067,-2324 1130,-2810 2101,-4643 3142,-7728 1175,-3468 3436,-10014 3896,-13744l766 -6482c447,-5122 428,-10774 -313,-15896l-1456 -6272c-683,-2484 -1820,-4777 -2759,-7146l-5626 -9593c-594,-843 -1399,-1909 -2114,-2720l-11617 -10851c-543,-422 -1003,-639 -1578,-1086l-2976 -2095c-1182,-657 -2108,-1271 -3212,-1858 191,843 625,1456 932,2210l1482 3589c115,281 121,313 210,517l1182 3168c1213,3647 1526,7242 2095,11195 1136,7907 -320,18119 -3768,25438 -390,824 -703,1431 -1067,2312 -734,1775 -1386,2982 -2286,4477 -1865,3097 -4037,5875 -6380,8602 -326,371 -428,588 -722,971 -422,569 -1060,1418 -1520,1859l-7127 6405c-4969,4401 -3130,3660 -7128,-491l-5435 -6400c-345,-408 -421,-523 -715,-977 -3372,-5096 -5052,-7229 -7708,-13067 -2830,-6227 -3111,-8513 -3111,-15251 0,-836 179,-938 237,-1692 -1731,402 -2938,2120 -3998,3487 -1840,2369 -2951,3046 -4982,6131l-6284 10870c-1054,2299 -1763,4490 -2472,6948 -2401,8322 -2593,15826 -843,24256 830,4024 1967,7952 3762,11694l3500 6897c338,639 536,1099 1009,1648 575,671 798,658 887,1763 -3761,0 -11221,-3640 -14491,-4828 -3806,-1393 -9573,-4305 -12945,-6380 -632,-390 -983,-505 -1552,-869 -485,-307 -964,-677 -1456,-958 -4004,-2299 -5045,-3308 -8737,-5761 -664,-434 -792,-562 -1360,-1053 -38,-32 -96,-77 -134,-115l-10110 -8973c-249,-275 -307,-371 -556,-645l-1188 -1233c-2088,-2331 -4196,-4752 -5965,-7319 -376,-543 -517,-990 -887,-1533 -2031,-2944 -2919,-4113 -4592,-7491 -1073,-2165 -2299,-4234 -3142,-6521l-2517 -7146c-2529,-8258 -3078,-16433 -3078,-25195 0,-4324 358,-10499 1188,-14517 230,-1117 294,-2197 556,-3314 95,-428 159,-1022 300,-1629l1156 -4643c345,-1143 568,-2152 913,-3199 626,-1923 1047,-4184 1654,-6074l3174 -8666c19,-52 45,-115 70,-173l952 -2669c275,-837 683,-1853 1086,-2785 332,-779 619,-2261 1513,-2587 0,1846 -32,3724 -6,5563l1073 10289c274,1718 632,3244 900,4892 1022,6233 3168,11566 5448,17263 984,2452 4534,8794 6189,10729 1060,1239 1539,1941 2478,3315 817,1187 1756,1820 2688,2867 2076,2318 4330,4356 6700,6348l2554 1801c-38,-1571 -1207,-3519 -1896,-4873l-1316 -3276c-2005,-5716 -4030,-11272 -5275,-17192l-722 -2906c-2235,-8367 -2433,-11649 -3672,-19767l-747 -8672c-237,-1629 -396,-2657 -384,-4445l45 -13623c-32,-1501 434,-2644 447,-4253 6,-716 -57,-1444 19,-2152 58,-550 332,-1546 396,-2025l409 -4419c964,-6010 1316,-9401 3148,-15699 1770,-6086 2178,-8283 4580,-14273 1341,-3366 2605,-6610 4202,-9804 1545,-3097 3021,-6399 4969,-9286l7370 -11476c383,-486 504,-773 926,-1246 523,-587 638,-574 1130,-1290 703,-1028 1175,-1973 2006,-2823 453,-459 651,-645 1053,-1124l217 -261c32,-39 83,-96 115,-135l780 -906c396,-479 696,-933 1034,-1380 428,-568 645,-741 1156,-1264l1003 -1169c415,-492 690,-754 1143,-1277 45,-52 172,-211 217,-262l5563 -5793c555,-421 779,-690 1252,-1169 823,-823 1430,-1481 2324,-2260 39,-32 90,-83 128,-115l1137 -1035c543,-479 785,-722 1303,-1118l3685 -3321c1239,-1162 2618,-1903 3857,-3148 1137,-1137 2765,-1974 4036,-2970 39,-32 90,-77 128,-108l10800 -7811c3059,-1603 5728,-3819 8775,-5473l2925 -1667c1501,-984 3065,-2280 4924,-2325 -300,1309 -1041,2350 -1450,3628 -466,1462 -907,2254 -1303,4010 -632,2810 -1111,5965 -1111,9280z"/>
  <rect class="fil1" x="-1" width="346059" height="346059"/>
 </g>
</svg>
