<?xml version="1.0" encoding="UTF-8"?>
<!DOCTYPE svg PUBLIC "-//W3C//DTD SVG 1.1//EN" "http://www.w3.org/Graphics/SVG/1.1/DTD/svg11.dtd">
<!-- Creator: CorelDRAW X8 -->
<svg xmlns="http://www.w3.org/2000/svg" xml:space="preserve" width="64px" height="64px" version="1.1" style="shape-rendering:geometricPrecision; text-rendering:geometricPrecision; image-rendering:optimizeQuality; fill-rule:evenodd; clip-rule:evenodd"
viewBox="0 0 290165 290165"
 xmlns:xlink="http://www.w3.org/1999/xlink">
 <defs>
  <style type="text/css">
   <![CDATA[
    .fil1 {fill:none}
    .fil0 {fill:black}
   ]]>
  </style>
 </defs>
 <g id="Ebene_x0020_1">
  <metadata id="CorelCorpID_0Corel-Layer"/>
  <path class="fil0" d="M179397 44901c0,7348 1430,12387 3909,18577l2287 4600c814,1392 1515,2945 2431,4252l3952 5371c21,32 64,75 86,112 2870,3556 6035,6967 9462,9982l6030 5521c37,27 80,64 107,91l219 182c2233,1960 5955,5376 7717,7481l2602 2865c27,37 70,80 91,118l4879 5451c21,37 64,80 91,112l2747 3331c626,787 1012,1082 1649,1799l4466 5864c1328,1815 3176,4161 4311,6024l10281 17067c1098,1976 1548,4155 1955,4728 552,787 873,1077 1307,2137 926,2244 905,3095 1231,3834l2437 6265c278,1344 1087,2201 1414,3669 321,1413 -177,958 498,2532 1172,2764 2050,9746 2554,13040 166,1081 37,2147 198,3250 450,2978 -48,6731 -112,9650 -22,1028 -300,1612 -386,2453 -418,4219 -1896,10329 -3497,14324l-894 2142c-316,760 -648,1296 -1001,2040 -375,809 -622,1307 -943,2099 -262,643 -562,1259 -937,1891 -396,653 -787,1210 -1157,1890 -1012,1869 -2169,3738 -3523,5393l-3652 4653c-1366,1606 -2817,3299 -4381,4723l-326 289c-177,172 -102,102 -300,305l-1928 1923c-1666,1323 -3090,2843 -4771,4139 -172,129 -306,241 -445,359l-14399 10121c-338,166 -552,268 -932,482l-2233 1414c-1457,856 -2897,1751 -4472,2415l-2773 1483c-1141,696 -2817,1692 -4140,1976 -739,155 -739,236 -407,-402l2319 -3598c471,-686 798,-1103 1258,-1789l2083 -3780c697,-1275 1623,-2539 2207,-3877 332,-761 471,-1355 872,-2158 343,-675 654,-1360 900,-1950 943,-2356 1762,-3898 2635,-6479 980,-2908 2875,-8397 3256,-11524l648 -5435c374,-4295 364,-9034 -257,-13329l-1227 -5258c-573,-2083 -1526,-4001 -2313,-5993l-4713 -8048c-508,-702 -1183,-1601 -1772,-2276l-9746 -9098c-455,-354 -835,-536 -1317,-905l-2496 -1762c-996,-551 -1772,-1060 -2704,-1553 166,707 530,1216 792,1848l1237 3009c97,236 97,263 177,434l991 2661c1012,3047 1285,6062 1762,9377 942,6635 -273,15203 -3165,21329 -327,701 -589,1205 -889,1944 -621,1483 -1167,2500 -1923,3753 -1552,2598 -3389,4927 -5349,7208 -273,316 -359,498 -600,820 -353,476 -889,1188 -1280,1558l-5971 5366c-4166,3694 -2623,3073 -5976,-413l-4562 -5360c-295,-337 -348,-439 -605,-814 -2822,-4273 -4231,-6067 -6458,-10967 -2367,-5210 -2608,-7133 -2608,-12782 0,-697 150,-782 198,-1419 -1451,337 -2463,1777 -3347,2923 -1542,1992 -2474,2555 -4182,5141l-5269 9114c-879,1928 -1478,3765 -2067,5827 -2019,6982 -2175,13269 -713,20332 696,3379 1650,6673 3160,9816l2934 5773c284,541 450,926 841,1387 482,562 675,546 744,1478 -3154,0 -9408,-3047 -12150,-4054 -3186,-1162 -8027,-3604 -10860,-5344 -525,-327 -814,-423 -1301,-729 -402,-262 -804,-567 -1216,-803 -3352,-1928 -4230,-2774 -7320,-4825 -562,-369 -669,-476 -1146,-889 -27,-21 -80,-64 -107,-96l-8477 -7529c-214,-225 -262,-305 -477,-541l-985 -1028c-1751,-1955 -3524,-3984 -5007,-6137 -305,-455 -434,-830 -750,-1285l-889 -1291 884 -792 47504 -47536c4407,-4413 6876,-10459 6876,-16703 0,-6318 -2512,-12455 -7074,-16846l-32248 -32275c1318,-4584 1725,-6474 3642,-11261 1130,-2828 2184,-5553 3523,-8225 1296,-2603 2538,-5372 4172,-7787l6169 -9628c332,-396 428,-648 787,-1039 439,-487 530,-482 942,-1081 589,-868 991,-1655 1687,-2367 375,-391 546,-541 878,-943l188 -225c27,-27 64,-75 91,-101l653 -766c337,-402 584,-782 868,-1157 364,-477 540,-616 969,-1060l841 -980c348,-412 583,-632 958,-1077 38,-42 150,-166 182,-219l4664 -4846c466,-359 659,-584 1050,-986 696,-696 1199,-1242 1955,-1895 26,-27 69,-65 107,-91l953 -879c444,-390 653,-594 1087,-931l3084 -2785c1045,-975 2207,-1601 3245,-2640 954,-958 2314,-1655 3374,-2495 38,-22 86,-65 118,-91l9050 -6544c2565,-1344 4803,-3197 7358,-4589l2452 -1398c1259,-825 2571,-1912 4134,-1944 -257,1093 -878,1965 -1215,3036 -391,1227 -761,1891 -1098,3369 -530,2351 -932,4996 -932,7780zm-40912 114966c0,-2474 -958,-4878 -2694,-6549l-47220 -47247c-1767,-1756 -4144,-2774 -6618,-2774 -2469,0 -4788,1018 -6528,2774l-5441 5441c-1735,1671 -2752,4059 -2752,6522 0,2480 1017,4868 2752,6528l21243 21361 -51059 0c-5227,0 -8493,4359 -8493,9286l0 9296c0,4948 3266,9280 8493,9280l51059 0 -21243 21270c-1735,1756 -2752,4150 -2752,6624 0,2463 1017,4857 2752,6603l5441 5440c1740,1671 4059,2694 6528,2694 2474,0 4851,-1023 6618,-2694l47220 -47257c1736,-1741 2694,-4150 2694,-6598z"/>
  <rect class="fil1" x="-1" width="290164" height="290164"/>
 </g>
</svg>
