<?xml version="1.0" encoding="UTF-8"?>
<!DOCTYPE svg PUBLIC "-//W3C//DTD SVG 1.1//EN" "http://www.w3.org/Graphics/SVG/1.1/DTD/svg11.dtd">
<!-- Creator: CorelDRAW X8 -->
<svg xmlns="http://www.w3.org/2000/svg" xml:space="preserve" width="64px" height="64px" version="1.1" style="shape-rendering:geometricPrecision; text-rendering:geometricPrecision; image-rendering:optimizeQuality; fill-rule:evenodd; clip-rule:evenodd"
viewBox="0 0 2221364 2221364"
 xmlns:xlink="http://www.w3.org/1999/xlink">
 <defs>
  <style type="text/css">
   <![CDATA[
    .fil1 {fill:none}
    .fil0 {fill:black;fill-rule:nonzero}
   ]]>
  </style>
 </defs>
 <g id="Ebene_x0020_1">
  <metadata id="CorelCorpID_0Corel-Layer"/>
  <path class="fil0" d="M569054 540439c0,42799 -18899,75554 -56942,98143l0 1127448c0,7707 -2665,14636 -8486,20211 -5617,5575 -12258,8527 -19965,8527l-56942 0c-7707,0 -14349,-2952 -20211,-8527 -5575,-5575 -8240,-12504 -8240,-20211l0 -1127448c-38044,-22589 -57188,-55344 -57188,-98143 0,-31402 11150,-58295 33493,-80637 22342,-22056 49235,-33247 80596,-33247 31444,0 58295,11191 80638,33247 22342,22342 33247,49235 33247,80637zm1311271 57188l0 679413c0,14922 -3731,26360 -11192,34354 -7461,7953 -19145,16193 -35092,24474 -127741,68913 -237321,103472 -328822,103472 -36199,0 -72889,-6641 -109867,-19678 -37264,-13036 -69446,-27425 -96584,-42840 -27385,-15414 -61739,-29516 -102939,-42553 -41241,-13282 -83548,-19677 -126921,-19677 -114131,0 -251916,43332 -413395,130077 -10126,5330 -19965,7994 -29271,7994 -15414,0 -28984,-5616 -40175,-17054 -11151,-11150 -17013,-24474 -17013,-39888l0 -661088c0,-18899 9306,-35379 27672,-48948 12503,-8240 35911,-21031 70511,-38330 140204,-71291 264952,-106916 374819,-106916 63583,0 122903,8773 178247,25786 55302,17300 120239,43373 194973,78465 22629,11192 48702,17054 78465,17054 31935,0 67068,-6395 104578,-18899 37757,-12503 70512,-26360 98143,-41774 27425,-15414 53785,-29517 78218,-41774 24761,-12504 40996,-18858 48703,-18858 15414,0 28737,5821 39888,17013 11438,11151 17054,24720 17054,40175z"/>
  <rect class="fil1" x="-7" y="-3" width="2221359" height="2221361"/>
 </g>
</svg>
