<?xml version="1.0" encoding="UTF-8"?>
<!DOCTYPE svg PUBLIC "-//W3C//DTD SVG 1.1//EN" "http://www.w3.org/Graphics/SVG/1.1/DTD/svg11.dtd">
<!-- Creator: CorelDRAW X8 -->
<svg xmlns="http://www.w3.org/2000/svg" xml:space="preserve" width="64px" height="64px" version="1.1" style="shape-rendering:geometricPrecision; text-rendering:geometricPrecision; image-rendering:optimizeQuality; fill-rule:evenodd; clip-rule:evenodd"
viewBox="0 0 2221364 2221364"
 xmlns:xlink="http://www.w3.org/1999/xlink">
 <defs>
  <style type="text/css">
   <![CDATA[
    .fil1 {fill:none}
    .fil0 {fill:black;fill-rule:nonzero}
   ]]>
  </style>
 </defs>
 <g id="Ebene_x0020_1">
  <metadata id="CorelCorpID_0Corel-Layer"/>
  <path class="fil0" d="M1943703 1217023c0,-39724 -45299,-49522 -77070,-49522l-964863 0c-77890,0 -182428,47923 -234082,108022l-297871 351124c-14061,15865 -27548,37305 -27548,58500 0,39970 45258,49768 77316,49768l964616 0c78096,0 182675,-47923 234083,-108268l297871 -351124c14307,-15906 27548,-37059 27548,-58500zm-304266 -304758c0,-109088 -89492,-198580 -198580,-198580l-482185 0 0 -28615c0,-108801 -89739,-198580 -198581,-198580l-283850 0c-109088,0 -198581,89779 -198581,198580l0 851265c0,6887 779,15086 779,21973l4510 -5288 298936 -351083c71783,-84983 209199,-148033 319885,-148033l737667 0 0 -141639z"/>
  <rect class="fil1" x="-7" y="-3" width="2221359" height="2221361"/>
 </g>
</svg>
