<?xml version="1.0" encoding="UTF-8"?>
<!DOCTYPE svg PUBLIC "-//W3C//DTD SVG 1.1//EN" "http://www.w3.org/Graphics/SVG/1.1/DTD/svg11.dtd">
<!-- Creator: CorelDRAW X8 -->
<svg xmlns="http://www.w3.org/2000/svg" xml:space="preserve" width="64px" height="64px" version="1.1" style="shape-rendering:geometricPrecision; text-rendering:geometricPrecision; image-rendering:optimizeQuality; fill-rule:evenodd; clip-rule:evenodd"
viewBox="0 0 993230 993230"
 xmlns:xlink="http://www.w3.org/1999/xlink">
 <defs>
  <style type="text/css">
   <![CDATA[
    .fil1 {fill:none}
    .fil0 {fill:black;fill-rule:nonzero}
   ]]>
  </style>
 </defs>
 <g id="Ebene_x0020_1">
  <metadata id="CorelCorpID_0Corel-Layer"/>
  <path class="fil0" d="M610390 496615c0,62671 -51104,113793 -113775,113793 -62652,0 -113774,-51122 -113774,-113793 0,-62652 51122,-113774 113774,-113774 62671,0 113775,51122 113775,113774zm227512 -48446c0,-7552 -5462,-14591 -12886,-15910l-81349 -12483c-4381,-14738 -10631,-29328 -18183,-43571 15122,-20841 31454,-40454 46576,-60910 2273,-3061 3593,-6251 3593,-10228 0,-3447 -916,-7039 -3061,-9697 -18697,-26267 -49766,-53744 -73412,-75538 -3061,-2621 -7038,-4509 -11016,-4509 -3959,0 -8084,1320 -10741,3977l-63056 47677c-12886,-6782 -26157,-12116 -39977,-16479l-12447 -81752c-971,-7552 -7991,-13417 -15947,-13417l-98743 0c-7956,0 -14206,5425 -15948,12464 -7167,26689 -9843,55522 -12904,82705 -13747,4363 -27568,10228 -40454,16864l-61351 -47530c-3446,-2621 -7552,-4509 -11529,-4509 -14976,0 -75025,64925 -85767,79515 -2108,3190 -3977,6251 -3977,10229 0,3977 1869,7570 4509,10759 16460,19925 32407,39978 47530,61333 -7167,13289 -12886,26523 -17396,40857l-82576 12373c-6599,1301 -12061,9440 -12061,16075l0 98616c0,7552 5462,14591 12886,15910l81367 12098c4362,15122 10613,29713 18165,43919 -15104,20878 -31455,40491 -46577,60947 -2273,3061 -3574,6251 -3574,10228 0,3446 916,7039 3061,10228 18696,25736 49766,53212 73393,74585 3061,3043 7039,4931 11017,4931 3977,0 8083,-1356 11144,-3978l62652 -47676c12886,6782 26175,12061 39978,16479l12464 81752c917,7552 7992,13417 15948,13417l98743 0c7956,0 14206,-5462 15947,-12501 7167,-26652 9825,-55485 12850,-82668 13802,-4418 27605,-10228 40491,-16864l61350 48061c3446,2090 7571,3978 11530,3978 14994,0 75025,-65328 85784,-79516 2622,-3189 3978,-6250 3978,-10228 0,-3977 -1888,-8083 -4509,-11144 -16479,-20053 -32426,-39593 -47530,-61351 7149,-12886 12446,-26120 17377,-40509l82155 -12318c7021,-1301 12483,-9440 12483,-16075l0 -98616z"/>
  <rect class="fil1" x="-3" y="-1" width="993228" height="993230"/>
 </g>
</svg>
