<?xml version="1.0" encoding="UTF-8"?>
<!DOCTYPE svg PUBLIC "-//W3C//DTD SVG 1.1//EN" "http://www.w3.org/Graphics/SVG/1.1/DTD/svg11.dtd">
<!-- Creator: CorelDRAW X8 -->
<svg xmlns="http://www.w3.org/2000/svg" xml:space="preserve" width="64px" height="64px" version="1.1" style="shape-rendering:geometricPrecision; text-rendering:geometricPrecision; image-rendering:optimizeQuality; fill-rule:evenodd; clip-rule:evenodd"
viewBox="0 0 639608 639608"
 xmlns:xlink="http://www.w3.org/1999/xlink">
 <defs>
  <style type="text/css">
   <![CDATA[
    .fil1 {fill:none}
    .fil0 {fill:black;fill-rule:nonzero}
   ]]>
  </style>
 </defs>
 <g id="Ebene_x0020_1">
  <metadata id="CorelCorpID_0Corel-Layer"/>
  <path class="fil0" d="M277251 338313c15262,-15263 22947,-33724 22947,-55373 0,-21565 -7685,-40027 -22947,-55384 -15345,-15250 -33807,-22935 -55372,-22935 -21661,0 -40122,7685 -55373,22935 -15357,15357 -22947,33819 -22947,55384 0,21649 7590,40110 22947,55373 15251,15357 33712,22935 55373,22935 21565,0 40027,-7578 55372,-22935zm257869 101242c0,-10600 -3825,-19736 -11604,-27503 -7767,-7767 -16903,-11603 -27503,-11603 -10600,0 -19830,3836 -27503,11603 -7767,7767 -11698,16903 -11698,27503 0,10883 3837,20114 11509,27692 7685,7673 16915,11509 27692,11509 10789,0 20020,-3836 27692,-11509 7673,-7578 11415,-16809 11415,-27692zm-117414 -184496l0 56659c0,2007 -732,4026 -2196,5938 -1369,1924 -3021,3022 -4839,3199l-47428 7401c-2290,7129 -5584,14896 -9786,23218 6953,9774 16089,21554 27515,35176 1464,2290 2101,4296 2101,6126 0,2467 -637,4379 -2101,5843 -4663,6126 -13067,15262 -25225,27326 -12158,12158 -20196,18273 -24033,18273 -2278,0 -4379,-732 -6398,-2196l-35270 -27503c-7495,3848 -15357,7035 -23478,9502 -2290,22026 -4580,37832 -7047,47428 -1463,4840 -4473,7307 -9219,7307l-56847 0c-2278,0 -4297,-732 -6115,-2278 -1924,-1558 -2927,-3294 -3116,-5395l-7035 -46779c-6941,-2018 -14613,-5217 -22935,-9514l-36097 27232c-1463,1464 -3470,2196 -6114,2196 -2290,0 -4391,-815 -6398,-2467 -29427,-27138 -44135,-43498 -44135,-48975 0,-1830 732,-3754 2196,-5760 2007,-2928 6209,-8322 12512,-16266 6303,-7944 11155,-14165 14436,-18639 -4745,-8959 -8322,-17363 -10789,-25130l-46507 -7319c-2007,-177 -3742,-1180 -5206,-2915 -1369,-1735 -2101,-3754 -2101,-5938l0 -56658c0,-2007 732,-4026 2101,-5938 1464,-1924 3105,-3022 4934,-3199l47429 -7306c2278,-7224 5477,-14897 9773,-23313 -6940,-9774 -16077,-21471 -27503,-35176 -1464,-2195 -2195,-4296 -2195,-6126 0,-2467 731,-4474 2195,-6115 4474,-6126 12796,-15179 25036,-27231 12253,-12064 20291,-18001 24222,-18001 2184,0 4379,637 6386,2101l35187 27503c6953,-3659 14803,-6858 23573,-9774 2290,-22026 4568,-37749 7035,-47062 1464,-4934 4486,-7401 9231,-7401l56847 0c2279,0 4285,826 6115,2278 1830,1558 2833,3376 3104,5395l7047 46790c6941,2090 14519,5206 22924,9491l36096 -27220c1653,-1464 3659,-2101 6126,-2101 2196,0 4391,826 6398,2372 29415,27138 44040,43498 44040,48975 0,1652 -731,3565 -2101,5855 -2467,3199 -6763,8770 -12878,16537 -6126,7673 -10694,13799 -13716,18284 4663,9868 8133,18178 10329,25119l46507 7035c2113,366 3848,1464 5217,3199 1464,1735 2196,3754 2196,5937zm195827 163119l0 42848c0,3294 -15262,6398 -45598,9514 -2467,5477 -5584,10777 -9231,15900 10423,23018 15628,37088 15628,42211 0,826 -366,1464 -1192,2101 -24953,14531 -37560,21755 -38020,21755 -1547,0 -6292,-4840 -14071,-14354 -7672,-9585 -12972,-16537 -15900,-20834 -4013,366 -7129,650 -9136,650 -2006,0 -5111,-284 -9219,-650 -2844,4297 -8133,11249 -15911,20834 -7767,9514 -12430,14354 -14071,14354 -366,0 -13067,-7224 -37926,-21755 -814,-637 -1180,-1275 -1180,-2101 0,-5123 5205,-19193 15617,-42211 -3742,-5123 -6752,-10423 -9219,-15900 -30431,-3116 -45599,-6220 -45599,-9514l0 -42848c0,-3293 15168,-6398 45599,-9502 2644,-5843 5748,-11237 9219,-15900 -10412,-23029 -15617,-37100 -15617,-42223 0,-814 366,-1546 1180,-2101 827,-460 4391,-2467 10695,-6126 6315,-3647 12335,-7130 18095,-10411 5666,-3293 8770,-4934 9136,-4934 1641,0 6304,4745 14071,14259 7778,9502 13067,16360 15911,20645 4108,-366 7213,-637 9219,-637 2007,0 5123,271 9136,637 10423,-14531 19831,-25957 28153,-34267l1818 -637c826,0 13527,7129 38020,21471 826,555 1192,1287 1192,2101 0,5123 -5205,19194 -15628,42223 3470,4663 6575,10057 9231,15900 30336,3104 45598,6209 45598,9502z"/>
  <rect class="fil1" x="-2" y="-1" width="639607" height="639607"/>
 </g>
</svg>
