<?xml version="1.0" encoding="UTF-8"?>
<!DOCTYPE svg PUBLIC "-//W3C//DTD SVG 1.1//EN" "http://www.w3.org/Graphics/SVG/1.1/DTD/svg11.dtd">
<!-- Creator: CorelDRAW X8 -->
<svg xmlns="http://www.w3.org/2000/svg" xml:space="preserve" width="64px" height="64px" version="1.1" style="shape-rendering:geometricPrecision; text-rendering:geometricPrecision; image-rendering:optimizeQuality; fill-rule:evenodd; clip-rule:evenodd"
viewBox="0 0 471676 471676"
 xmlns:xlink="http://www.w3.org/1999/xlink">
 <defs>
  <style type="text/css">
   <![CDATA[
    .fil1 {fill:none}
    .fil0 {fill:black;fill-rule:nonzero}
   ]]>
  </style>
 </defs>
 <g id="Ebene_x0020_1">
  <metadata id="CorelCorpID_0Corel-Layer"/>
  <path class="fil0" d="M159027 103308c23451,-13684 49052,-20534 76785,-20534 27803,0 53395,6850 76846,20534 23450,13640 42026,32208 55710,55658 13693,23460 20543,49113 20543,76855 0,27794 -6850,53386 -20543,76845 -13684,23451 -32260,42027 -55710,55711 -23451,13692 -49043,20543 -76846,20543 -27733,0 -53334,-6851 -76785,-20543 -23450,-13684 -42026,-32260 -55719,-55711 -13684,-23459 -20534,-49051 -20534,-76845 0,-27742 6850,-53395 20534,-76855 13693,-23450 32269,-42018 55719,-55658zm131433 83279c-304,121 -896,774 -1906,1906 -1018,1131 -1906,1732 -2681,1906 235,0 531,-357 897,-1010 296,-652 652,-1366 1009,-2202 296,-775 531,-1253 653,-1375 836,-949 2263,-1959 4405,-2969 1845,-835 5301,-1610 10358,-2446 4527,-1070 7913,-296 10176,2203 -296,-235 357,-1132 1907,-2559 1488,-1489 2498,-2264 2855,-2438 418,-235 1427,-539 2977,-896 1610,-296 2620,-827 3038,-1489l357 -4344c-1550,122 -2742,-356 -3456,-1427 -714,-1071 -1184,-2446 -1306,-4170 0,235 -418,775 -1192,1611 0,-958 -296,-1489 -888,-1611 -601,-113 -1376,-61 -2324,183 -897,296 -1489,357 -1785,235 -1306,-418 -2324,-949 -2977,-1549 -661,-592 -1192,-1663 -1610,-3273 -357,-1602 -653,-2560 -775,-2977 -296,-653 -888,-1367 -1906,-2203 -1010,-766 -1602,-1427 -1898,-1967 -122,-296 -305,-653 -479,-1123 -235,-479 -418,-896 -592,-1314 -243,-357 -478,-714 -835,-1071 -296,-357 -653,-479 -1071,-479 -418,0 -897,305 -1367,958 -539,714 -1079,1366 -1549,2028 -418,653 -714,1001 -897,1001 -357,-296 -774,-348 -1192,-296 -357,61 -653,122 -888,183 -183,61 -479,235 -897,592 -418,357 -714,592 -1009,722 -357,235 -949,470 -1663,592 -723,113 -1315,235 -1671,357 1967,-661 1906,-1367 -235,-2150 -1315,-531 -2386,-766 -3160,-592 1192,-531 1671,-1367 1488,-2437 -235,-1010 -766,-1967 -1723,-2742l1009 0c-121,-531 -713,-1123 -1662,-1724 -1010,-600 -2211,-1131 -3517,-1671 -1306,-531 -2202,-949 -2620,-1184 -1010,-714 -3273,-1314 -6720,-1906 -3456,-601 -5658,-653 -6616,-122 -653,775 -949,1488 -888,2080 61,601 357,1550 775,2803 479,1254 714,2081 714,2499 122,774 -235,1671 -1071,2559 -896,957 -1305,1784 -1305,2437 0,897 948,1967 2794,3099 1845,1132 2498,2559 1967,4283 -366,1018 -1436,2089 -3160,3160 -1723,1070 -2794,1845 -3212,2385 -653,1070 -775,2315 -305,3682 479,1436 1202,2507 2090,3281 296,296 357,531 296,827 -61,244 -296,540 -653,897 -418,357 -775,592 -1132,775 -296,235 -775,470 -1306,713l-600 418c-1428,653 -2794,235 -4048,-1192 -1306,-1489 -2202,-3212 -2733,-5180 -897,-3334 -1968,-5362 -3160,-6015 -3029,-1070 -4997,-1009 -5771,183 -653,-1732 -3395,-3456 -8157,-5179 -3334,-1193 -7199,-1428 -11603,-775 827,-122 827,-1131 0,-2977 -897,-2019 -2141,-2794 -3752,-2385 357,-827 653,-1959 775,-3508 113,-1549 235,-2437 235,-2681 357,-1724 1192,-3273 2385,-4579 113,-122 592,-714 1367,-1723 774,-958 1427,-1846 1906,-2681 470,-775 470,-1193 113,-1193 4648,540 7982,-174 9941,-2202 662,-653 1428,-1785 2324,-3395 836,-1541 1550,-2681 2081,-3395 1192,-766 2089,-1123 2803,-1071 652,61 1601,418 2855,1071 1253,714 2202,1019 2916,1019 1845,113 2855,-601 3099,-2203 174,-1549 -305,-2925 -1550,-3995 1611,183 1846,-949 592,-3386 -479,-897 -1010,-1489 -1549,-1785 -1602,-540 -3386,-183 -5415,1010 -1070,540 -896,1071 418,1610 -113,-122 -775,531 -1906,2081 -1132,1540 -2202,2681 -3273,3508 -1071,774 -2142,418 -3212,-1010 -122,-122 -479,-1010 -1071,-2681 -601,-1663 -1253,-2559 -1906,-2733 -1071,0 -2142,1009 -3151,3038 348,-1071 -366,-2090 -2203,-3038 -1854,-897 -3455,-1437 -4822,-1550 2550,-1610 2019,-3395 -1550,-5414 -957,-540 -2324,-836 -4108,-958 -1785,-174 -3099,122 -3865,775 -653,958 -1071,1671 -1132,2263 -61,592 296,1132 1010,1611 714,470 1428,835 2080,1131 662,235 1428,531 2325,775 827,296 1427,470 1662,592 1846,1306 2385,2263 1611,2794 -296,122 -836,366 -1724,714 -836,305 -1610,601 -2263,896 -662,236 -1071,540 -1193,775 -418,531 -418,1489 0,2794 418,1315 244,2264 -418,2803 -652,-652 -1244,-1854 -1784,-3516 -540,-1663 -1010,-2734 -1367,-3273 888,1192 -774,1610 -5005,1192l-2019 -183c-540,0 -1550,122 -3152,366 -1610,287 -2977,348 -4108,235 -1132,-122 -2028,-653 -2681,-1610 -540,-1071 -540,-2377 0,-3987 122,-531 418,-662 774,-418 -539,-357 -1253,-1010 -2150,-1845 -948,-888 -1601,-1428 -2019,-1724 -6128,2020 -12378,4701 -18750,8148 836,183 1610,122 2437,-174 662,-235 1489,-714 2568,-1306 1071,-601 1724,-958 2020,-1071 4465,-1854 7259,-2324 8330,-1436l1018 -949c1846,2081 3152,3752 3987,4936 -957,-531 -2916,-592 -6015,-174 -2620,774 -4108,1610 -4343,2385 896,1601 1253,2794 948,3569 -470,-357 -1244,-1019 -2254,-1968 -1019,-948 -1967,-1662 -2925,-2202 -888,-540 -1898,-827 -2968,-1010 -2089,0 -3578,122 -4353,235 -19403,10603 -35054,25357 -46840,44229 888,949 1724,1489 2376,1611 540,122 836,713 1010,1784 122,1071 305,1785 479,2202 183,418 949,175 2324,-591 1193,1070 1367,2315 592,3743 122,-114 3038,1671 8748,5423 2507,2254 3935,3630 4170,4161 418,1488 -235,2681 -1967,3577 -174,-244 -766,-835 -1785,-1793 -1070,-888 -1662,-1184 -1845,-766 -357,653 -357,1898 122,3691 478,1784 1192,2620 2089,2498 -897,0 -1550,1071 -1915,3151 -296,2142 -470,4527 -470,7086 0,2620 -61,4169 -183,4700l357 183c-357,1611 0,3865 1131,6903 1132,2977 2560,4283 4292,3874 -1732,409 -418,3273 3987,8565 774,1071 1305,1672 1601,1785 366,304 1193,774 2385,1488 1193,714 2203,1428 2977,2028 775,592 1489,1245 1968,2081 531,653 1245,2141 2019,4465 775,2325 1724,3865 2794,4701 -296,775 357,2080 1907,3987 1488,1845 2202,3395 2080,4587 -113,0 -296,61 -531,174 -174,122 -357,183 -479,183 418,949 1428,1906 3099,2794 1663,958 2681,1793 3091,2620 121,418 243,1071 417,1968 122,948 296,1662 601,2202 235,531 766,653 1549,418 296,-2681 -1314,-6790 -4761,-12378 -1967,-3282 -3099,-5241 -3404,-5780 -409,-653 -766,-1663 -1070,-3099 -348,-1367 -653,-2316 -888,-2855 235,0 653,61 1192,296 531,182 1071,417 1663,661 601,296 1132,531 1489,827 417,244 539,479 417,601 -417,949 -235,2080 418,3508 653,1366 1428,2620 2377,3638 896,1071 2028,2316 3394,3804 1315,1489 2081,2324 2386,2620 774,775 1723,2081 2794,3865 1070,1785 1070,2681 0,2681 1192,0 2507,714 3987,2090 1427,1418 2559,2672 3394,3925 653,1010 1193,2734 1611,5180 357,2376 714,3987 949,4761 296,949 835,1846 1732,2681 827,888 1662,1480 2489,1898 784,418 1855,957 3160,1610 1315,653 2203,1132 2620,1367 653,296 1846,957 3691,2089 1785,1132 3212,1898 4283,2316 1306,539 2385,774 3160,774 827,0 1784,-174 2916,-470 1123,-365 2019,-600 2672,-722 1967,-235 3935,722 5780,2977 1846,2263 3273,3691 4161,4230 4822,2499 8461,3212 10951,2142 -235,182 -174,653 130,1549 348,827 888,1846 1602,3090 714,1193 1306,2142 1784,2864 479,714 836,1306 1071,1724 714,774 1906,1784 3630,2977 1732,1192 2916,2202 3569,2977 783,-540 1253,-1132 1375,-1785 -357,1071 113,2377 1428,3987 1306,1602 2498,2255 3569,1967 1845,-365 2803,-2507 2803,-6372 -4109,2020 -7382,836 -9767,-3577 0,-113 -174,-470 -479,-1132 -348,-592 -653,-1123 -827,-1662 -183,-531 -357,-1071 -479,-1663 -113,-601 -113,-1132 0,-1549 122,-357 479,-601 1010,-601 1193,0 1846,-235 1967,-653 122,-470 0,-1306 -417,-2498 -357,-1193 -653,-2081 -775,-2620 -113,-1071 -888,-2377 -2202,-3987 -1306,-1550 -2142,-2559 -2377,-2977 -661,1192 -1732,1723 -3212,1610 -1436,-122 -2507,-714 -3160,-1784 0,113 -113,470 -296,1070 -235,592 -296,1010 -296,1306 -1732,0 -2742,-61 -2977,-174 114,-418 296,-1610 470,-3517 183,-1906 418,-3395 714,-4465 122,-531 479,-1367 1071,-2438 601,-1009 1071,-2028 1488,-2855 418,-896 662,-1671 836,-2507 122,-774 -174,-1427 -949,-1897 -713,-479 -1845,-601 -3455,-479 -2560,113 -4283,1427 -5180,3987 -113,418 -357,1070 -592,2080 -296,1010 -592,1793 -1010,2324 -417,479 -1018,949 -1793,1367 -949,418 -2498,540 -4752,418 -2272,-174 -3874,-479 -4823,-1010 -1732,-1071 -3212,-2977 -4465,-5780 -1254,-2794 -1907,-5232 -1907,-7373 0,-1314 174,-3099 479,-5301 357,-2202 531,-3804 592,-4944 122,-1132 -296,-2795 -1071,-4936 418,-235 1010,-888 1785,-1845 835,-1010 1488,-1724 2028,-2081 235,-183 531,-244 888,-365 296,-53 600,-53 896,0 235,121 531,0 775,-288 296,-243 470,-661 592,-1201 -122,-113 -357,-296 -775,-592 -418,-357 -653,-592 -835,-592 957,418 2863,296 5719,-296 2855,-600 4700,-479 5475,296 1959,1489 3447,1367 4405,-357 0,-182 -183,-774 -540,-1906 -296,-1132 -357,-2028 -52,-2681 652,3578 2550,4169 5771,1784 357,357 1427,723 3090,958 1610,296 2803,653 3456,1010 418,296 888,653 1427,1131 540,418 897,714 1071,897 183,113 540,52 1010,-122 479,-183 1018,-653 1671,-1314 1367,1854 2142,3455 2385,4822 1489,5301 2734,8217 3804,8748 958,418 1672,540 2203,418 539,-174 835,-766 896,-1898 61,-1131 61,-2089 0,-2802 -61,-714 -183,-1541 -304,-2499l-175 -1601c0,-1193 0,-2385 0,-3578l-243 -1610c-1959,-357 -3212,-1184 -3691,-2377 -470,-1192 -348,-2437 305,-3691 652,-1253 1662,-2498 3037,-3690 114,-122 653,-357 1550,-714 949,-296 1959,-714 3090,-1254 1132,-531 1967,-1070 2498,-1601 2795,-2499 3813,-4884 2977,-6964 949,0 1672,-601 2203,-1785 -113,0 -479,-243 -1010,-600 -540,-418 -1010,-775 -1489,-1010 -478,-305 -774,-418 -896,-418 1192,-653 1314,-1723 418,-3160 653,-418 1131,-1123 1488,-2202 357,-1071 836,-1724 1489,-2020 1192,1611 2620,1733 4169,418 1071,-1070 1132,-2141 235,-3212 653,-896 2029,-1610 4048,-2089 2080,-479 3334,-1071 3691,-1898 949,296 1488,175 1610,-365 122,-531 174,-1367 174,-2377 0,-1070 244,-1906 601,-2437 531,-661 1549,-1253 3038,-1784 1419,-540 2315,-836 2550,-1019l3395 -2141c418,-531 418,-836 0,-836 2385,305 4466,-479 6189,-2202 1315,-1428 958,-2733 -1183,-3987 417,-775 174,-1427 -601,-1845 -836,-479 -1785,-836 -2977,-1132 357,-113 1131,-174 2263,-61 1132,61 1846,-52 2081,-357 2028,-1305 1549,-2376 -1367,-3151 -2255,-653 -5119,122 -8566,2377zm-32503 174826c27376,-4823 50714,-17375 69943,-37674 -357,-418 -1193,-714 -2507,-897 -1245,-235 -2081,-479 -2438,-714 -2437,-949 -3987,-1488 -4822,-1601 122,-958 0,-1785 -470,-2568 -479,-827 -1019,-1419 -1611,-1837 -592,-366 -1427,-897 -2498,-1549 -1071,-714 -1784,-1132 -2202,-1437 -244,-235 -714,-653 -1376,-1184 -652,-539 -1131,-896 -1366,-1070 -296,-235 -775,-540 -1550,-897 -705,-418 -1244,-540 -1662,-418 -418,122 -1071,183 -1968,183l-652 235c-357,122 -714,296 -1071,479 -357,183 -714,418 -1071,592 -418,183 -714,418 -835,592 -122,244 -122,365 0,479 -2795,-2203 -5180,-3691 -7138,-4344 -662,-122 -1437,-540 -2203,-1132 -835,-592 -1488,-1010 -2089,-1366 -592,-357 -1245,-418 -2019,-296 -714,113 -1489,592 -2263,1366 -653,714 -1071,1672 -1193,3038 -183,1306 -296,2142 -418,2559 -949,-652 -949,-1845 0,-3455 958,-1672 1071,-2916 418,-3691 -418,-836 -1132,-1132 -2141,-888 -949,174 -1785,470 -2386,888 -591,357 -1366,949 -2263,1671 -949,714 -1540,1184 -1776,1306 -304,122 -835,479 -1732,1071 -835,591 -1427,1131 -1671,1488 -409,540 -827,1375 -1184,2446 -418,1010 -775,1785 -1018,2141 -288,-539 -1010,-957 -2316,-1253 -1253,-357 -1845,-714 -1845,-1132 235,1376 539,3691 774,6964 235,3334 592,5893 1010,7617 897,4108 122,7268 -2385,9532 -3621,3325 -5527,6006 -5832,7973 -470,2916 305,4648 2446,5179 0,949 -540,2325 -1610,4109 -1071,1785 -1550,3212 -1428,4283 0,775 183,1845 418,3212z"/>
  <rect class="fil1" x="-1" y="-1" width="471675" height="471676"/>
 </g>
</svg>
