<?xml version="1.0" encoding="UTF-8"?>
<!DOCTYPE svg PUBLIC "-//W3C//DTD SVG 1.1//EN" "http://www.w3.org/Graphics/SVG/1.1/DTD/svg11.dtd">
<!-- Creator: CorelDRAW X8 -->
<svg xmlns="http://www.w3.org/2000/svg" xml:space="preserve" width="64px" height="64px" version="1.1" style="shape-rendering:geometricPrecision; text-rendering:geometricPrecision; image-rendering:optimizeQuality; fill-rule:evenodd; clip-rule:evenodd"
viewBox="0 0 290165 290165"
 xmlns:xlink="http://www.w3.org/1999/xlink">
 <defs>
  <style type="text/css">
   <![CDATA[
    .fil1 {fill:none}
    .fil0 {fill:black}
   ]]>
  </style>
 </defs>
 <g id="Ebene_x0020_1">
  <metadata id="CorelCorpID_0Corel-Layer"/>
  <path class="fil0" d="M60179 144965c1789,0 3599,-113 5403,433 343,113 680,322 1189,488 696,246 637,208 1184,492 1055,600 2035,1071 2977,1901 166,150 225,225 412,359 718,503 1998,1655 2485,2426 187,300 38,171 343,568 787,996 1371,1992 1863,3180 204,509 375,675 504,1205 134,488 171,809 508,1146 434,-37 472,-134 734,-546l2206 -3218c247,-434 322,-413 600,-830 771,-1071 1735,-1955 2678,-2747 16,-22 53,-59 74,-75l697 -434c150,-75 316,-188 412,-247 209,-128 209,-166 471,-299 322,-150 600,-225 905,-375 1467,-793 488,-397 1976,-680 434,-75 546,-300 1184,-300 1885,0 4219,-322 5949,450l1092 417c38,16 150,75 188,91 926,434 1638,568 2506,1227 1564,1183 1467,883 3047,2484 359,338 643,600 964,980 900,1018 1633,2126 2217,3347 1585,3336 680,1585 1563,4145l247 1617c37,868 262,1660 209,2506 -59,996 -231,1955 -193,2972 2865,284 5724,584 8209,2281 1564,1071 2844,1901 4123,3465 905,1109 2164,2747 2656,4081l980 2409c188,456 91,509 188,1002 53,412 166,525 225,905l359 3234c-22,884 -322,1580 -322,2485 0,696 943,396 1564,396 1505,0 4723,696 6040,1505 1039,642 2394,1264 3486,2297l1034 905c792,696 1526,1655 2072,2560l1109 1885c434,921 830,1408 1167,2747 921,3614 718,3165 718,7283 0,530 -755,2881 -980,3352l-905 1810c-241,434 -375,621 -659,1033 -246,375 -487,680 -750,1055l-321 450c-396,509 -905,1039 -1092,1623 412,433 2618,1033 3352,1258l4910 1585c418,188 1002,354 1393,429 417,58 380,0 755,133l2222 606c562,91 696,299 1430,428l4573 964c1017,53 793,225 1548,316l2575 305c696,75 846,-112 1468,-59l755 134c2731,241 4460,-471 4819,-471 868,0 225,209 905,-75 450,-188 675,-113 1146,-263 38,-21 75,-21 113,-37 867,-305 1017,-605 1713,-830 38,-22 75,-22 97,-38l283 -59c825,-358 2276,-1751 3069,-2409 225,-188 112,-38 353,-279 172,-171 134,-171 305,-342 150,-150 225,-188 413,-359 262,-241 16,-75 337,-300 943,-712 1489,-1751 2260,-2651 246,-268 471,-434 680,-755 16,-21 37,-59 37,-75l488 -867c-546,-129 -300,-209 -793,-450l-2104 -1018c-322,-150 -22,-21 -247,-133l-1279 -525c-959,-621 -1452,-584 -2089,-1093 -642,-487 -4557,-2372 -5516,-2843l-2072 -980c-21,-16 -59,-16 -96,-38 -16,-16 -54,-37 -75,-53 -1296,-680 -3144,-1451 -4274,-2148l-5569 -2784c-471,-284 -492,-284 -926,-471l-1917 -943c-1451,-958 -1848,-1205 -1848,-3165 0,-696 381,-1183 734,-1579 396,-450 75,-284 621,-525 1751,-814 3240,300 4782,1130l5350 2597c187,128 262,187 471,300 434,209 562,171 975,434l1435 749c749,455 1692,814 2447,1130l4707 2469c54,37 225,128 262,150l6041 2934c546,247 905,568 1472,718 466,150 638,246 1050,471 418,246 568,412 868,562 433,247 808,193 1129,418 338,225 -171,38 338,279 808,358 6913,283 7400,283 134,0 1842,-375 1939,-412l1976 -830c21,-16 59,-38 75,-38l1017 -792c225,-225 397,-375 584,-578l396 -509c38,-38 134,-155 188,-209l867 -1467c412,-927 1542,-4086 1542,-6121 0,-471 -53,38 -75,-509 0,-1167 359,-733 -605,-1371l-15154 -9151c-2180,-1264 -8600,-5270 -9977,-5928l-8112 -4857c-434,-209 -284,-155 -643,-396 -541,-381 -659,-322 -1087,-846 -343,-381 -621,-756 -702,-1361 -128,-1130 81,-2276 1114,-2897 54,-37 1184,-583 1318,-621 846,-171 2013,755 2709,1205 322,187 455,171 718,300l1167 755c321,225 300,262 621,412 150,75 188,75 359,172l4664 2784c284,172 980,584 1264,793l2163 1280c22,0 59,16 75,37l1473 868c1184,899 2485,1558 3765,2297l2484 1483c547,284 696,455 1205,734l2501 1472c434,204 268,166 621,413l3181 1826c193,134 284,262 509,396 267,150 417,166 680,337 434,284 808,488 1242,793 97,54 509,278 584,337l1922 1168c600,412 675,134 1280,658l2426 1543c792,342 1414,37 2185,37 525,0 792,134 1355,75l4932 -846c1884,-712 3277,-1617 4444,-3277l471 -712c659,-943 1034,-2126 1334,-3219 471,-1735 621,-4182 262,-5987 -75,-455 -112,-433 -466,-717 -717,-562 -2618,-1601 -3389,-2089l-6325 -3973c-739,-337 -1563,-943 -2334,-1414l-1093 -712c-1092,-530 -2410,-1660 -3411,-2110l-1521 -905c-2447,-1676 -5050,-3159 -7550,-4685 -263,-172 -375,-284 -680,-472l-3031 -1842c-375,-284 -375,-268 -771,-492l-3727 -2351c-322,-188 -547,-268 -830,-455l-1109 -697c-16,-16 -59,-37 -75,-53l-150 -113c-21,0 -59,-37 -75,-59l-5312 -3277c-509,-337 -884,-808 -1071,-1371 -150,-433 -262,-658 -246,-1113 21,-413 112,-600 246,-996 187,-568 96,-413 471,-831 359,-396 980,-771 1468,-942 942,-337 1863,268 2597,718l3561 2238c1183,851 2238,1264 3256,2019l4519 2822c338,246 354,246 712,450l3412 2110c203,133 149,112 374,262 284,171 488,262 750,418l5291 3330c1355,847 2768,1618 4107,2582 54,37 321,203 375,224l8284 5098c712,509 1601,905 2297,1435l5232 3272c375,209 412,306 793,472 2634,1242 7207,1188 9714,-300l1296 -771c21,-22 58,-59 74,-59l1264 -1205c0,-16 38,-54 59,-75l2164 -3765c321,-674 374,-1488 449,-2222 38,-509 209,-862 209,-1446l-337 -2147c-134,-396 -246,-643 -380,-921l-771 -1564c-868,-1376 -980,-1601 -2223,-2956 -749,-846 -1788,-1660 -2650,-2372l-31124 -24435c-1370,-926 -2650,-2035 -4085,-2940l-2539 -1842c-755,-492 -1392,-1151 -2163,-1585l-4466 -3122c-225,-187 -509,-380 -750,-546l-792 -493c-338,-187 -91,0 -397,-241 -128,-112 -150,-155 -337,-284 -1092,-792 -2260,-1638 -3406,-2281l-3464 -2179c-1773,-1189 -3599,-2394 -5479,-3390l-10281 -6046c-279,-166 -562,-300 -825,-449l-1242 -718c-97,-54 -321,-166 -396,-225 -134,-75 -247,-112 -418,-203l-787 -493c-343,-171 -188,-54 -472,-188l-696 -471c-396,-209 -508,-150 -883,-396l-8097 -4498c-450,-247 -493,-134 -921,-434 -21,-16 -59,-37 -75,-54 -21,0 -246,-155 -268,-171 -1579,-830 -2179,-1355 -4048,-525l-3256 1071c-278,75 -450,172 -787,263l-4145 1376c-1033,412 -1676,2126 -2410,2993l-2409 3160c-300,380 -697,814 -1034,1151 -375,396 -696,809 -1017,1184 -1318,1601 -2972,3068 -4499,4423l-2372 1981c-717,562 -2410,1880 -3181,2239 -546,246 -342,187 -696,449l-964 584c-787,493 -2409,1414 -3293,1714 -771,283 -1751,889 -3068,1301l-4252 1130c-434,91 -359,166 -852,284l-4027 374c-1183,91 -3089,38 -4139,-112 -1489,-187 -2678,-530 -3995,-1376l-1483 -1221 -1151 -1698c-943,-1804 -959,-3577 -905,-5778 0,-321 75,-1772 133,-2088 150,-734 509,-1698 600,-2640 97,-862 268,-959 546,-1692l5859 -10239c91,-155 150,-246 241,-418l3711 -5724c771,-937 1242,-1976 2013,-2913l3840 -5612c267,-413 112,187 209,-450 -1302,-284 -2635,-680 -3936,-739 -1109,-54 -2956,-487 -4199,-675l-5135 -846c-1039,-305 -2356,-509 -3374,-889l-1504 -391c-831,-171 -2935,-1092 -3749,-1638l-4236 -2560c-203,-113 -150,-75 -337,-209 -188,-150 -16,-75 -337,-284l-1114 -696c-488,-284 -7808,-5119 -8450,-5269 -113,487 -97,337 -338,675 -12070,10715 -29088,34662 -35996,47139 -150,209 -37,38 -209,343 -53,113 -150,300 -203,434l-739 1467c-204,471 -150,204 -413,621 -208,338 -171,488 -358,809l-1655 2881c-337,637 -562,1017 -246,1467 567,905 14913,18582 15738,19974l4819 6158c225,279 2223,3047 2448,3106 455,75 792,-755 1092,-1055l1280 -1279c455,-359 905,-809 1467,-1093l1810 -905c1146,-434 2388,-883 3593,-883zm32494 -33758c0,1922 -53,3770 2206,4241 1918,391 5832,91 7867,-343l7304 -2672 5350 -3406c883,-583 2088,-1601 2875,-2393l209 -188c247,-209 113,-75 359,-300l680 -605c1333,-1242 2447,-2463 3556,-3802l1729 -2013c697,-980 1602,-1848 2169,-2897l1055 -1526c621,-868 787,-1452 1805,-1923 471,-225 1413,-359 1960,-600l9317 -3090c1676,-337 1917,-1092 3369,-321 208,97 546,230 792,343 487,225 338,203 712,450 718,433 1676,680 2394,1205 659,487 2881,1504 3823,2072 338,187 504,278 847,450 487,225 241,171 712,434 246,133 546,246 792,374 1055,584 2276,1430 3369,1901l8021 4541c16,17 54,38 75,54 16,21 59,37 97,59 16,16 128,53 166,75 209,112 209,91 417,225 375,225 300,246 697,450 1092,567 2238,1167 3255,1901 16,21 54,37 75,59l2276 1317c97,75 322,246 359,262l2222 1376c284,172 488,188 793,375 316,225 391,322 771,509l6533 4145c2088,1317 3990,2763 6024,4123 16,16 54,38 75,54 204,134 129,96 225,171 300,241 247,225 659,487l3277 2260c16,22 38,38 75,59 0,0 188,166 204,187 358,316 926,734 1317,980 964,579 1847,1446 2790,1992l20461 15326c322,225 375,284 643,509l8525 6946c643,449 755,583 1355,1092 230,209 380,359 621,525 396,321 321,321 605,567l621 547c300,262 75,53 375,262 188,150 -246,-225 134,112 375,322 -321,-299 187,188 225,225 -58,-16 284,246l1580 1376c246,225 509,375 771,563 262,-75 1226,-547 1505,-718 471,-262 980,-466 1414,-750 187,-133 449,-262 642,-396 771,-509 1633,-1017 2351,-1655l134 -112c16,-21 53,-37 75,-59l771 -509c396,-321 867,-658 1221,-958l3920 -3690c4385,-4385 10180,-6795 15679,-9997 2581,-3765 -24269,-54123 -35262,-65213 -975,53 -697,171 -1243,374 -412,150 -862,188 -1333,338l-14705 4070c-487,75 -771,321 -1296,321l-4819 0c-397,0 -793,-268 -1398,-343 -509,-53 -975,-112 -1408,-203 -547,-113 -964,-59 -1473,-172 -712,-134 -1708,-524 -2688,-637l-5350 -1301c-525,-150 -862,-75 -1371,-263 -867,-321 -2013,-380 -2715,-621 -674,-225 -466,-305 -1826,-605 -316,-75 -450,-37 -808,-91 -638,-96 -1751,-659 -3047,-659 -1976,0 -509,188 -1751,-358 -696,-300 -1452,-247 -2298,-322 -530,-37 -412,-134 -846,-262 -905,-246 -2506,-359 -3464,-396 -734,-38 -1205,-263 -2014,-359 -3218,-434 -6608,-412 -9789,-412l-3427 112c-1189,-21 -2372,0 -3561,-21l-6833 358c-1108,134 -1826,322 -3181,322 -1205,0 -2238,134 -3368,262 -530,75 -1167,59 -1601,171 -718,166 -584,247 -1505,247 -2056,-43 -4048,600 -4707,658 -1076,91 -2147,150 -3202,391 -546,134 -696,284 -1393,359l-4423 980c-1638,471 -4407,1205 -5821,2222 -449,322 -112,75 -599,322 -680,316 -1318,1258 -1730,1863l-4123 5853c-852,1034 -1864,2747 -2790,3952l-2217 3202c-343,659 -943,1243 -1339,1923l-4536 6720c-267,391 -171,466 -508,900 -718,926 -1152,1826 -1789,2769l-3374 5687c-824,1413 -1729,2618 -1954,4385 -97,734 -643,2239 -643,3010zm-27615 75269c0,1826 299,3390 958,4991 359,846 884,1633 1430,2314l1489 1601c21,16 59,53 75,53l262 268c851,825 3807,2426 4991,2426l2656 0c396,0 359,-113 771,-225 471,-113 359,-97 755,-284 996,-471 1826,-942 2597,-1789 1109,-1220 2860,-4064 3990,-5553l583 -846c225,-300 247,-337 434,-621 209,-321 263,-300 450,-568l1526 -2216c150,-284 96,-193 284,-381l1992 -2806c21,-16 37,-37 59,-53l9055 -12820c16,-38 75,-113 91,-150l380 -434c113,-150 113,-225 225,-417 600,-1109 921,-1655 1264,-3031 337,-1521 166,-3444 -380,-4798l-284 -884c-203,-696 -771,-1489 -1146,-2094 -134,-187 -284,-546 -412,-733l-1564 -1677c-996,-787 -2072,-1692 -3315,-2067 -1938,-605 -1451,-605 -3518,-605 -755,22 -1451,-53 -2051,263 -37,0 -59,21 -96,37l-525 247c-434,171 -359,112 -776,396 -600,412 -697,359 -1280,883 -316,300 -771,680 -1034,1039 -942,1259 -1788,2613 -2768,3840 -284,359 -166,321 -375,658 -150,263 -284,338 -509,659l-3143 4482c-172,225 -247,338 -455,600l-1205 1751c-16,38 -38,59 -54,96l-7325 10277c-225,358 -241,262 -509,658l-1521 2223c-455,696 -1039,1354 -1339,2147l-450 1130c-112,396 -283,1430 -283,2013zm20632 14834l338 2902c246,787 396,1205 696,1917 155,418 321,568 471,830l1001 1580c900,1151 1296,1467 2351,2281 884,659 1826,1071 2844,1542 1430,659 4161,584 5553,54l1430 -750c1092,-808 1354,-1205 2163,-2222l2094 -2844c359,-546 16,-524 509,-1167 1296,-1676 471,-1034 2013,-2522l1092 -1639c92,-187 75,-150 188,-321 600,-787 1371,-1767 1805,-2597 112,-188 75,-129 208,-300 150,-150 150,-134 300,-338l493 -680c0,-37 37,-53 37,-75l4086 -5762c225,-337 166,-374 354,-658 230,-300 283,-300 530,-659 262,-412 525,-825 824,-1355 172,-300 43,-16 193,-358 38,-38 129,-279 166,-359l472 -1746c358,-2131 -263,-4520 -1205,-6496 -397,-851 -1243,-1885 -1864,-2522 -209,-246 -321,-342 -562,-605 -1077,-1108 -2469,-2035 -4011,-2560l-1864 -433c-1901,-284 -4048,283 -5515,1526 -846,712 -4804,6324 -5628,7588 -172,241 -134,166 -343,434 -278,412 -471,621 -637,921l-6442 9092c-241,300 -413,600 -638,905l-1959 2710c-225,359 -354,584 -547,1017 -166,391 -337,600 -487,1034 -150,412 -262,793 -284,1317 -37,621 -225,1018 -225,1318zm31702 24284c2147,0 1772,113 3636,-412 921,-246 1992,-980 2613,-1788l2110 -2806c59,-91 150,-188 225,-284 193,-225 343,-450 492,-675l4311 -6046c16,-37 38,-53 54,-91l3052 -4294c1146,-1714 1130,-3540 1130,-5532 0,-943 -1092,-3749 -1698,-4670 -1279,-1922 -1279,-1772 -2875,-3181 -193,-150 -97,-133 -343,-305 -278,-187 -166,-75 -434,-225 -278,-166 -465,-359 -749,-525 -1205,-696 -1998,-696 -2828,-905 -1049,-246 59,-283 -2104,-283l-2828 733c-2500,1339 -3459,3652 -5082,5784l-921 1258c0,0 -208,321 -208,321 -188,300 -150,284 -359,547l-3781 5269c0,0 -171,225 -171,225 -113,155 -75,59 -247,284l-503 755c-568,674 -268,412 -546,883 -113,188 -209,263 -396,530l-456 734c-299,621 -583,1992 -696,2688 -262,1526 530,4766 1414,6062 434,621 412,980 1355,2019 1301,1467 3539,3309 5440,3593 659,96 884,337 1393,337zm-69090 -59884c0,3240 37,3427 1317,6099 418,868 1280,2147 2073,2827 1146,997 1729,1730 3539,2523 600,262 2956,846 3668,824 852,-37 2790,-508 3486,-921 959,-583 997,-717 1655,-1451 97,-112 284,-300 359,-412l5537 -7529c225,-338 353,-584 600,-959 246,-380 450,-509 621,-905l471 -1114c509,-1296 321,-3122 321,-4894 0,-338 -417,-1392 -546,-1767 -696,-1810 -755,-1698 -1713,-3090 -830,-1205 -2747,-2897 -3877,-3331 -1264,-450 -755,-605 -2603,-846 -1408,-187 -1146,-471 -2822,-75 -1976,471 -1692,150 -3652,1617 -359,300 -171,150 -450,450l-5896 8081c-412,846 -300,412 -696,974 -658,980 -1392,2715 -1392,3899z"/>
  <rect class="fil1" x="-1" width="290164" height="290164"/>
 </g>
</svg>
