<?xml version="1.0" encoding="UTF-8"?>
<!DOCTYPE svg PUBLIC "-//W3C//DTD SVG 1.1//EN" "http://www.w3.org/Graphics/SVG/1.1/DTD/svg11.dtd">
<!-- Creator: CorelDRAW X8 -->
<svg xmlns="http://www.w3.org/2000/svg" xml:space="preserve" width="64px" height="64px" version="1.1" style="shape-rendering:geometricPrecision; text-rendering:geometricPrecision; image-rendering:optimizeQuality; fill-rule:evenodd; clip-rule:evenodd"
viewBox="0 0 993230 993230"
 xmlns:xlink="http://www.w3.org/1999/xlink">
 <defs>
  <style type="text/css">
   <![CDATA[
    .fil0 {fill:none}
    .fil1 {fill:black;fill-rule:nonzero}
   ]]>
  </style>
 </defs>
 <g id="Ebene_x0020_1">
  <metadata id="CorelCorpID_0Corel-Layer"/>
  <rect class="fil0" x="-3" y="-1" width="993228" height="993230"/>
  <path class="fil1" d="M134616 379651c-14334,0 -25974,-11639 -25974,-25973 0,-14353 11640,-25974 25974,-25974l89652 0 0 -25625c0,-42159 34479,-76638 76638,-76638l26761 0 0 -95243c0,-11914 11640,-21574 25974,-21574 14334,0 25974,9660 25974,21574l0 95243 43350 0 0 -95243c0,-11914 11640,-21574 25974,-21574 14352,0 25992,9660 25992,21574l0 95243 43332 0 0 -95243c0,-11914 11640,-21574 25992,-21574 14334,0 25974,9660 25974,21574l0 95243 43350 0 0 -95243c0,-11914 11621,-21574 25974,-21574 14334,0 25973,9660 25973,21574l0 95243 26726 0c42159,0 76637,34479 76637,76638l0 25625 89707 0c14353,0 25974,11621 25974,25974 0,14334 -11621,25973 -25974,25973l-89707 0 0 43351 94088 0c11933,0 21593,11639 21593,25974 0,14334 -9660,25973 -21593,25973l-94088 0 0 43351 94088 0c11933,0 21593,11639 21593,25973 0,14334 -9660,25974 -21593,25974l-94088 0 0 43350 89707 0c14353,0 25974,11640 25974,25974 0,14334 -11621,25974 -25974,25974l-89707 0 0 25607c0,42159 -34478,76638 -76637,76638l-26726 0 0 93171c0,13051 -11639,23609 -25973,23609 -14353,0 -25974,-10558 -25974,-23609l0 -93171 -43350 0 0 93171c0,13051 -11640,23609 -25974,23609 -14352,0 -25992,-10558 -25992,-23609l0 -93171 -43332 0 0 93171c0,13051 -11640,23609 -25992,23609 -14334,0 -25974,-10558 -25974,-23609l0 -93171 -43350 0 0 93171c0,13051 -11640,23609 -25974,23609 -14334,0 -25974,-10558 -25974,-23609l0 -93171 -26761 0c-42159,0 -76638,-34479 -76638,-76638l0 -25607 -89652 0c-14334,0 -25974,-11640 -25974,-25974 0,-14334 11640,-25974 25974,-25974l89652 0 0 -43350 -93245 0c-12354,0 -22381,-11640 -22381,-25974 0,-14334 10027,-25973 22381,-25973l93245 0 0 -43351 -93245 0c-12354,0 -22381,-11639 -22381,-25973 0,-14335 10027,-25974 22381,-25974l93245 0 0 -43351 -89652 0zm281347 5243c-17395,0 -31582,14169 -31582,31546l0 160351c0,17377 14187,31546 31582,31546l161268 0c17358,0 31546,-14169 31546,-31546l0 -160351c0,-17377 -14188,-31546 -31546,-31546l-161268 0z"/>
 </g>
</svg>
