<?xml version="1.0" encoding="UTF-8"?>
<!DOCTYPE svg PUBLIC "-//W3C//DTD SVG 1.1//EN" "http://www.w3.org/Graphics/SVG/1.1/DTD/svg11.dtd">
<!-- Creator: CorelDRAW X8 -->
<svg xmlns="http://www.w3.org/2000/svg" xml:space="preserve" width="64px" height="64px" version="1.1" style="shape-rendering:geometricPrecision; text-rendering:geometricPrecision; image-rendering:optimizeQuality; fill-rule:evenodd; clip-rule:evenodd"
viewBox="0 0 9392514 9392514"
 xmlns:xlink="http://www.w3.org/1999/xlink">
 <defs>
  <style type="text/css">
   <![CDATA[
    .fil1 {fill:none}
    .fil0 {fill:black;fill-rule:nonzero}
   ]]>
  </style>
 </defs>
 <g id="Ebene_x0020_1">
  <metadata id="CorelCorpID_0Corel-Layer"/>
  <path class="fil0" d="M7249011 5143297c0,-8147 0,-17854 -5200,-27388l-2547554 -2173663 -2547554 2173663c0,9534 -5374,19241 -5374,27388l0 2201051c0,161724 129657,294501 284448,294501l1700623 0 0 -1761464 1135540 0 0 1761464 1700623 0c154791,0 284448,-132777 284448,-294501l0 -2201051zm987336 -316343c49055,-58935 39694,-156178 -17161,-205579l-970175 -835491 0 -1871015c0,-82162 -62055,-146471 -142830,-146471l-849705 0c-80603,0 -142831,64309 -142831,146471l0 894426 -1081285 -935507c-185299,-160338 -487081,-160338 -672206,0l-3186826 2747587c-57029,49401 -66216,146644 -17334,205579l274048 339570c22534,27561 58241,45241 93949,50615 39695,4333 75402,-9360 105910,-32761l3066356 -2646357 3066356 2646357c26521,23401 56855,32761 92563,32761 5373,0 9360,0 13347,0 35708,-5374 71415,-23054 93949,-50615l273875 -339570z"/>
  <rect class="fil1" x="-29" y="-13" width="9392494" height="9392505"/>
 </g>
</svg>
