<?xml version="1.0" encoding="UTF-8"?>
<!DOCTYPE svg PUBLIC "-//W3C//DTD SVG 1.1//EN" "http://www.w3.org/Graphics/SVG/1.1/DTD/svg11.dtd">
<!-- Creator: CorelDRAW X8 -->
<svg xmlns="http://www.w3.org/2000/svg" xml:space="preserve" width="64px" height="64px" version="1.1" style="shape-rendering:geometricPrecision; text-rendering:geometricPrecision; image-rendering:optimizeQuality; fill-rule:evenodd; clip-rule:evenodd"
viewBox="0 0 9392514 9392514"
 xmlns:xlink="http://www.w3.org/1999/xlink">
 <defs>
  <style type="text/css">
   <![CDATA[
    .fil1 {fill:none}
    .fil0 {fill:black;fill-rule:nonzero}
   ]]>
  </style>
 </defs>
 <g id="Ebene_x0020_1">
  <metadata id="CorelCorpID_0Corel-Layer"/>
  <path class="fil0" d="M5712367 6601593c0,71242 -55642,125670 -126884,125670l-1778279 0c-71068,0 -126883,-54428 -126883,-125670l0 -630779c0,-71069 55815,-126884 126883,-126884l381692 0 0 -1270917 -381692 0c-71068,0 -126883,-55641 -126883,-126883l0 -636672c0,-71069 55815,-126711 126883,-126711l1269704 0c72282,0 126884,55642 126884,126711l0 2034472 381691 0c71242,0 126884,55815 126884,126884l0 630779zm-508575 -3552051c0,72456 -54602,128097 -126884,128097l-761129 0c-72282,0 -126883,-55641 -126883,-128097l0 -640138c0,-72283 54601,-128097 126883,-128097l761129 0c72282,0 126884,55814 126884,128097l0 640138zm2540794 1650355c0,-1682249 -1365907,-3051622 -3048156,-3051622 -1682422,0 -3048155,1369373 -3048155,3051622 0,1681209 1365733,3044516 3048155,3044516 1682249,0 3048156,-1363307 3048156,-3044516z"/>
  <rect class="fil1" x="-29" y="-13" width="9392494" height="9392505"/>
 </g>
</svg>
