<?xml version="1.0" encoding="UTF-8"?>
<!DOCTYPE svg PUBLIC "-//W3C//DTD SVG 1.1//EN" "http://www.w3.org/Graphics/SVG/1.1/DTD/svg11.dtd">
<!-- Creator: CorelDRAW X8 -->
<svg xmlns="http://www.w3.org/2000/svg" xml:space="preserve" width="64px" height="64px" version="1.1" style="shape-rendering:geometricPrecision; text-rendering:geometricPrecision; image-rendering:optimizeQuality; fill-rule:evenodd; clip-rule:evenodd"
viewBox="0 0 471676 471676"
 xmlns:xlink="http://www.w3.org/1999/xlink">
 <defs>
  <style type="text/css">
   <![CDATA[
    .fil1 {fill:none}
    .fil0 {fill:black;fill-rule:nonzero}
   ]]>
  </style>
 </defs>
 <g id="Ebene_x0020_1">
  <metadata id="CorelCorpID_0Corel-Layer"/>
  <path class="fil0" d="M386047 376690l0 -131494 -46971 -46867c-2306,-2411 -5510,-3499 -9418,-3499 -3900,0 -7408,1088 -10515,3499l-120866 121971 -46971 -46857c-3107,-2412 -6407,-3508 -10010,-3508 -3500,0 -6407,1096 -8818,3508l-46849 46857 0 56390 300418 0 0 0zm-244151 -281695c-15633,0 -28943,5493 -39850,16522 -11029,10907 -16435,24216 -16435,39850 0,15616 5406,28935 16435,39859 10907,11003 24025,16417 39250,16417 15329,0 28638,-5414 39954,-16417 11317,-10924 17027,-24243 17027,-39859 0,-15634 -5710,-28943 -17027,-39850 -11316,-11029 -24434,-16522 -39354,-16522l0 0z"/>
  <rect class="fil1" x="-1" y="-1" width="471675" height="471676"/>
 </g>
</svg>
