<?xml version="1.0" encoding="UTF-8"?>
<!DOCTYPE svg PUBLIC "-//W3C//DTD SVG 1.1//EN" "http://www.w3.org/Graphics/SVG/1.1/DTD/svg11.dtd">
<!-- Creator: CorelDRAW X8 -->
<svg xmlns="http://www.w3.org/2000/svg" xml:space="preserve" width="64px" height="64px" version="1.1" style="shape-rendering:geometricPrecision; text-rendering:geometricPrecision; image-rendering:optimizeQuality; fill-rule:evenodd; clip-rule:evenodd"
viewBox="0 0 346060 346060"
 xmlns:xlink="http://www.w3.org/1999/xlink">
 <defs>
  <style type="text/css">
   <![CDATA[
    .fil0 {fill:none}
    .fil1 {fill:black}
   ]]>
  </style>
 </defs>
 <g id="Ebene_x0020_1">
  <metadata id="CorelCorpID_0Corel-Layer"/>
  <rect class="fil0" x="-1" width="346059" height="346059"/>
  <path class="fil1" d="M112390 73796l0 103193 -55422 0c-6987,0 -5537,9861 -5537,15302 0,4318 1852,7396 6329,7396l130636 0 0 23483c0,2734 2548,5282 5281,5282 3685,0 3928,-1162 6930,-4158l19792 -19792c434,-434 785,-734 1175,-1200 530,-632 581,-824 1194,-1444l7530 -7516c4598,-4605 5345,-6930 0,-12275 -1738,-1737 -3283,-3277 -5020,-5014 -3008,-3008 -14887,-14548 -17416,-17422l-7389 -7651c-1342,-1335 -3602,-4024 -6004,-4024 -1692,0 -3378,671 -4298,1508 -894,811 -1775,2439 -1775,4036l0 23489 -53309 0 0 -102663 76006 0 0 48563c0,5512 2351,8635 6483,10934 1373,766 2874,1201 4866,1201l49617 0 0 136179c0,1341 -2427,792 -6067,792 -652,0 -1022,-147 -1354,-153 -703,-19 -543,153 -1552,153l-13757 -153c-702,-19 -536,153 -1552,153l-28796 -153c-703,-19 -543,153 -1552,153l-13757 -153c-702,-19 -536,153 -1552,153l-13488 -153c-709,-19 -543,153 -1552,153l-13756 -153c-703,-19 -543,153 -1552,153l-36685 0 0 -49348 -5543 0c-1041,0 -1201,-192 -1846,-192 -645,0 -804,192 -1845,192 -3104,0 -10934,325 -13463,-269 0,16101 6,32201 0,48295 0,8379 1916,11247 5958,16477 805,1048 3028,2893 4088,3570 4343,2772 8404,3973 14235,3973l133804 0c10448,0 17870,-4892 21906,-12933 1162,-2312 2376,-5799 2376,-9235l0 -158877c0,-4720 -1961,-9005 -3807,-12032 -1935,-3174 -20041,-20654 -23445,-24058 -5339,-5339 -10493,-10493 -15832,-15832 -6565,-6559 -10276,-10359 -21573,-10359l-92899 0c-10135,0 -18029,4106 -22435,12932 -1316,2638 -2376,5538 -2376,9497zm121663 38536l35898 0 -35828 -35956 -70 35956z"/>
 </g>
</svg>
