<?xml version="1.0" encoding="UTF-8"?>
<!DOCTYPE svg PUBLIC "-//W3C//DTD SVG 1.1//EN" "http://www.w3.org/Graphics/SVG/1.1/DTD/svg11.dtd">
<!-- Creator: CorelDRAW X8 -->
<svg xmlns="http://www.w3.org/2000/svg" xml:space="preserve" width="64px" height="64px" version="1.1" style="shape-rendering:geometricPrecision; text-rendering:geometricPrecision; image-rendering:optimizeQuality; fill-rule:evenodd; clip-rule:evenodd"
viewBox="0 0 346060 346060"
 xmlns:xlink="http://www.w3.org/1999/xlink">
 <defs>
  <style type="text/css">
   <![CDATA[
    .fil0 {fill:none}
    .fil1 {fill:black;fill-rule:nonzero}
   ]]>
  </style>
 </defs>
 <g id="Ebene_x0020_1">
  <metadata id="CorelCorpID_0Corel-Layer"/>
  <rect class="fil0" x="-1" width="346059" height="346059"/>
  <path class="fil1" d="M189028 125010c0,2280 -1724,4036 -3998,4036l-23994 0c-2280,0 -3998,-1756 -3998,-4036l0 -20182c0,-2273 1718,-4036 3998,-4036l23994 0c2274,0 3998,1763 3998,4036l0 20182zm84072 -10053c5154,8839 9043,18138 11636,27858 2600,9720 3902,19792 3902,30202 0,20967 -5185,40305 -15538,58047 -5173,8801 -11240,16733 -18259,23745l-38 32c-7051,7051 -14977,13137 -23739,18253 -8845,5166 -18125,9043 -27845,11655 -9701,2593 -19773,3889 -30208,3889 -20923,0 -40274,-5185 -58015,-15544 -8833,-5161 -16771,-11241 -23777,-18253 -7000,-7000 -13086,-14932 -18253,-23777 -5167,-8909 -9063,-18176 -11636,-27839 -2606,-9707 -3902,-19779 -3902,-30208 0,-10423 1296,-20482 3902,-30202 2593,-9726 6476,-19019 11636,-27858 5135,-8794 11234,-16726 18310,-23777 6987,-6993 14913,-13073 23732,-18189 8833,-5185 18125,-9068 27826,-11668 9714,-2599 19773,-3895 30177,-3895 10435,0 20507,1296 30208,3895 9720,2600 19000,6483 27845,11649 8807,5135 16726,11209 23732,18208 7064,7051 13182,14989 18304,23777zm-7996 33102c-2107,-7920 -5307,-15558 -9567,-22851 -4304,-7370 -9324,-13942 -15047,-19652 -5773,-5767 -12319,-10787 -19638,-15027 -7338,-4273 -14964,-7460 -22870,-9580 -7926,-2114 -16247,-3174 -24971,-3174 -8699,0 -17001,1060 -24927,3174 -7919,2120 -15532,5307 -22838,9580 -7345,4240 -13897,9260 -19671,15027 -5722,5710 -10748,12275 -15053,19652 -4253,7293 -7446,14931 -9573,22851 -2120,7932 -3168,16247 -3168,24958 0,8705 1048,17039 3168,24958 2133,7958 5320,15584 9561,22845 4279,7306 9318,13859 15091,19639 5793,5786 12339,10812 19645,15078 14555,8501 30489,12767 47765,12767 8724,0 17045,-1073 24971,-3187 7906,-2108 15532,-5320 22838,-9580 7364,-4304 13929,-9311 19639,-15040l38 -38c5754,-5755 10780,-12294 15040,-19607 8507,-14587 12760,-30521 12760,-47835 0,-8711 -1066,-17026 -3193,-24958zm-60046 88913c0,2241 -1756,3959 -3998,3959l-56054 0c-2242,0 -3998,-1718 -3998,-3959l0 -19882c0,-2241 1756,-4004 3998,-4004l12032 0 0 -40056 -12032 0c-2242,0 -3998,-1757 -3998,-3998l0 -20073c0,-2235 1756,-3992 3998,-3992l40024 0c2274,0 3998,1757 3998,3992l0 64127 12032 0c2242,0 3998,1763 3998,4004l0 19882z"/>
 </g>
</svg>
