<?xml version="1.0" encoding="UTF-8"?>
<!DOCTYPE svg PUBLIC "-//W3C//DTD SVG 1.1//EN" "http://www.w3.org/Graphics/SVG/1.1/DTD/svg11.dtd">
<!-- Creator: CorelDRAW X8 -->
<svg xmlns="http://www.w3.org/2000/svg" xml:space="preserve" width="64px" height="64px" version="1.1" style="shape-rendering:geometricPrecision; text-rendering:geometricPrecision; image-rendering:optimizeQuality; fill-rule:evenodd; clip-rule:evenodd"
viewBox="0 0 373589 373589"
 xmlns:xlink="http://www.w3.org/1999/xlink">
 <defs>
  <style type="text/css">
   <![CDATA[
    .fil1 {fill:none}
    .fil0 {fill:black;fill-rule:nonzero}
   ]]>
  </style>
 </defs>
 <g id="Ebene_x0020_1">
  <metadata id="CorelCorpID_0Corel-Layer"/>
  <path class="fil0" d="M239965 271921c0,-5812 -4812,-10672 -10673,-10672l-10624 0 0 -95683c0,-5805 -4813,-10673 -10625,-10673l-63795 0c-5812,0 -10625,4868 -10625,10673l0 21256c0,5805 4813,10673 10625,10673l10673 0 0 63754 -10673 0c-5812,0 -10625,4860 -10625,10672l0 21250c0,5805 4813,10672 10625,10672l85044 0c5861,0 10673,-4867 10673,-10672l0 -21250zm-21297 -191544c0,-5812 -4813,-10632 -10625,-10632l-42498 0c-5812,0 -10624,4820 -10624,10632l0 31970c0,5805 4812,10624 10624,10624l42498 0c5812,0 10625,-4819 10625,-10624l0 -31970z"/>
  <rect class="fil1" x="-1" y="-1" width="373588" height="373588"/>
 </g>
</svg>
