<?xml version="1.0" encoding="UTF-8"?>
<!DOCTYPE svg PUBLIC "-//W3C//DTD SVG 1.1//EN" "http://www.w3.org/Graphics/SVG/1.1/DTD/svg11.dtd">
<!-- Creator: CorelDRAW X8 -->
<svg xmlns="http://www.w3.org/2000/svg" xml:space="preserve" width="64px" height="64px" version="1.1" style="shape-rendering:geometricPrecision; text-rendering:geometricPrecision; image-rendering:optimizeQuality; fill-rule:evenodd; clip-rule:evenodd"
viewBox="0 0 639608 639608"
 xmlns:xlink="http://www.w3.org/1999/xlink">
 <defs>
  <style type="text/css">
   <![CDATA[
    .fil1 {fill:none}
    .fil0 {fill:black;fill-rule:nonzero}
   ]]>
  </style>
 </defs>
 <g id="Ebene_x0020_1">
  <metadata id="CorelCorpID_0Corel-Layer"/>
  <path class="fil0" d="M488530 221949c17434,29817 26157,62514 26157,97820 0,35400 -8723,67990 -26157,97866 -17435,29817 -41090,53472 -70907,70918 -29875,17435 -62466,26146 -97878,26146 -35294,0 -67884,-8711 -97760,-26146 -29817,-17446 -53472,-41101 -70906,-70918 -17447,-29876 -26158,-62466 -26158,-97866 0,-35306 8711,-68003 26158,-97820 17434,-29875 41089,-53530 70906,-70870 29876,-17435 62466,-26146 97760,-26146 35412,0 68003,8711 97878,26146 29817,17340 53472,40995 70907,70870zm-87184 145130c8463,-14413 12712,-30147 12712,-47310 0,-17069 -4249,-32863 -12712,-47263 -8346,-14460 -19772,-25898 -34279,-34291 -14413,-8451 -30147,-12654 -47322,-12654 -17057,0 -32850,4203 -47251,12654 -14460,8393 -25886,19831 -34291,34291 -8451,14400 -12653,30194 -12653,47263 0,17163 4202,32897 12653,47310 8405,14401 19831,25839 34291,34290 14401,8452 30194,12701 47251,12701 17175,0 32909,-4249 47322,-12701 14507,-8451 25933,-19889 34279,-34290z"/>
  <rect class="fil1" x="-2" y="-1" width="639607" height="639607"/>
 </g>
</svg>
