<?xml version="1.0" encoding="UTF-8"?>
<!DOCTYPE svg PUBLIC "-//W3C//DTD SVG 1.1//EN" "http://www.w3.org/Graphics/SVG/1.1/DTD/svg11.dtd">
<!-- Creator: CorelDRAW X8 -->
<svg xmlns="http://www.w3.org/2000/svg" xml:space="preserve" width="64px" height="64px" version="1.1" style="shape-rendering:geometricPrecision; text-rendering:geometricPrecision; image-rendering:optimizeQuality; fill-rule:evenodd; clip-rule:evenodd"
viewBox="0 0 819839 819839"
 xmlns:xlink="http://www.w3.org/1999/xlink">
 <defs>
  <style type="text/css">
   <![CDATA[
    .fil3 {fill:none}
    .fil2 {fill:#EB9674}
    .fil0 {fill:whitesmoke}
    .fil1 {fill:#EB9674;fill-rule:nonzero}
   ]]>
  </style>
 </defs>
 <g id="Ebene_x0020_1">
  <metadata id="CorelCorpID_0Corel-Layer"/>
  <g id="_2474204134656">
   <path class="fil0" d="M715048 410268c0,-168398 -136715,-305477 -305143,-305477 -168398,0 -305114,137079 -305114,305477 0,168277 136716,304765 305114,304765 168428,0 305143,-136488 305143,-304765z"/>
   <path class="fil1" d="M703413 410283c0,-81052 -32908,-154569 -86045,-207767 -53091,-53152 -126457,-86075 -207463,-86075 -80977,0 -154358,32938 -207434,86090 -53137,53198 -86045,126715 -86045,207752 0,80916 32848,154206 85924,207206 53107,53062 126518,85894 207555,85894 81036,0 154463,-32832 207569,-85878 53077,-52986 85939,-126291 85939,-207222zm-69583 -224137c57343,57433 92868,136745 92868,224137 0,87316 -35525,166431 -92868,223698 -57328,57253 -136549,92687 -223925,92687 -87392,0 -166583,-35450 -223911,-92702 -57343,-57282 -92853,-136383 -92853,-223683 0,-87392 35510,-166719 92868,-224122 57343,-57419 136549,-93005 223896,-93005 87361,0 166567,35571 223925,92990z"/>
   <path class="fil2" d="M511624 619819c0,7112 -5598,12589 -12709,12589l-178036 0c-7111,0 -12679,-5477 -12679,-12589l0 -63153c0,-7111 5568,-12663 12679,-12663l38234 0 0 -127260 -38234 0c-7111,0 -12679,-5552 -12679,-12664l0 -63743c0,-7126 5568,-12679 12679,-12679l127123 0c7247,0 12725,5553 12725,12679l0 203667 38188 0c7111,0 12709,5552 12709,12663l0 63153zm-50897 -355542c0,7233 -5478,12785 -12725,12785l-76180 0c-7232,0 -12709,-5552 -12709,-12785l0 -64106c0,-7247 5477,-12800 12709,-12800l76180 0c7247,0 12725,5553 12725,12800l0 64106z"/>
  </g>
  <rect class="fil3" x="-3" y="-1" width="819838" height="819839"/>
 </g>
</svg>
