<?xml version="1.0" encoding="UTF-8"?>
<!DOCTYPE svg PUBLIC "-//W3C//DTD SVG 1.1//EN" "http://www.w3.org/Graphics/SVG/1.1/DTD/svg11.dtd">
<!-- Creator: CorelDRAW X8 -->
<svg xmlns="http://www.w3.org/2000/svg" xml:space="preserve" width="64px" height="64px" version="1.1" style="shape-rendering:geometricPrecision; text-rendering:geometricPrecision; image-rendering:optimizeQuality; fill-rule:evenodd; clip-rule:evenodd"
viewBox="0 0 428626 428626"
 xmlns:xlink="http://www.w3.org/1999/xlink">
 <defs>
  <style type="text/css">
   <![CDATA[
    .fil3 {fill:none}
    .fil2 {fill:#E31E24}
    .fil0 {fill:whitesmoke}
    .fil1 {fill:#E31E24;fill-rule:nonzero}
   ]]>
  </style>
 </defs>
 <g id="Ebene_x0020_1">
  <metadata id="CorelCorpID_0Corel-Layer"/>
  <g id="_2474204137856">
   <path class="fil0" d="M373832 214495c0,-88033 -71477,-159693 -159527,-159693 -88033,0 -159511,71660 -159511,159693 0,87970 71478,159321 159511,159321 88050,0 159527,-71351 159527,-159321z"/>
   <path class="fil1" d="M367749 214503c0,-42375 -17205,-80803 -44994,-108616 -27749,-27789 -66106,-45002 -108450,-45002 -42328,0 -80692,17221 -108434,45010 -27789,27805 -44994,66241 -44994,108608 0,42304 17182,80614 44923,108323 27765,27734 66138,44907 108505,44907 42368,0 80748,-17173 108513,-44899 27750,-27709 44931,-66019 44931,-108331zm-36380 -117175c29980,30027 48554,71485 48554,117175 0,45642 -18566,86997 -48546,116946 -29980,29932 -71390,48458 -117072,48458 -45682,0 -87084,-18534 -117056,-48466 -29980,-29949 -48545,-71296 -48545,-116938 0,-45690 18573,-87155 48553,-117167 29980,-30012 71382,-48625 117048,-48625 45674,0 87069,18605 117064,48617z"/>
   <path class="fil2" d="M267486 324045c0,3717 -2927,6581 -6645,6581l-93072 0c-3726,0 -6629,-2864 -6629,-6581l0 -33010c0,-3726 2903,-6629 6629,-6629l19981 0 0 -66525 -19981 0c-3726,0 -6629,-2903 -6629,-6621l0 -33326c0,-3718 2903,-6629 6629,-6629l66454 0c3789,0 6653,2911 6653,6629l0 106472 19965 0c3718,0 6645,2903 6645,6629l0 33010zm-26610 -185876c0,3789 -2864,6692 -6653,6692l-39820 0c-3789,0 -6653,-2903 -6653,-6692l0 -33508c0,-3789 2864,-6692 6653,-6692l39820 0c3789,0 6653,2903 6653,6692l0 33508z"/>
  </g>
  <rect class="fil3" x="-1" y="-1" width="428625" height="428626"/>
 </g>
</svg>
