<?xml version="1.0" encoding="UTF-8"?>
<!DOCTYPE svg PUBLIC "-//W3C//DTD SVG 1.1//EN" "http://www.w3.org/Graphics/SVG/1.1/DTD/svg11.dtd">
<!-- Creator: CorelDRAW X8 -->
<svg xmlns="http://www.w3.org/2000/svg" xml:space="preserve" width="64px" height="64px" version="1.1" style="shape-rendering:geometricPrecision; text-rendering:geometricPrecision; image-rendering:optimizeQuality; fill-rule:evenodd; clip-rule:evenodd"
viewBox="0 0 1508047 1508047"
 xmlns:xlink="http://www.w3.org/1999/xlink">
 <defs>
  <style type="text/css">
   <![CDATA[
    .fil3 {fill:none}
    .fil2 {fill:#A0E6C8}
    .fil0 {fill:whitesmoke}
    .fil1 {fill:#A0E6C8;fill-rule:nonzero}
   ]]>
  </style>
 </defs>
 <g id="Ebene_x0020_1">
  <metadata id="CorelCorpID_0Corel-Layer"/>
  <g id="_2474204134048">
   <path class="fil0" d="M1315290 754663c0,-309758 -251481,-561906 -561322,-561906 -309731,0 -561239,252148 -561239,561906 0,309536 251508,560599 561239,560599 309841,0 561322,-251063 561322,-560599z"/>
   <path class="fil1" d="M1293860 754691c0,-149090 -60532,-284321 -158275,-382174 -97658,-97770 -232611,-158330 -381590,-158330 -148951,0 -283931,60588 -381562,158358 -97742,97853 -158274,233084 -158274,382146 0,148840 60421,283653 158052,381145 97686,97603 232722,157996 381784,157996 149063,0 284099,-60393 381813,-157968 97631,-97492 158052,-232305 158052,-381173zm-127995 -412287c105507,105646 170827,251536 170827,412287 0,160585 -65292,306113 -170799,411481 -105479,105312 -251174,170492 -411898,170492 -160751,0 -306418,-65208 -411869,-170520 -105480,-105368 -170799,-250868 -170799,-411453 0,-160751 65319,-306669 170826,-412259 105480,-105619 251175,-171077 411842,-171077 160696,0 306363,65431 411870,171049z"/>
   <path class="fil2" d="M941103 1140122c0,13080 -10298,23155 -23378,23155l-327487 0c-13108,0 -23322,-10075 -23322,-23155l0 -116167c0,-13080 10214,-23294 23322,-23294l70329 0 0 -234086 -70329 0c-13108,0 -23322,-10214 -23322,-23294l0 -117252c0,-13108 10214,-23322 23322,-23322l233836 0c13303,0 23378,10214 23378,23322l0 374632 70273 0c13080,0 23378,10214 23378,23294l0 116167zm-93651 -653999c0,13303 -10075,23517 -23378,23517l-140129 0c-13303,0 -23378,-10214 -23378,-23517l0 -117920c0,-13331 10075,-23545 23378,-23545l140129 0c13303,0 23378,10214 23378,23545l0 117920z"/>
  </g>
  <rect class="fil3" x="-5" y="-2" width="1508043" height="1508045"/>
 </g>
</svg>
