<?xml version="1.0" encoding="UTF-8"?>
<!DOCTYPE svg PUBLIC "-//W3C//DTD SVG 1.1//EN" "http://www.w3.org/Graphics/SVG/1.1/DTD/svg11.dtd">
<!-- Creator: CorelDRAW X8 -->
<svg xmlns="http://www.w3.org/2000/svg" xml:space="preserve" width="64px" height="64px" version="1.1" style="shape-rendering:geometricPrecision; text-rendering:geometricPrecision; image-rendering:optimizeQuality; fill-rule:evenodd; clip-rule:evenodd"
viewBox="0 0 562939 562939"
 xmlns:xlink="http://www.w3.org/1999/xlink">
 <defs>
  <style type="text/css">
   <![CDATA[
    .fil3 {fill:none}
    .fil2 {fill:#009846}
    .fil0 {fill:whitesmoke}
    .fil1 {fill:#009846;fill-rule:nonzero}
   ]]>
  </style>
 </defs>
 <g id="Ebene_x0020_1">
  <metadata id="CorelCorpID_0Corel-Layer"/>
  <g id="_2474204137152">
   <path class="fil0" d="M490974 281708c0,-115619 -93875,-209733 -209526,-209733 -115619,0 -209494,94114 -209494,209733 0,115536 93875,209245 209494,209245 115651,0 209526,-93709 209526,-209245z"/>
   <path class="fil1" d="M482985 281719c0,-55654 -22596,-106124 -59093,-142652 -36445,-36496 -86821,-59103 -142444,-59103 -55591,0 -105967,22617 -142412,59114 -36486,36517 -59082,86997 -59082,142641 0,55560 22565,105874 58999,142267 36465,36423 86873,58978 142495,58978 55654,0 106062,-22544 142527,-58968 36434,-36382 59010,-86707 59010,-142277zm-47779 -153893c39374,39437 63767,93886 63767,153893 0,59944 -24393,114268 -63767,153591 -39364,39312 -93761,63643 -153758,63643 -59986,0 -114372,-24342 -153726,-63654 -39374,-39333 -63757,-93636 -63757,-153580 0,-60007 24393,-114466 63768,-153882 39374,-39416 93740,-63862 153715,-63862 59997,0 114363,24435 153758,63851z"/>
   <path class="fil2" d="M351304 425586c0,4882 -3844,8643 -8737,8643l-122237 0c-4883,0 -8696,-3761 -8696,-8643l0 -43354c0,-4893 3813,-8706 8696,-8706l26253 0 0 -87371 -26253 0c-4883,0 -8696,-3813 -8696,-8696l0 -43769c0,-4883 3813,-8706 8696,-8706l87288 0c4966,0 8727,3823 8727,8706l0 139836 26222 0c4893,0 8737,3813 8737,8706l0 43354zm-34959 -244121c0,4976 -3761,8789 -8727,8789l-52308 0c-4966,0 -8727,-3813 -8727,-8789l0 -44008c0,-4976 3761,-8789 8727,-8789l52308 0c4966,0 8727,3813 8727,8789l0 44008z"/>
  </g>
  <rect class="fil3" x="-2" y="-1" width="562937" height="562938"/>
 </g>
</svg>
