<?xml version="1.0" encoding="UTF-8"?>
<!DOCTYPE svg PUBLIC "-//W3C//DTD SVG 1.1//EN" "http://www.w3.org/Graphics/SVG/1.1/DTD/svg11.dtd">
<!-- Creator: CorelDRAW X8 -->
<svg xmlns="http://www.w3.org/2000/svg" xml:space="preserve" width="64px" height="64px" version="1.1" style="shape-rendering:geometricPrecision; text-rendering:geometricPrecision; image-rendering:optimizeQuality; fill-rule:evenodd; clip-rule:evenodd"
viewBox="0 0 428626 428626"
 xmlns:xlink="http://www.w3.org/1999/xlink">
 <defs>
  <style type="text/css">
   <![CDATA[
    .fil1 {fill:none}
    .fil0 {fill:black}
   ]]>
  </style>
 </defs>
 <g id="Ebene_x0020_1">
  <metadata id="CorelCorpID_0Corel-Layer"/>
  <path class="fil0" d="M374599 370850l0 -20741 0 -292324 0 0 -20045 0 0 0 -280482 0 -20037 0 0 20740 0 292325 20037 0 0 0 280482 0 20045 0zm-192868 -126304l36862 -1835 -3212 15979 29964 6478 2065 40572 -62397 3394 -3282 -64588zm62879 7887l94 47 0 24 -94 -71zm-23051 2049l23652 5125 -21398 -16263 -2254 11138zm61763 -59185l36767 3425 -5315 15370 28825 10671 -3346 40492 -62262 -5521 5331 -64437zm61242 16738l87 63 0 24 -87 -87zm-23106 -1226l22742 8416 -19024 -19142 -3718 10726zm-240662 -98483l36284 -6914 -1131 16264 30557 2270 7301 39915 -61399 12008 -11612 -63543zm63290 -933l134 47 0 24 -134 -71zm-22529 5244l24087 1788 -23296 -13131 -791 11343zm217066 18771c2263,1195 3797,3623 3797,6423 0,2579 -1313,4849 -3283,6123l-27955 27844c-2768,2761 -7198,2666 -9864,-206 -2665,-2863 -2571,-7451 198,-10204l16366 -16311 -128217 237c-3845,0 -6969,-3235 -6969,-7214 0,-3971 3124,-7206 6969,-7206l127735 -237 -16540 -16019c-2817,-2705 -2975,-7293 -356,-10204 2618,-2919 7048,-3085 9856,-372l28263 27346zm-70702 -33278l0 29086 -8741 0 0 -29086 8741 0zm0 50673l0 167318 -8741 0 0 -167318 8741 0zm-97122 -50673l0 217991 -8741 0 0 -217991 8741 0zm183755 -23605l0 271584 -280482 0 0 -271584 280482 0z"/>
  <rect class="fil1" x="-1" y="-1" width="428625" height="428626"/>
 </g>
</svg>
