<svg xmlns="http://www.w3.org/2000/svg" viewBox="0 0 185.09 185.08"><defs><style>.a{fill:#78bb59;}.b{fill:#fff;}</style></defs><title>KIX 4c</title><path class="a" d="M45,0S0,0,0,45v95s0,45,45,45h95s45,0,45-45V45s0-45-45-45Z"/><path class="b" d="M29.76,69.55H44.53V86.34H54.94L65,69.55H78.11v7L68.37,91.71,79.12,109.5v7.06H65.69L55.62,99.77H44.53v16.79H29.76Z"/><path class="b" d="M86.16,69.55h14.78v47H86.16Z"/><path class="b" d="M107.65,109.5l13.43-16.11L108.66,76.6v-7h14.1L132.5,84h.67l9.74-14.44H157v7L144.58,92.72,158,109.5v7.06H143.91l-10.74-14.44h-.67l-10.75,14.44h-14.1Z"/></svg>