<?xml version="1.0" encoding="UTF-8"?>
<!DOCTYPE svg PUBLIC "-//W3C//DTD SVG 1.1//EN" "http://www.w3.org/Graphics/SVG/1.1/DTD/svg11.dtd">
<!-- Creator: CorelDRAW X8 -->
<svg xmlns="http://www.w3.org/2000/svg" xml:space="preserve" width="64px" height="64px" version="1.1" style="shape-rendering:geometricPrecision; text-rendering:geometricPrecision; image-rendering:optimizeQuality; fill-rule:evenodd; clip-rule:evenodd"
viewBox="0 0 6403783 6407565"
 xmlns:xlink="http://www.w3.org/1999/xlink">
 <defs>
  <style type="text/css">
   <![CDATA[
    .fil1 {fill:#82C826}
    .fil0 {fill:#FEFEFE}
   ]]>
  </style>
 </defs>
 <g id="Ebene_x0020_1">
  <metadata id="CorelCorpID_0Corel-Layer"/>
  <g id="_380089752">
   <path class="fil0" d="M1263357 3783l3877069 0c695981,0 1263357,567375 1263357,1263356l0 3877069c0,695981 -567376,1263357 -1263357,1263357l-3877069 0c-695981,0 -1263357,-567376 -1263357,-1263357l0 -3877069c0,-695981 567376,-1263356 1263357,-1263356z"/>
   <path class="fil1" d="M1879905 4399054l-866193 -888889 -34043 3783 0 888889 -767849 0 0 -2500237 767849 0 0 892672 34043 0 866193 -888889c707329,0 1414658,0 2121986,0l779196 888889 782979 -888889 624114 0 0 336643 -809457 915366 809457 915367 0 336643 -624114 0 -782979 -888889 -779196 888889c-707328,0 -1414657,0 -2121986,0l0 -11348zm1444918 -302600l862411 -949409 -862411 -949409 0 1898818zm-764066 -1898818l-862412 949409 862412 949409 0 -1898818zm-1297400 -2197636l3877069 0c695981,0 1263357,567376 1263357,1263357l0 3877069c0,695981 -567376,1263357 -1263357,1263357l-3877069 0c-695981,0 -1263357,-567376 -1263357,-1263357l0 -3877069c0,-695981 567376,-1263357 1263357,-1263357z"/>
  </g>
 </g>
</svg>
