<?xml version="1.0" encoding="UTF-8"?>
<!DOCTYPE svg PUBLIC "-//W3C//DTD SVG 1.1//EN" "http://www.w3.org/Graphics/SVG/1.1/DTD/svg11.dtd">
<!-- Creator: CorelDRAW X8 -->
<svg xmlns="http://www.w3.org/2000/svg" xml:space="preserve" width="64px" height="64px" version="1.1" style="shape-rendering:geometricPrecision; text-rendering:geometricPrecision; image-rendering:optimizeQuality; fill-rule:evenodd; clip-rule:evenodd"
viewBox="0 0 263851 263851"
 xmlns:xlink="http://www.w3.org/1999/xlink">
 <defs>
  <style type="text/css">
   <![CDATA[
    .fil1 {fill:none}
    .fil0 {fill:black;fill-rule:nonzero}
   ]]>
  </style>
 </defs>
 <g id="Ebene_x0020_1">
  <metadata id="CorelCorpID_0Corel-Layer"/>
  <path class="fil0" d="M122381 137900l0 -78411c-42139,0 -76327,35390 -76327,79015 0,43639 34188,79049 76327,79049 21177,0 40435,-8945 54260,-23446l-54260 -56207zm18587 604l54161 56207c13995,-14311 22658,-34266 22658,-56207l-76819 0zm70425 -13147c0,-43644 -34173,-79054 -76293,-79054l0 79054 76293 0zm-146489 20835c-1578,0 -2854,-2137 -2854,-4786 0,-2625 1276,-4762 2854,-4762l44481 0c1578,0 2854,2137 2854,4762 0,2649 -1276,4786 -2854,4786l-44481 0zm0 23967c-1578,0 -2854,-2137 -2854,-4781 0,-2644 1276,-4782 2854,-4782l44481 0c1578,0 2854,2138 2854,4782 0,2644 -1276,4781 -2854,4781l-44481 0zm0 -46341c-1578,0 -2854,-2138 -2854,-4782 0,-2629 1276,-4786 2854,-4786l44481 0c1578,0 2854,2157 2854,4786 0,2644 -1276,4782 -2854,4782l-44481 0z"/>
  <rect class="fil1" x="-1" width="263850" height="263850"/>
 </g>
</svg>
