<?xml version="1.0" encoding="UTF-8"?>
<!DOCTYPE svg PUBLIC "-//W3C//DTD SVG 1.1//EN" "http://www.w3.org/Graphics/SVG/1.1/DTD/svg11.dtd">
<!-- Creator: CorelDRAW X8 -->
<svg xmlns="http://www.w3.org/2000/svg" xml:space="preserve" width="64px" height="64px" version="1.1" style="shape-rendering:geometricPrecision; text-rendering:geometricPrecision; image-rendering:optimizeQuality; fill-rule:evenodd; clip-rule:evenodd"
viewBox="0 0 290165 290165"
 xmlns:xlink="http://www.w3.org/1999/xlink">
 <defs>
  <style type="text/css">
   <![CDATA[
    .fil0 {fill:none}
    .fil1 {fill:black;fill-rule:nonzero}
   ]]>
  </style>
 </defs>
 <g id="Ebene_x0020_1">
  <metadata id="CorelCorpID_0Corel-Layer"/>
  <rect class="fil0" x="-1" width="290164" height="290164"/>
  <path class="fil1" d="M240294 77085l0 23669c0,1071 -407,1992 -1184,2763 -771,771 -1702,1178 -2757,1178l-132097 0c-1055,0 -1987,-418 -2758,-1178 -798,-776 -1183,-1692 -1183,-2763l0 -23669c0,-1066 391,-1965 1183,-2758 787,-792 1692,-1178 2758,-1178l132097 0c1065,0 1981,380 2757,1178 761,777 1184,1698 1184,2758zm0 56179l0 23631c0,1055 -407,2025 -1184,2801 -771,771 -1713,1178 -2757,1178l-132097 0c-1044,0 -1992,-423 -2758,-1178 -792,-771 -1183,-1730 -1183,-2801l0 -23631c0,-1066 391,-2024 1183,-2795 766,-755 1692,-1178 2758,-1178l132097 0c1065,0 1986,401 2757,1178 777,771 1184,1740 1184,2795zm0 56142l0 23669c0,1049 -434,1997 -1184,2763 -765,782 -1724,1178 -2757,1178l-132097 0c-1028,0 -1971,-391 -2758,-1178 -792,-793 -1183,-1698 -1183,-2763l0 -23669c0,-1066 396,-1998 1183,-2764 761,-744 1692,-1172 2758,-1172l132097 0c1065,0 1986,401 2757,1172 777,777 1184,1714 1184,2764zm-155771 -112321l0 23669c0,1066 -380,1987 -1173,2763 -776,760 -1708,1178 -2763,1178l-26780 0c-1055,0 -1987,-407 -2758,-1178 -776,-771 -1178,-1692 -1178,-2763l0 -23669c0,-1066 418,-1981 1178,-2758 776,-798 1692,-1178 2758,-1178l26780 0c1066,0 1971,386 2763,1178 787,793 1173,1703 1173,2758zm0 56179l0 23631c0,1050 -386,2030 -1173,2801 -771,755 -1719,1178 -2763,1178l-26780 0c-1044,0 -1987,-407 -2758,-1178 -776,-776 -1178,-1730 -1178,-2801l0 -23631c0,-1066 402,-2024 1178,-2795 771,-777 1692,-1178 2758,-1178l26780 0c1066,0 1992,423 2763,1178 787,771 1173,1745 1173,2795zm0 56142l0 23669c0,1044 -386,1970 -1173,2763 -792,792 -1724,1178 -2763,1178l-26780 0c-1039,0 -1987,-391 -2758,-1178 -750,-771 -1178,-1698 -1178,-2763l0 -23669c0,-1066 402,-1987 1178,-2764 771,-771 1692,-1172 2758,-1172l26780 0c1066,0 1992,423 2763,1172 787,771 1173,1719 1173,2764z"/>
 </g>
</svg>
