<?xml version="1.0" encoding="UTF-8"?>
<!DOCTYPE svg PUBLIC "-//W3C//DTD SVG 1.1//EN" "http://www.w3.org/Graphics/SVG/1.1/DTD/svg11.dtd">
<!-- Creator: CorelDRAW X8 -->
<svg xmlns="http://www.w3.org/2000/svg" xml:space="preserve" width="64px" height="64px" version="1.1" style="shape-rendering:geometricPrecision; text-rendering:geometricPrecision; image-rendering:optimizeQuality; fill-rule:evenodd; clip-rule:evenodd"
viewBox="0 0 263851 263851"
 xmlns:xlink="http://www.w3.org/1999/xlink">
 <defs>
  <style type="text/css">
   <![CDATA[
    .fil2 {fill:none}
    .fil0 {fill:white}
    .fil1 {fill:#C6C6C6;fill-rule:nonzero}
   ]]>
  </style>
 </defs>
 <g id="Ebene_x0020_1">
  <metadata id="CorelCorpID_0Corel-Layer"/>
  <g id="_2474203533056">
   <path class="fil0" d="M93044 46595l77149 0c14053,0 25540,11487 25540,25530l0 60526 -1865 1363c-13322,9242 -26752,18460 -39987,27775 -22482,15635 -21435,15635 -43912,0 -13249,-9315 -26650,-18572 -39914,-27775 -750,-521 -1621,-1198 -2527,-1962l0 -59927c0,-14043 11487,-25530 25516,-25530zm3257 35536c-2439,0 -4416,-2030 -4416,-4518 0,-2503 1977,-4519 4416,-4519l70664 0c2425,0 4402,2016 4402,4519 0,2488 -1977,4518 -4402,4518l-70664 0zm0 23329c-2439,0 -4416,-2025 -4416,-4518 0,-2498 1977,-4529 4416,-4529l70664 0c2425,0 4402,2031 4402,4529 0,2493 -1977,4518 -4402,4518l-70664 0zm0 23334c-2439,0 -4416,-2030 -4416,-4528 0,-2493 1977,-4519 4416,-4519l70664 0c2425,0 4402,2026 4402,4519 0,2498 -1977,4528 -4402,4528l-70664 0z"/>
   <path class="fil1" d="M208496 135728c-2586,2810 -5493,5308 -8551,7421 -14267,9680 -28636,19404 -42553,29489 -7202,5307 -16079,11793 -25394,11793l-78 0 -73 0c-9320,0 -18196,-6486 -25403,-11793 -13902,-10162 -28281,-19809 -42436,-29489 -3175,-2113 -6082,-4611 -8658,-7421l0 67850c0,7523 6150,13678 13683,13678l125780 0c7533,0 13683,-6155 13683,-13678l0 -67850zm-149815 -13093l0 -20 0 -16322c0,-5980 3710,-11083 8852,-12933l0 38687 127 112 -142 -112 0 -10 -185 -151 -9 0 -176 -160 0 -10 -180 -156 -19 0 -171 -151 -19 -10 -156 -160 -29 -10 -166 -166 -19 -9 -176 -151 -14 -10 -175 -170 -20 -5 -170 -166 -20 -10 -170 -160 -20 -15 -180 -165 -19 -20 -171 -161 -19 -24 -171 -166 -24 -9 -171 -171 -19 -24 -185 -166 -5 -9 -180 -185 -15 -10 -175 -171 -24 -24 -176 -165 -24 -20 -161 -170 -24 -25 -166 -175 -24 -15 -170 -180 -30 -24 -155 -171 -30 -24 -170 -185 -24 -24 -166 -166 -29 -24 -156 -175 -39 -25 -156 -180 -29 -29 -151 -161 -24 -39 -166 -165 -29 -34 -151 -176 -44 -34 -151 -165 -29 -35 -146 -170 -24 -44 -161 -156 -34 -43 -151 -171 -24 -34 -137 -165 -44 -35 -136 -175 -44 -34 -146 -166 -29 -38 -146 -166 -25 -34 -141 -171 -19 -53 -146 -161 -20 -39 -146 -160 -24 -44 -137 -166 -29 -34 -136 -170 -34 -34 -127 -171 -34 -44 -126 -170 -30 -29 -121 -171 -30 -29 -131 -170 -20 -44 -112 -146 -29 -54 -131 -146 -25 -53 -116 -151zm137057 -29470c5434,1661 9427,6939 9427,13128l0 15971 -122 132 -63 97 -53 59 -117 170 -132 200c-2761,4441 -6729,8268 -10810,11092l1870 -1368 0 -39481zm-126189 40494l-117 -93 0 -5 117 98zm-618 -477l-10 0 -107 -83 117 83zm-166 -122l-10 0 -112 -88 122 88zm-526 -429l-5 0 -156 -126 161 126z"/>
  </g>
  <rect class="fil2" x="-1" width="263850" height="263850"/>
 </g>
</svg>
