<?xml version="1.0" encoding="UTF-8"?>
<!DOCTYPE svg PUBLIC "-//W3C//DTD SVG 1.1//EN" "http://www.w3.org/Graphics/SVG/1.1/DTD/svg11.dtd">
<!-- Creator: CorelDRAW X8 -->
<svg xmlns="http://www.w3.org/2000/svg" xml:space="preserve" width="64px" height="64px" version="1.1" style="shape-rendering:geometricPrecision; text-rendering:geometricPrecision; image-rendering:optimizeQuality; fill-rule:evenodd; clip-rule:evenodd"
viewBox="0 0 309274 309274"
 xmlns:xlink="http://www.w3.org/1999/xlink">
 <defs>
  <style type="text/css">
   <![CDATA[
    .fil2 {fill:none}
    .fil0 {fill:#008DD2}
    .fil1 {fill:black;fill-rule:nonzero}
   ]]>
  </style>
 </defs>
 <g id="Ebene_x0020_1">
  <metadata id="CorelCorpID_0Corel-Layer"/>
  <g id="_2474203531616">
   <path class="fil0" d="M109067 54616l90426 0c16472,0 29937,13465 29937,29925l0 70946 -2181 1598c-15621,10833 -31363,21638 -46876,32557 -26347,18327 -25120,18327 -51472,0 -15525,-10919 -31238,-21769 -46780,-32557 -884,-610 -1900,-1404 -2968,-2300l0 -70244c0,-16460 13470,-29925 29914,-29925zm3813 41655c-2860,0 -5177,-2380 -5177,-5297 0,-2934 2317,-5297 5177,-5297l82829 0c2842,0 5160,2363 5160,5297 0,2917 -2318,5297 -5160,5297l-82829 0zm0 27345c-2860,0 -5177,-2375 -5177,-5297 0,-2928 2317,-5308 5177,-5308l82829 0c2842,0 5160,2380 5160,5308 0,2922 -2318,5297 -5160,5297l-82829 0zm0 27351c-2860,0 -5177,-2380 -5177,-5308 0,-2923 2317,-5297 5177,-5297l82829 0c2842,0 5160,2374 5160,5297 0,2928 -2318,5308 -5160,5308l-82829 0z"/>
   <path class="fil1" d="M244395 159094c-3025,3294 -6444,6222 -10028,8699 -16724,11347 -33567,22745 -49879,34565 -8436,6222 -18847,13824 -29766,13824l-91 0 -85 0c-10925,0 -21330,-7602 -29766,-13824 -16306,-11912 -33155,-23218 -49753,-34565 -3716,-2477 -7129,-5405 -10148,-8699l0 79531c0,8818 7208,16032 16038,16032l147434 0c8830,0 16044,-7214 16044,-16032l0 -79531zm-175612 -15347l0 -23 0 -19132c0,-7009 4349,-12991 10382,-15160l0 45348 143 131 -160 -131 0 -12 -211 -177 -23 0 -206 -188 0 -12 -211 -182 -17 0 -206 -177 -11 -12 -194 -188 -29 -11 -199 -194 -12 -12 -211 -177 -17 -11 -211 -200 -17 -6 -206 -194 -11 -11 -206 -188 -28 -18 -200 -194 -34 -23 -194 -188 -35 -28 -182 -194 -34 -12 -195 -200 -34 -28 -217 -194 -5 -12 -212 -217 -17 -11 -211 -200 -28 -28 -200 -194 -23 -23 -194 -200 -29 -28 -194 -206 -28 -17 -200 -211 -23 -29 -200 -200 -28 -28 -200 -217 -23 -29 -199 -194 -23 -28 -194 -206 -40 -28 -189 -211 -34 -35 -177 -188 -28 -46 -194 -194 -29 -40 -183 -205 -40 -40 -188 -194 -28 -40 -183 -200 -23 -51 -183 -183 -45 -51 -177 -200 -29 -40 -160 -194 -51 -40 -165 -205 -40 -40 -172 -194 -28 -46 -183 -194 -23 -40 -159 -200 -35 -63 -171 -188 -23 -46 -171 -188 -29 -51 -159 -194 -35 -40 -159 -200 -29 -40 -154 -200 -46 -51 -148 -200 -23 -34 -154 -200 -34 -34 -149 -200 -28 -51 -131 -172 -29 -62 -148 -172 -46 -62 -131 -177zm160647 -34543c6375,1946 11061,8133 11061,15388l0 18721 -154 154 -69 114 -62 69 -143 199 -143 234c-3242,5206 -7888,9692 -12676,13002l2186 -1603 0 -46278zm-147908 47465l-137 -109 0 -5 137 114zm-725 -560l-11 0 -131 -97 142 97zm-188 -142l-17 0 -132 -103 149 103zm-622 -503l-6 0 -183 -148 189 148z"/>
  </g>
  <rect class="fil2" x="-1" width="309273" height="309273"/>
 </g>
</svg>
