<?xml version="1.0" encoding="UTF-8"?>
<!DOCTYPE svg PUBLIC "-//W3C//DTD SVG 1.1//EN" "http://www.w3.org/Graphics/SVG/1.1/DTD/svg11.dtd">
<!-- Creator: CorelDRAW X8 -->
<svg xmlns="http://www.w3.org/2000/svg" xml:space="preserve" width="64px" height="64px" version="1.1" style="shape-rendering:geometricPrecision; text-rendering:geometricPrecision; image-rendering:optimizeQuality; fill-rule:evenodd; clip-rule:evenodd"
viewBox="0 0 471676 471676"
 xmlns:xlink="http://www.w3.org/1999/xlink">
 <defs>
  <style type="text/css">
   <![CDATA[
    .fil1 {fill:none}
    .fil0 {fill:black;fill-rule:nonzero}
   ]]>
  </style>
 </defs>
 <g id="Ebene_x0020_1">
  <metadata id="CorelCorpID_0Corel-Layer"/>
  <path class="fil0" d="M94952 322590c0,5597 2219,11055 6267,15102l33243 32974c4048,3848 9706,5867 15303,5867 5667,0 11325,-2019 15373,-6067l46527 -46797c4048,-4048 6267,-9706 6267,-15303 0,-6816 -2698,-12004 -7416,-16522 -7417,7487 -13754,16252 -25279,16252 -11943,0 -21648,-9714 -21648,-21640 -131,-11603 8696,-17940 16112,-25357 -4518,-4787 -9706,-7216 -16243,-7216 -5667,0 -11264,2228 -15373,6267l-46936 47006c-4039,4039 -6337,9436 -6337,15303l140 131zm158583 -159123c0,6737 2768,11925 7486,16452 7486,-7417 13753,-16252 25279,-16252 12003,0 21648,9706 21648,21640 0,11534 -8765,17871 -16252,25287 4518,4788 9715,7016 16252,7016 5667,0 11334,-2028 15373,-6076l47066 -46988c4048,-4048 6268,-9514 6268,-15381 0,-5597 -2220,-11055 -6268,-15103l-33243 -32974c-4039,-3838 -9706,-6067 -15303,-6067 -5667,0 -11334,2229 -15373,6276l-46526 46788c-4048,4048 -6268,9715 -6268,15312l-139 70zm-201942 159123c0,-17392 6537,-33644 18950,-46049l46989 -46997c12143,-12204 28865,-18950 46057,-18950 17801,0 34523,7216 46927,19891l19890 -19891c-12674,-12404 -19890,-29335 -19890,-47197 0,-17131 6537,-33653 18741,-45787l46527 -46797c12274,-12404 28796,-19211 46188,-19211 17122,0 33652,6537 45787,18741l33173 32913c12135,11925 19151,28717 19151,45848 0,17462 -6546,33713 -18950,46118l-46928 46927c-12143,12143 -28856,18950 -46057,18950 -17801,0 -34514,-7216 -46927,-19829l-19890 19829c12613,12405 19890,29327 19890,47197 -200,17192 -6737,33644 -18941,45848l-46527 46797c-12204,12413 -28656,19151 -46057,19151 -16992,-70 -33505,-6607 -45648,-18811l-33243 -32974c-12135,-11934 -19142,-28656 -19142,-45778l-70 61z"/>
  <rect class="fil1" x="-1" y="-1" width="471675" height="471676"/>
 </g>
</svg>
