<?xml version="1.0" encoding="UTF-8"?>
<!DOCTYPE svg PUBLIC "-//W3C//DTD SVG 1.1//EN" "http://www.w3.org/Graphics/SVG/1.1/DTD/svg11.dtd">
<!-- Creator: CorelDRAW X8 -->
<svg xmlns="http://www.w3.org/2000/svg" xml:space="preserve" width="64px" height="64px" version="1.1" style="shape-rendering:geometricPrecision; text-rendering:geometricPrecision; image-rendering:optimizeQuality; fill-rule:evenodd; clip-rule:evenodd"
viewBox="0 0 993230 993230"
 xmlns:xlink="http://www.w3.org/1999/xlink">
 <defs>
  <style type="text/css">
   <![CDATA[
    .fil0 {fill:none}
    .fil1 {fill:black;fill-rule:nonzero}
   ]]>
  </style>
 </defs>
 <g id="Ebene_x0020_1">
  <metadata id="CorelCorpID_0Corel-Layer"/>
  <rect class="fil0" x="-3" y="-1" width="993228" height="993230"/>
  <path class="fil1" d="M804890 269305c8285,8303 15250,19484 21171,33544 5920,14077 8816,26981 8816,38804l0 507375c0,11695 -4087,21703 -12372,29860 -8157,8285 -18147,12354 -29988,12354l-591932 0c-11712,0 -21702,-4069 -29859,-12354 -8304,-8157 -12373,-18165 -12373,-29860l0 -704679c0,-11841 4069,-21831 12373,-29988 8157,-8285 18147,-12373 29859,-12373l394627 0c11823,0 24728,2896 38805,8817 14059,5921 25241,12886 33544,21171l137329 137329zm-195472 -107469l0 165611 165612 0c-3025,-8413 -6196,-14462 -9733,-18018l-137860 -137860c-3556,-3538 -9605,-6709 -18019,-9733zm169021 673115l0 -451065 -183227 0c-11712,0 -21702,-4070 -29859,-12373 -8304,-8157 -12373,-18147 -12373,-29860l0 -183227 -338189 0 0 676525 563648 0z"/>
 </g>
</svg>
