<?xml version="1.0" encoding="UTF-8"?>
<!DOCTYPE svg PUBLIC "-//W3C//DTD SVG 1.1//EN" "http://www.w3.org/Graphics/SVG/1.1/DTD/svg11.dtd">
<!-- Creator: CorelDRAW X8 -->
<svg xmlns="http://www.w3.org/2000/svg" xml:space="preserve" width="64px" height="64px" version="1.1" style="shape-rendering:geometricPrecision; text-rendering:geometricPrecision; image-rendering:optimizeQuality; fill-rule:evenodd; clip-rule:evenodd"
viewBox="0 0 290165 290165"
 xmlns:xlink="http://www.w3.org/1999/xlink">
 <defs>
  <style type="text/css">
   <![CDATA[
    .fil1 {fill:none}
    .fil0 {fill:black;fill-rule:nonzero}
   ]]>
  </style>
 </defs>
 <g id="Ebene_x0020_1">
  <metadata id="CorelCorpID_0Corel-Layer"/>
  <path class="fil0" d="M249338 112899c0,-30984 -25179,-56163 -56088,-56163 -30909,0 -56093,25179 -56093,56163l0 24129 -84303 0c-6630,0 -12028,5398 -12028,12028l0 72313c0,6673 5398,12065 12028,12065l120353 0c6629,0 12027,-5392 12027,-12065l0 -72313c0,-6630 -5398,-12028 -12027,-12028l-11990 0 0 -24129c0,-17682 14383,-32108 32033,-32108 17650,0 32039,14426 32039,32108l0 32151c0,4381 3631,8017 8017,8017l8016 0c4386,0 8016,-3636 8016,-8017l0 -32151z"/>
  <rect class="fil1" x="-1" width="290164" height="290164"/>
 </g>
</svg>
