<?xml version="1.0" encoding="UTF-8"?>
<!DOCTYPE svg PUBLIC "-//W3C//DTD SVG 1.1//EN" "http://www.w3.org/Graphics/SVG/1.1/DTD/svg11.dtd">
<!-- Creator: CorelDRAW X8 -->
<svg xmlns="http://www.w3.org/2000/svg" xml:space="preserve" width="64px" height="64px" version="1.1" style="shape-rendering:geometricPrecision; text-rendering:geometricPrecision; image-rendering:optimizeQuality; fill-rule:evenodd; clip-rule:evenodd"
viewBox="0 0 639608 639608"
 xmlns:xlink="http://www.w3.org/1999/xlink">
 <defs>
  <style type="text/css">
   <![CDATA[
    .fil1 {fill:none}
    .fil0 {fill:black;fill-rule:nonzero}
   ]]>
  </style>
 </defs>
 <g id="Ebene_x0020_1">
  <metadata id="CorelCorpID_0Corel-Layer"/>
  <path class="fil0" d="M71626 205861c0,-51477 41420,-92897 92803,-92897l103520 0c14484,0 10341,21825 10341,30796 0,11887 -12654,10340 -20669,10340l-93192 0c-28389,0 -51666,23278 -51666,51761l0 227910c0,28483 23277,51760 51666,51760l103520 0c14484,0 10341,21826 10341,30797 0,5512 -4828,10340 -10341,10340l-103520 0c-51383,0 -92803,-41432 -92803,-92897l0 -227910zm496368 113955c0,-5501 -2220,-10718 -6079,-14590l-175962 -175843c-3860,-3872 -8982,-6091 -14483,-6091 -11296,0 -20763,9266 -20763,20468l0 93192 -144858 0c-11297,0 -20669,9373 -20669,20669l0 124378c0,11296 9372,20669 20669,20669l144858 0 0 93192c0,11202 9467,20468 20763,20468 5501,0 10623,-2208 14483,-6079l175962 -175855c3859,-3860 6079,-9078 6079,-14578z"/>
  <rect class="fil1" x="-2" y="-1" width="639607" height="639607"/>
 </g>
</svg>
