<?xml version="1.0" encoding="UTF-8"?>
<!DOCTYPE svg PUBLIC "-//W3C//DTD SVG 1.1//EN" "http://www.w3.org/Graphics/SVG/1.1/DTD/svg11.dtd">
<!-- Creator: CorelDRAW X8 -->
<svg xmlns="http://www.w3.org/2000/svg" xml:space="preserve" width="64px" height="64px" version="1.1" style="shape-rendering:geometricPrecision; text-rendering:geometricPrecision; image-rendering:optimizeQuality; fill-rule:evenodd; clip-rule:evenodd"
viewBox="0 0 639608 639608"
 xmlns:xlink="http://www.w3.org/1999/xlink">
 <defs>
  <style type="text/css">
   <![CDATA[
    .fil1 {fill:none}
    .fil0 {fill:black;fill-rule:nonzero}
   ]]>
  </style>
 </defs>
 <g id="Ebene_x0020_1">
  <metadata id="CorelCorpID_0Corel-Layer"/>
  <path class="fil0" d="M400189 264361l68368 -68380 -24953 -24942 -68357 68368 24942 24954zm100144 -78815c2798,2774 4179,6256 4179,10435 0,4261 -1381,7743 -4179,10541l-300091 300091c-2798,2786 -6280,4191 -10517,4191 -4191,0 -7673,-1405 -10470,-4191l-46201 -46200c-2857,-2798 -4249,-6280 -4249,-10530 0,-4178 1392,-7660 4249,-10458l300091 -300091c2798,-2798 6280,-4179 10459,-4179 4190,0 7743,1381 10517,4179l46212 46212zm-311045 -33877l22876 7047 -22876 6964 -7035 22852 -6965 -22852 -22852 -6964 22852 -7047 6965 -22864 7035 22864zm81624 37843l45788 14000 -45788 13940 -13940 45799 -14012 -45799 -45787 -13940 45787 -14000 14012 -45799 13940 45799zm217027 111512l22853 7035 -22853 6964 -6964 22865 -7047 -22865 -22876 -6964 22876 -7035 7047 -22852 6964 22852zm-149355 -149355l22935 7047 -22935 6964 -6976 22852 -6964 -22852 -22935 -6964 22935 -7047 6964 -22864 6976 22864z"/>
  <rect class="fil1" x="-2" y="-1" width="639607" height="639607"/>
 </g>
</svg>
