<?xml version="1.0" encoding="UTF-8"?>
<!DOCTYPE svg PUBLIC "-//W3C//DTD SVG 1.1//EN" "http://www.w3.org/Graphics/SVG/1.1/DTD/svg11.dtd">
<!-- Creator: CorelDRAW X8 -->
<svg xmlns="http://www.w3.org/2000/svg" xml:space="preserve" width="64px" height="64px" version="1.1" style="shape-rendering:geometricPrecision; text-rendering:geometricPrecision; image-rendering:optimizeQuality; fill-rule:evenodd; clip-rule:evenodd"
viewBox="0 0 2221364 2221364"
 xmlns:xlink="http://www.w3.org/1999/xlink">
 <defs>
  <style type="text/css">
   <![CDATA[
    .fil0 {fill:none}
    .fil1 {fill:black}
    .fil2 {fill:#EF7F1A;fill-rule:nonzero}
   ]]>
  </style>
 </defs>
 <g id="Ebene_x0020_1">
  <metadata id="CorelCorpID_0Corel-Layer"/>
  <rect class="fil0" x="-7" y="-3" width="2221359" height="2221361"/>
  <g id="_2098746919440">
   <path class="fil1" d="M1124087 1699536l-763986 0c-36977,0 -68461,-13241 -94698,-39478 -26237,-26237 -39233,-57721 -39233,-94453l0 -664408c24474,27507 52720,51735 84450,72971 201901,137170 340588,233385 415773,288606 31730,23490 57721,41733 77481,54687 19719,13283 46202,26524 78957,40258 32960,13487 63706,20497 92198,20497l738 0 738 0c28491,0 59238,-7010 92198,-20497 32755,-13734 59238,-26975 78956,-40258 19760,-12954 45751,-31197 77481,-54687l50096 -35953c8937,14389 18571,28328 28861,41815 -56737,74406 -93346,163612 -109621,256630 -42758,26565 -71209,73955 -71209,128069l0 30418c0,5329 287,10618 820,15783zm601276 -1044187c0,16111 -1845,32017 -5534,47636l-445904 0c-83262,0 -150658,67355 -150658,150657l0 30419c0,54113 28451,101504 71209,128068 7133,40709 18120,80638 33001,118968l-36568 25458c-5739,3772 -17505,12258 -35747,25499 -17997,12996 -33207,23737 -45218,31731 -12012,7994 -26483,17259 -43496,27220 -16972,10003 -32960,17505 -47964,22507 -15251,5001 -28984,7502 -41979,7502l-738 0 -738 0c-12996,0 -26729,-2501 -41979,-7502 -15004,-5002 -30993,-12504 -47965,-22507 -17013,-9961 -31484,-19226 -43495,-27220 -12012,-7994 -27221,-18735 -45218,-31731 -18243,-13241 -30009,-21727 -35748,-25499 -50711,-35706 -123682,-86704 -219119,-152666 -95191,-66207 -152420,-105931 -171401,-119418 -34477,-23245 -67232,-55467 -97978,-96462 -30706,-40954 -45956,-79203 -45956,-114172 0,-43495 11479,-79981 34723,-108965 23244,-28983 56246,-43455 99208,-43455l1231331 0c36240,0 67724,13242 94207,39479 26483,26237 39724,57721 39724,94453z"/>
   <path class="fil2" d="M1677809 1239858c-12012,4263 -20211,15947 -20211,28778 0,13119 8199,24556 20211,28902 41323,15332 83056,48046 117082,94248l-335996 0c33985,-46202 75718,-78916 117041,-94248 12052,-4346 20210,-15783 20210,-28902 0,-12831 -8158,-24515 -20210,-28778 -96954,-36609 -194850,-165006 -194850,-340465l491573 0c0,175459 -97856,303856 -194850,340465zm255933 -340465l46078 0c8609,0 15373,-6764 15373,-15332l0 -30419c0,-8609 -6764,-15332 -15373,-15332l-705895 0c-8568,0 -15333,6723 -15333,15332l0 30419c0,8568 6765,15332 15333,15332l46119 0c0,177878 84655,306726 178698,369243 -94043,62559 -178698,191448 -178698,369367l-46119 0c-8568,0 -15333,6723 -15333,15332l0 30418c0,8609 6765,15373 15333,15373l705895 0c8609,0 15373,-6764 15373,-15373l0 -30418c0,-8609 -6764,-15332 -15373,-15332l-46078 0c0,-177919 -84614,-306808 -178739,-369367 94125,-62517 178739,-191365 178739,-369243z"/>
  </g>
 </g>
</svg>
