<?xml version="1.0" encoding="UTF-8"?>
<!DOCTYPE svg PUBLIC "-//W3C//DTD SVG 1.1//EN" "http://www.w3.org/Graphics/SVG/1.1/DTD/svg11.dtd">
<!-- Creator: CorelDRAW X8 -->
<svg xmlns="http://www.w3.org/2000/svg" xml:space="preserve" width="64px" height="64px" version="1.1" style="shape-rendering:geometricPrecision; text-rendering:geometricPrecision; image-rendering:optimizeQuality; fill-rule:evenodd; clip-rule:evenodd"
viewBox="0 0 428626 428626"
 xmlns:xlink="http://www.w3.org/1999/xlink">
 <defs>
  <style type="text/css">
   <![CDATA[
    .fil1 {fill:none}
    .fil0 {fill:black;fill-rule:nonzero}
   ]]>
  </style>
 </defs>
 <g id="Ebene_x0020_1">
  <metadata id="CorelCorpID_0Corel-Layer"/>
  <path class="fil0" d="M32416 306721l0 -122673c3402,3869 7064,7341 11019,10553 28517,21927 51172,39907 68013,53979 5434,4581 9824,8156 13258,10679 3385,2579 8005,5158 13771,7784 5822,2571 11265,3916 16406,3916l151 0 142 0c5110,0 10600,-1345 16406,-3916 5766,-2626 10402,-5205 13780,-7784 3441,-2523 7815,-6098 13265,-10679 7515,-6288 16192,-13336 26025,-21183l-17498 0c-4160,0 -8218,-831 -11944,-2452l-5031 3986c-665,522 -2523,2097 -5616,4731 -3062,2610 -5546,4619 -7357,6004 -1811,1384 -4145,3053 -7103,4999 -2903,1962 -5577,3441 -8061,4398 -2421,941 -4722,1432 -6866,1432l-142 0 -151 0c-2143,0 -4430,-491 -6866,-1432 -2476,-957 -5142,-2436 -8053,-4398 -2966,-1946 -5299,-3615 -7111,-4999 -1803,-1385 -4287,-3394 -7341,-6004 -3100,-2634 -4951,-4209 -5624,-4731 -22125,-17553 -43443,-34425 -64010,-50602 -5766,-4580 -11106,-10726 -16066,-18454 -4959,-7721 -7396,-14690 -7396,-20986 0,-238 0,-799 0,-1764 0,-950 0,-1669 0,-2144 0,-467 0,-1194 56,-2104 47,-902 237,-1566 474,-2001 293,-372 570,-855 902,-1432 293,-522 767,-902 1432,-1187 625,-237 1376,-387 2246,-387 86729,0 173489,31 260193,31 -862,-5062 -3219,-9089 -7095,-12957 -5000,-4999 -11019,-7530 -18075,-7530l-235023 0c-7064,0 -13075,2531 -18083,7530 -4999,5015 -7483,11027 -7483,18036l0 173741c0,7009 2484,13020 7483,18028 5008,4999 11019,7530 18083,7530l235023 0c7056,0 13059,-2531 18075,-7530 5007,-5008 7483,-11019 7483,-18028l0 -79324 -20448 0 0 79324c0,1376 -491,2563 -1487,3560 -1045,1012 -2247,1534 -3623,1534l-235023 0c-1392,0 -2578,-522 -3623,-1534 -1012,-997 -1487,-2184 -1487,-3560zm167943 -149235l0 40785c0,1938 617,3552 1899,4873 1266,1265 2943,1898 4896,1898l114383 0 0 47565c0,2982 1337,5007 4003,6162 2729,1131 5212,743 7483,-1092l81491 -74317c1456,-1392 2152,-3045 2152,-4888 0,-1970 -696,-3671 -2152,-5063l-81491 -75148c-2271,-2025 -4754,-2412 -7483,-1336 -2666,1336 -4003,3369 -4003,6225l0 47557 -114383 0c-1977,0 -3623,648 -4896,1898 -1258,1258 -1899,2872 -1899,4881z"/>
  <rect class="fil1" x="-1" y="-1" width="428625" height="428626"/>
 </g>
</svg>
