<?xml version="1.0" encoding="UTF-8"?>
<!DOCTYPE svg PUBLIC "-//W3C//DTD SVG 1.1//EN" "http://www.w3.org/Graphics/SVG/1.1/DTD/svg11.dtd">
<!-- Creator: CorelDRAW X8 -->
<svg xmlns="http://www.w3.org/2000/svg" xml:space="preserve" width="64px" height="64px" version="1.1" style="shape-rendering:geometricPrecision; text-rendering:geometricPrecision; image-rendering:optimizeQuality; fill-rule:evenodd; clip-rule:evenodd"
viewBox="0 0 819839 819839"
 xmlns:xlink="http://www.w3.org/1999/xlink">
 <defs>
  <style type="text/css">
   <![CDATA[
    .fil1 {fill:none}
    .fil0 {fill:black;fill-rule:nonzero}
   ]]>
  </style>
 </defs>
 <g id="Ebene_x0020_1">
  <metadata id="CorelCorpID_0Corel-Layer"/>
  <path class="fil0" d="M684062 333392l0 242959c0,13435 -4751,24949 -14343,34542 -9593,9592 -21122,14434 -34648,14434l-450302 0c-13527,0 -25041,-4842 -34633,-14434 -9593,-9593 -14359,-21107 -14359,-34542l0 -242959c8973,10046 19291,18912 30896,26674 73835,50171 124551,85349 152042,105532 11605,8594 21107,15267 28339,20018 7217,4841 16900,9683 28868,14706 12059,4932 23301,7489 33725,7489l288 0 272 0c10410,0 21651,-2557 33710,-7489 11968,-5023 21651,-9865 28868,-14706 7232,-4751 16734,-11424 28339,-20018 34618,-25116 85424,-60308 152315,-105532 11619,-7943 21847,-16900 30623,-26674zm0 -89919c0,16084 -5023,31532 -14979,46238 -9986,14616 -22498,27234 -37386,37553 -76665,53273 -124370,86438 -143101,99511 -2103,1361 -6400,4478 -13057,9320 -6582,4751 -12165,8669 -16537,11605 -4388,2920 -9699,6294 -15902,9955 -6219,3646 -12059,6400 -17551,8216 -5568,1831 -10591,2753 -15342,2753l-272 0 -288 0c-4751,0 -9774,-922 -15357,-2753 -5492,-1816 -11332,-4570 -17551,-8216 -6203,-3661 -11514,-7035 -15901,-9955 -4373,-2936 -9956,-6854 -16538,-11605 -6657,-4842 -10954,-7959 -13057,-9320 -18549,-13073 -45239,-31713 -80144,-55830 -34799,-24224 -55724,-38749 -62669,-43681 -12618,-8503 -24586,-20289 -35828,-35268 -11242,-14994 -16825,-28959 -16825,-41759 0,-15902 4222,-29247 12710,-39838 8503,-10606 20562,-15902 36282,-15902l450302 0c13254,0 24783,4842 34466,14434 9683,9593 14525,21107 14525,34542z"/>
  <rect class="fil1" x="-3" y="-1" width="819838" height="819839"/>
 </g>
</svg>
