<?xml version="1.0" encoding="UTF-8"?>
<!DOCTYPE svg PUBLIC "-//W3C//DTD SVG 1.1//EN" "http://www.w3.org/Graphics/SVG/1.1/DTD/svg11.dtd">
<!-- Creator: CorelDRAW X8 -->
<svg xmlns="http://www.w3.org/2000/svg" xml:space="preserve" width="64px" height="64px" version="1.1" style="shape-rendering:geometricPrecision; text-rendering:geometricPrecision; image-rendering:optimizeQuality; fill-rule:evenodd; clip-rule:evenodd"
viewBox="0 0 9392514 9392514"
 xmlns:xlink="http://www.w3.org/1999/xlink">
 <defs>
  <style type="text/css">
   <![CDATA[
    .fil0 {fill:none}
    .fil1 {fill:black}
    .fil2 {fill:#009846}
   ]]>
  </style>
 </defs>
 <g id="Ebene_x0020_1">
  <metadata id="CorelCorpID_0Corel-Layer"/>
  <rect class="fil0" x="-29" y="-13" width="9392494" height="9392505"/>
  <g id="_2098780965440">
   <path class="fil1" d="M6825546 3810498l0 539602 -598538 598538 -394691 -394692c196739,-134684 409772,-279768 639272,-434906 134164,-91869 252554,-195526 353957,-308542zm-1547045 3375592l-4225644 0c-156351,0 -289475,-55989 -400411,-166925 -110937,-110937 -165885,-244061 -165885,-399372l0 -2809295c103483,116310 222913,218753 357077,308542 853692,579990 1440095,986816 1757998,1220302 134164,99323 244060,176459 327609,231234 83376,56161 195353,112150 333850,170218 139364,57028 269368,86669 389838,86669l3120 0 3120 0c107817,0 223260,-23747 346330,-69682 41082,140231 117004,272315 227420,382731l1045578 1045578zm1547045 -4415103c0,185819 -58069,364531 -173339,534576 -115096,169005 -259834,314783 -431959,434213l-819024 569243c-296235,-71762 -622285,7627 -853171,238514l-315130 315129c-117003,117003 -195179,258447 -234526,408038 -56682,30681 -110590,54775 -161725,71762 -64482,21148 -122550,31721 -177499,31721l-3120 0 -3120 0c-54948,0 -113016,-10573 -177498,-31721 -63442,-21147 -131044,-52868 -202806,-95162 -71936,-42122 -133124,-81296 -183912,-115097 -50788,-33801 -115097,-79216 -191192,-134164 -77136,-55988 -126884,-91869 -151152,-107816 -214419,-150978 -522961,-366611 -926493,-645513 -402492,-279941 -644472,-447906 -724728,-504934 -145778,-98283 -284275,-234527 -414279,-407865 -129830,-173166 -194312,-334890 -194312,-482748 0,-183912 48535,-338183 146817,-460733 98283,-122551 237821,-183739 419479,-183739l5206392 0c153231,0 286355,55988 398332,166925 111976,110936 167965,244060 167965,399371z"/>
   <path class="fil2" d="M8494101 3959222l315129 315129c128964,128964 128617,340264 174,468534l-2032913 2033086 -315129 315129 -174 173 -6066 5721 -6067 5893 -174 0 -6240 5547 -6413 5373 -6587 5201 -6760 4853 -6761 4854 -6760 4680 -6933 4333 -6934 4160 0 174 -6933 3986 -174 174 -7107 3640 -173 173 -6933 3640 -174 0 -7280 3294 -173 173 -7107 3294 -174 173 -7280 2773 -346 347 -7281 2773 -173 0 -7280 2774 -174 0 -7626 2253 -174 347 -7453 2080 -174 173 -7453 1907 -347 347 -7280 1906c-10574,2427 -21147,4681 -31548,6067l-173 0 -15600 1734 -174 173 -15774 867 -173 173 -15774 347 0 173 -23920 -1040 0 173 -15774 -1733 -174 173 -7626 -1040 -174 0 -7800 -1386 -173 173 -7801 -1560 -173 173 -7627 -1907 -173 174 -7627 -1734 -173 0 -7627 -2080 -174 174 -7453 -2254 -173 174 -7454 -2600 -173 173 -7454 -2600 -173 0 -7280 -2774 -174 0 -7627 -2946 -7280 -3120 -173 0 -7280 -3294 -7281 -3467 -173 0 -7107 -3640 -7107 -3987 -173 174 -6934 -4160 -7107 -4334 -6933 -4333 -6760 -4680 -6760 -4854 -174 173 -6587 -5026 -6413 -5201 -6587 -5373 -6240 -5547 -6067 -5893 -6240 -5894 -315129 -315129 -1040031 -1040030c-128964,-128964 -128964,-339570 0,-468707l315129 -315130c128964,-128790 339744,-128790 468707,0l805677 805677 1798559 -1798559c128444,-128444 339570,-128790 468534,0z"/>
  </g>
 </g>
</svg>
