<?xml version="1.0" encoding="UTF-8"?>
<!DOCTYPE svg PUBLIC "-//W3C//DTD SVG 1.1//EN" "http://www.w3.org/Graphics/SVG/1.1/DTD/svg11.dtd">
<!-- Creator: CorelDRAW X8 -->
<svg xmlns="http://www.w3.org/2000/svg" xml:space="preserve" width="64px" height="64px" version="1.1" style="shape-rendering:geometricPrecision; text-rendering:geometricPrecision; image-rendering:optimizeQuality; fill-rule:evenodd; clip-rule:evenodd"
viewBox="0 0 2221392 2221392"
 xmlns:xlink="http://www.w3.org/1999/xlink">
 <defs>
  <style type="text/css">
   <![CDATA[
    .fil0 {fill:none}
    .fil1 {fill:black;fill-rule:nonzero}
   ]]>
  </style>
 </defs>
 <g id="Ebene_x0020_1">
  <metadata id="CorelCorpID_0Corel-Layer"/>
  <rect class="fil0" transform="matrix(9.31603E-15 0.351754 0.901371 -2.38724E-14 -3.12136 11.75)" width="6315180" height="2464455"/>
  <path class="fil1" d="M2070733 1560829l0 -635761c-17628,20046 -36609,38044 -57107,54688 -147789,113640 -265201,206823 -352481,279754 -28164,23737 -50917,42267 -68709,55345 -17546,13364 -41487,26729 -71373,40339 -30173,13324 -58378,20293 -85025,20293l-779 0 -738 0c-26483,0 -54934,-6969 -85025,-20293 -16931,-7707 -31977,-15332 -45054,-22957l0 -96012c0,-13775 -1886,-27221 -5576,-40053 8445,6928 15620,12668 21482,17136 9388,7174 21482,15825 36814,25909 15045,10167 28902,17834 41775,22794 12544,4879 24474,7420 35584,7420l738 0 779 0c11110,0 22957,-2541 35584,-7420 12832,-4960 26647,-12627 41734,-22794 15373,-10084 27467,-18735 36855,-25909 9347,-7174 22219,-17587 38044,-31115 16070,-13652 25663,-21810 29148,-24516 114665,-90969 225148,-178413 331737,-262249 29886,-23737 57558,-55590 83262,-95643 25704,-40012 38331,-76129 38331,-108762 0,-1230 0,-4140 0,-9142 0,-4919 0,-8650 0,-11110 0,-2418 0,-6190 -287,-10904 -246,-4674 -1189,-8118 -2460,-10372 -1517,-1927 -2951,-4428 -4673,-7421 -1517,-2705 -3977,-4673 -7421,-6149 -3238,-1230 -7133,-2009 -11642,-2009 -449477,0 -899118,164 -1348471,164 4468,-26237 16685,-47104 36773,-67151 25909,-25909 57107,-39028 93675,-39028l1218023 0c36609,0 67766,13119 93716,39028 25909,25992 38782,57148 38782,93470l0 900430c0,36322 -12873,67479 -38782,93429 -25950,25909 -57107,39028 -93716,39028l-1218023 0c-36568,0 -67684,-13119 -93675,-39028 -19555,-19555 -31608,-42062 -36404,-67479l125119 0c1598,287 3238,451 4960,451l1218023 0c7215,0 13364,-2706 18776,-7953 5247,-5166 7707,-11315 7707,-18448zm-870379 -324604l0 211374c0,10043 -3198,18407 -9839,25253 -6560,6559 -15620,9839 -25377,9839l-627480 0 0 246507c0,15086 -6928,25950 -20743,31936 -14144,5862 -27017,3853 -38782,-5658l-422338 -385154c-7543,-7216 -11151,-15784 -11151,-25336 0,-10208 3608,-19022 11151,-26237l147175 -135696 207315 189072 2419 1968c41610,33617 95478,41447 144837,20539 52393,-22220 84205,-70963 84205,-127783l0 -65757 523392 0c10249,0 18776,3361 25377,9838 6518,6519 9839,14882 9839,25295zm0 -462349l0 211373c0,10044 -3198,18407 -9839,25254 -6560,6559 -15620,9839 -25377,9839l-627480 0 0 246507c0,15086 -6928,25950 -20743,31935 -14144,5863 -27017,3854 -38782,-5657l-422338 -385155c-7543,-7215 -11151,-15783 -11151,-25335 0,-10208 3608,-19022 11151,-26237l422338 -389459c11765,-10495 24638,-12504 38782,-6928 13815,6928 20743,17833 20743,32263l0 246466 627480 0c10249,0 18776,3362 25377,9839 6518,6518 9839,14882 9839,25295z"/>
 </g>
</svg>
