<?xml version="1.0" encoding="UTF-8"?>
<!DOCTYPE svg PUBLIC "-//W3C//DTD SVG 1.1//EN" "http://www.w3.org/Graphics/SVG/1.1/DTD/svg11.dtd">
<!-- Creator: CorelDRAW X8 -->
<svg xmlns="http://www.w3.org/2000/svg" xml:space="preserve" width="64px" height="64px" version="1.1" style="shape-rendering:geometricPrecision; text-rendering:geometricPrecision; image-rendering:optimizeQuality; fill-rule:evenodd; clip-rule:evenodd"
viewBox="0 0 562939 562939"
 xmlns:xlink="http://www.w3.org/1999/xlink">
 <defs>
  <style type="text/css">
   <![CDATA[
    .fil1 {fill:none}
    .fil0 {fill:black;fill-rule:nonzero}
   ]]>
  </style>
 </defs>
 <g id="Ebene_x0020_1">
  <metadata id="CorelCorpID_0Corel-Layer"/>
  <path class="fil0" d="M520375 402834l0 -161113c-4467,5080 -9278,9641 -14472,13859 -37452,28798 -67207,52412 -89325,70894 -7137,6016 -12903,10711 -17412,14026 -4446,3386 -10513,6773 -18087,10222 -7646,3377 -14794,5143 -21547,5143l-197 0 -187 0c-6711,0 -13921,-1766 -21547,-5143 -7574,-3449 -13661,-6836 -18098,-10222 -4519,-3315 -10264,-8010 -17422,-14026 -9870,-8259 -21266,-17515 -34180,-27821l22981 0c5464,0 10794,-1091 15687,-3221l6608 5236c872,686 3314,2753 7376,6213 4020,3428 7282,6067 9661,7885 2380,1818 5444,4010 9330,6566 3813,2576 7324,4519 10586,5776 3179,1236 6202,1881 9018,1881l187 0 197 0c2816,0 5818,-645 9018,-1881 3252,-1257 6753,-3200 10576,-5776 3896,-2556 6961,-4748 9340,-6566 2368,-1818 5630,-4457 9641,-7885 4072,-3460 6503,-5527 7386,-6213 29058,-23053 57057,-45213 84068,-66458 7574,-6016 14586,-14088 21100,-24238 6514,-10140 9714,-19292 9714,-27562 0,-312 0,-1049 0,-2317 0,-1246 0,-2192 0,-2815 0,-613 0,-1569 -73,-2764 -62,-1184 -301,-2057 -623,-2628 -385,-488 -748,-1122 -1185,-1880 -384,-686 -1007,-1185 -1880,-1559 -821,-311 -1808,-509 -2951,-509 -113905,0 -227851,42 -341725,42 1132,-6649 4228,-11937 9319,-17017 6566,-6566 14472,-9891 23739,-9891l308667 0c9278,0 17174,3325 23750,9891 6566,6586 9828,14482 9828,23687l0 228184c0,9204 -3262,17100 -9828,23676 -6576,6566 -14472,9890 -23750,9890l-308667 0c-9267,0 -17152,-3324 -23739,-9890 -6576,-6576 -9828,-14472 -9828,-23676l0 -104181 26856 0 0 104181c0,1807 644,3366 1953,4675 1371,1329 2950,2015 4758,2015l308667 0c1829,0 3387,-686 4759,-2015 1329,-1309 1953,-2868 1953,-4675zm-220569 -195999l0 53565c0,2546 -810,4665 -2494,6400 -1662,1662 -3864,2493 -6430,2493l-150225 0 0 62469c0,3917 -1756,6577 -5257,8093 -3584,1486 -6846,977 -9828,-1433l-107028 -97605c-1911,-1828 -2825,-4000 -2825,-6420 0,-2587 914,-4821 2825,-6649l107028 -98696c2982,-2659 6244,-3168 9828,-1756 3501,1756 5257,4426 5257,8177l0 62458 150225 0c2597,0 4758,852 6430,2494 1652,1652 2494,3771 2494,6410z"/>
  <rect class="fil1" x="-2" y="-1" width="562937" height="562938"/>
 </g>
</svg>
