<?xml version="1.0" encoding="UTF-8"?>
<!DOCTYPE svg PUBLIC "-//W3C//DTD SVG 1.1//EN" "http://www.w3.org/Graphics/SVG/1.1/DTD/svg11.dtd">
<!-- Creator: CorelDRAW X8 -->
<svg xmlns="http://www.w3.org/2000/svg" xml:space="preserve" width="64px" height="64px" version="1.1" style="shape-rendering:geometricPrecision; text-rendering:geometricPrecision; image-rendering:optimizeQuality; fill-rule:evenodd; clip-rule:evenodd"
viewBox="0 0 993230 993230"
 xmlns:xlink="http://www.w3.org/1999/xlink">
 <defs>
  <style type="text/css">
   <![CDATA[
    .fil0 {fill:none}
    .fil1 {fill:black}
    .fil2 {fill:#E31E24;fill-rule:nonzero}
   ]]>
  </style>
 </defs>
 <g id="Ebene_x0020_1">
  <metadata id="CorelCorpID_0Corel-Layer"/>
  <rect class="fil0" x="-3" y="-1" width="993228" height="993230"/>
  <g id="_2098675354880">
   <path class="fil1" d="M435356 759908l-323690 0c-16533,0 -30611,-5921 -42342,-17652 -11731,-11731 -17542,-25809 -17542,-42233l0 -297074c10943,12299 23573,23132 37760,32627 90276,61333 152286,104353 185903,129044 14188,10503 25809,18660 34644,24452 8817,5939 20658,11859 35304,18000 14737,6031 28484,9165 41224,9165l330 0 330 0c12739,0 26487,-3134 41224,-9165 14646,-6141 26487,-12061 35304,-18000 8835,-5792 20456,-13949 34643,-24452l9092 -6563 -66153 121089c-13858,24305 -15837,54128 -6031,80762zm123215 -295260l-75428 52479c-2567,1686 -7827,5480 -15984,11401 -8047,5810 -14847,10613 -20218,14187 -5371,3575 -11841,7717 -19448,12171 -7589,4473 -14738,7827 -21446,10064 -6819,2236 -12960,3354 -18770,3354l-330 0 -330 0c-5811,0 -11951,-1118 -18770,-3354 -6709,-2237 -13858,-5591 -21446,-10064 -7607,-4454 -14078,-8596 -19448,-12171 -5371,-3574 -12172,-8377 -20218,-14187 -8157,-5921 -13418,-9715 -15984,-11401 -22674,-15966 -55302,-38768 -97974,-68261 -42562,-29603 -68151,-47365 -76638,-53396 -15416,-10393 -30061,-24800 -43809,-43130 -13729,-18312 -20548,-35414 -20548,-51049 0,-19449 5133,-35762 15526,-48722 10393,-12959 25149,-19429 44358,-19429l550561 0c16204,0 30281,5920 42122,17651 8102,8029 13418,17139 15984,27385l-1778 -18c-35908,0 -68884,19705 -86078,51177l-73906 135313z"/>
   <path class="fil2" d="M750431 686129c0,4381 -3501,8102 -8029,8102l-47713 0c-4527,0 -8028,-3721 -8028,-8102l0 -47053c0,-4454 3501,-8175 8028,-8175l47713 0c4528,0 8029,3721 8029,8175l0 47053zm-532 -92603c-293,3263 -4014,5719 -8468,5719l-45990 0c-4766,0 -8487,-2456 -8487,-5719l-4234 -113701c0,-1485 751,-3941 2456,-5206 1485,-1265 3794,-2749 6031,-2749l54678 0c2236,0 4546,1484 6031,2749 1704,1265 2456,3190 2456,4748l-4473 114159zm-3482 -232388c-5499,-10191 -16204,-16662 -27862,-16662 -11676,0 -22381,6471 -27880,16662l-191072 349810c-5499,9660 -5206,21630 513,31363 5719,9660 16131,15690 27349,15690l382162 0c11218,0 21630,-6030 27349,-15690 5719,-9733 6012,-21703 513,-31363l-191072 -349810z"/>
  </g>
 </g>
</svg>
