<?xml version="1.0" encoding="UTF-8"?>
<!DOCTYPE svg PUBLIC "-//W3C//DTD SVG 1.1//EN" "http://www.w3.org/Graphics/SVG/1.1/DTD/svg11.dtd">
<!-- Creator: CorelDRAW X8 -->
<svg xmlns="http://www.w3.org/2000/svg" xml:space="preserve" width="64px" height="64px" version="1.1" style="shape-rendering:geometricPrecision; text-rendering:geometricPrecision; image-rendering:optimizeQuality; fill-rule:evenodd; clip-rule:evenodd"
viewBox="0 0 346060 346060"
 xmlns:xlink="http://www.w3.org/1999/xlink">
 <defs>
  <style type="text/css">
   <![CDATA[
    .fil1 {fill:none}
    .fil0 {fill:black;fill-rule:nonzero}
   ]]>
  </style>
 </defs>
 <g id="Ebene_x0020_1">
  <metadata id="CorelCorpID_0Corel-Layer"/>
  <path class="fil0" d="M29825 243160l0 -99029c2733,3123 5697,5926 8896,8513 23024,17716 41315,32226 54912,43588 4394,3698 7925,6584 10710,8622 2727,2075 6457,4164 11119,6278 4694,2082 9088,3161 13239,3161l115 0 128 0c3723,0 7695,-881 11904,-2593 -4126,-4100 -7823,-8749 -11017,-13961l-887 38 -128 0 -115 0c-1731,0 -3576,-395 -5531,-1155 -2011,-780 -4164,-1974 -6514,-3551 -2389,-1571 -4279,-2925 -5729,-4037 -1475,-1124 -3474,-2739 -5939,-4853 -2504,-2121 -4004,-3392 -4541,-3813 -17876,-14172 -35081,-27807 -51680,-40855 -4655,-3697 -8973,-8666 -12977,-14899 -4004,-6234 -5965,-11867 -5965,-16944 0,-198 0,-651 0,-1424 0,-766 0,-1348 0,-1731 0,-389 0,-970 45,-1699 32,-734 185,-1270 383,-1622 223,-306 460,-683 728,-1149 230,-422 619,-735 1156,-958 492,-185 1111,-313 1814,-313l92713 0c1833,-4720 3761,-9273 5665,-13552 376,-863 740,-1725 1117,-2587l173 -377 -99668 0c-5697,0 -10551,2038 -14593,6087 -4050,4042 -6049,8883 -6049,14548l0 140267c0,5665 1999,10512 6049,14561 4042,4043 8896,6080 14593,6080l189743 0c5697,0 10557,-2037 14606,-6080 3065,-3072 4956,-6610 5684,-10614l0 -5397 -6674 0c-3129,0 -6297,-57 -9490,-159l0 1609c0,1124 -390,2082 -1201,2893 -843,805 -1801,1233 -2925,1233l-189743 0c-1124,0 -2082,-428 -2938,-1233 -805,-811 -1188,-1769 -1188,-2893zm207485 -94092l7051 0 -26 -46175c0,-5665 -1999,-10506 -6035,-14548 -4049,-4049 -8909,-6087 -14606,-6087l-46411 0c211,1278 320,2574 320,3896 0,1731 -198,3436 -460,5524 -45,288 -90,562 -122,850l-25 415c-147,1935 -262,3883 -345,5831l47043 0c1124,0 2082,383 2925,1239 811,804 1201,1762 1201,2880 0,14440 -6323,26657 -18949,36620l-7741 6099c1112,294 2236,550 3347,773 4911,984 9880,1667 14881,2063 2177,141 15774,620 17952,620zm93326 51290c1412,-1405 2108,-3053 2108,-4975 0,-1910 -696,-3564 -2108,-4969l-56546 -56553c-1386,-1379 -3059,-2107 -4982,-2107 -1909,0 -3557,728 -4943,2107 -1424,1380 -2126,3059 -2126,4982l0 28279 -24729 0c-7236,0 -13667,-236 -19370,-677 -5703,-453 -11381,-1245 -17027,-2363 -5639,-1149 -10531,-2714 -14670,-4713 -4208,-1993 -8059,-4534 -11687,-7670 -3602,-3130 -6520,-6859 -8813,-11138 -2306,-4324 -4088,-9446 -5378,-15309 -1277,-5901 -1922,-12568 -1922,-19996 0,-4062 179,-8571 536,-13597 0,-428 109,-1315 301,-2599 159,-1290 268,-2242 268,-2906 0,-1111 -294,-2037 -926,-2765 -632,-722 -1520,-1131 -2606,-1131 -1194,0 -2216,633 -3104,1884 -523,658 -990,1488 -1418,2440 -459,971 -958,2082 -1507,3302 -536,1258 -945,2152 -1169,2676 -9337,20986 -14018,37572 -14018,49815 0,14644 1948,26919 5837,36773 11943,29672 44176,44508 96673,44508l24729 0 0 28279c0,1916 702,3596 2126,4975 1386,1386 3034,2108 4943,2108 1923,0 3596,-722 4982,-2108l56546 -56552z"/>
  <rect class="fil1" x="-1" width="346059" height="346059"/>
 </g>
</svg>
