<?xml version="1.0" encoding="UTF-8"?>
<!DOCTYPE svg PUBLIC "-//W3C//DTD SVG 1.1//EN" "http://www.w3.org/Graphics/SVG/1.1/DTD/svg11.dtd">
<!-- Creator: CorelDRAW X8 -->
<svg xmlns="http://www.w3.org/2000/svg" xml:space="preserve" width="64px" height="64px" version="1.1" style="shape-rendering:geometricPrecision; text-rendering:geometricPrecision; image-rendering:optimizeQuality; fill-rule:evenodd; clip-rule:evenodd"
viewBox="0 0 290165 290165"
 xmlns:xlink="http://www.w3.org/1999/xlink">
 <defs>
  <style type="text/css">
   <![CDATA[
    .fil1 {fill:none}
    .fil0 {fill:black}
   ]]>
  </style>
 </defs>
 <g id="Ebene_x0020_1">
  <metadata id="CorelCorpID_0Corel-Layer"/>
  <path class="fil0" d="M251459 77540l0 78750c0,4349 -1537,8081 -4643,11187 -3122,3122 -6854,4685 -11229,4685l-58225 0 -21082 -21098c-3197,-3133 -7347,-4895 -11824,-4895 -4509,0 -8616,1762 -11813,4943 -3224,3192 -5018,7358 -5018,11899l0 9151 -33045 0 -1596 -294c-3031,-627 -6110,-1494 -8900,-2822 -2447,-1167 -4643,-2629 -6689,-4391 -1017,-894 -1911,-1880 -2720,-2940 -610,-1692 -910,-3497 -910,-5425l0 -78750c2897,3256 6244,6137 10003,8643 23937,16263 40376,27669 49292,34213 3765,2774 6839,4943 9168,6479 2346,1569 5484,3149 9366,4777 3909,1601 7556,2421 10930,2421l85 0 91 0c3374,0 7021,-820 10930,-2421 3882,-1628 7020,-3208 9366,-4777 2329,-1536 5403,-3705 9167,-6479 11230,-8140 27696,-19546 49379,-34213 3748,-2565 7079,-5478 9917,-8643zm-58567 133928c1124,-1119 1660,-2404 1660,-3914 0,-1505 -536,-2806 -1660,-3926l-44511 -44526c-1103,-1077 -2436,-1660 -3941,-1660 -1510,0 -2796,583 -3883,1660 -1119,1087 -1660,2431 -1660,3925l0 22266 -19486 0c-5687,0 -10748,-182 -15246,-525 -4493,-375 -8959,-985 -13409,-1869 -4450,-910 -8284,-2120 -11540,-3700 -3315,-1585 -6345,-3572 -9216,-6035 -2822,-2479 -5135,-5403 -6929,-8793 -1821,-3406 -3224,-7406 -4225,-12049 -1012,-4648 -1505,-9885 -1505,-15727 0,-3208 118,-6764 418,-10721 0,-311 75,-1012 225,-2046 134,-1012 209,-1761 209,-2281 0,-867 -241,-1601 -734,-2185 -493,-567 -1194,-878 -2046,-878 -942,0 -1745,493 -2447,1494 -418,509 -776,1162 -1119,1912 -359,760 -750,1628 -1184,2597 -417,985 -728,1687 -910,2105 -7363,16514 -11047,29581 -11047,39214 0,11540 1537,21200 4610,28965 9382,23353 34781,35049 76095,35049l19486 0 0 22260c0,1494 541,2822 1660,3915 1087,1092 2373,1660 3883,1660 1505,0 2838,-568 3941,-1660l44511 -44527zm58567 -163059c0,5210 -1628,10212 -4852,14973 -3229,4733 -7288,8825 -12113,12171 -24847,17276 -40317,28012 -46379,32253 -685,450 -2072,1452 -4241,3015 -2137,1553 -3941,2822 -5361,3765 -1419,958 -3132,2045 -5151,3223 -2013,1195 -3909,2078 -5687,2678 -1810,594 -3438,878 -4975,878l-91 0 -85 0c-1543,0 -3165,-284 -4975,-878 -1778,-600 -3674,-1483 -5687,-2678 -2019,-1178 -3733,-2265 -5152,-3223 -1419,-943 -3229,-2212 -5360,-3765 -2169,-1563 -3556,-2565 -4241,-3015 -6003,-4241 -14651,-10270 -25966,-18099 -11294,-7835 -18068,-12558 -20328,-14154 -4075,-2747 -7957,-6570 -11599,-11422 -3647,-4867 -5451,-9392 -5451,-13543 0,-5151 1360,-9467 4123,-12905 2747,-3449 6656,-5162 11749,-5162l145950 0c4300,0 8016,1579 11165,4685 3138,3106 4707,6839 4707,11203z"/>
  <rect class="fil1" x="-1" width="290164" height="290164"/>
 </g>
</svg>
