<?xml version="1.0" encoding="UTF-8"?>
<!DOCTYPE svg PUBLIC "-//W3C//DTD SVG 1.1//EN" "http://www.w3.org/Graphics/SVG/1.1/DTD/svg11.dtd">
<!-- Creator: CorelDRAW X8 -->
<svg xmlns="http://www.w3.org/2000/svg" xml:space="preserve" width="64px" height="64px" version="1.1" style="shape-rendering:geometricPrecision; text-rendering:geometricPrecision; image-rendering:optimizeQuality; fill-rule:evenodd; clip-rule:evenodd"
viewBox="0 0 2221364 2221364"
 xmlns:xlink="http://www.w3.org/1999/xlink">
 <defs>
  <style type="text/css">
   <![CDATA[
    .fil1 {fill:none}
    .fil0 {fill:black;fill-rule:nonzero}
   ]]>
  </style>
 </defs>
 <g id="Ebene_x0020_1">
  <metadata id="CorelCorpID_0Corel-Layer"/>
  <g id="_2367155585968">
   <path class="fil0" d="M1637839 212724l-1020329 0c-27262,0 -49358,22096 -49358,49317l0 1574091c0,27221 22096,49317 49358,49317l1333737 0c27220,0 49358,-22096 49358,-49317l0 -1250926 -98717 0 0 1201568 -1235020 0 0 -1475375 970971 0 0 -98675z"/>
   <path class="fil0" d="M1637839 632473l313408 0c27220,0 49358,-22096 49358,-49358 0,-14758 -6478,-28000 -16767,-37019l-310949 -317876c-19021,-19350 -50219,-19637 -69568,-574 -9798,9634 -14718,22383 -14718,35092l-123 0 0 320377c0,27262 22097,49358 49359,49358zm196243 -98675l-146926 0 0 -150206 146926 150206z"/>
   <path class="fil0" d="M537201 1747747c0,30746 -25253,55999 -55713,55999 -30500,0 -55712,-25253 -55712,-55999 0,-30460 25212,-55713 55712,-55713 30460,0 55713,25253 55713,55713zm561469 -366128c-114089,-45341 -205754,-136719 -251054,-251055l-593733 593774c-20826,20826 -33083,49727 -33083,79408 0,29680 12257,58336 33083,78383l92444 94289c20826,20046 49727,32263 79449,32263 29393,0 58336,-12217 78341,-32263l594553 -594799zm552820 -379164c0,-17464 -10413,-30460 -27836,-30460 -17464,0 -219816,127044 -248430,143729l-168245 -93223 0 -195301 255482 -147418c7789,-5207 13775,-14841 13775,-24474 0,-10413 -5207,-18243 -13775,-24475 -53416,-35665 -136227,-54933 -199728,-54933 -215389,0 -390643,175254 -390643,390602 0,215347 175254,390643 390643,390643 164800,0 313777,-107039 368710,-262246 9634,-28123 20047,-63830 20047,-92444z"/>
  </g>
  <rect class="fil1" x="-7" y="-3" width="2221359" height="2221361"/>
 </g>
</svg>
