<?xml version="1.0" encoding="UTF-8"?>
<!DOCTYPE svg PUBLIC "-//W3C//DTD SVG 1.1//EN" "http://www.w3.org/Graphics/SVG/1.1/DTD/svg11.dtd">
<!-- Creator: CorelDRAW X8 -->
<svg xmlns="http://www.w3.org/2000/svg" xml:space="preserve" width="64px" height="64px" version="1.1" style="shape-rendering:geometricPrecision; text-rendering:geometricPrecision; image-rendering:optimizeQuality; fill-rule:evenodd; clip-rule:evenodd"
viewBox="0 0 562939 562939"
 xmlns:xlink="http://www.w3.org/1999/xlink">
 <defs>
  <style type="text/css">
   <![CDATA[
    .fil1 {fill:none}
    .fil0 {fill:black;fill-rule:nonzero}
   ]]>
  </style>
 </defs>
 <g id="Ebene_x0020_1">
  <metadata id="CorelCorpID_0Corel-Layer"/>
  <path class="fil0" d="M525725 419020l0 -147722c-4083,4655 -8498,8852 -13267,12696 -34335,26419 -61627,48070 -81896,65014 -6545,5517 -11833,9828 -15968,12872 -4083,3086 -9641,6202 -16591,9361 -7002,3096 -13548,4706 -19760,4706l-166 0 -177 0c-6140,0 -12747,-1610 -19760,-4706 -6950,-3159 -12519,-6275 -16602,-9361 -1641,-1215 -3469,-2618 -5485,-4228 -1610,-13049 -4228,-26191 -8218,-38575l7917 6275c789,624 3033,2525 6763,5683 3678,3158 6670,5569 8851,7231 2182,1662 4998,3678 8551,6026 3511,2358 6721,4145 9713,5288 2930,1153 5683,1724 8270,1724l177 0 166 0c2587,0 5340,-571 8269,-1724 2982,-1143 6203,-2930 9704,-5288 3574,-2348 6379,-4364 8560,-6026 2182,-1662 5164,-4073 8841,-7231 3740,-3158 5974,-5059 6784,-5683 26648,-21131 52319,-41462 77066,-60931 6950,-5517 13381,-12924 19355,-22222 5973,-9309 8903,-17693 8903,-25277 0,-291 0,-976 0,-2129 0,-1143 0,-2005 0,-2577 0,-582 0,-1444 -52,-2535 -62,-1091 -291,-1891 -571,-2410 -353,-457 -696,-1029 -1101,-1714 -343,-634 -915,-1101 -1725,-1444 -748,-281 -1662,-468 -2701,-468l-252131 0c156,-2244 229,-4509 229,-6794 0,-6088 -551,-12051 -1590,-17838l253492 0c8508,0 15739,3044 21775,9080 6026,6026 9018,13267 9018,21703l0 209224c0,8436 -2992,15677 -9018,21702 -6036,6036 -13267,9080 -21775,9080l-205973 0c7969,-6503 14265,-14794 18482,-24632l187491 0c1672,0 3106,-634 4374,-1849 1205,-1205 1776,-2639 1776,-4301zm-202700 -25318c0,-49857 -11656,-126320 -76255,-126320 -6846,0 -35759,30616 -78956,30616 -43208,0 -72121,-30616 -78967,-30616 -64609,0 -76266,76463 -76266,126320 0,35686 23781,57087 58875,57087l192695 0c35104,0 58874,-21401 58874,-57087zm-70531 -196851c0,-46751 -37930,-84691 -84680,-84691 -46772,0 -84702,37940 -84702,84691 0,46698 37930,84629 84702,84629 46750,0 84680,-37931 84680,-84629zm-21765 0c0,34720 -28216,62864 -62915,62864 -34720,0 -62937,-28144 -62937,-62864 0,-34741 28185,-62926 62937,-62926 34740,0 62915,28185 62915,62926z"/>
  <rect class="fil1" x="-2" y="-1" width="562937" height="562938"/>
 </g>
</svg>
