<?xml version="1.0" encoding="UTF-8"?>
<!DOCTYPE svg PUBLIC "-//W3C//DTD SVG 1.1//EN" "http://www.w3.org/Graphics/SVG/1.1/DTD/svg11.dtd">
<!-- Creator: CorelDRAW X8 -->
<svg xmlns="http://www.w3.org/2000/svg" xml:space="preserve" width="64px" height="64px" version="1.1" style="shape-rendering:geometricPrecision; text-rendering:geometricPrecision; image-rendering:optimizeQuality; fill-rule:evenodd; clip-rule:evenodd"
viewBox="0 0 2221364 2221364"
 xmlns:xlink="http://www.w3.org/1999/xlink">
 <defs>
  <style type="text/css">
   <![CDATA[
    .fil1 {fill:none}
    .fil0 {fill:black;fill-rule:nonzero}
   ]]>
  </style>
 </defs>
 <g id="Ebene_x0020_1">
  <metadata id="CorelCorpID_0Corel-Layer"/>
  <path class="fil0" d="M1795998 1210177l0 517277c0,18612 -6764,34723 -20252,48251 -13897,13816 -29967,20621 -48661,20621l-192021 0c24474,-25048 38494,-60509 38494,-104415 0,-127864 -29926,-324026 -195711,-324026 -17546,0 -91665,78547 -202516,78547 -18038,0 -35092,-2091 -51121,-5575l0 -42922c16398,3935 33534,6067 51121,6067 119952,0 217274,-97281 217274,-217110 0,-119952 -97322,-217275 -217274,-217275 -111220,0 -202967,83590 -215798,191325 -4879,-369 -9839,-615 -14841,-615l-119828 0 0 -119870c0,-18243 -2706,-35830 -7831,-52433l358339 -295493 619642 510841c697,1599 984,3935 984,6805zm240395 -74365l-66904 79489c-5493,6478 -13200,10659 -22547,11889l-3239 0c-9265,0 -16767,-2542 -22465,-7379l-745866 -621897 -392405 327224c-32961,-39356 -82483,-64404 -137826,-64404l-54811 0 502970 -419216c23203,-18694 50547,-28041 82072,-28041 31607,0 58992,9347 81785,28041l262984 219816 0 -210223c0,-9962 3198,-17997 9634,-24761 6437,-6396 14800,-9634 24802,-9634l206985 0c9962,0 18325,3238 24802,9634 6395,6764 9634,14799 9634,24761l0 439714 236214 196367c7092,5821 10987,13528 11602,23162 1024,9675 -1640,18038 -7421,25458zm-1035619 204074c0,-30993 -25171,-56123 -56082,-56123l-243306 0 0 -243306c0,-31074 -25130,-56204 -56245,-56204l-112245 0c-30992,0 -56163,25130 -56163,56204l0 243306 -243348 0c-30951,0 -56081,25130 -56081,56123l0 112326c0,30911 25130,56041 56081,56041l243348 0 0 243306c0,31115 25171,56286 56163,56286l112245 0c31115,0 56245,-25171 56245,-56286l0 -243306 243306 0c30911,0 56082,-25130 56082,-56041l0 -112326z"/>
  <rect class="fil1" x="-7" y="-3" width="2221359" height="2221361"/>
 </g>
</svg>
