<?xml version="1.0" encoding="UTF-8"?>
<!DOCTYPE svg PUBLIC "-//W3C//DTD SVG 1.1//EN" "http://www.w3.org/Graphics/SVG/1.1/DTD/svg11.dtd">
<!-- Creator: CorelDRAW X8 -->
<svg xmlns="http://www.w3.org/2000/svg" xml:space="preserve" width="64px" height="64px" version="1.1" style="shape-rendering:geometricPrecision; text-rendering:geometricPrecision; image-rendering:optimizeQuality; fill-rule:evenodd; clip-rule:evenodd"
viewBox="0 0 290165 290165"
 xmlns:xlink="http://www.w3.org/1999/xlink">
 <defs>
  <style type="text/css">
   <![CDATA[
    .fil1 {fill:none}
    .fil0 {fill:#2B2A29;fill-rule:nonzero}
   ]]>
  </style>
 </defs>
 <g id="Ebene_x0020_1">
  <metadata id="CorelCorpID_0Corel-Layer"/>
  <path class="fil0" d="M226698 158920l0 68013c0,2453 -884,4573 -2667,6346 -1821,1826 -3936,2709 -6394,2709l-25254 0c3224,-3288 5066,-7957 5066,-13724 0,-16815 -3931,-42605 -25726,-42605 -2308,0 -12059,10325 -26635,10325 -14571,0 -24328,-10325 -26636,-10325 -21795,0 -25725,25790 -25725,42605 0,5767 1847,10436 5066,13724l-25276 0c-2452,0 -4568,-883 -6346,-2709 -1815,-1773 -2709,-3893 -2709,-6346l0 -68013c0,-129 43,-252 86,-423 42,-215 85,-338 85,-466l81471 -67168 81465 67168c86,214 129,514 129,889zm-53041 -3063c0,-15771 -12794,-28559 -28569,-28559 -15771,0 -28569,12788 -28569,28559 0,15759 12798,28552 28569,28552 15775,0 28569,-12793 28569,-28552zm84656 -6716l-8803 10453c-718,852 -1735,1403 -2962,1564l-423 0c-1226,0 -2206,-332 -2961,-964l-98060 -81770 -98061 81770c-1145,755 -2286,1055 -3432,964 -1226,-161 -2196,-712 -2961,-1564l-8761 -10453c-761,-969 -1103,-2072 -1012,-3341 80,-1269 632,-2287 1563,-3047l101868 -84898c3047,-2452 6646,-3684 10796,-3684 4145,0 7743,1232 10747,3684l34577 28906 0 -27637c0,-1317 423,-2372 1269,-3261 847,-841 1944,-1264 3262,-1264l27208 0c1312,0 2415,423 3261,1264 847,889 1270,1944 1270,3261l0 57813 31064 25816c932,760 1435,1778 1521,3047 128,1269 -209,2372 -970,3341z"/>
  <rect class="fil1" x="-1" width="290164" height="290164"/>
 </g>
</svg>
