<?xml version="1.0" encoding="UTF-8"?>
<!DOCTYPE svg PUBLIC "-//W3C//DTD SVG 1.1//EN" "http://www.w3.org/Graphics/SVG/1.1/DTD/svg11.dtd">
<!-- Creator: CorelDRAW X8 -->
<svg xmlns="http://www.w3.org/2000/svg" xml:space="preserve" width="64px" height="64px" version="1.1" style="shape-rendering:geometricPrecision; text-rendering:geometricPrecision; image-rendering:optimizeQuality; fill-rule:evenodd; clip-rule:evenodd"
viewBox="0 0 819839 819839"
 xmlns:xlink="http://www.w3.org/1999/xlink">
 <defs>
  <style type="text/css">
   <![CDATA[
    .fil1 {fill:none}
    .fil0 {fill:#2B2A29}
   ]]>
  </style>
 </defs>
 <g id="Ebene_x0020_1">
  <metadata id="CorelCorpID_0Corel-Layer"/>
  <path class="fil0" d="M409920 128212c159259,0 288349,107939 288349,241098 0,133191 -129090,241129 -288349,241129 -16129,0 -31940,-1135 -47342,-3268 -42259,37280 -91568,62774 -147413,77315 -5250,1361 -10924,2708 -17006,3918 -5281,1074 -18656,3949 -23588,3056 -9365,-1724 -14767,-13284 -10273,-21378 2299,-4222 5734,-7777 8926,-11348 1816,-2027 4706,-5265 8504,-9456 5098,-5629 8957,-9759 11150,-12165 6703,-7368 13360,-15690 20366,-29156 6914,-13284 12134,-30668 17505,-49732 -66527,-44150 -109179,-112356 -109179,-188915 0,-133159 129090,-241098 288350,-241098zm73411 149319c0,-41320 -33498,-74863 -74849,-74863 -41320,0 -74848,33543 -74848,74863 0,41275 33528,74819 74848,74819 41351,0 74849,-33544 74849,-74819zm62366 174012c0,-44090 -10303,-111661 -67389,-111661 -6052,0 -31637,27068 -69826,27068 -38188,0 -63728,-27068 -69795,-27068 -57116,0 -67389,67571 -67389,111661 0,31561 21000,50458 52017,50458l170335 0c31047,0 52047,-18897 52047,-50458z"/>
  <rect class="fil1" x="-3" y="-1" width="819838" height="819839"/>
 </g>
</svg>
