<?xml version="1.0" encoding="UTF-8"?>
<!DOCTYPE svg PUBLIC "-//W3C//DTD SVG 1.1//EN" "http://www.w3.org/Graphics/SVG/1.1/DTD/svg11.dtd">
<!-- Creator: CorelDRAW X8 -->
<svg xmlns="http://www.w3.org/2000/svg" xml:space="preserve" width="64px" height="64px" version="1.1" style="shape-rendering:geometricPrecision; text-rendering:geometricPrecision; image-rendering:optimizeQuality; fill-rule:evenodd; clip-rule:evenodd"
viewBox="0 0 9392514 9392514"
 xmlns:xlink="http://www.w3.org/1999/xlink">
 <defs>
  <style type="text/css">
   <![CDATA[
    .fil1 {fill:none}
    .fil0 {fill:black}
   ]]>
  </style>
 </defs>
 <g id="Ebene_x0020_1">
  <metadata id="CorelCorpID_0Corel-Layer"/>
  <path class="fil0" d="M4696257 1468870c1824560,0 3303483,1236422 3303483,2762147 0,1525724 -1478923,2762320 -3303483,2762320 -184605,0 -365744,-13000 -542203,-37267 -484134,426932 -1048870,719007 -1688835,885585 -60149,15601 -124977,31028 -194833,44895 -60495,12307 -213726,45241 -270061,35014 -107296,-19760 -169352,-152191 -117870,-244927 26521,-48361 65868,-89096 102270,-130004 20973,-23227 53908,-60321 97416,-108336 58415,-64482 102616,-111803 127750,-139364 76962,-84416 153231,-179752 233487,-333850 79042,-152364 138844,-351530 200379,-569763 -761995,-505975 -1250636,-1287384 -1250636,-2164303 0,-1525725 1478923,-2762147 3303136,-2762147zm2638730 2404376c-26521,-26520 -63442,-42121 -101229,-42121l-617952 0 -520 -618471c0,-37788 -15600,-74709 -41601,-100710 -26521,-26521 -63442,-42121 -101056,-42121l-286009 0c-38134,0 -74535,15600 -101056,42121 -26347,26348 -41948,62922 -41948,101056l0 618125 -618124 0c-38308,0 -74709,15601 -101230,42121 -26347,26174 -41948,62749 -41948,101057l0 285661c0,37788 15601,74882 42121,101230 26001,26001 63095,41774 100710,41774l618471 347 0 617951c0,37788 15601,74709 41948,101057 26521,26521 63095,41948 101056,42294l286009 0c37961,-346 74709,-15773 101056,-42121 26521,-26521 41775,-63095 42121,-101230l0 -617951 617952 0c37961,-347 74708,-15600 101229,-42121 26348,-26348 41601,-63095 41948,-101230l0 -285661c-347,-38135 -15600,-74883 -41948,-101057zm-2949006 -659206c0,-409945 -332463,-742755 -742755,-742755 -409772,0 -742581,332810 -742581,742755 0,409599 332809,742409 742581,742409 410292,0 742755,-332810 742755,-742409zm618818 1726624c0,-437333 -102269,-1107806 -668739,-1107806 -60149,0 -313916,268502 -692834,268502 -378917,0 -632165,-268502 -692313,-268502 -566817,0 -668740,670473 -668740,1107806 0,313223 208526,500601 516029,500601l1690049 0c308022,0 516548,-187378 516548,-500601z"/>
  <rect class="fil1" x="-29" y="-13" width="9392494" height="9392505"/>
 </g>
</svg>
