<?xml version="1.0" encoding="UTF-8"?>
<!DOCTYPE svg PUBLIC "-//W3C//DTD SVG 1.1//EN" "http://www.w3.org/Graphics/SVG/1.1/DTD/svg11.dtd">
<!-- Creator: CorelDRAW X8 -->
<svg xmlns="http://www.w3.org/2000/svg" xml:space="preserve" width="64px" height="64px" version="1.1" style="shape-rendering:geometricPrecision; text-rendering:geometricPrecision; image-rendering:optimizeQuality; fill-rule:evenodd; clip-rule:evenodd"
viewBox="0 0 562939 562939"
 xmlns:xlink="http://www.w3.org/1999/xlink">
 <defs>
  <style type="text/css">
   <![CDATA[
    .fil1 {fill:none}
    .fil0 {fill:black;fill-rule:nonzero}
   ]]>
  </style>
 </defs>
 <g id="Ebene_x0020_1">
  <metadata id="CorelCorpID_0Corel-Layer"/>
  <path class="fil0" d="M345860 233192c-11802,-14867 -28476,-24612 -51914,-24612 -7074,0 -36943,31624 -81574,31624 -44621,0 -74489,-31624 -81564,-31624 -66749,0 -78790,78977 -78790,130486 0,36881 24570,58989 60827,58989l73357 0c3408,-6670 7875,-12852 13350,-18327l40237 -40236c13640,-13641 32257,-21225 51529,-21225 10192,0 20113,2109 29204,6109 -4000,-9194 -6140,-19178 -6140,-29422 0,-19219 7469,-37629 21048,-51270l10430 -10492zm-45992 -97480c0,-48299 -39187,-87497 -87496,-87497 -48298,0 -87486,39198 -87486,87497 0,48236 39188,87423 87486,87423 48309,0 87496,-39187 87496,-87423zm-67331 295546c0,4789 1901,9475 5371,12934l28456 28227c3480,3293 8321,5028 13111,5028 4851,0 9703,-1735 13162,-5194l39842 -40070c3460,-3470 5361,-8322 5361,-13111 0,-5839 -2306,-10265 -6348,-14129 -6347,6389 -11781,13900 -21640,13900 -10223,0 -18534,-8322 -18534,-18524 -114,-9942 7439,-15365 13786,-21723 -3864,-4083 -8290,-6171 -13900,-6171 -4852,0 -9641,1922 -13163,5361l-40174 40257c-3470,3470 -5434,8083 -5434,13111l104 104zm135795 -136241c0,5755 2368,10202 6410,14077 6399,-6358 11760,-13901 21640,-13901 10285,0 18534,8291 18534,18513 0,9880 -7501,15314 -13911,21661 3865,4104 8311,6005 13911,6005 4862,0 9714,-1724 13173,-5194l40289 -40237c3459,-3459 5361,-8145 5361,-13173 0,-4789 -1902,-9475 -5361,-12934l-28466 -28227c-3460,-3294 -8311,-5195 -13101,-5195 -4830,0 -9693,1901 -13152,5371l-39831 40071c-3491,3459 -5392,8311 -5392,13100l-104 63zm-172915 136241c0,-14898 5610,-28798 16228,-39426l40247 -40237c10389,-10451 24694,-16228 39426,-16228 15241,0 29546,6182 40174,17018l17038 -17018c-10856,-10628 -17038,-25120 -17038,-40413 0,-14669 5600,-28819 16051,-39208l39842 -40070c10493,-10607 24653,-16446 39551,-16446 14649,0 28798,5610 39187,16041l28425 28175c10389,10222 16373,24590 16373,39260 0,14970 -5600,28860 -16207,39488l-40195 40195c-10389,10400 -24695,16207 -39426,16207 -15251,0 -29547,-6171 -40175,-16976l-17048 16976c10805,10628 17048,25131 17048,40434 -176,14711 -5776,28798 -16227,39260l-39832 40039c-10461,10628 -24549,16405 -39436,16405 -14555,-42 -28684,-5642 -39084,-16103l-28476 -28217c-10389,-10223 -16373,-24549 -16373,-39218l-73 62z"/>
  <rect class="fil1" x="-2" y="-1" width="562937" height="562938"/>
 </g>
</svg>
