<?xml version="1.0" encoding="UTF-8"?>
<!DOCTYPE svg PUBLIC "-//W3C//DTD SVG 1.1//EN" "http://www.w3.org/Graphics/SVG/1.1/DTD/svg11.dtd">
<!-- Creator: CorelDRAW X8 -->
<svg xmlns="http://www.w3.org/2000/svg" xml:space="preserve" width="64px" height="64px" version="1.1" style="shape-rendering:geometricPrecision; text-rendering:geometricPrecision; image-rendering:optimizeQuality; fill-rule:evenodd; clip-rule:evenodd"
viewBox="0 0 428626 428626"
 xmlns:xlink="http://www.w3.org/1999/xlink">
 <defs>
  <style type="text/css">
   <![CDATA[
    .fil1 {fill:none}
    .fil0 {fill:black;fill-rule:nonzero}
   ]]>
  </style>
 </defs>
 <g id="Ebene_x0020_1">
  <metadata id="CorelCorpID_0Corel-Layer"/>
  <path class="fil0" d="M400292 319045l0 -112476c-3109,3544 -6471,6740 -10102,9666 -26143,20116 -46924,36601 -62356,49503 -4984,4200 -9010,7483 -12159,9801 -3108,2349 -7340,4722 -12632,7127 -5332,2357 -10323,3583 -15046,3583l-126 0 -135 0c-4675,0 -9706,-1226 -15045,-3583 -5292,-2405 -9532,-4778 -12641,-7127 -1249,-926 -2642,-1994 -4176,-3220 -1226,-9935 -3220,-19942 -6257,-29371l6027 4778c602,475 2310,1922 5150,4327 2800,2405 5078,4240 6740,5506 1661,1265 3804,2800 6510,4588 2673,1795 5118,3156 7396,4026 2230,878 4327,1313 6296,1313l135 0 126 0c1970,0 4066,-435 6297,-1313 2270,-870 4722,-2231 7388,-4026 2713,-1788 4857,-3323 6518,-4588 1661,-1266 3932,-3101 6732,-5506 2848,-2405 4548,-3852 5165,-4327 20290,-16089 39836,-31570 58679,-46394 5292,-4200 10188,-9840 14737,-16920 4548,-7087 6779,-13471 6779,-19245 0,-222 0,-744 0,-1622 0,-870 0,-1527 0,-1962 0,-443 0,-1099 -40,-1930 -47,-830 -221,-1440 -435,-1835 -269,-348 -530,-783 -838,-1305 -261,-483 -697,-839 -1314,-1100 -569,-213 -1265,-356 -2056,-356l-191975 0c119,-1708 174,-3433 174,-5173 0,-4635 -419,-9176 -1210,-13582l193011 0c6478,0 11984,2318 16580,6914 4588,4588 6866,10101 6866,16524l0 159305c0,6423 -2278,11937 -6866,16525 -4596,4596 -10102,6913 -16580,6913l-156829 0c6067,-4951 10860,-11264 14072,-18755l142757 0c1273,0 2365,-482 3330,-1408 918,-918 1353,-2009 1353,-3275zm-154338 -19277c0,-37962 -8875,-96181 -58061,-96181 -5213,0 -27227,23311 -60118,23311 -32899,0 -54913,-23311 -60126,-23311 -49194,0 -58070,58219 -58070,96181 0,27172 18107,43467 44828,43467l146720 0c26729,0 44827,-16295 44827,-43467zm-53703 -149884c0,-35596 -28880,-64485 -64476,-64485 -35612,0 -64493,28889 -64493,64485 0,35557 28881,64437 64493,64437 35596,0 64476,-28880 64476,-64437zm-1265 70401c34346,2840 38396,53126 38396,79483 0,17964 -10694,26903 -28255,26903l-146720 0c-17561,0 -28256,-8939 -28256,-26903 0,-26357 4050,-76643 38405,-79483 5988,3426 12079,8140 18565,11534 13946,7301 28809,11651 44654,11651 15828,0 30700,-4350 44653,-11651 6479,-3394 12570,-8108 18558,-11534zm-15307 -70401c0,26436 -21484,47865 -47904,47865 -26436,0 -47921,-21429 -47921,-47865 0,-26460 21461,-47913 47921,-47913 26452,0 47904,21461 47904,47913z"/>
  <rect class="fil1" x="-1" y="-1" width="428625" height="428626"/>
 </g>
</svg>
