<?xml version="1.0" encoding="UTF-8"?>
<!DOCTYPE svg PUBLIC "-//W3C//DTD SVG 1.1//EN" "http://www.w3.org/Graphics/SVG/1.1/DTD/svg11.dtd">
<!-- Creator: CorelDRAW X8 -->
<svg xmlns="http://www.w3.org/2000/svg" xml:space="preserve" width="64px" height="64px" version="1.1" style="shape-rendering:geometricPrecision; text-rendering:geometricPrecision; image-rendering:optimizeQuality; fill-rule:evenodd; clip-rule:evenodd"
viewBox="0 0 819839 819839"
 xmlns:xlink="http://www.w3.org/1999/xlink">
 <defs>
  <style type="text/css">
   <![CDATA[
    .fil1 {fill:none}
    .fil0 {fill:black;fill-rule:nonzero}
   ]]>
  </style>
 </defs>
 <g id="Ebene_x0020_1">
  <metadata id="CorelCorpID_0Corel-Layer"/>
  <path class="fil0" d="M765643 610242l0 -215135c-5946,6779 -12376,12891 -19321,18489 -50020,38476 -89752,70007 -119270,94684 -9532,8034 -17234,14313 -23255,18731 -5946,4509 -14041,9048 -24163,13633 -10198,4524 -19745,6869 -28777,6869l-258 0 -242 0c-8957,0 -18580,-2345 -28777,-6869 -10122,-4585 -18232,-9124 -24178,-13633 -2391,-1755 -5054,-3797 -7989,-6142 -2345,-19004 -6158,-38143 -11968,-56178l11514 9138c1165,908 4418,3677 9865,8276 5356,4600 9714,8110 12891,10531 3177,2421 7278,5356 12452,8775 5099,3435 9789,6037 14147,7702 4266,1679 8276,2511 12043,2511l242 0 258 0c3752,0 7776,-832 12043,-2511 4342,-1665 9033,-4267 14132,-7702 5189,-3419 9289,-6354 12452,-8775 3192,-2421 7534,-5931 12890,-10531 5447,-4599 8700,-7368 9865,-8276 38824,-30790 76211,-60399 112250,-88738 10123,-8049 19488,-18822 28188,-32378 8700,-13557 12966,-25752 12966,-36812 0,-408 0,-1422 0,-3086 0,-1665 0,-2920 0,-3768 0,-832 0,-2088 -75,-3676 -91,-1589 -424,-2754 -848,-3510 -499,-666 -998,-1513 -1588,-2512 -500,-923 -1347,-1589 -2512,-2088 -1089,-409 -2421,-681 -3934,-681l-367192 0c227,-3268 333,-6566 333,-9895 0,-8866 -817,-17551 -2330,-25978l369189 0c12377,0 22922,4433 31713,13223 8775,8776 13133,19322 13133,31607l0 304705c0,12286 -4358,22831 -13133,31607 -8791,8790 -19336,13224 -31713,13224l-299969 0c11605,-9472 20759,-21546 26916,-35889l273053 0c2436,0 4524,-923 6370,-2678 1740,-1755 2587,-3843 2587,-6264zm-295203 -36872c0,-72609 -16976,-183967 -111055,-183967 -9986,0 -52078,44589 -115004,44589 -62926,0 -105018,-44589 -114988,-44589 -94094,0 -111070,111358 -111070,183967 0,51972 34632,83140 85742,83140l280633 0c51109,0 85742,-31168 85742,-83140zm-102718 -286685c0,-68101 -55240,-123340 -123341,-123340 -68100,0 -123340,55239 -123340,123340 0,68010 55240,123250 123340,123250 68101,0 123341,-55240 123341,-123250z"/>
  <rect class="fil1" x="-3" y="-1" width="819838" height="819839"/>
 </g>
</svg>
