<?xml version="1.0" encoding="UTF-8"?>
<!DOCTYPE svg PUBLIC "-//W3C//DTD SVG 1.1//EN" "http://www.w3.org/Graphics/SVG/1.1/DTD/svg11.dtd">
<!-- Creator: CorelDRAW X8 -->
<svg xmlns="http://www.w3.org/2000/svg" xml:space="preserve" width="64px" height="64px" version="1.1" style="shape-rendering:geometricPrecision; text-rendering:geometricPrecision; image-rendering:optimizeQuality; fill-rule:evenodd; clip-rule:evenodd"
viewBox="0 0 1508047 1508047"
 xmlns:xlink="http://www.w3.org/1999/xlink">
 <defs>
  <style type="text/css">
   <![CDATA[
    .fil1 {fill:none}
    .fil0 {fill:black;fill-rule:nonzero}
   ]]>
  </style>
 </defs>
 <g id="Ebene_x0020_1">
  <metadata id="CorelCorpID_0Corel-Layer"/>
  <path class="fil0" d="M1187156 1067177c0,-139127 -32506,-352479 -212795,-352479 -19092,0 -99774,85441 -220338,85441 -120563,0 -201217,-85441 -220337,-85441 -180261,0 -212795,213352 -212795,352479 0,99607 66321,159332 164286,159332l537693 0c97965,0 164286,-59725 164286,-159332zm-196792 -549299c0,-130471 -105869,-236340 -236341,-236340 -130471,0 -236340,105869 -236340,236340 0,130304 105869,236145 236340,236145 130472,0 236341,-105841 236341,-236145z"/>
  <rect class="fil1" x="-5" y="-2" width="1508043" height="1508045"/>
 </g>
</svg>
