<?xml version="1.0" encoding="UTF-8"?>
<!DOCTYPE svg PUBLIC "-//W3C//DTD SVG 1.1//EN" "http://www.w3.org/Graphics/SVG/1.1/DTD/svg11.dtd">
<!-- Creator: CorelDRAW X8 -->
<svg xmlns="http://www.w3.org/2000/svg" xml:space="preserve" width="64px" height="64px" version="1.1" style="shape-rendering:geometricPrecision; text-rendering:geometricPrecision; image-rendering:optimizeQuality; fill-rule:evenodd; clip-rule:evenodd"
viewBox="0 0 993230 993230"
 xmlns:xlink="http://www.w3.org/1999/xlink">
 <defs>
  <style type="text/css">
   <![CDATA[
    .fil1 {fill:none}
    .fil0 {fill:black;fill-rule:nonzero}
   ]]>
  </style>
 </defs>
 <g id="Ebene_x0020_1">
  <metadata id="CorelCorpID_0Corel-Layer"/>
  <path class="fil0" d="M797704 672290l0 50224c0,6801 -2456,12666 -7478,17579 -4931,5022 -10797,7479 -17579,7479l-552100 0c-6801,0 -12666,-2457 -17579,-7479 -5022,-4913 -7478,-10778 -7478,-17579l0 -50224c0,-6800 2456,-12666 7478,-17688 4913,-4931 10778,-7369 17579,-7369l552100 0c6782,0 12648,2438 17579,7369 5022,5022 7478,10888 7478,17688zm0 -200732l0 50133c0,6782 -2456,12757 -7478,17670 -4931,4931 -10797,7479 -17579,7479l-552100 0c-6801,0 -12666,-2548 -17579,-7479 -5022,-4913 -7478,-10888 -7478,-17670l0 -50133c0,-6782 2456,-12629 7478,-17688 4913,-4913 10778,-7369 17579,-7369l552100 0c6782,0 12648,2456 17579,7369 5022,5059 7478,10906 7478,17688zm0 -200732l0 50133c0,6782 -2456,12647 -7478,17688 -4931,4913 -10797,7369 -17579,7369l-552100 0c-6801,0 -12666,-2456 -17579,-7369 -5022,-5041 -7478,-10906 -7478,-17688l0 -50133c0,-6782 2456,-12758 7478,-17652 4913,-4949 10778,-7497 17579,-7497l552100 0c6782,0 12648,2548 17579,7497 5022,4894 7478,10870 7478,17652z"/>
  <rect class="fil1" x="-3" y="-1" width="993228" height="993230"/>
 </g>
</svg>
