<?xml version="1.0" encoding="UTF-8"?>
<!DOCTYPE svg PUBLIC "-//W3C//DTD SVG 1.1//EN" "http://www.w3.org/Graphics/SVG/1.1/DTD/svg11.dtd">
<!-- Creator: CorelDRAW X8 -->
<svg xmlns="http://www.w3.org/2000/svg" xml:space="preserve" width="64px" height="64px" version="1.1" style="shape-rendering:geometricPrecision; text-rendering:geometricPrecision; image-rendering:optimizeQuality; fill-rule:evenodd; clip-rule:evenodd"
viewBox="0 0 428626 428626"
 xmlns:xlink="http://www.w3.org/1999/xlink">
 <defs>
  <style type="text/css">
   <![CDATA[
    .fil0 {fill:none}
    .fil1 {fill:black;fill-rule:nonzero}
   ]]>
  </style>
 </defs>
 <g id="Ebene_x0020_1">
  <metadata id="CorelCorpID_0Corel-Layer"/>
  <rect class="fil0" x="-1" y="-1" width="428625" height="428626"/>
  <path class="fil1" d="M342887 183107c-3370,-3378 -8116,-5379 -12933,-5379 -112421,0 -118813,-8 -231265,0 -4905,-8 -9564,2001 -12934,5379 -3377,3370 -5387,8029 -5387,12933l0 36546c0,4817 2010,9556 5387,12933 3331,3330 8069,5340 12894,5340 114438,55 117199,39 231305,39 4856,-39 9563,-2001 12933,-5379 3377,-3370 5339,-8076 5379,-12933l0 -36546c-40,-4864 -2002,-9563 -5379,-12933z"/>
 </g>
</svg>
