<?xml version="1.0" encoding="UTF-8"?>
<!DOCTYPE svg PUBLIC "-//W3C//DTD SVG 1.1//EN" "http://www.w3.org/Graphics/SVG/1.1/DTD/svg11.dtd">
<!-- Creator: CorelDRAW X8 -->
<svg xmlns="http://www.w3.org/2000/svg" xml:space="preserve" width="64px" height="64px" version="1.1" style="shape-rendering:geometricPrecision; text-rendering:geometricPrecision; image-rendering:optimizeQuality; fill-rule:evenodd; clip-rule:evenodd"
viewBox="0 0 471676 471676"
 xmlns:xlink="http://www.w3.org/1999/xlink">
 <defs>
  <style type="text/css">
   <![CDATA[
    .fil0 {fill:none}
    .fil2 {fill:#2B2A29;fill-rule:nonzero}
    .fil1 {fill:black;fill-rule:nonzero}
   ]]>
  </style>
 </defs>
 <g id="Ebene_x0020_1">
  <metadata id="CorelCorpID_0Corel-Layer"/>
  <rect class="fil0" x="-1" y="-1" width="471675" height="471676"/>
  <path class="fil1" d="M321658 144543l0 33948c-78,4910 -1375,9706 -3778,13858 -2341,4048 -5762,7573 -10080,10071l-57347 33044c-4274,2846 -9322,4448 -14467,4605 -4962,156 -10045,-1028 -14668,-3691l-57225 -33017c-4613,-2272 -8539,-5850 -11281,-10229 -2646,-4326 -4213,-9366 -4213,-14641l0 -67906c78,-4909 1367,-9688 3787,-13858 2367,-4056 5779,-7590 10071,-10071l58922 -33949c4187,-2446 8958,-3734 13771,-3734 4614,0 9341,1210 13728,3734l57181 32983c4657,2245 8627,5841 11386,10254 2655,4326 4213,9366 4213,14641l0 33958zm-25609 33948l-52 -67906c0,-479 -96,-879 -244,-1114 -235,-296 -549,-574 -914,-749l-58688 -33870 -1001 -217c-365,0 -740,95 -1044,269l-58836 33871 -740 731 -313 1079 44 67906c0,479 95,879 243,1114 244,305 557,584 914,758l58679 33870c322,200 723,287 1088,278 374,-8 792,-156 1132,-383l58670 -33826 748 -784c192,-322 305,-696 314,-1027z"/>
  <path class="fil1" d="M429676 327116l-53 34053c-43,4831 -1340,9619 -3734,13754 -2342,4039 -5754,7564 -10071,10071l-57565 33165c-4257,2786 -9227,4326 -14250,4483 -4979,157 -10097,-1018 -14719,-3699l-57112 -33000c-4640,-2281 -8566,-5850 -11282,-10176 -2707,-4318 -4265,-9349 -4265,-14702l0 -67906c78,-4910 1367,-9689 3787,-13858 2367,-4039 5797,-7582 10123,-10063l58862 -33957c4187,-2455 8957,-3726 13762,-3726 4657,0 9401,1193 13736,3674l57225 33060c4649,2290 8574,5850 11290,10176 2716,4327 4266,9358 4266,14694l0 33957zm-25618 33949l-44 -67906c0,-435 -113,-827 -296,-1114 -200,-322 -496,-592 -818,-749l-58705 -33861 -1036 -218c-374,0 -749,96 -1036,261l-58861 33905c-296,165 -549,418 -706,696l-313 1080 44 67906c0,435 113,835 296,1123 209,330 496,600 809,748l58670 33862c401,200 801,296 1141,287 391,-9 792,-139 1088,-339l58713 -33871 740 -783 314 -1027z"/>
  <path class="fil1" d="M215042 327116l-52 34053c-43,4831 -1340,9619 -3734,13754 -2342,4039 -5754,7564 -10072,10071l-57564 33165c-4257,2786 -9227,4326 -14250,4483 -4979,157 -10097,-1018 -14720,-3699l-57112 -33000c-4639,-2281 -8565,-5850 -11281,-10176 -2707,-4318 -4265,-9349 -4265,-14702l0 -67906c78,-4910 1366,-9689 3786,-13858 2368,-4039 5798,-7582 10124,-10063l58862 -33957c4187,-2455 8957,-3726 13762,-3726 4657,0 9401,1193 13736,3674l57225 33060c4648,2290 8574,5850 11290,10176 2716,4327 4265,9358 4265,14694l0 33957zm-25618 33949l-43 -67906c0,-435 -113,-827 -296,-1114 -200,-322 -496,-592 -818,-749l-58705 -33861 -1036 -218c-375,0 -749,96 -1036,261l-58862 33905c-296,165 -548,418 -705,696l-313 1080 43 67906c0,435 114,835 296,1123 209,330 497,600 810,748l58670 33862c400,200 801,296 1140,287 392,-9 792,-139 1088,-339l58714 -33871 740 -783 313 -1027z"/>
  <polygon class="fil2" points="282522,205598 313223,255267 296197,265782 265495,216113 "/>
  <polygon class="fil2" points="205615,216740 174922,265591 157983,254919 188676,206068 "/>
  <polygon class="fil2" points="205450,317114 266218,317106 266218,337109 205450,337118 "/>
 </g>
</svg>
