<?xml version="1.0" encoding="UTF-8"?>
<!DOCTYPE svg PUBLIC "-//W3C//DTD SVG 1.1//EN" "http://www.w3.org/Graphics/SVG/1.1/DTD/svg11.dtd">
<!-- Creator: CorelDRAW X8 -->
<svg xmlns="http://www.w3.org/2000/svg" xml:space="preserve" width="64px" height="64px" version="1.1" style="shape-rendering:geometricPrecision; text-rendering:geometricPrecision; image-rendering:optimizeQuality; fill-rule:evenodd; clip-rule:evenodd"
viewBox="0 0 373589 373589"
 xmlns:xlink="http://www.w3.org/1999/xlink">
 <defs>
  <style type="text/css">
   <![CDATA[
    .fil1 {fill:none}
    .fil0 {fill:black;fill-rule:nonzero}
   ]]>
  </style>
 </defs>
 <g id="Ebene_x0020_1">
  <metadata id="CorelCorpID_0Corel-Layer"/>
  <path class="fil0" d="M103301 257960c0,3806 1510,7529 4268,10287l22642 22455c2751,2613 6605,3992 10417,3992 3861,0 7715,-1379 10473,-4137l31681 -31859c2758,-2758 4274,-6612 4274,-10432 0,-4633 -1834,-8170 -5053,-11245 -5047,5095 -9363,11066 -17216,11066 -8129,0 -14741,-6619 -14741,-14741 -96,-7901 5923,-12217 10970,-17264 -3075,-3261 -6605,-4915 -11066,-4915 -3854,0 -7667,1516 -10459,4267l-31970 32005c-2758,2758 -4316,6433 -4316,10431l96 90zm108003 -108369c0,4592 1876,8122 5096,11197 5095,-5047 9362,-11066 17215,-11066 8177,0 14741,6619 14741,14741 0,7853 -5971,12169 -11066,17229 3075,3255 6612,4771 11066,4771 3854,0 7722,-1379 10466,-4136l32060 -32005c2757,-2751 4267,-6474 4267,-10473 0,-3806 -1510,-7529 -4267,-10286l-22642 -22449c-2751,-2613 -6619,-4130 -10425,-4130 -3854,0 -7708,1517 -10466,4268l-31687 31866c-2751,2751 -4268,6612 -4268,10425l-90 48zm-137539 108369c0,-11845 4461,-22911 12913,-31363l32005 -32005c8260,-8315 19649,-12900 31363,-12900 12121,0 23504,4909 31957,13534l13547 -13534c-8638,-8452 -13547,-19980 -13547,-32149 0,-11666 4460,-22911 12761,-31177l31681 -31874c8363,-8439 19615,-13086 31460,-13086 11659,0 22917,4454 31184,12769l22593 22414c8260,8122 13038,19553 13038,31212 0,11893 -4454,22973 -12900,31419l-31970 31956c-8259,8273 -19649,12906 -31356,12906 -12128,0 -23511,-4915 -31957,-13499l-13547 13499c8583,8446 13547,19974 13547,32150 -137,11707 -4598,22903 -12906,31211l-31688 31874c-8307,8453 -19511,13044 -31356,13044 -11576,-48 -22828,-4509 -31094,-12816l-22642 -22456c-8260,-8122 -13031,-19519 -13031,-31177l-55 48zm84348 -165973c-1400,-1406 -3378,-2241 -5385,-2241l-32894 0 -27 -32907c0,-2013 -828,-3985 -2206,-5371 -1414,-1407 -3386,-2248 -5392,-2248l-15209 0c-2041,0 -3979,841 -5385,2248 -1407,1406 -2241,3337 -2241,5378l0 32900 -32887 0c-2041,0 -3992,835 -5391,2241 -1400,1400 -2234,3344 -2234,5385l0 15209c0,2007 834,3978 2234,5385 1392,1386 3357,2213 5370,2213l32908 28 0 32894c0,1999 834,3978 2241,5377 1406,1407 3351,2234 5385,2248l15209 0c2034,-14 3978,-841 5392,-2241 1399,-1406 2220,-3357 2233,-5384l0 -32894 32894 0c2027,-28 3985,-841 5385,-2241 1400,-1407 2220,-3372 2241,-5385l0 -15209c-21,-2034 -841,-3985 -2241,-5385z"/>
  <rect class="fil1" x="-1" y="-1" width="373588" height="373588"/>
 </g>
</svg>
