<?xml version="1.0" encoding="UTF-8"?>
<!DOCTYPE svg PUBLIC "-//W3C//DTD SVG 1.1//EN" "http://www.w3.org/Graphics/SVG/1.1/DTD/svg11.dtd">
<!-- Creator: CorelDRAW X8 -->
<svg xmlns="http://www.w3.org/2000/svg" xml:space="preserve" width="64px" height="64px" version="1.1" style="shape-rendering:geometricPrecision; text-rendering:geometricPrecision; image-rendering:optimizeQuality; fill-rule:evenodd; clip-rule:evenodd"
viewBox="0 0 373589 373589"
 xmlns:xlink="http://www.w3.org/1999/xlink">
 <defs>
  <style type="text/css">
   <![CDATA[
    .fil1 {fill:none}
    .fil0 {fill:black;fill-rule:nonzero}
   ]]>
  </style>
 </defs>
 <g id="Ebene_x0020_1">
  <metadata id="CorelCorpID_0Corel-Layer"/>
  <path class="fil0" d="M281657 191200l0 -66801c0,-2414 -910,-4489 -2662,-6281 -1744,-1745 -3868,-2620 -6274,-2620l-66801 0c-3868,0 -6619,1792 -8198,5405 -1572,3826 -951,7067 1958,9770l20036 20035 -37962 37969 -930 -14 -19450 0 0 -19443c0,-16106 -13051,-29164 -29157,-29164l-18209 0c-3709,0 -7253,690 -10514,1951l0 -22062c0,-11052 3903,-20491 11755,-28309 7860,-7853 17299,-11763 28310,-11763l133651 0c11017,0 20456,3910 28309,11763 7859,7818 11762,17257 11762,28309l0 133602c0,11066 -3903,20505 -11762,28358 -7853,7818 -17292,11762 -28309,11762l-117284 0c931,-2854 1448,-5902 1448,-9073l0 -19443 19450 0c16071,0 29136,-13058 29136,-29136l0 -18223c0,-1227 -83,-2440 -234,-3633l36720 -36721 20043 20036c1654,1744 3736,2661 6232,2661 1124,0 2289,-248 3489,-703 3620,-1586 5447,-4323 5447,-8232zm-91733 26592c0,-5019 -4081,-9094 -9100,-9094l-39486 0 0 -39478c0,-5054 -4081,-9135 -9121,-9135l-18209 0c-5039,0 -9121,4081 -9121,9135l0 39478 -39485 0c-5019,0 -9101,4075 -9101,9094l0 18223c0,5019 4082,9100 9101,9100l39485 0 0 39479c0,5046 4082,9128 9121,9128l18209 0c5040,0 9121,-4082 9121,-9128l0 -39479 39486 0c5019,0 9100,-4081 9100,-9100l0 -18223z"/>
  <rect class="fil1" x="-1" y="-1" width="373588" height="373588"/>
 </g>
</svg>
