<?xml version="1.0" encoding="UTF-8"?>
<!DOCTYPE svg PUBLIC "-//W3C//DTD SVG 1.1//EN" "http://www.w3.org/Graphics/SVG/1.1/DTD/svg11.dtd">
<!-- Creator: CorelDRAW X8 -->
<svg xmlns="http://www.w3.org/2000/svg" xml:space="preserve" width="64px" height="64px" version="1.1" style="shape-rendering:geometricPrecision; text-rendering:geometricPrecision; image-rendering:optimizeQuality; fill-rule:evenodd; clip-rule:evenodd"
viewBox="0 0 2221364 2221364"
 xmlns:xlink="http://www.w3.org/1999/xlink">
 <defs>
  <style type="text/css">
   <![CDATA[
    .fil0 {fill:none}
    .fil1 {fill:black;fill-rule:nonzero}
   ]]>
  </style>
 </defs>
 <g id="Ebene_x0020_1">
  <metadata id="CorelCorpID_0Corel-Layer"/>
  <rect class="fil0" x="-7" y="-3" width="2221359" height="2221361"/>
  <path class="fil1" d="M1936324 590863c-1558,19145 -6026,37757 -11150,50260 -4961,13078 -11151,22589 -18694,28369 -7092,6231 -17218,9347 -24269,9347l-441436 -1230 0 1133229c0,7666 -2993,19350 -9470,27590 -6641,7953 -17341,14676 -31976,19964 -14636,4674 -35625,9388 -60140,12012 -58623,6231 -89657,6969 -147993,0 -25130,-2993 -45545,-7338 -60304,-12012 -14635,-5288 -26359,-12954 -31812,-19964 -5698,-7174 -9634,-17792 -9634,-27590l0 -104948c73423,-27302 125773,-97978 125773,-180829l0 -108350c0,-82852 -52350,-153568 -125773,-180871l0 -558231 -441354 0c-8240,0 -18939,-3854 -25335,-9347 -5903,-5042 -12667,-15291 -17791,-28369 -4510,-12503 -9183,-30090 -11151,-50260 -4592,-46365 -4551,-109744 0,-156109 2009,-20785 6641,-38823 11151,-51326 5124,-13078 11232,-22302 17791,-27754 6765,-5698 15661,-8404 25335,-8404l1234119 1230c8609,0 16767,2624 24269,8404 7502,5780 13733,14676 18694,27754 5124,12503 9060,30664 11150,51326 4510,45012 3690,111588 0,156109zm-859914 825848c0,-29845 -24269,-54114 -54114,-54114l-234779 0 0 -234738c0,-30009 -24269,-54278 -54237,-54278l-108268 0c-29967,0 -54236,24269 -54236,54278l0 234738 -234780 0c-29844,0 -54072,24269 -54072,54114l0 108350c0,29844 24228,54072 54072,54072l234780 0 0 234739c0,30049 24269,54318 54236,54318l108268 0c29968,0 54237,-24269 54237,-54318l0 -234739 234779 0c29845,0 54114,-24228 54114,-54072l0 -108350z"/>
 </g>
</svg>
