<?xml version="1.0" encoding="UTF-8"?>
<!DOCTYPE svg PUBLIC "-//W3C//DTD SVG 1.1//EN" "http://www.w3.org/Graphics/SVG/1.1/DTD/svg11.dtd">
<!-- Creator: CorelDRAW X8 -->
<svg xmlns="http://www.w3.org/2000/svg" xml:space="preserve" width="64px" height="64px" version="1.1" style="shape-rendering:geometricPrecision; text-rendering:geometricPrecision; image-rendering:optimizeQuality; fill-rule:evenodd; clip-rule:evenodd"
viewBox="0 0 993230 993230"
 xmlns:xlink="http://www.w3.org/1999/xlink">
 <defs>
  <style type="text/css">
   <![CDATA[
    .fil1 {fill:none}
    .fil0 {fill:black;fill-rule:nonzero}
   ]]>
  </style>
 </defs>
 <g id="Ebene_x0020_1">
  <metadata id="CorelCorpID_0Corel-Layer"/>
  <path class="fil0" d="M609455 795871c0,-3263 -1980,-11988 -5921,-26047 -3849,-14132 -8468,-30116 -13802,-48116 -5536,-18074 -8487,-28375 -9019,-31088 -385,-1173 -1063,-5224 -2309,-11933 -1228,-6745 -2566,-12097 -3850,-16148 -1356,-4198 -3391,-7387 -6103,-9642 -4400,-4289 -12080,-6342 -22950,-6342 -6837,0 -17321,806 -31472,2401 -14078,1613 -24691,2401 -31968,2401 -10246,0 -17193,-1613 -21116,-4802 -1705,-1467 -3501,-3923 -4986,-6984 -1466,-3263 -2511,-6232 -3317,-9037 -862,-2822 -1778,-6452 -3007,-10888 -1173,-4289 -1833,-7112 -2144,-8303 -11127,-38310 -16662,-76620 -16662,-114636 0,-38218 5535,-76381 16662,-114783 311,-1228 971,-4051 2144,-8340 1229,-4307 2145,-7937 3007,-10778 806,-2933 1851,-5884 3317,-9018 1485,-3190 3281,-5463 4986,-6947 3923,-3373 10870,-4968 21116,-4968 7277,0 17890,807 31968,2383 14151,1741 24635,2585 31472,2585 10870,0 18550,-2145 22950,-6324 2712,-2456 4747,-5646 6103,-9697 1284,-4014 2622,-9421 3850,-16222 1246,-6764 1924,-10631 2309,-11878 532,-2694 3483,-13014 9019,-31014 5334,-18000 9953,-34167 13802,-48281 3941,-14078 5921,-22675 5921,-26084 0,-6544 -6581,-14481 -19613,-23646 -13015,-9128 -24324,-15415 -33966,-19100 -5975,-2383 -12648,-3629 -20236,-3629 -10173,0 -24929,2695 -44029,8230 -17230,5114 -31582,11127 -43460,18129 -11915,7148 -22546,16955 -31931,29749 -9605,12703 -16406,23206 -20731,31381 -4400,8359 -11163,22510 -20548,42654 -1742,3630 -3098,6452 -4015,8597 -14664,32004 -24874,64412 -30538,97149 -5773,32683 -8596,69233 -8596,109852 0,40418 2823,76986 8596,109797 5664,32627 15874,65071 30538,97130 16754,36569 29237,60783 37357,72441 18935,27293 45843,46393 80615,57153 788,238 1797,660 2713,916 19100,5408 33856,8120 44029,8120 7588,0 14261,-1228 20236,-3629 9642,-3501 20951,-9953 33966,-19100 13032,-9165 19613,-17102 19613,-23664zm-37687 -310492c0,-8230 3190,-16277 8964,-21831l157491 -157565c5848,-5866 13803,-9257 22051,-9257 8249,0 15966,3391 21758,9257l18165 18147c5774,5572 9165,13527 9165,21757 0,8249 -3391,16204 -9165,21777l-70864 71230 170268 0c17432,0 28356,14517 28356,30959l0 30996c0,16498 -10924,30942 -28356,30942l-170268 0 70864 70937c5774,5865 9165,13821 9165,22069 0,8249 -3391,16204 -9165,22051l-18165 18128c-5792,5573 -13509,8982 -21758,8982 -8248,0 -16203,-3409 -22051,-8982l-157491 -157601c-5774,-5792 -8964,-13821 -8964,-21996zm-261056 -228429c0,-9201 -7497,-16717 -16717,-16717l-72532 0 0 -72513c0,-9257 -7497,-16754 -16772,-16754l-33415 0c-9257,0 -16754,7497 -16754,16754l0 72513 -72550 0c-9202,0 -16717,7516 -16717,16717l0 33471c0,9238 7515,16717 16717,16717l72550 0 0 72532c0,9275 7497,16772 16754,16772l33415 0c9275,0 16772,-7497 16772,-16772l0 -72532 72532 0c9220,0 16717,-7479 16717,-16717l0 -33471z"/>
  <rect class="fil1" x="-3" y="-1" width="993228" height="993230"/>
 </g>
</svg>
