<?xml version="1.0" encoding="UTF-8"?>
<!DOCTYPE svg PUBLIC "-//W3C//DTD SVG 1.1//EN" "http://www.w3.org/Graphics/SVG/1.1/DTD/svg11.dtd">
<!-- Creator: CorelDRAW X8 -->
<svg xmlns="http://www.w3.org/2000/svg" xml:space="preserve" width="64px" height="64px" version="1.1" style="shape-rendering:geometricPrecision; text-rendering:geometricPrecision; image-rendering:optimizeQuality; fill-rule:evenodd; clip-rule:evenodd"
viewBox="0 0 428626 428626"
 xmlns:xlink="http://www.w3.org/1999/xlink">
 <defs>
  <style type="text/css">
   <![CDATA[
    .fil0 {fill:none}
    .fil1 {fill:black;fill-rule:nonzero}
   ]]>
  </style>
 </defs>
 <g id="Ebene_x0020_1">
  <metadata id="CorelCorpID_0Corel-Layer"/>
  <rect class="fil0" x="-1" y="-1" width="428625" height="428626"/>
  <path class="fil1" d="M198548 268079c0,-5758 -4683,-10433 -10442,-10433l-45302 0 0 -45295c0,-5798 -4683,-10481 -10465,-10481l-20891 0c-5783,0 -10465,4683 -10465,10481l0 45295 -45303 0c-5758,0 -10441,4675 -10441,10433l0 20907c0,5759 4683,10442 10441,10442l45303 0 0 45294c0,5790 4682,10473 10465,10473l20891 0c5782,0 10465,-4683 10465,-10473l0 -45294 45302 0c5759,0 10442,-4683 10442,-10442l0 -20907zm90929 -53766c0,25867 -21105,46963 -46964,46963 -6660,0 -13004,-1408 -18755,-3923 1028,3401 1574,7001 1574,10726l0 20907c0,12008 -5687,22695 -14531,29506l4746 31166c380,3117 3299,5537 6582,5537l40761 0c3283,0 5862,-2254 6582,-5157 2958,-11003 4057,-22908 5307,-34125 5696,-1828 11399,-4224 16715,-6961l25328 19839c1424,862 3117,1637 4762,1637 6186,0 30961,-26966 35399,-32828 1084,-1313 1645,-2578 1645,-4216 0,-1645 -775,-3338 -1859,-4603 -6802,-8275 -13384,-16335 -19625,-25321 2958,-5316 5142,-10782 7182,-16715l33904 -5086c2903,-546 5157,-3900 5157,-6637l0 -40714c0,-3117 -2254,-6020 -5315,-6565l-33587 -5158c-1804,-6075 -4383,-12103 -7499,-17980 6241,-8606 12981,-16699 19222,-25139 941,-1266 1479,-2579 1479,-4224 0,-1424 -380,-2903 -1258,-4003 -7720,-10837 -20543,-22188 -30304,-31182 -1258,-1084 -2903,-1859 -4541,-1859 -1645,0 -3338,538 -4437,1638l-26025 19680c-5324,-2800 -10805,-4999 -16509,-6802l-5141 -33746c-396,-3116 -3299,-5537 -6582,-5537l-40761 0c-3283,0 -5862,2239 -6582,5142 -2958,11019 -4058,22924 -5323,34141 -5680,1803 -11375,4224 -16699,6961l-25321 -19618c-1424,-1084 -3124,-1859 -4762,-1859 -6186,0 -30969,26800 -35406,32828 -862,1313 -1638,2579 -1638,4216 0,1645 776,3125 1859,4438 6795,8226 13377,16501 19618,25320 -2049,3790 -3813,7579 -5316,11510 15599,4446 27029,18811 27029,35841l0 18510 18518 0c3876,0 7618,602 11138,1701 -2381,-5616 -3702,-11786 -3702,-18249 0,-25866 21105,-46963 46971,-46963 25859,0 46964,21097 46964,46963z"/>
 </g>
</svg>
