<?xml version="1.0" encoding="UTF-8"?>
<!DOCTYPE svg PUBLIC "-//W3C//DTD SVG 1.1//EN" "http://www.w3.org/Graphics/SVG/1.1/DTD/svg11.dtd">
<!-- Creator: CorelDRAW X8 -->
<svg xmlns="http://www.w3.org/2000/svg" xml:space="preserve" width="64px" height="64px" version="1.1" style="shape-rendering:geometricPrecision; text-rendering:geometricPrecision; image-rendering:optimizeQuality; fill-rule:evenodd; clip-rule:evenodd"
viewBox="0 0 2221364 2221364"
 xmlns:xlink="http://www.w3.org/1999/xlink">
 <defs>
  <style type="text/css">
   <![CDATA[
    .fil1 {fill:none}
    .fil0 {fill:black;fill-rule:nonzero}
   ]]>
  </style>
 </defs>
 <g id="Ebene_x0020_1">
  <metadata id="CorelCorpID_0Corel-Layer"/>
  <path class="fil0" d="M1363007 1779969c0,-7297 -4427,-26811 -13241,-58254 -8609,-31608 -18940,-67355 -30911,-107613 -12339,-40421 -18940,-63460 -20210,-69527 -779,-2624 -2296,-11684 -5084,-26688 -2746,-15087 -5739,-27057 -8609,-36117 -3033,-9388 -7584,-16521 -13651,-21563 -9839,-9593 -27016,-14185 -51326,-14185 -15291,0 -38782,1804 -70389,5371 -31484,3607 -55220,5370 -71495,5370 -22917,0 -38454,-3608 -47227,-10741 -3853,-3279 -7830,-8773 -11150,-15619 -3321,-7297 -5658,-13938 -7421,-20211 -1926,-6313 -3976,-14430 -6723,-24351 -2623,-9593 -4099,-15906 -4796,-18571 -24884,-85679 -37265,-171359 -37265,-256383 0,-85475 12381,-170827 37265,-256712 697,-2747 2173,-9060 4796,-18653 2747,-9634 4797,-17751 6723,-24105 1763,-6559 4100,-13159 7421,-20169 3320,-7134 7297,-12217 11150,-15538 8773,-7543 24310,-11109 47227,-11109 16275,0 40011,1803 71495,5329 31607,3895 55098,5780 70389,5780 24310,0 41487,-4796 51326,-14143 6067,-5493 10618,-12626 13651,-21686 2870,-8978 5863,-21072 8609,-36281 2788,-15127 4305,-23777 5084,-26565 1270,-6026 7871,-29107 20210,-69364 11971,-40257 22302,-76415 30911,-107981 8814,-31484 13241,-50711 13241,-58336 0,-14635 -14717,-32386 -43865,-52884 -29106,-20415 -54400,-34477 -75964,-42717 -13364,-5329 -28287,-8117 -45259,-8117 -22752,0 -55753,6026 -98470,18407 -38535,11438 -70635,24884 -97199,40544 -26647,15988 -50424,37921 -71414,66535 -21481,28410 -36691,51900 -46365,70184 -9839,18694 -24967,50342 -45997,95396 -3854,8117 -6887,14430 -8937,19226 -32878,71578 -55630,144057 -68298,217275 -12913,73094 -19227,154839 -19227,245684 0,90394 6314,172179 19227,245561 12668,72971 35420,145533 68298,217233 37470,81785 65387,135940 83548,162013 42348,61042 102529,103759 180297,127823 1763,533 4017,1476 6067,2050 42717,12093 75718,18160 98470,18160 16972,0 31895,-2746 45259,-8117 21564,-7830 46858,-22260 75964,-42717 29148,-20497 43865,-38248 43865,-52924zm712373 -694417c0,-18407 -7133,-36404 -20088,-48825l-352189 -352395c-13119,-13118 -30911,-20702 -49358,-20702 -18407,0 -35707,7584 -48662,20702l-40585 40585c-12954,12463 -20538,30255 -20538,48662 0,18447 7584,36239 20538,48702l158487 159307 -380845 0c-38986,0 -63419,32468 -63419,69241l0 69323c0,36895 24433,69200 63419,69200l380845 0 -158487 158651c-12954,13118 -20538,30910 -20538,49358 0,18448 7584,36240 20538,49317l40585 40544c12955,12463 30255,20088 48662,20088 18447,0 36239,-7625 49358,-20088l352189 -352476c12955,-12955 20088,-30910 20088,-49194zm-1380471 -510882c0,-20579 -16767,-37387 -37347,-37387l-162259 0 0 -162177c0,-20703 -16767,-37470 -37469,-37470l-74775 0c-20703,0 -37470,16767 -37470,37470l0 162177 -162259 0c-20579,0 -37346,16808 -37346,37387l0 74857c0,20662 16767,37388 37346,37388l162259 0 0 162218c0,20743 16767,37510 37470,37510l74775 0c20702,0 37469,-16767 37469,-37510l0 -162218 162259 0c20580,0 37347,-16726 37347,-37388l0 -74857z"/>
  <rect class="fil1" x="-7" y="-3" width="2221359" height="2221361"/>
 </g>
</svg>
