<?xml version="1.0" encoding="UTF-8"?>
<!DOCTYPE svg PUBLIC "-//W3C//DTD SVG 1.1//EN" "http://www.w3.org/Graphics/SVG/1.1/DTD/svg11.dtd">
<!-- Creator: CorelDRAW X8 -->
<svg xmlns="http://www.w3.org/2000/svg" xml:space="preserve" width="64px" height="64px" version="1.1" style="shape-rendering:geometricPrecision; text-rendering:geometricPrecision; image-rendering:optimizeQuality; fill-rule:evenodd; clip-rule:evenodd"
viewBox="0 0 639608 639608"
 xmlns:xlink="http://www.w3.org/1999/xlink">
 <defs>
  <style type="text/css">
   <![CDATA[
    .fil1 {fill:none}
    .fil0 {fill:black}
   ]]>
  </style>
 </defs>
 <g id="Ebene_x0020_1">
  <metadata id="CorelCorpID_0Corel-Layer"/>
  <path class="fil0" d="M423844 403671l0 99141 -153746 0c2290,-5736 3553,-12004 3553,-18556l0 -33287 33299 0c27526,0 49883,-22356 49883,-49871l0 -31198c0,-27527 -22357,-49883 -49883,-49883l-33299 0 0 -33288c0,-27574 -22345,-49930 -49919,-49930l-31174 0c-4415,0 -8676,566 -12760,1652l0 -78826c0,-6327 2195,-11745 6681,-16219 4426,-4415 9820,-6622 16159,-6622l320265 0c6409,0 11827,2207 16230,6622 4485,4474 6693,9892 6693,16219l0 221123 -99141 0c-6339,0 -11745,2278 -16231,6704 -4415,4462 -6610,9821 -6610,16219zm30466 7614l90808 0c-2420,13019 -7555,23489 -15523,31457l-43839 43840c-7968,7968 -18426,13090 -31446,15510l0 -90807zm-131779 -41385c0,-8593 -6988,-15581 -15581,-15581l-67602 0 0 -67590c0,-8640 -6988,-15628 -15616,-15628l-31174 0c-8629,0 -15617,6988 -15617,15628l0 67590 -67601 0c-8593,0 -15570,6988 -15570,15581l0 31198c0,8593 6977,15569 15570,15569l67601 0 0 67589c0,8653 6988,15641 15617,15641l31174 0c8628,0 15616,-6988 15616,-15641l0 -67589 67602 0c8593,0 15581,-6976 15581,-15569l0 -31198z"/>
  <rect class="fil1" x="-2" y="-1" width="639607" height="639607"/>
 </g>
</svg>
