<?xml version="1.0" encoding="UTF-8"?>
<!DOCTYPE svg PUBLIC "-//W3C//DTD SVG 1.1//EN" "http://www.w3.org/Graphics/SVG/1.1/DTD/svg11.dtd">
<!-- Creator: CorelDRAW X8 -->
<svg xmlns="http://www.w3.org/2000/svg" xml:space="preserve" width="64px" height="64px" version="1.1" style="shape-rendering:geometricPrecision; text-rendering:geometricPrecision; image-rendering:optimizeQuality; fill-rule:evenodd; clip-rule:evenodd"
viewBox="0 0 819839 819839"
 xmlns:xlink="http://www.w3.org/1999/xlink">
 <defs>
  <style type="text/css">
   <![CDATA[
    .fil0 {fill:none}
    .fil1 {fill:black}
   ]]>
  </style>
 </defs>
 <g id="Ebene_x0020_1">
  <metadata id="CorelCorpID_0Corel-Layer"/>
  <rect class="fil0" x="-3" y="-1" width="819838" height="819839"/>
  <path class="fil1" d="M266592 310122c0,4584 -121,8987 5281,10076 4539,923 13904,242 18776,-817l17445 -6385 12755 -8109c2103,-1377 4962,-3843 6869,-5720l499 -454c560,-499 272,-151 832,-696l1634 -1467c3223,-2935 5856,-5855 8519,-9063l4100 -4811c1694,-2346 3798,-4388 5174,-6900l2497 -3676c1483,-2043 1891,-3450 4342,-4585 1105,-544 3374,-847 4675,-1437l22242 -7369c4009,-786 4599,-2587 8019,-771 499,287 1316,575 1891,847 1210,530 817,454 1755,1029 1679,1074 3949,1695 5659,2920 1603,1135 6914,3571 9153,4933 787,469 1196,695 2028,1089 1165,545 575,408 1679,1029 590,317 1316,575 1907,877 2511,1423 5446,3420 8034,4570l19139 10818c61,45 136,105 197,136 76,45 136,75 197,106 90,45 348,181 408,211 530,273 499,212 984,530 938,560 756,605 1694,1105 2618,1346 5326,2783 7762,4493 60,46 121,121 181,136l5432 3163c227,181 757,574 863,650l5310 3268c666,409 1120,424 1861,923 787,530 984,726 1861,1211l15614 9880c4948,3116 9502,6581 14344,9834 60,45 151,91 196,121 485,333 318,227 545,394 742,574 590,559 1589,1210l7777 5371c60,45 121,91 166,151 0,0 454,409 499,439 893,772 2225,1755 3193,2345 2269,1392 4403,3450 6657,4751l48795 36585c786,514 923,696 1573,1210l20350 16568c1498,1104 1801,1422 3208,2617 560,469 938,832 1498,1286 953,757 771,711 1437,1332l1483 1271c711,665 196,151 908,665 453,348 -575,-514 317,273 878,726 -771,-742 484,454 515,514 -166,-46 636,574l3798 3269c574,544 1195,892 1815,1331 620,-166 2935,-1286 3616,-1664 1105,-651 2345,-1150 3389,-1846 424,-288 1029,-605 1513,-923 1846,-1195 3889,-2451 5599,-3934l317 -287c76,-76 121,-121 197,-152l1816 -1180c953,-756 2072,-1604 2920,-2330l9365 -8806c46,-60 121,-106 152,-151l4039 -4251c76,-61 121,-106 167,-182l13329 -13148c-181,-2360 -3888,-7293 -5023,-9956l-3253 -6082c-333,-741 -151,-378 -696,-1165 -529,-817 -802,-1513 -1316,-2421l-4509 -8458c-166,-363 -424,-741 -696,-1165l-1256 -2466c-317,-529 -499,-711 -726,-1119 -318,-560 -257,-651 -620,-1271l-4055 -7384c-575,-923 -757,-1558 -1286,-2451 -575,-923 -772,-1498 -1301,-2406l-2678 -4781c-485,-968 -878,-1558 -1347,-2390 -212,-409 -363,-832 -575,-1241l-6052 -11015c-409,-741 -802,-1573 -1256,-2390l-9290 -17037c-665,-1028 -590,-1437 -1271,-2511l-9849 -17945c-1196,-1936 -1997,-4191 -3223,-6082l-10576 -19487c-514,-1105 -908,-1347 -1407,-2361 -1483,-2950 -3450,-5643 -4660,-8563 -15,-46 -30,-167 -91,-227 -15,-76 -45,-182 -60,-227l-1831 -3132c-787,-1695 -1740,-3117 -2633,-4796l-2663 -5129c-2299,151 -1603,423 -2905,862 -1013,348 -2088,454 -3238,817l-15341 3616c-1150,182 -1861,741 -3117,741l-11514 0c-923,0 -1846,-605 -3299,-801 -1225,-137 -2345,-243 -3358,-500 -1302,-287 -2315,-136 -3526,-378 -1694,-303 -4100,-1286 -6415,-1528l-12770 -3102c-1240,-363 -2088,-181 -3283,-635 -2088,-787 -4781,-908 -6476,-1483 -1619,-560 -1119,-711 -4357,-1468 -802,-166 -1105,-90 -1907,-211 -1558,-227 -4191,-1559 -7292,-1559 -4721,0 -1241,424 -4206,-877 -1650,-696 -3435,-560 -5477,-727 -1226,-121 -954,-348 -2013,-620 -2148,-620 -5976,-878 -8276,-968 -1725,-76 -2860,-606 -4811,-878 -7671,-1014 -15781,-983 -23376,-983l-8186 272c-2814,-30 -5643,0 -8473,-30l-16310 862c-2678,288 -4357,772 -7595,757 -2905,-15 -5356,333 -8034,635 -1271,167 -2784,136 -3843,394 -1710,393 -1392,590 -3571,559 -4917,-30 -9668,1453 -11242,1604 -2572,197 -5129,363 -7655,923 -1317,318 -1665,711 -3299,878l-10606 2299c-3873,1165 -10485,2920 -13874,5326 -1075,742 -257,197 -1422,742 -1635,801 -3132,3010 -4161,4493l-9805 13965c-2042,2451 -4463,6536 -6672,9396l-5311 7671c-786,1589 -2254,2981 -3147,4584l-10863 16069c-651,938 -424,1134 -1210,2148 -1725,2164 -2769,4327 -4252,6582l-8064 13556c-1967,3420 -4146,6279 -4676,10485 -227,1771 -1528,5372 -1528,7233zm134537 261221c424,166 923,348 1695,499l10924 2300c2405,106 1861,544 3676,756l6128 711c1694,182 2042,-272 3510,-136l1801 333c6551,545 10636,-1135 11529,-1135 2073,0 544,484 2163,-181 1075,-454 1619,-288 2739,-636 91,-30 151,-60 242,-91 2073,-696 2451,-1437 4115,-1997 61,-15 152,-30 197,-45l711 -167c1967,-862 5417,-4160 7293,-5719 529,-454 272,-121 847,-696 424,-408 348,-423 726,-802 379,-348 545,-438 999,-862 620,-590 60,-166 817,-741 2239,-1695 3556,-4176 5401,-6294 575,-651 1105,-1075 1604,-1801 30,-60 76,-136 106,-197l1135 -2072c-1271,-318 -711,-500 -1876,-1090l-5039 -2421c-741,-333 -45,-15 -575,-302l-3041 -1271c-2315,-1468 -3464,-1377 -5023,-2587 -1513,-1165 -10848,-5659 -13148,-6779l-4932 -2360c-76,-30 -152,-61 -212,-91 -76,-30 -151,-75 -212,-106 -3102,-1634 -7505,-3495 -10183,-5159l-13314 -6627c-1105,-666 -1150,-696 -2224,-1120l-4539 -2239c-3480,-2315 -4433,-2905 -4433,-7580 0,-1680 892,-2829 1770,-3783 953,-1059 181,-635 1468,-1240 4206,-1937 7716,726 11408,2678l12785 6218c438,288 605,469 1119,726 1029,500 1332,409 2315,1044l3450 1756c1770,1104 4024,1936 5810,2738l11241 5886c121,75 560,302 621,333l14449 7035c1286,560 2164,1316 3495,1710 1150,333 1543,590 2512,1119 1013,575 1376,969 2057,1347 1029,575 1937,439 2724,968 802,545 -424,106 802,666 1921,878 16491,711 17656,711 333,0 4388,-908 4630,-999l4706 -1982c60,-30 136,-75 196,-105l2451 -1877c530,-544 923,-907 1377,-1392l953 -1195c76,-106 303,-378 424,-529l2073 -3495c983,-2179 3707,-9729 3707,-14571 0,-1165 -167,61 -182,-1256 -30,-2753 863,-1724 -1437,-3268l-36176 -21832c-5250,-3011 -20577,-12573 -23860,-14162l-19352 -11590c-1029,-529 -665,-378 -1513,-968 -1316,-893 -1573,-757 -2632,-1982 -802,-923 -1468,-1831 -1650,-3253 -332,-2693 197,-5462 2633,-6945 151,-91 2860,-1377 3177,-1452 1998,-424 4782,1785 6476,2844 757,469 1089,409 1695,757l2799 1800c756,515 711,605 1483,968 363,182 453,167 847,394l11151 6657c681,409 2299,1377 3011,1876l5159 3056c60,31 136,61 197,106l3480 2073c2844,2149 5961,3707 8972,5477l5931 3571c1316,635 1694,1074 2874,1725l6007 3495c1044,499 636,408 1468,998l7595 4388c454,303 681,590 1226,908 620,378 998,409 1618,832 1014,666 1907,1165 2981,1876 212,136 1180,696 1392,802l4584 2784c1423,999 1619,303 3026,1559l5795 3706c1892,802 3405,106 5235,106 1271,0 1892,318 3223,152l11786 -2013c4479,-1694 7792,-3873 10591,-7837l1150 -1664c1544,-2270 2451,-5099 3162,-7702 1135,-4115 1483,-10001 666,-14298 -212,-1074 -318,-1044 -1135,-1679 -1739,-1362 -6263,-3828 -8124,-5023l-15070 -9487c-1770,-786 -3737,-2224 -5583,-3343l-2587 -1695c-2633,-1301 -5765,-3964 -8155,-5054l-3647 -2178c-5840,-3979 -12013,-7535 -18005,-11181 -650,-394 -922,-681 -1634,-1120l-7217 -4403c-892,-650 -923,-635 -1876,-1165l-8881 -5598c-741,-484 -1301,-651 -1967,-1089l-2633 -1665c-60,-45 -136,-90 -196,-121l-363 -272c-61,-45 -122,-106 -167,-136l-12709 -7823c-1195,-847 -2103,-1966 -2542,-3298 -348,-1044 -620,-1573 -575,-2663 15,-968 242,-1407 560,-2375 454,-1332 242,-984 1119,-1952 893,-968 2361,-1846 3541,-2269 2209,-802 4433,620 6188,1709l8518 5356c2815,1997 5341,2981 7762,4812l10773 6717c786,590 877,621 1694,1090l8155 5053c500,303 364,273 893,605 651,409 1165,636 1785,999l12619 7928c3268,2058 6627,3889 9804,6158 167,121 802,499 923,575l19790 12165c1695,1195 3798,2133 5462,3419l12483 7807c892,499 1013,726 1876,1150 6294,2966 17218,2799 23224,-756l3072 -1831c60,-46 121,-106 181,-151l2996 -2860c46,-45 106,-121 136,-166l5220 -9018c726,-1589 863,-3525 1029,-5265 121,-1226 499,-2073 499,-3480l-817 -5099c-272,-953 -544,-1543 -877,-2239l-1831 -3722c-2088,-3253 -2330,-3813 -5311,-7066 -1815,-1982 -4266,-3949 -6339,-5659l-74259 -58296c-3283,-2224 -6385,-4872 -9789,-7035l-6052 -4403c-1815,-1165 -3328,-2754 -5159,-3753l-10637 -7474c-575,-469 -1225,-893 -1815,-1286l-1892 -1195c-817,-424 -226,-15 -953,-575 -333,-272 -348,-348 -817,-681 -2602,-1861 -5386,-3919 -8125,-5447l-8261 -5220c-4251,-2814 -8594,-5689 -13072,-8049l-24526 -14434c-681,-393 -1392,-741 -1997,-1120l-2950 -1679c-243,-136 -772,-424 -969,-530 -333,-166 -575,-287 -1013,-499l-1877 -1180c-786,-409 -408,-136 -1104,-439l-1680 -1119c-938,-500 -1210,-394 -2072,-954l-19337 -10727c-1089,-605 -1180,-318 -2224,-1059 -60,-30 -121,-91 -181,-136 -15,-15 -590,-363 -590,-378 -3783,-1967 -5251,-3238 -9699,-1271l-7777 2557c-650,166 -1089,393 -1861,650l-9895 3253c-2481,999 -4009,5084 -5749,7172l-5750 7519c-726,908 -1664,1937 -2481,2769 -893,908 -1679,1937 -2421,2830 -3132,3812 -7111,7307 -10742,10560l-5659 4721c-1740,1331 -5764,4479 -7610,5311 -1286,605 -817,484 -1634,1119l-2345 1377c-1877,1180 -5735,3359 -7823,4085 -1861,666 -4176,2103 -7353,3102l-10152 2678c-1044,257 -848,439 -2028,696l-9607 908c-2830,227 -7369,75 -9910,-257 -3511,-469 -6370,-1302 -9502,-3314l-3541 -2890 -2753 -4055c-2270,-4327 -2270,-8563 -2179,-13798 15,-787 212,-4252 348,-4978 363,-1770 1225,-4055 1437,-6324 197,-2028 636,-2270 1317,-4040l13934 -24450c258,-333 379,-591 591,-984l8881 -13678c1846,-2224 2965,-4720 4781,-6944l9184 -13375c605,-999 257,423 499,-1120 -3132,-650 -6324,-1573 -9396,-1740 -2662,-136 -7035,-1165 -10016,-1604l-12300 -2027c-2467,-741 -5614,-1226 -8004,-2103l-3601 -938c-1982,-409 -7005,-2633 -8957,-3919l-10122 -6128c-500,-257 -363,-166 -787,-484 -454,-348 -45,-181 -832,-681l-2633 -1634c-1195,-711 -1664,-1346 -3177,-1709 -272,1150 -242,786 -832,1603 -1801,2527 -2996,6128 -4721,8579l-1271 2497c-242,469 -242,348 -590,923l-3722 6838c-469,1075 -272,606 -893,1529l-6657 12240c-242,454 -605,1240 -847,1649 -2693,4433 -5326,10031 -7898,14661l-1543 2829c-515,954 -621,772 -1075,1710l-11892 22181c-317,529 -696,817 -1104,1694l-5054 9517c-1271,2890 -5280,8912 -6279,11423l-1800 3420c-545,1135 -1332,2496 -1891,3374 -1740,2723 -2966,5855 -4630,8624l-6022 11030c-923,2042 -2330,3903 -3268,6006l-3904 6991c-302,499 -75,60 -454,786 -136,273 -332,727 -484,1029l-1755 3525c-499,1090 -363,485 -983,1483 -484,802 -439,1150 -863,1937l-3949 6869c-786,1528 -1331,2406 -620,3495 1392,2164 7701,8306 9714,11635l11498 14722 2058 2088c8095,-3632 17067,-5659 26523,-5659l39959 0c35828,0 64847,29065 64847,64878l0 3041 0 38763 27613 0 14207 0c35752,0 64802,29035 64802,64787l0 7717zm-338959 -225802c0,1226 257,2028 680,2981 742,1619 182,726 1377,1740 2149,1800 5296,3404 7565,4766l9502 6097c2421,1498 5235,3026 7505,4751l21076 13314c4917,3601 6929,3253 9577,-1876l999 -1513c544,-1089 272,-1134 953,-2118 560,-832 605,-968 1120,-1952 2209,-3903 832,-1755 1861,-4387 484,-1256 1982,-2088 2587,-3556l1135 -2270c30,-60 75,-136 105,-196l8519 -15993c605,-1361 681,-1074 1271,-2118l9274 -17097c15,-45 76,-136 91,-181 197,-364 303,-666 469,-1060 515,-1119 620,-1028 1135,-1982 408,-711 590,-1346 1029,-2088l5008 -8941c499,-742 121,60 635,-1181 424,-953 500,-1361 1014,-2103l5507 -9955c15,-61 46,-136 91,-212 46,-61 91,-136 106,-197l1468 -2587c242,-499 363,-878 559,-1301l4418 -7898c575,-1211 621,-1090 1135,-1997l11847 -21924c227,-560 30,-136 318,-620l3873 -6990c1029,-1725 1589,-3435 2678,-5069l16840 -30835c1180,-2784 3843,-7262 5311,-9819l242 -364c15,-75 60,-136 106,-227l726 -1437c0,-30 469,-968 514,-1029l3238 -6037c1846,-3283 10168,-17551 10168,-20062 0,-1377 -1075,-3298 -2467,-4221l-18625 -11757c-2648,-1482 -4993,-3525 -7641,-4871 -2723,-1392 -5068,-3359 -7701,-4872 -60,-46 -136,-61 -196,-106 -409,-242 -152,-46 -590,-333 -712,-469 -152,-182 -893,-711l-5901 -3586c-60,-45 -893,-514 -983,-560l-2830 -1770c-847,-590 -2814,-2133 -3873,-2330 -1437,-333 -1589,0 -2496,484 -2709,1543 -3420,5008 -5130,7505 -1316,1906 -3026,5961 -4312,8094l-18685 34240c-1271,2905 -5160,8911 -6658,12255l-2178 4009c-454,772 -636,1029 -1090,2058l-12179 22181c-2225,3434 -3783,7051 -5704,10651l-6340 11636c-45,60 -76,166 -121,211 -30,76 -60,137 -106,197 -257,484 -30,91 -348,560l-18247 33513c-771,1558 -1392,2784 -2118,4009l-18807 34482c-590,1195 -514,968 -1134,1967l-4267 8125c-439,817 -2012,3313 -2012,4463zm505042 -165523c0,1377 91,893 409,1831l5114 9713c302,651 408,1090 771,1755 121,167 318,454 379,560 30,76 196,318 226,393l6370 11545c333,575 378,862 681,1467 1468,3117 5099,8594 6264,11424l3253 6082c348,681 666,938 953,1467 333,545 469,1196 741,1756 515,983 606,665 1029,1467 333,666 242,984 696,1740l1680 2950c620,1150 1119,2134 1800,3223 1317,2134 2028,4267 3465,6415l5976 11030c606,1090 394,363 1014,1543 182,394 409,1135 590,1529l605 998c46,76 91,151 137,212l8790 16189c333,666 696,1029 923,1543 968,2058 2633,4403 3374,6219 923,2209 2466,4191 3465,6461 378,832 499,953 893,1588l4009 7444c1604,3162 5175,8836 6249,11423l1755 3193c560,1089 1029,2012 1694,3253l8670 15826c635,1014 1104,2012 1649,2965 257,409 91,76 424,757l287 681c31,60 61,151 106,227l7792 14177c999,2284 4433,7731 5054,9471l2496 4660c30,61 76,136 136,197l1196 2481c60,76 196,333 257,409l227 408c302,636 484,1226 756,1680 636,1028 515,378 1090,1392 877,1452 1376,3253 2390,4750 1407,2073 1937,4887 5371,4887 2421,0 5084,-2572 7172,-3722 1014,-559 2285,-1497 3283,-2193 681,-439 969,-515 1770,-984 1650,-998 3102,-2269 4872,-3117l12165 -7807c60,-45 136,-91 197,-121l21197 -13420c1664,-1362 2133,-3889 1286,-5931l-1664 -3268c-273,-530 -379,-984 -772,-1710 -514,-968 -469,-666 -953,-1513 -409,-726 -515,-1059 -817,-1679 -1513,-2981 -5144,-8852 -6143,-11197l-15418 -28233c-2723,-4856 -4841,-9653 -7731,-14267l-1649 -3011c-651,-953 -1029,-2133 -1710,-3238l-11983 -22060c-242,-514 -651,-1089 -893,-1543l-14192 -26114c-484,-727 -30,105 -454,-802l-10394 -18989c-60,-90 -348,-484 -393,-575l-8851 -16824c-1408,-2799 -3314,-5160 -4479,-7883 -1816,-4312 -4766,-8443 -6778,-12755l-8700 -15780c-1906,-2966 -4025,-10016 -8609,-7202l-25252 15841c-878,575 -621,560 -1392,1029 -651,393 -1347,726 -1801,1014 -802,544 -2466,1694 -3313,2178l-10198 6385c-620,499 -2784,1816 -3389,2133l-3313 2194c-575,515 -1907,2875 -1907,3783zm-210913 383608c0,-11014 -8957,-19956 -19972,-19956l-86650 0 0 -86635c0,-11091 -8957,-20048 -20017,-20048l-39959 0c-11060,0 -20017,8957 -20017,20048l0 86635 -86650 0c-11015,0 -19972,8942 -19972,19956l0 39989c0,11015 8957,19972 19972,19972l86650 0 0 86635c0,11075 8957,20032 20017,20032l39959 0c11060,0 20017,-8957 20017,-20032l0 -86635 86650 0c11015,0 19972,-8957 19972,-19972l0 -39989z"/>
 </g>
</svg>
