<?xml version="1.0" encoding="UTF-8"?>
<!DOCTYPE svg PUBLIC "-//W3C//DTD SVG 1.1//EN" "http://www.w3.org/Graphics/SVG/1.1/DTD/svg11.dtd">
<!-- Creator: CorelDRAW X8 -->
<svg xmlns="http://www.w3.org/2000/svg" xml:space="preserve" width="64px" height="64px" version="1.1" style="shape-rendering:geometricPrecision; text-rendering:geometricPrecision; image-rendering:optimizeQuality; fill-rule:evenodd; clip-rule:evenodd"
viewBox="0 0 263851 263851"
 xmlns:xlink="http://www.w3.org/1999/xlink">
 <defs>
  <style type="text/css">
   <![CDATA[
    .fil1 {fill:none}
    .fil0 {fill:black;fill-rule:nonzero}
   ]]>
  </style>
 </defs>
 <g id="Ebene_x0020_1">
  <metadata id="CorelCorpID_0Corel-Layer"/>
  <path class="fil0" d="M77992 96890l0 -15869c0,-6968 2854,-13308 7421,-17895 4573,-4572 10922,-7426 17895,-7426l99379 0c6973,0 13327,2854 17895,7426 4572,4587 7425,10927 7425,17895l0 100362c0,6968 -2853,13318 -7425,17885 -4568,4573 -10922,7426 -17895,7426l-91564 0c424,-1655 653,-3394 653,-5181l0 -6359 90911 0c3778,0 7231,-1563 9729,-4052 2488,-2497 4051,-5950 4051,-9719l0 -84580 -126934 0 0 87 -11541 0zm54931 56081c0,-3648 -2965,-6613 -6607,-6613l-28690 0 0 -28685c0,-3667 -2966,-6632 -6632,-6632l-13226 0c-3661,0 -6632,2965 -6632,6632l0 28685 -28690 0c-3647,0 -6612,2965 -6612,6613l0 13244c0,3643 2965,6613 6612,6613l28690 0 0 28685c0,3667 2971,6632 6632,6632l13226 0c3666,0 6632,-2965 6632,-6632l0 -28685 28690 0c3642,0 6607,-2970 6607,-6613l0 -13244z"/>
  <rect class="fil1" x="-1" width="263850" height="263850"/>
 </g>
</svg>
