<?xml version="1.0" encoding="UTF-8"?>
<!DOCTYPE svg PUBLIC "-//W3C//DTD SVG 1.1//EN" "http://www.w3.org/Graphics/SVG/1.1/DTD/svg11.dtd">
<!-- Creator: CorelDRAW X8 -->
<svg xmlns="http://www.w3.org/2000/svg" xml:space="preserve" width="64px" height="64px" version="1.1" style="shape-rendering:geometricPrecision; text-rendering:geometricPrecision; image-rendering:optimizeQuality; fill-rule:evenodd; clip-rule:evenodd"
viewBox="0 0 263851 263851"
 xmlns:xlink="http://www.w3.org/1999/xlink">
 <defs>
  <style type="text/css">
   <![CDATA[
    .fil1 {fill:none}
    .fil0 {fill:black;fill-rule:nonzero}
   ]]>
  </style>
 </defs>
 <g id="Ebene_x0020_1">
  <metadata id="CorelCorpID_0Corel-Layer"/>
  <path class="fil0" d="M183760 90458c0,1125 -371,2089 -1193,2897 -784,813 -1719,1242 -2800,1242 -1086,0 -2016,-429 -2800,-1242 -784,-808 -1198,-1772 -1198,-2897 0,-3978 -2240,-7031 -6754,-9198 -4480,-2162 -8925,-3243 -13259,-3243 -1081,0 -2011,-385 -2800,-1237 -779,-808 -1193,-1777 -1193,-2897 0,-1125 414,-2089 1193,-2898 789,-813 1719,-1236 2800,-1236 4183,0 8331,691 12436,2084 4149,1353 7767,3715 10903,6958 3097,3287 4665,7182 4665,11667zm20013 0c0,-6223 -1422,-12013 -4295,-17350 -2873,-5332 -6642,-9733 -11273,-13142 -4631,-3399 -9743,-6057 -15382,-7995 -5605,-1973 -11312,-2937 -17067,-2937 -5746,0 -11419,964 -17057,2937 -5600,1938 -10757,4596 -15388,7995 -4587,3409 -8360,7810 -11233,13142 -2878,5337 -4295,11127 -4295,17350 0,8697 2800,16463 8478,23266 857,964 2123,2395 3807,4290 1714,1889 2980,3325 3842,4246 10645,13215 16542,26046 17627,38570l28486 0c1081,-12524 6944,-25355 17622,-38570 823,-921 2089,-2357 3808,-4246 1719,-1895 2990,-3326 3808,-4290 5673,-6803 8512,-14569 8512,-23266zm16015 0c0,13371 -4290,24926 -12875,34665 -3773,4212 -6875,7995 -9339,11243 -2464,3287 -4928,7421 -7431,12363 -2498,4948 -3920,9588 -4256,13912 3925,2440 5897,5950 5897,10630 0,3170 -1042,5950 -3131,8268 2089,2318 3131,5098 3131,8273 0,4480 -1904,7996 -5634,10469 1081,2011 1607,4022 1607,6106 0,3945 -1305,7037 -3920,9160 -2614,2162 -5862,3247 -9675,3247 -1675,3789 -4178,6798 -7499,9043 -3365,2274 -6987,3399 -10907,3399 -3915,0 -7538,-1125 -10859,-3399 -3326,-2245 -5824,-5254 -7508,-9043 -3842,0 -7051,-1085 -9666,-3247 -1159,-926 -2065,-2041 -2712,-3331l847 0c10352,0 18767,-8414 18767,-18766l0 -11974c0,-10357 -8415,-18767 -18767,-18767l-331 0 102 -68c-336,-4324 -1719,-8964 -4222,-13912 -2497,-4942 -5000,-9076 -7464,-12363 -2464,-3248 -5566,-7031 -9296,-11243 -8584,-9739 -12879,-21294 -12879,-34665 0,-8541 1865,-16497 5561,-23879 3700,-7382 8584,-13488 14637,-18353 6048,-4908 12879,-8740 20495,-11521 7620,-2819 15382,-4212 23295,-4212 7917,0 15723,1393 23339,4212 7620,2781 14452,6613 20495,11521 6052,4865 10902,10971 14637,18353 3696,7382 5561,15338 5561,23879zm-87955 91018c0,-3297 -2683,-5975 -5975,-5975l-25939 0 0 -25934c0,-3316 -2678,-5994 -5994,-5994l-11954 0c-3312,0 -5999,2678 -5999,5994l0 25934 -25935 0c-3296,0 -5974,2678 -5974,5975l0 11974c0,3291 2678,5974 5974,5974l25935 0 0 25934c0,3316 2687,5995 5999,5995l11954 0c3316,0 5994,-2679 5994,-5995l0 -25934 25939 0c3292,0 5975,-2683 5975,-5974l0 -11974z"/>
  <rect class="fil1" x="-1" width="263850" height="263850"/>
 </g>
</svg>
