<?xml version="1.0" encoding="UTF-8"?>
<!DOCTYPE svg PUBLIC "-//W3C//DTD SVG 1.1//EN" "http://www.w3.org/Graphics/SVG/1.1/DTD/svg11.dtd">
<!-- Creator: CorelDRAW X8 -->
<svg xmlns="http://www.w3.org/2000/svg" xml:space="preserve" width="64px" height="64px" version="1.1" style="shape-rendering:geometricPrecision; text-rendering:geometricPrecision; image-rendering:optimizeQuality; fill-rule:evenodd; clip-rule:evenodd"
viewBox="0 0 819839 819839"
 xmlns:xlink="http://www.w3.org/1999/xlink">
 <defs>
  <style type="text/css">
   <![CDATA[
    .fil0 {fill:none}
    .fil1 {fill:black;fill-rule:nonzero}
   ]]>
  </style>
 </defs>
 <g id="Ebene_x0020_1">
  <metadata id="CorelCorpID_0Corel-Layer"/>
  <rect class="fil0" x="-3" y="-1" width="819838" height="819839"/>
  <path class="fil1" d="M391400 506117c0,-11333 -9214,-20547 -20531,-20547l-89147 0 0 -89131c0,-11393 -9214,-20607 -20607,-20607l-41093 0c-11378,0 -20607,9214 -20607,20607l0 89131 -89147 0c-11332,0 -20547,9214 -20547,20547l0 41154c0,11317 9215,20546 20547,20546l89147 0 0 89132c0,11393 9229,20607 20607,20607l41093 0c11393,0 20607,-9214 20607,-20607l0 -89132 89147 0c11317,0 20531,-9229 20531,-20546l0 -41154zm338718 135656c0,-11241 -4630,-22059 -12210,-29655l-113158 -113158c26795,-38476 40972,-84592 40972,-131253 0,-127986 -103868,-231884 -231929,-231884 -119376,0 -217783,90402 -230477,206435 10470,-7111 23104,-11257 36706,-11257l41093 0c3314,0 6567,242 9759,726 16114,-63924 74122,-111433 142919,-111433 81279,0 147458,66179 147458,147413 0,73608 -54347,134885 -125020,145733l0 33831c0,21363 -10319,40382 -26205,52320l3767 45c46676,0 92823,-14177 131299,-41003l113128 112780c7580,7974 18428,12603 29640,12603 23481,0 42258,-18806 42258,-42243z"/>
 </g>
</svg>
