<?xml version="1.0" encoding="UTF-8"?>
<!DOCTYPE svg PUBLIC "-//W3C//DTD SVG 1.1//EN" "http://www.w3.org/Graphics/SVG/1.1/DTD/svg11.dtd">
<!-- Creator: CorelDRAW X8 -->
<svg xmlns="http://www.w3.org/2000/svg" xml:space="preserve" width="64px" height="64px" version="1.1" style="shape-rendering:geometricPrecision; text-rendering:geometricPrecision; image-rendering:optimizeQuality; fill-rule:evenodd; clip-rule:evenodd"
viewBox="0 0 9392514 9392514"
 xmlns:xlink="http://www.w3.org/1999/xlink">
 <defs>
  <style type="text/css">
   <![CDATA[
    .fil0 {fill:none}
    .fil1 {fill:black;fill-rule:nonzero}
   ]]>
  </style>
 </defs>
 <g id="Ebene_x0020_1">
  <metadata id="CorelCorpID_0Corel-Layer"/>
  <rect class="fil0" x="-29" y="-13" width="9392494" height="9392505"/>
  <path class="fil1" d="M6267743 4476637c0,119604 -99150,218580 -218753,218580l-876919 0c-119604,0 -218753,-98976 -218753,-218580 0,-119603 99149,-218753 218753,-218753l876919 0c119603,0 218753,99150 218753,218753zm-1973978 938628c0,-126191 -102616,-228634 -228806,-228634l-992709 0 0 -992535c0,-127057 -102617,-229674 -229327,-229674l-457787 0c-126710,0 -229326,102617 -229326,229674l0 992535 -992709 0c-126191,0 -228807,102443 -228807,228634l0 458133c0,126190 102616,228807 228807,228807l992709 0 0 992535c0,126884 102616,229500 229326,229500l457787 0c126710,0 229327,-102616 229327,-229500l0 -992535 992709 0c126190,0 228806,-102617 228806,-228807l0 -458133zm3945702 -1594887c0,-119603 -99150,-218753 -219793,-218753l-4615135 0c156698,148898 254634,359331 254634,592471l0 405611 405786 0c450159,0 815730,365398 815730,815558l0 458133c0,450160 -365571,815730 -815730,815730l-405786 0 0 405612c0,79736 -11440,156698 -32761,229500l4393262 0c120643,0 219793,-100189 219793,-219793l0 -3284069zm218753 -1532138c0,-120643 -99150,-219793 -218753,-219793l-5257873 0c-119604,0 -218753,99150 -218753,219793l0 875879c0,119603 99149,218753 218753,218753l5257873 0c119603,0 218753,-99150 218753,-218753l0 -875879z"/>
 </g>
</svg>
