<?xml version="1.0" encoding="UTF-8"?>
<!DOCTYPE svg PUBLIC "-//W3C//DTD SVG 1.1//EN" "http://www.w3.org/Graphics/SVG/1.1/DTD/svg11.dtd">
<!-- Creator: CorelDRAW X8 -->
<svg xmlns="http://www.w3.org/2000/svg" xml:space="preserve" width="64px" height="64px" version="1.1" style="shape-rendering:geometricPrecision; text-rendering:geometricPrecision; image-rendering:optimizeQuality; fill-rule:evenodd; clip-rule:evenodd"
viewBox="0 0 471676 471676"
 xmlns:xlink="http://www.w3.org/1999/xlink">
 <defs>
  <style type="text/css">
   <![CDATA[
    .fil1 {fill:none}
    .fil0 {fill:black}
   ]]>
  </style>
 </defs>
 <g id="Ebene_x0020_1">
  <metadata id="CorelCorpID_0Corel-Layer"/>
  <path class="fil0" d="M409985 370797l0 -17880 0 -252046 0 0 -17870 0 0 0 -250306 0 -17888 0 0 17888 0 56894c3369,-1009 6929,-1558 10620,-1558l7268 0 0 -55336 250306 0 0 234158 -197773 0 0 3673c0,5032 -1009,9828 -2837,14207l200610 0 17870 0zm-156015 -109672l16809 -809 -2873 13779 26741 5589 1846 34976 -48077 2524c4562,-6128 7269,-13719 7269,-21927l0 -23007c0,-3874 -601,-7617 -1715,-11125zm40016 7574l78 34 0 26 -78 -60zm-20561 1767l21101 4413 -19099 -14015 -2002 9602zm55119 -51028l32799 2951 -4735 13249 25722 9209 -2994 34907 -55545 -4762 4753 -55554zm54648 14424l70 61 0 26 -70 -87zm-20621 -1053l20299 7251 -16983 -16496 -3316 9245zm-214764 -84915l32373 -5954 -1001 14014 27263 1968 6520 34410 -21588 4082c-5632,-13118 -18663,-22319 -33844,-22319l-4779 0 -4944 -26201zm56476 -792l122 35 0 26 -122 -61zm-20108 4509l21492 1549 -20778 -11325 -714 9776zm193725 16191c2011,1027 3386,3125 3386,5536 0,2228 -1175,4178 -2942,5284l-24948 23999c-2472,2385 -6416,2306 -8792,-166 -2385,-2472 -2307,-6433 165,-8809l14616 -14058 -114424 200c-3439,0 -6224,-2794 -6224,-6215 0,-3430 2785,-6215 6224,-6215l113988 -201 -14754 -13814c-2525,-2342 -2664,-6285 -331,-8800 2342,-2516 6294,-2655 8809,-323l25227 23582zm-63110 -28691l0 25078 -7799 0 0 -25078 7799 0zm0 43689l0 144255 -7799 0 0 -144255 7799 0zm-86664 -43689l0 97528c-2516,-653 -5110,-1036 -7800,-1140l0 -96388 7800 0zm2263 133139c0,-6337 -5153,-11482 -11490,-11482l-49853 0 0 -49843c0,-6381 -5153,-11534 -11516,-11534l-22989 0c-6363,0 -11517,5153 -11517,11534l0 49843 -49852 0c-6337,0 -11490,5145 -11490,11482l0 23007c0,6337 5153,11490 11490,11490l49852 0 0 49843c0,6372 5154,11526 11517,11526l22989 0c6363,0 11516,-5154 11516,-11526l0 -49843 49853 0c6337,0 11490,-5153 11490,-11490l0 -23007z"/>
  <rect class="fil1" x="-1" y="-1" width="471675" height="471676"/>
 </g>
</svg>
