<?xml version="1.0" encoding="UTF-8"?>
<!DOCTYPE svg PUBLIC "-//W3C//DTD SVG 1.1//EN" "http://www.w3.org/Graphics/SVG/1.1/DTD/svg11.dtd">
<!-- Creator: CorelDRAW X8 -->
<svg xmlns="http://www.w3.org/2000/svg" xml:space="preserve" width="64px" height="64px" version="1.1" style="shape-rendering:geometricPrecision; text-rendering:geometricPrecision; image-rendering:optimizeQuality; fill-rule:evenodd; clip-rule:evenodd"
viewBox="0 0 309274 309274"
 xmlns:xlink="http://www.w3.org/1999/xlink">
 <defs>
  <style type="text/css">
   <![CDATA[
    .fil1 {fill:none}
    .fil0 {fill:black}
   ]]>
  </style>
 </defs>
 <g id="Ebene_x0020_1">
  <metadata id="CorelCorpID_0Corel-Layer"/>
  <path class="fil0" d="M280775 125168l0 93571c0,5171 -1832,9606 -5530,13299 -3687,3699 -8122,5559 -13333,5559l-148125 0c1085,-2745 1684,-5747 1684,-8881l0 -16101 16107 0c13304,0 24115,-10816 24115,-24121l0 -1980c1900,970 4041,1946 6415,2945 4646,1906 8978,2882 12991,2882l102 0 103 0c4013,0 8345,-976 12985,-2882 4617,-1935 8345,-3801 11118,-5668 2786,-1826 6444,-4394 10913,-7699 13339,-9686 32905,-23230 58663,-40650 4475,-3059 8414,-6512 11792,-10274zm-204806 -16124c-4236,-5702 -6342,-11027 -6342,-15907 0,-6118 1621,-11255 4892,-15336 3276,-4081 7922,-6130 13966,-6130l173427 0c5102,0 9531,1872 13264,5559 3727,3698 5599,8133 5599,13310 0,6193 -1934,12135 -5770,17808 -3841,5622 -8664,10485 -14400,14463 -29520,20513 -47887,33287 -55107,38321 -811,525 -2460,1724 -5029,3590 -2534,1832 -4686,3339 -6370,4469 -1689,1125 -3732,2426 -6130,3836 -2385,1404 -4640,2460 -6752,3168 -2140,696 -4081,1050 -5913,1050l-103 0 -102 0c-1832,0 -3773,-354 -5913,-1050 -2112,-708 -4367,-1764 -6758,-3168 -2397,-1410 -4435,-2711 -6125,-3836l-1124 -765c-2300,-10924 -12009,-19137 -23601,-19137l-16107 0 0 -16096c0,-13327 -10810,-24149 -24138,-24149l-15068 0 -296 0zm63137 64365c0,-4155 -3373,-7534 -7528,-7534l-32693 0 0 -32682c0,-4178 -3374,-7562 -7552,-7562l-15068 0c-4172,0 -7551,3384 -7551,7562l0 32682 -32687 0c-4156,0 -7535,3379 -7535,7534l0 15085c0,4156 3379,7535 7535,7535l32687 0 0 32687c0,4172 3379,7551 7551,7551l15068 0c4178,0 7552,-3379 7552,-7551l0 -32687 32693 0c4155,0 7528,-3379 7528,-7535l0 -15085z"/>
  <rect class="fil1" x="-1" width="309273" height="309273"/>
 </g>
</svg>
