<?xml version="1.0" encoding="UTF-8"?>
<!DOCTYPE svg PUBLIC "-//W3C//DTD SVG 1.1//EN" "http://www.w3.org/Graphics/SVG/1.1/DTD/svg11.dtd">
<!-- Creator: CorelDRAW X8 -->
<svg xmlns="http://www.w3.org/2000/svg" xml:space="preserve" width="64px" height="64px" version="1.1" style="shape-rendering:geometricPrecision; text-rendering:geometricPrecision; image-rendering:optimizeQuality; fill-rule:evenodd; clip-rule:evenodd"
viewBox="0 0 639608 639608"
 xmlns:xlink="http://www.w3.org/1999/xlink">
 <defs>
  <style type="text/css">
   <![CDATA[
    .fil1 {fill:none}
    .fil0 {fill:black;fill-rule:nonzero}
   ]]>
  </style>
 </defs>
 <g id="Ebene_x0020_1">
  <metadata id="CorelCorpID_0Corel-Layer"/>
  <path class="fil0" d="M528687 260855c4013,-3447 5984,-7708 5984,-12677 0,-4958 -1971,-9231 -5984,-12666l-107405 -101478c-3493,-3506 -7566,-5229 -12346,-5229 -4710,0 -8783,1723 -12288,5229 -3494,3505 -5218,7696 -5218,12665l0 53732c-62643,507 -109186,8723 -139487,24635 -38327,20373 -57497,55207 -57497,104417 0,20433 5477,40806 16431,61180 10435,18910 23372,34314 38776,46283 4521,3506 9231,3565 14189,378 4969,-3246 6504,-7826 4461,-13811 -9927,-33357 -11780,-59208 -5536,-77610 6174,-18403 20244,-31316 42140,-38765 19867,-6999 48704,-10694 86523,-11213l0 53731c0,4970 1724,9172 5218,12678 3505,3494 7578,5217 12288,5217 4780,0 8853,-1723 12346,-5217l107405 -101479zm-137257 150689c0,-2479 1015,-4710 2987,-6693 1983,-1971 4462,-2726 7448,-2219 8475,1464 16939,697 25414,-2231 2927,-1015 5666,-637 8145,1086 2478,1783 3753,4132 3753,7130l0 66397c0,9939 -3494,18402 -10446,25343 -6929,6941 -15404,10435 -25331,10435l-262614 0c-9998,0 -18474,-3494 -25403,-10435 -6940,-6941 -10446,-15404 -10446,-25343l0 -262673c0,-9939 3506,-18402 10446,-25343 6929,-6941 15405,-10435 25403,-10435l90205 0c4521,0 7389,2231 8594,6681 1274,4521 -119,7956 -4073,10506 -14955,7448 -27621,16620 -38068,27562 -1971,1971 -4202,2998 -6681,2998l-38079 0 0 238735 238746 0 0 -51501z"/>
  <rect class="fil1" x="-2" y="-1" width="639607" height="639607"/>
 </g>
</svg>
