<?xml version="1.0" encoding="UTF-8"?>
<!DOCTYPE svg PUBLIC "-//W3C//DTD SVG 1.1//EN" "http://www.w3.org/Graphics/SVG/1.1/DTD/svg11.dtd">
<!-- Creator: CorelDRAW X8 -->
<svg xmlns="http://www.w3.org/2000/svg" xml:space="preserve" width="64px" height="64px" version="1.1" style="shape-rendering:geometricPrecision; text-rendering:geometricPrecision; image-rendering:optimizeQuality; fill-rule:evenodd; clip-rule:evenodd"
viewBox="0 0 471676 471676"
 xmlns:xlink="http://www.w3.org/1999/xlink">
 <defs>
  <style type="text/css">
   <![CDATA[
    .fil1 {fill:none}
    .fil0 {fill:black;fill-rule:nonzero}
   ]]>
  </style>
 </defs>
 <g id="Ebene_x0020_1">
  <metadata id="CorelCorpID_0Corel-Layer"/>
  <path class="fil0" d="M183697 288632c0,1480 -244,2803 -740,4005 -523,1131 -1219,2106 -2124,2890 -862,766 -1872,1323 -3056,1688 -1236,357 -2411,540 -3638,540l-10855 0c-2289,0 -4239,-235 -5876,-679 -1628,-453 -3134,-1288 -4518,-2472 -1445,-1184 -2759,-2803 -4030,-4840 -1306,-2011 -2759,-4674 -4352,-7895l-31076 -58531c-1828,-3491 -3639,-7268 -5510,-11290 -1898,-4039 -3543,-7965 -5023,-11769l-209 0c279,4683 461,9288 601,13910 139,4588 209,9384 209,14276l0 65512c0,627 -157,1227 -531,1767 -375,479 -1001,923 -1855,1262 -853,375 -2036,636 -3542,836 -1480,183 -3378,305 -5702,305 -2281,0 -4161,-122 -5641,-305 -1488,-200 -2646,-461 -3482,-836 -853,-313 -1427,-783 -1732,-1262 -339,-540 -505,-1140 -505,-1767l0 -112491c0,-3038 906,-5328 2681,-6834 1741,-1532 3918,-2289 6538,-2289l13631 0c2429,0 4509,209 6207,618 1689,444 3168,1140 4491,2089 1315,975 2568,2307 3726,4022 1158,1697 2342,3847 3569,6345l24339 45805c1401,2742 2794,5501 4187,8165 1384,2681 2733,5345 3978,8034 1297,2664 2550,5310 3769,7878 1253,2612 2463,5180 3595,7748l113 0c-209,-4510 -366,-9236 -461,-14120 -114,-4909 -140,-9610 -140,-14058l0 -58757c0,-627 209,-1227 601,-1758 348,-488 1018,-949 1898,-1341 931,-392 2132,-670 3612,-835 1480,-166 3404,-235 5728,-235 2193,0 4048,69 5527,235 1480,165 2621,443 3430,835 810,392 1384,853 1689,1341 322,531 479,1097 479,1758l0 112500zm105536 -40007c0,2960 -670,5136 -1993,6572 -1315,1411 -3125,2133 -5484,2133l-52560 0c0,3673 436,6973 1315,9976 861,2968 2254,5510 4152,7599 1898,2080 4352,3656 7364,4744 2986,1079 6546,1645 10742,1645 4256,0 7991,-278 11229,-905 3195,-644 6024,-1297 8357,-2063 2332,-766 4282,-1410 5832,-2037 1558,-627 2803,-931 3778,-931 600,0 1088,95 1462,330 392,235 714,618 975,1228 226,557 435,1384 522,2428 96,1071 148,2412 148,4013 0,1410 -52,2638 -96,3630 -69,993 -191,1846 -304,2551 -140,713 -296,1314 -557,1784 -279,479 -592,949 -1036,1402 -418,426 -1550,1044 -3430,1854 -1871,792 -4257,1549 -7155,2298 -2916,766 -6198,1436 -9950,1984 -3734,566 -7721,854 -11978,854 -7686,0 -14397,-949 -20160,-2882 -5745,-1923 -10585,-4866 -14467,-8809 -3874,-3908 -6746,-8914 -8644,-14876 -1898,-5998 -2846,-13040 -2846,-21101 0,-7660 992,-14554 3012,-20717 1967,-6137 4883,-11368 8696,-15651 3804,-4283 8434,-7573 13875,-9810 5484,-2281 11621,-3395 18445,-3395 7225,0 13414,1044 18533,3203 5136,2107 9331,5066 12639,8844 3264,3778 5719,8243 7269,13405 1549,5136 2315,10768 2315,16827l0 3873zm-23599 -6946c218,-6833 -1175,-12204 -4117,-16086 -2942,-3944 -7451,-5894 -13588,-5894 -3099,0 -5806,610 -8104,1741 -2290,1158 -4213,2708 -5745,4701 -1506,1967 -2664,4283 -3447,6964 -836,2716 -1297,5536 -1437,8574l36438 0zm125497 52594c0,636 -192,1184 -505,1698 -305,487 -862,879 -1671,1201 -818,304 -1846,583 -3221,740 -1314,165 -2968,235 -4953,235 -2133,0 -3839,-70 -5188,-235 -1314,-157 -2359,-436 -3125,-740 -783,-322 -1323,-714 -1637,-1201 -356,-514 -513,-1062 -513,-1698l0 -9967c-4744,5110 -9610,8983 -14546,11551 -4953,2568 -10062,3857 -15346,3857 -5954,0 -10968,-949 -15007,-2882 -4022,-1923 -7295,-4613 -9767,-7947 -2472,-3360 -4257,-7225 -5345,-11647 -1044,-4422 -1575,-9932 -1575,-16504l0 -52812c0,-627 156,-1175 531,-1689 348,-487 1018,-888 1941,-1227 931,-279 2202,-557 3804,-723 1575,-156 3517,-226 5849,-226 2386,0 4379,70 5937,226 1550,166 2794,444 3717,723 949,339 1628,740 1967,1227 401,514 610,1062 610,1689l0 48755c0,4518 296,7939 861,10333 592,2402 1480,4465 2681,6137 1176,1706 2690,3029 4544,3995 1828,932 3952,1393 6424,1393 3108,0 6216,-1132 9358,-3378 3108,-2245 6459,-5536 10002,-9836l0 -57399c0,-627 165,-1175 531,-1689 348,-487 992,-888 1950,-1227 922,-279 2176,-557 3699,-723 1550,-156 3517,-226 5911,-226 2359,0 4352,70 5902,226 1523,166 2776,444 3656,723 905,339 1549,740 1923,1227 392,514 601,1062 601,1689l0 86351zm-350401 -184219l390199 0c10602,0 20247,4309 27211,11282 6920,6920 11273,16573 11273,27176l0 174661c0,10611 -4353,20265 -11273,27185 -6964,6964 -16609,11273 -27211,11273l-390199 0c-10603,0 -20239,-4309 -27203,-11273 -6920,-6920 -11272,-16574 -11272,-27185l0 -174661c0,-10603 4352,-20256 11272,-27176 6964,-6973 16600,-11282 27203,-11282zm390199 23155l-390199 0c-4187,0 -8035,1741 -10812,4509 -2759,2759 -4518,6607 -4518,10794l0 174661c0,4196 1759,8034 4518,10785 2777,2777 6625,4518 10812,4518l390199 0c4187,0 8035,-1741 10811,-4518 2760,-2751 4518,-6589 4518,-10785l0 -174661c0,-4187 -1758,-8035 -4518,-10794 -2776,-2768 -6624,-4509 -10811,-4509z"/>
  <rect class="fil1" x="-1" y="-1" width="471675" height="471676"/>
 </g>
</svg>
