<?xml version="1.0" encoding="UTF-8"?>
<!DOCTYPE svg PUBLIC "-//W3C//DTD SVG 1.1//EN" "http://www.w3.org/Graphics/SVG/1.1/DTD/svg11.dtd">
<!-- Creator: CorelDRAW X8 -->
<svg xmlns="http://www.w3.org/2000/svg" xml:space="preserve" width="64px" height="64px" version="1.1" style="shape-rendering:geometricPrecision; text-rendering:geometricPrecision; image-rendering:optimizeQuality; fill-rule:evenodd; clip-rule:evenodd"
viewBox="0 0 1508047 1508047"
 xmlns:xlink="http://www.w3.org/1999/xlink">
 <defs>
  <style type="text/css">
   <![CDATA[
    .fil0 {fill:none}
    .fil1 {fill:black;fill-rule:nonzero}
   ]]>
  </style>
 </defs>
 <g id="Ebene_x0020_1">
  <metadata id="CorelCorpID_0Corel-Layer"/>
  <rect class="fil0" x="-5" y="-2" width="1508043" height="1508045"/>
  <path class="fil1" d="M1001913 411508l36542 0 150621 -150621 -896963 0c-8544,0 -16364,3562 -21986,9184 -5705,5539 -9184,13359 -9184,22015l0 896935 150509 -150510 0 -37099 37099 0 553362 -553362 0 -36542zm94598 58278l0 36848 -36848 0 -553613 553613 0 36292 -36292 0 -150621 150621 896824 0c8628,0 16448,-3452 21986,-9018 5734,-5705 9185,-13526 9185,-22153l0 -896824 -150621 150621zm229605 -177700l0 923903c0,30169 -12385,57666 -32340,77648 -20149,20122 -47646,32507 -77815,32507l-923848 0c-30335,0 -57916,-12385 -77843,-32312 -19927,-20122 -32311,-47619 -32311,-77843l0 -923903c0,-30197 12412,-57750 32423,-77760 19843,-20010 47396,-32423 77731,-32423l923848 0c30308,0 57888,12413 77815,32339 19927,19927 32340,47508 32340,77844zm-497339 689817l0 -22766 39492 0 0 22766 -39492 0zm96462 75143l0 37544 39492 -14778 0 -22766 -39492 0zm132392 -131807l37544 0 -14778 39492 -22766 0 0 -39492zm-82213 103670l55857 -55856 27914 27942 -55828 55829 -27943 -27915zm-427650 28137l78984 0 0 39493 -78984 0 0 -39493zm120703 0l78984 0 0 39493 -78984 0 0 -39493zm120758 0l39493 0 0 -39158 39492 0 0 39158 0 30976 0 8517 -78985 0 0 -39493zm169546 -228436l22766 0 0 39492 -22766 0 0 -39492zm98244 0l0 -56691 39492 0 0 56691 0 22293 0 17199 -78984 0 0 -39492 39492 0zm0 -92454l0 -78984 39492 0 0 78984 -39492 0zm0 -114747l0 -78984 39492 0 0 78984 -39492 0zm-170075 -210040l78984 0 0 39492 -78984 0 0 -39492zm-114970 0l78984 0 0 39492 -78984 0 0 -39492zm-114969 0l78984 0 0 39492 -78984 0 0 -39492zm-114970 0l78984 0 0 39492 -78984 0 0 -39492zm-129998 554281l0 -78984 39492 0 0 78984 -39492 0zm0 -114747l0 -78984 39492 0 0 78984 -39492 0zm0 -114747l0 -78984 39492 0 0 78984 -39492 0zm0 -114747l0 -78984 39492 0 0 78984 -39492 0zm608523 304804l-54799 0c-10910,0 -20845,4509 -28054,11661 -7236,7292 -11744,17283 -11744,28137l0 55328 40076 0 0 -55049 54521 0 0 -40077zm-97770 -98187l-54799 0c-10910,0 -20845,4508 -28054,11661 -7236,7292 -11744,17283 -11744,28137l0 55328 40076 0 0 -55050 54521 0 0 -40076zm-416740 -416518l-54799 0c-10910,0 -20846,4509 -28054,11661 -7236,7292 -11745,17283 -11745,28137l0 55328 40077 0 0 -55049 54521 0 0 -40077z"/>
 </g>
</svg>
