<?xml version="1.0" encoding="UTF-8"?>
<!DOCTYPE svg PUBLIC "-//W3C//DTD SVG 1.1//EN" "http://www.w3.org/Graphics/SVG/1.1/DTD/svg11.dtd">
<!-- Creator: CorelDRAW X8 -->
<svg xmlns="http://www.w3.org/2000/svg" xml:space="preserve" width="64px" height="64px" version="1.1" style="shape-rendering:geometricPrecision; text-rendering:geometricPrecision; image-rendering:optimizeQuality; fill-rule:evenodd; clip-rule:evenodd"
viewBox="0 0 9392514 9392514"
 xmlns:xlink="http://www.w3.org/1999/xlink">
 <defs>
  <style type="text/css">
   <![CDATA[
    .fil1 {fill:none}
    .fil0 {fill:black;fill-rule:nonzero}
   ]]>
  </style>
 </defs>
 <g id="Ebene_x0020_1">
  <metadata id="CorelCorpID_0Corel-Layer"/>
  <path class="fil0" d="M4537999 6459975l-2621916 -2622090c-44375,-44374 -67602,-98109 -67602,-159298 0,-61188 23227,-113883 67602,-158258l586577 -586750c44374,-44375 98109,-67429 159298,-67429 61361,0 114056,23054 158258,67429l1876041 1876041 1876041 -1876041c44375,-44375 98110,-67429 159298,-67429 61362,0 113884,23054 158258,67429l586751 586750c45241,44375 67428,97070 67428,158258 0,61189 -22187,114924 -67428,159298l-2621050 2622090c-45415,44375 -97936,66562 -159298,66562 -61188,0 -113883,-22187 -158258,-66562z"/>
  <rect class="fil1" x="-29" y="-13" width="9392494" height="9392505"/>
 </g>
</svg>
