<?xml version="1.0" encoding="UTF-8"?>
<!DOCTYPE svg PUBLIC "-//W3C//DTD SVG 1.1//EN" "http://www.w3.org/Graphics/SVG/1.1/DTD/svg11.dtd">
<!-- Creator: CorelDRAW X8 -->
<svg xmlns="http://www.w3.org/2000/svg" xml:space="preserve" width="64px" height="64px" version="1.1" style="shape-rendering:geometricPrecision; text-rendering:geometricPrecision; image-rendering:optimizeQuality; fill-rule:evenodd; clip-rule:evenodd"
viewBox="0 0 993230 993230"
 xmlns:xlink="http://www.w3.org/1999/xlink">
 <defs>
  <style type="text/css">
   <![CDATA[
    .fil1 {fill:none}
    .fil0 {fill:black;fill-rule:nonzero}
   ]]>
  </style>
 </defs>
 <g id="Ebene_x0020_1">
  <metadata id="CorelCorpID_0Corel-Layer"/>
  <path class="fil0" d="M310126 513351l277260 277278c4692,4674 10374,7130 16845,7130 6470,0 12043,-2456 16735,-7130l62047 -62047c4674,-4674 7131,-10375 7131,-16827 0,-6489 -2457,-12061 -7131,-16754l-198386 -198367 198386 -198405c4674,-4674 7131,-10356 7131,-16827 0,-6488 -2457,-12061 -7131,-16753l-62047 -62029c-4692,-4802 -10265,-7149 -16735,-7149 -6471,0 -12153,2347 -16845,7149l-277260 277150c-4693,4802 -7039,10375 -7039,16864 0,6470 2346,12042 7039,16717z"/>
  <rect class="fil1" x="-3" y="-1" width="993228" height="993230"/>
 </g>
</svg>
