<?xml version="1.0" encoding="UTF-8"?>
<!DOCTYPE svg PUBLIC "-//W3C//DTD SVG 1.1//EN" "http://www.w3.org/Graphics/SVG/1.1/DTD/svg11.dtd">
<!-- Creator: CorelDRAW X8 -->
<svg xmlns="http://www.w3.org/2000/svg" xml:space="preserve" width="64px" height="64px" version="1.1" style="shape-rendering:geometricPrecision; text-rendering:geometricPrecision; image-rendering:optimizeQuality; fill-rule:evenodd; clip-rule:evenodd"
viewBox="0 0 2221364 2221364"
 xmlns:xlink="http://www.w3.org/1999/xlink">
 <defs>
  <style type="text/css">
   <![CDATA[
    .fil1 {fill:none}
    .fil0 {fill:black;fill-rule:nonzero}
   ]]>
  </style>
 </defs>
 <g id="Ebene_x0020_1">
  <metadata id="CorelCorpID_0Corel-Layer"/>
  <path class="fil0" d="M1073253 693597l-620134 620093c-10453,10495 -15947,23244 -15947,37715 0,14472 5494,26934 15947,37429l138769 138728c10454,10494 23203,15988 37634,15988 14512,0 26974,-5494 37469,-15988l443650 -443691 443731 443691c10454,10494 23163,15988 37634,15988 14512,0 26975,-5494 37470,-15988l138727 -138728c10741,-10495 15988,-22957 15988,-37429 0,-14471 -5247,-27220 -15988,-37715l-619847 -620093c-10740,-10495 -23203,-15742 -37715,-15742 -14471,0 -26934,5247 -37388,15742z"/>
  <rect class="fil1" x="-7" y="-3" width="2221359" height="2221361"/>
 </g>
</svg>
