<?xml version="1.0" encoding="UTF-8"?>
<!DOCTYPE svg PUBLIC "-//W3C//DTD SVG 1.1//EN" "http://www.w3.org/Graphics/SVG/1.1/DTD/svg11.dtd">
<!-- Creator: CorelDRAW X8 -->
<svg xmlns="http://www.w3.org/2000/svg" xml:space="preserve" width="64px" height="64px" version="1.1" style="shape-rendering:geometricPrecision; text-rendering:geometricPrecision; image-rendering:optimizeQuality; fill-rule:evenodd; clip-rule:evenodd"
viewBox="0 0 639608 639608"
 xmlns:xlink="http://www.w3.org/1999/xlink">
 <defs>
  <style type="text/css">
   <![CDATA[
    .fil1 {fill:none}
    .fil0 {fill:black;fill-rule:nonzero}
   ]]>
  </style>
 </defs>
 <g id="Ebene_x0020_1">
  <metadata id="CorelCorpID_0Corel-Layer"/>
  <path class="fil0" d="M439897 330581l-178558 178558c-3010,3010 -6681,4592 -10848,4592 -4166,0 -7755,-1582 -10777,-4592l-39944 -39956c-3022,-3010 -4592,-6681 -4592,-10836 0,-4179 1570,-7767 4592,-10789l127742 -127742 -127742 -127766c-3022,-3010 -4592,-6669 -4592,-10836 0,-4179 1570,-7767 4592,-10789l39944 -39944c3022,-3093 6611,-4604 10777,-4604 4167,0 7838,1511 10848,4604l178558 178475c3022,3093 4521,6681 4521,10860 0,4167 -1499,7755 -4521,10765z"/>
  <rect class="fil1" x="-2" y="-1" width="639607" height="639607"/>
 </g>
</svg>
