<?xml version="1.0" encoding="UTF-8"?>
<!DOCTYPE svg PUBLIC "-//W3C//DTD SVG 1.1//EN" "http://www.w3.org/Graphics/SVG/1.1/DTD/svg11.dtd">
<!-- Creator: CorelDRAW X8 -->
<svg xmlns="http://www.w3.org/2000/svg" xml:space="preserve" width="64px" height="64px" version="1.1" style="shape-rendering:geometricPrecision; text-rendering:geometricPrecision; image-rendering:optimizeQuality; fill-rule:evenodd; clip-rule:evenodd"
viewBox="0 0 562939 562939"
 xmlns:xlink="http://www.w3.org/1999/xlink">
 <defs>
  <style type="text/css">
   <![CDATA[
    .fil1 {fill:none}
    .fil0 {fill:black;fill-rule:nonzero}
   ]]>
  </style>
 </defs>
 <g id="Ebene_x0020_1">
  <metadata id="CorelCorpID_0Corel-Layer"/>
  <path class="fil0" d="M334578 354452c0,-10960 8914,-19885 19884,-19885l86312 0 0 -192456c0,-11023 -8924,-19947 -19957,-19947l-278685 0c-11033,0 -19957,8924 -19957,19947l0 278706c0,11023 8924,19947 19957,19947l192446 0 0 -86312zm26513 6628l0 79071c9983,-1922 21193,-7314 27385,-13516l38169 -38159c6192,-6202 11584,-17412 13506,-27396l-79060 0z"/>
  <rect class="fil1" x="-2" y="-1" width="562937" height="562938"/>
 </g>
</svg>
