<?xml version="1.0" encoding="UTF-8"?>
<!DOCTYPE svg PUBLIC "-//W3C//DTD SVG 1.1//EN" "http://www.w3.org/Graphics/SVG/1.1/DTD/svg11.dtd">
<!-- Creator: CorelDRAW X8 -->
<svg xmlns="http://www.w3.org/2000/svg" xml:space="preserve" width="64px" height="64px" version="1.1" style="shape-rendering:geometricPrecision; text-rendering:geometricPrecision; image-rendering:optimizeQuality; fill-rule:evenodd; clip-rule:evenodd"
viewBox="0 0 819839 819839"
 xmlns:xlink="http://www.w3.org/1999/xlink">
 <defs>
  <style type="text/css">
   <![CDATA[
    .fil1 {fill:none}
    .fil0 {fill:black}
   ]]>
  </style>
 </defs>
 <g id="Ebene_x0020_1">
  <metadata id="CorelCorpID_0Corel-Layer"/>
  <path class="fil0" d="M173875 552763l183483 0 24253 -104398 -47145 -203076 -393 197c-1483,1104 -2905,1876 -4403,2587l-969 772 -13450 5825c-2966,1165 -5296,2012 -5372,1679 -1800,651 -3479,1241 -4781,1498 -3419,772 -6339,1089 -9698,1604 -9698,1558 -16885,1498 -25994,76 -1618,-137 -3237,-197 -4917,-454 -3177,-454 -5507,-1302 -7504,-2013 -3102,-454 -5372,-1286 -9184,-2768l-6022 -2663c-2254,-833 -4327,-1740 -6264,-3042l-4978 -2768 -68433 294719c-1422,6400 5311,12225 11771,12225zm31758 -399041c0,4266 0,7565 590,11695 182,1302 318,3041 439,4146l1695 8019c832,2648 1482,6203 2844,8594 575,1044 257,650 575,1876 454,1695 3692,7701 4660,9517l2708 4388c394,590 651,847 1044,1422 651,1104 1483,1694 1937,2663 514,1028 60,514 908,1286 832,711 514,333 1104,1301l2194 2451c2073,2466 7822,7504 8276,8019l5432 4009c1619,1165 3813,2845 5628,3495 1740,651 394,-60 1619,908 1226,908 2073,908 3299,1544l6339 2783c1347,515 2058,908 3420,1105 2647,393 4796,1619 7504,1997 1301,197 3238,272 4327,394 7898,1165 11771,1301 19669,60 3874,-635 3495,-257 8080,-1347 1301,-272 2133,-847 3495,-1044 1483,-257 2330,-650 3692,-1165l9895 -4327c1165,-908 2511,-1225 3813,-2133 771,-590 196,-257 711,-651 711,-454 832,-257 1619,-847 907,-635 1997,-1422 2844,-1997l2648 -2012c847,-439 711,-636 1165,-1150l1483 -984c514,-378 711,-892 1225,-1286 530,-514 787,-514 1301,-1104l5825 -6143c575,-651 379,-832 969,-1483 317,-333 771,-590 1089,-1044 590,-772 333,-832 908,-1543l3041 -4010c711,-907 514,-1482 1226,-2330 332,-454 196,-136 590,-771 257,-333 771,-1498 832,-1619 590,-1301 1165,-1816 1815,-3102l969 -2527c1361,-2466 968,-2526 1755,-4327l1483 -3374c453,-1422 453,-2390 1104,-3873 1422,-3631 832,-5235 1543,-8019 2013,-7444 1755,-15660 848,-23346 -197,-1558 -197,-2663 -651,-4009 -575,-1755 -318,-2663 -575,-4343 -272,-1543 -1241,-3949 -1755,-5371 -575,-1604 136,-968 -2073,-6203 -575,-1483 -771,-3162 -1800,-4146 -590,-514 -590,-968 -908,-1604 -257,-590 -1105,-1361 -1755,-3116 -636,-1544 -1029,-1423 -1740,-2905 -394,-772 -318,-908 -847,-1619 -1680,-2330 -833,-1165 -1801,-3102l-514 -772c-711,-1044 -1423,-2526 -2270,-3495 -711,-771 -1225,-1679 -2194,-2466 -1301,-1089 -257,0 -1104,-1286 -575,-968 -5039,-4857 -6022,-5946 -1286,-1422 -4524,-3813 -6324,-5250 -712,-575 -848,-378 -1619,-832 -1498,-969 -4085,-2981 -5689,-3753l-6476 -2980c-2073,-1226 -8473,-3480 -10470,-3753 -651,-60 -1301,-121 -1876,-317 -847,-257 -711,-394 -1680,-651 -711,-121 -1558,-257 -2209,-318 -6203,-1301 -10409,-1104 -16612,-1104l-4343 197c-2905,0 -5099,590 -7882,1165l-17007 5825 -4403 2390c-453,318 -968,772 -1361,1029 -1226,711 -1680,590 -2905,1755 -848,772 -1816,1090 -2648,1876 -1241,1090 -4085,2845 -5250,3934l-3556 3495c-968,651 -1346,1559 -2254,2330 -787,651 -590,651 -1165,1362 -515,651 -515,454 -1105,1029 -454,514 -650,968 -968,1422l-2073 2587c-1225,1755 -2965,3556 -3813,5432l-1815 2920c-454,772 -378,968 -636,1483 -529,908 -393,197 -983,1483 -439,907 -893,2466 -1483,3374 -771,1286 -1422,3616 -2073,4781 -892,1679 -1165,3949 -1679,5431 -318,908 -318,454 -711,1483 -197,590 -257,1165 -515,2012 -454,1544 -514,1937 -711,3874 -136,1558 -575,2269 -847,3888 -182,1422 -257,2784 -439,4131 -136,1240 -590,3177 -590,4539zm157807 587622l279181 0c8276,0 17021,-7307 15069,-15644l-88012 -379312 -514 318c-1876,1362 -3692,2330 -5628,3298l-1226 969 -17339 7504c-3813,1483 -6794,2527 -6794,2134 -2330,832 -4523,1619 -6203,1876 -4403,1029 -8155,1483 -12422,2133 -12482,1937 -21726,1876 -33362,121 -2148,-181 -4206,-318 -6415,-575 -4009,-650 -7050,-1740 -9562,-2587 -4009,-651 -6929,-1679 -11832,-3616l-7701 -3435c-2920,-1028 -5568,-2269 -8079,-3812 -2270,-1029 -4343,-2330 -6415,-3692l-87816 378676c-1876,8140 6794,15644 15070,15644zm40806 -512547c0,5432 0,9638 711,15070 257,1619 454,3828 651,5250l2133 10334c1029,3434 1876,8034 3616,11060 772,1301 393,847 772,2406 514,2133 4720,9819 6021,12210l3495 5628c515,711 772,1044 1287,1876 771,1362 1876,2073 2466,3374 711,1347 121,711 1225,1604 1029,983 651,454 1423,1755l2708 3162c2723,3117 10092,9638 10682,10228l6975 5175c2133,1482 4917,3616 7247,4463 2269,832 514,-76 2073,1165 1543,1226 2708,1165 4206,1997l8200 3556c1695,650 2588,1165 4403,1498 3435,514 6083,1997 9638,2511 1619,258 4146,333 5568,515 10077,1498 15130,1619 25222,75 4978,-786 4463,-332 10349,-1679 1679,-393 2769,-1165 4524,-1422 1936,-273 2965,-848 4720,-1498l12740 -5553c1483,-1165 3162,-1558 4917,-2723 969,-711 197,-318 908,-772 893,-651 1029,-393 1997,-1104 1226,-833 2648,-1816 3692,-2648l3419 -2527c1044,-575 848,-832 1498,-1543l1937 -1241c650,-454 908,-1089 1543,-1619 651,-711 968,-711 1680,-1422l7444 -7883c771,-847 514,-1104 1225,-1876 394,-454 968,-772 1422,-1362 848,-1029 454,-1089 1165,-1997l3889 -5174c968,-1105 711,-1876 1619,-2981 378,-575 257,-197 771,-968 318,-454 969,-1876 1105,-2134 711,-1619 1483,-2330 2254,-4009l1301 -3177c1740,-3163 1226,-3223 2194,-5553l1937 -4343c590,-1800 590,-3026 1362,-4977 1876,-4645 1104,-6718 2072,-10274 2512,-9638 2194,-20123 1090,-30018 -257,-1997 -318,-3419 -832,-5174 -772,-2255 -454,-3359 -848,-5553 -317,-2012 -1482,-5053 -2193,-6930 -712,-1997 196,-1165 -2588,-7882 -847,-2013 -1029,-4085 -2390,-5311 -772,-711 -711,-1286 -1165,-2133 -333,-711 -1423,-1740 -2194,-3949 -847,-2058 -1362,-1876 -2270,-3737 -514,-1044 -454,-1165 -1104,-2073 -2133,-3041 -1090,-1559 -2330,-4010l-711 -968c-893,-1362 -1740,-3298 -2845,-4539 -968,-968 -1619,-2194 -2784,-3162 -1740,-1362 -378,0 -1482,-1680 -772,-1225 -6400,-6218 -7687,-7565 -1694,-1876 -5885,-4978 -8155,-6793 -968,-711 -1104,-454 -2072,-1105 -1937,-1225 -5235,-3812 -7369,-4841l-8215 -3828c-2724,-1543 -10924,-4464 -13512,-4781 -786,-61 -1679,-137 -2390,-394 -1044,-317 -984,-514 -2209,-832 -832,-197 -1937,-257 -2784,-454 -8019,-1619 -13375,-1422 -21394,-1422l-5507 318c-3753,0 -6597,786 -10153,1498l-21787 7489 -5689 3041c-590,394 -1241,1044 -1755,1362 -1619,908 -2194,711 -3692,2194 -1089,1044 -2390,1422 -3480,2405 -1558,1423 -5174,3677 -6733,5099l-4524 4524c-1225,847 -1755,2012 -2905,2981 -983,847 -711,847 -1497,1755 -712,832 -712,514 -1423,1286 -650,651 -832,1301 -1286,1816l-2663 3298c-1543,2254 -3812,4645 -4902,6975l-2269 3752c-575,1044 -454,1241 -908,1952 -575,1089 -454,257 -1226,1861 -514,1165 -1165,3238 -1876,4342 -1029,1680 -1876,4660 -2647,6204 -1226,2133 -1498,5053 -2209,6929 -454,1165 -454,575 -833,1937 -257,771 -333,1483 -650,2527 -651,1997 -711,2451 -969,4977 -196,2058 -771,2905 -1028,5039 -273,1815 -394,3555 -651,5310 -197,1604 -711,4070 -711,5810z"/>
  <rect class="fil1" x="-3" y="-1" width="819838" height="819839"/>
 </g>
</svg>
