<?xml version="1.0" encoding="UTF-8"?>
<!DOCTYPE svg PUBLIC "-//W3C//DTD SVG 1.1//EN" "http://www.w3.org/Graphics/SVG/1.1/DTD/svg11.dtd">
<!-- Creator: CorelDRAW X8 -->
<svg xmlns="http://www.w3.org/2000/svg" xml:space="preserve" width="64px" height="64px" version="1.1" style="shape-rendering:geometricPrecision; text-rendering:geometricPrecision; image-rendering:optimizeQuality; fill-rule:evenodd; clip-rule:evenodd"
viewBox="0 0 562939 562939"
 xmlns:xlink="http://www.w3.org/1999/xlink">
 <defs>
  <style type="text/css">
   <![CDATA[
    .fil0 {fill:none}
    .fil1 {fill:black;fill-rule:nonzero}
   ]]>
  </style>
 </defs>
 <g id="Ebene_x0020_1">
  <metadata id="CorelCorpID_0Corel-Layer"/>
  <rect class="fil0" x="-2" y="-1" width="562937" height="562938"/>
  <path class="fil1" d="M450332 240495c-4436,-4436 -10659,-7075 -16986,-7075l-103807 0 -62 -103859c0,-6337 -2629,-12560 -7013,-16934 -4425,-4436 -10648,-7075 -16986,-7075l-47997 0c-6441,0 -12560,2639 -16986,7065 -4436,4436 -7064,10555 -7064,16996l0 103807 -103818 0c-6431,0 -12550,2639 -16986,7075 -4426,4426 -7064,10545 -7064,16986l0 47997c0,6338 2638,12550 7075,16986 4373,4374 10596,7013 16923,7013l103870 62 0 103807c0,6337 2638,12550 7064,16986 4436,4436 10597,7023 16986,7075l47997 -10c6389,-42 12561,-2629 16986,-7065 4436,-4426 7023,-10607 7065,-16986l10 -103807 103807 0c6379,-62 12550,-2639 16986,-7075 4436,-4425 7013,-10597 7065,-16986l0 -47997c-52,-6389 -2629,-12560 -7065,-16986z"/>
 </g>
</svg>
