<?xml version="1.0" encoding="UTF-8"?>
<!DOCTYPE svg PUBLIC "-//W3C//DTD SVG 1.1//EN" "http://www.w3.org/Graphics/SVG/1.1/DTD/svg11.dtd">
<!-- Creator: CorelDRAW X8 -->
<svg xmlns="http://www.w3.org/2000/svg" xml:space="preserve" width="64px" height="64px" version="1.1" style="shape-rendering:geometricPrecision; text-rendering:geometricPrecision; image-rendering:optimizeQuality; fill-rule:evenodd; clip-rule:evenodd"
viewBox="0 0 428626 428626"
 xmlns:xlink="http://www.w3.org/1999/xlink">
 <defs>
  <style type="text/css">
   <![CDATA[
    .fil0 {fill:none}
    .fil2 {fill:#2B2A29}
    .fil1 {fill:#9E9E9E;fill-rule:nonzero}
   ]]>
  </style>
 </defs>
 <g id="Ebene_x0020_1">
  <metadata id="CorelCorpID_0Corel-Layer"/>
  <rect class="fil0" x="-1" y="-1" width="428625" height="428626"/>
  <g id="_2310942012400">
   <path class="fil1" d="M58457 311973c0,12016 -9738,21762 -21761,21762 -12016,0 -21761,-9746 -21761,-21762 0,-55023 22330,-104882 58409,-140961 36166,-36055 86001,-58393 140993,-58393 20630,0 40548,3156 59287,9009l-28959 37456c-9801,-1931 -19942,-2943 -30328,-2943 -43079,0 -82085,17450 -110261,45603 -28161,28239 -45619,67221 -45619,110229zm285632 -151220c3845,3290 7562,6731 11146,10323 36134,36023 58457,85874 58457,140897 0,12016 -9746,21762 -21761,21762 -12016,0 -21762,-9746 -21762,-21762 0,-42003 -16659,-80162 -43712,-108196l17632 -43024z"/>
   <path class="fil2" d="M336147 94116l-91759 223901c-6787,16572 -28833,20867 -44369,11889 -15543,-8970 -22860,-30178 -11889,-44369l148017 -191421z"/>
  </g>
 </g>
</svg>
