<?xml version="1.0" encoding="UTF-8"?>
<!DOCTYPE svg PUBLIC "-//W3C//DTD SVG 1.1//EN" "http://www.w3.org/Graphics/SVG/1.1/DTD/svg11.dtd">
<!-- Creator: CorelDRAW X8 -->
<svg xmlns="http://www.w3.org/2000/svg" xml:space="preserve" width="64px" height="64px" version="1.1" style="shape-rendering:geometricPrecision; text-rendering:geometricPrecision; image-rendering:optimizeQuality; fill-rule:evenodd; clip-rule:evenodd"
viewBox="0 0 639608 639608"
 xmlns:xlink="http://www.w3.org/1999/xlink">
 <defs>
  <style type="text/css">
   <![CDATA[
    .fil1 {fill:none}
    .fil0 {fill:black;fill-rule:nonzero}
   ]]>
  </style>
 </defs>
 <g id="Ebene_x0020_1">
  <metadata id="CorelCorpID_0Corel-Layer"/>
  <path class="fil0" d="M194352 498893l0 -71650 250810 0 0 71650 -250810 0zm0 -179077l0 -179078 179160 0 0 44808c0,14885 12040,26925 26842,26925l44808 0 0 107345 -250810 0zm322542 17895c0,9773 -8192,17883 -18060,17883 -9868,0 -18048,-8110 -18048,-17883 0,-9786 8180,-17895 18048,-17895 9868,0 18060,8109 18060,17895zm35613 0c0,-29345 -24163,-53508 -53673,-53508l-18048 0 0 -71732c0,-14885 -8369,-35282 -18910,-45988l-42459 -42471c-10623,-10529 -31103,-18898 -45905,-18898l-188108 0c-14707,0 -26665,11957 -26665,26677l0 152412 -17894 0c-29345,0 -53756,24163 -53756,53508l0 116457c0,4769 4179,8948 8948,8948l62702 0 0 44725c0,14707 11958,26665 26665,26665l268705 0c14720,0 26677,-11958 26677,-26665l0 -44725 62773 0c4769,0 8948,-4179 8948,-8948l0 -116457z"/>
  <rect class="fil1" x="-2" y="-1" width="639607" height="639607"/>
 </g>
</svg>
