<?xml version="1.0" encoding="UTF-8"?>
<!DOCTYPE svg PUBLIC "-//W3C//DTD SVG 1.1//EN" "http://www.w3.org/Graphics/SVG/1.1/DTD/svg11.dtd">
<!-- Creator: CorelDRAW X8 -->
<svg xmlns="http://www.w3.org/2000/svg" xml:space="preserve" width="64px" height="64px" version="1.1" style="shape-rendering:geometricPrecision; text-rendering:geometricPrecision; image-rendering:optimizeQuality; fill-rule:evenodd; clip-rule:evenodd"
viewBox="0 0 471676 471676"
 xmlns:xlink="http://www.w3.org/1999/xlink">
 <defs>
  <style type="text/css">
   <![CDATA[
    .fil2 {fill:none}
    .fil0 {fill:#9FBB2F}
    .fil1 {fill:black;fill-rule:nonzero}
   ]]>
  </style>
 </defs>
 <g id="Ebene_x0020_1">
  <metadata id="CorelCorpID_0Corel-Layer"/>
  <g id="_3102631260512">
   <g id="_1860164177440">
    <g id="_2094605388192">
     <path class="fil0" d="M98216 22101l275601 0c41478,0 75749,34271 75749,76115l0 275601c0,41844 -34271,75758 -75749,75758l-275601 0c-41844,0 -76115,-33914 -76115,-75758l0 -275601c0,-41844 34271,-76115 76115,-76115z"/>
     <path class="fil1" d="M295535 272807c0,4335 -365,7939 -1445,10106 -714,2525 -2158,3604 -3603,3604l-15155 0 0 31033c0,713 -366,1445 -714,2158 -731,714 -1445,1445 -2890,1811 -1445,348 -2890,714 -5049,1079 -2167,0 -5049,357 -8304,357 -3247,0 -5772,-357 -7930,-357 -2168,-365 -3970,-731 -5415,-1079 -1079,-366 -2159,-1088 -2524,-1811 -723,-713 -723,-1445 -723,-2158l0 -31033 -65651 0c-1088,0 -2167,0 -3247,-357 -1088,-357 -1802,-1079 -2533,-2167 -357,-1080 -1079,-2882 -1436,-4683 -357,-2168 -357,-5058 -357,-8296 0,-2890 0,-5414 357,-7573 0,-2168 357,-3970 357,-5415 365,-1810 1079,-3246 1445,-5057 722,-1436 1445,-2881 2167,-4683l53021 -93794c731,-722 1445,-1445 2533,-1811 1079,-713 2524,-1079 4326,-1436 1802,-357 4327,-722 7217,-1088 2889,0 6493,0 10463,0 4683,0 8652,0 11533,0 3256,366 5780,731 7939,1088 1811,723 3256,1088 3970,1802 1079,723 1445,1811 1445,2524l0 103169 15155 0c1445,0 2524,1088 3603,3256 1080,2159 1445,5762 1445,10811zm-53752 -92697l-357 0 -45090 78639 45447 0 0 -78639z"/>
    </g>
   </g>
  </g>
  <rect class="fil2" x="-1" y="-1" width="471675" height="471676"/>
 </g>
</svg>
