<?xml version="1.0" encoding="UTF-8"?>
<!DOCTYPE svg PUBLIC "-//W3C//DTD SVG 1.1//EN" "http://www.w3.org/Graphics/SVG/1.1/DTD/svg11.dtd">
<!-- Creator: CorelDRAW X8 -->
<svg xmlns="http://www.w3.org/2000/svg" xml:space="preserve" width="64px" height="64px" version="1.1" style="shape-rendering:geometricPrecision; text-rendering:geometricPrecision; image-rendering:optimizeQuality; fill-rule:evenodd; clip-rule:evenodd"
viewBox="0 0 993230 993230"
 xmlns:xlink="http://www.w3.org/1999/xlink">
 <defs>
  <style type="text/css">
   <![CDATA[
    .fil2 {fill:none}
    .fil0 {fill:#E31E24}
    .fil1 {fill:white;fill-rule:nonzero}
   ]]>
  </style>
 </defs>
 <g id="Ebene_x0020_1">
  <metadata id="CorelCorpID_0Corel-Layer"/>
  <g id="_3102722156224">
   <g id="_1860458258896">
    <g id="_2094207607232">
     <path class="fil0" d="M206836 46540l580347 0c87342,0 159508,72165 159508,160278l0 580346c0,87361 -72166,159527 -159508,159527l-580347 0c-88112,0 -160278,-72166 -160278,-159527l0 -580346c0,-88113 72166,-160278 160278,-160278z"/>
     <path class="fil1" d="M609437 572960c0,17468 -3813,33415 -10650,47108 -6837,14426 -15947,25809 -28118,35707 -12905,9092 -27331,15947 -44048,21263 -17468,4545 -35706,7588 -56218,7588 -12134,0 -23535,-1521 -34167,-3043 -10650,-1521 -20511,-3794 -28870,-6837 -8358,-2273 -15195,-5315 -20511,-7588 -5316,-3043 -8358,-5316 -10631,-6837 -1522,-1522 -3043,-3043 -3795,-4546 -770,-2291 -1521,-4583 -2291,-6856 0,-2273 -751,-5315 -751,-9110 -752,-3794 -752,-9110 -752,-14425 0,-8359 752,-14444 2273,-18239 1521,-3043 3794,-5315 6837,-5315 1503,0 4546,1521 9110,3812 4564,3025 10650,5316 17469,8340 7588,3043 15947,5316 25075,7607 9880,3025 20511,3795 32664,3795 9880,0 18990,-770 26597,-3795 7589,-2291 14426,-5315 19741,-9880 6086,-4564 9862,-9110 12905,-15965 2273,-6067 3812,-12904 3812,-20493 0,-8358 -1539,-15196 -5315,-22033 -3043,-6837 -7607,-12922 -14444,-17468 -6068,-4564 -14426,-8359 -24306,-10632 -9110,-2291 -21263,-3812 -34185,-3812l-31143 0c-2273,0 -4546,-770 -6067,-770 -1522,-733 -3043,-2273 -4565,-4546 -751,-1521 -1521,-4546 -2272,-8358 0,-3795 -770,-8359 -770,-13675 0,-5315 770,-9879 770,-13655 751,-3043 1521,-6086 2272,-7607 1522,-2292 2273,-3025 3795,-3795 1521,-770 3794,-1539 6085,-1539l31143 0c10631,0 20511,-752 28870,-3795 8358,-2273 15177,-6067 20493,-10631 6085,-4564 9880,-9880 12922,-16699 3043,-6855 4546,-13674 4546,-22033 0,-6085 -770,-12171 -3042,-17486 -2273,-5316 -5316,-9880 -9092,-14426 -3813,-3813 -9129,-6856 -15214,-9128 -6067,-2273 -13656,-3795 -22014,-3795 -9880,0 -18990,1522 -27349,4564 -8358,3025 -15965,6068 -22802,9110 -6837,3795 -12923,6838 -17469,9862 -4546,3043 -8358,4582 -10631,4582 -1540,0 -2273,0 -3813,-769 -751,-770 -2273,-2273 -3043,-3813 0,-2273 -751,-4546 -1503,-8358 0,-3776 0,-8359 0,-13675 0,-4546 0,-8358 0,-11383 0,-3042 770,-6085 770,-8358 752,-1522 1503,-3794 2273,-5316 770,-770 2273,-3043 3794,-4564 2292,-1521 6068,-4564 12153,-7607 5316,-3776 12904,-6819 21263,-10631 9128,-3025 19008,-6068 30409,-8341 11383,-2291 23536,-3042 37210,-3042 17469,0 32664,1521 46339,6067 12904,3813 24305,9898 33434,17487 9091,7588 16698,17487 21262,28118 4546,11383 6838,24287 6838,38731 0,10632 -1540,20512 -3813,30392 -3043,9110 -6837,17468 -12153,25057 -5316,7607 -12153,13674 -20493,18990 -8358,5315 -17487,9128 -28118,12171l0 770c12904,1503 24305,4545 34167,9091 9880,5316 18238,11402 25827,18990 6837,6856 12171,15196 15947,25076 3043,9128 5334,19008 5334,30391l19 0z"/>
    </g>
   </g>
  </g>
  <rect class="fil2" x="-3" y="-1" width="993228" height="993230"/>
 </g>
</svg>
