<?xml version="1.0" encoding="UTF-8"?>
<!DOCTYPE svg PUBLIC "-//W3C//DTD SVG 1.1//EN" "http://www.w3.org/Graphics/SVG/1.1/DTD/svg11.dtd">
<!-- Creator: CorelDRAW X8 -->
<svg xmlns="http://www.w3.org/2000/svg" xml:space="preserve" width="64px" height="64px" version="1.1" style="shape-rendering:geometricPrecision; text-rendering:geometricPrecision; image-rendering:optimizeQuality; fill-rule:evenodd; clip-rule:evenodd"
viewBox="0 0 562939 562939"
 xmlns:xlink="http://www.w3.org/1999/xlink">
 <defs>
  <style type="text/css">
   <![CDATA[
    .fil2 {fill:none}
    .fil0 {fill:#E31E24}
    .fil1 {fill:white;fill-rule:nonzero}
   ]]>
  </style>
 </defs>
 <g id="Ebene_x0020_1">
  <metadata id="CorelCorpID_0Corel-Layer"/>
  <g id="_3102631228608">
   <g id="_1860366666816">
    <g id="_2093877289472">
     <path class="fil0" d="M117219 26170l328926 0c49504,0 90405,40901 90405,90852l0 328905c0,49940 -40901,90842 -90405,90842l-328926 0c-49940,0 -90841,-40902 -90841,-90842l0 -328905c0,-49951 40901,-90852 90841,-90852z"/>
     <path class="fil1" d="M344541 368436c0,3012 -436,5599 -436,7324 -426,2150 -863,3875 -1725,5163 -426,1288 -852,2151 -1714,2587 -862,426 -1725,852 -2587,852l-112793 0c-863,0 -1715,-426 -2587,-852 -852,-436 -1289,-1299 -1725,-2587 -852,-1288 -1288,-3013 -1714,-5163 0,-1725 -426,-4312 -426,-7324 0,-3013 426,-5590 426,-7751 426,-1724 862,-3438 1299,-4737 851,-1288 1288,-2150 2140,-3013 872,-426 1724,-852 2587,-852l37888 0 0 -132605 -32725 18077c-2151,873 -4301,1725 -6026,2161 -1288,0 -2576,0 -3449,-873 -852,-1288 -1724,-2576 -1724,-4727 -416,-2150 -416,-5599 -416,-9475 0,-2576 0,-4737 0,-6025 0,-1725 416,-3013 852,-4301 436,-1299 862,-2161 1724,-3013 426,-436 1715,-1288 3013,-2161l43904 -28414c437,-436 873,-852 1725,-852 872,-436 1724,-872 3013,-872 1288,0 3012,-426 5173,-426 2151,0 4738,0 7750,0 4302,0 7325,0 9901,426 2577,0 4301,436 5589,872 1299,0 2161,852 2587,1288 426,852 426,1289 426,2577l0 168343 33588 0c862,0 1725,416 2587,852 852,863 1288,1725 2140,3013 436,1288 873,3013 1288,4737 0,2161 437,4738 437,7751l10 0z"/>
    </g>
   </g>
  </g>
  <rect class="fil2" x="-2" y="-1" width="562937" height="562938"/>
 </g>
</svg>
