<?xml version="1.0" encoding="UTF-8"?>
<!DOCTYPE svg PUBLIC "-//W3C//DTD SVG 1.1//EN" "http://www.w3.org/Graphics/SVG/1.1/DTD/svg11.dtd">
<!-- Creator: CorelDRAW X8 -->
<svg xmlns="http://www.w3.org/2000/svg" xml:space="preserve" width="64px" height="64px" version="1.1" style="shape-rendering:geometricPrecision; text-rendering:geometricPrecision; image-rendering:optimizeQuality; fill-rule:evenodd; clip-rule:evenodd"
viewBox="0 0 373589 373589"
 xmlns:xlink="http://www.w3.org/1999/xlink">
 <defs>
  <style type="text/css">
   <![CDATA[
    .fil2 {fill:none}
    .fil0 {fill:#EB9674}
    .fil1 {fill:black;fill-rule:nonzero}
   ]]>
  </style>
 </defs>
 <g id="Ebene_x0020_1">
  <metadata id="CorelCorpID_0Corel-Layer"/>
  <g id="_3102631262432">
   <g id="_1860458261552">
    <g id="_2094610821136">
     <path class="fil0" d="M77791 17367l218289 0c32853,0 59996,27144 59996,60286l0 218282c0,33142 -27143,60286 -59996,60286l-218289 0c-33142,0 -60286,-27144 -60286,-60286l0 -218282c0,-33142 27144,-60286 60286,-60286z"/>
     <path class="fil1" d="M234077 215938c0,3716 -289,6281 -1144,8280 -566,1724 -1710,2579 -2855,2579l-12003 0 0 24565c0,862 -290,1427 -565,1999 -580,573 -1145,862 -2289,1145 -1145,572 -2289,862 -3999,862 -1717,282 -3999,282 -6578,282 -2571,0 -4571,0 -6281,-282 -1716,0 -3144,-290 -4288,-862 -855,-283 -1710,-572 -1999,-1145 -566,-572 -566,-1137 -566,-1999l0 -24565 -52005 0c-855,0 -1717,0 -2572,-290 -862,-290 -1427,-855 -2000,-1717 -282,-855 -861,-1999 -1137,-3716 -290,-1710 -290,-3709 -290,-6564 0,-2289 0,-4288 290,-5715 0,-1717 276,-3144 276,-4578 289,-1427 861,-2565 1144,-3709 579,-1145 1145,-2579 1724,-3723l41995 -74282c572,-566 1144,-1145 1999,-1710 862,-290 1999,-862 3427,-1145 1434,-289 3426,-572 5715,-572 2289,-283 5143,-283 8287,-283 3710,0 6854,0 9143,283 2571,283 4571,572 6281,862 1434,289 2578,855 3143,1420 862,579 1145,1145 1145,2006l0 81425 12003 0c1145,0 2000,862 2855,2572 855,1717 1144,4571 1144,8570l0 7zm-42574 -73434l-282 0 -35721 62292 36003 0 0 -62292 0 0z"/>
    </g>
   </g>
  </g>
  <rect class="fil2" x="-1" y="-1" width="373588" height="373588"/>
 </g>
</svg>
