<?xml version="1.0" encoding="UTF-8"?>
<!DOCTYPE svg PUBLIC "-//W3C//DTD SVG 1.1//EN" "http://www.w3.org/Graphics/SVG/1.1/DTD/svg11.dtd">
<!-- Creator: CorelDRAW X8 -->
<svg xmlns="http://www.w3.org/2000/svg" xml:space="preserve" width="64px" height="64px" version="1.1" style="shape-rendering:geometricPrecision; text-rendering:geometricPrecision; image-rendering:optimizeQuality; fill-rule:evenodd; clip-rule:evenodd"
viewBox="0 0 309274 309274"
 xmlns:xlink="http://www.w3.org/1999/xlink">
 <defs>
  <style type="text/css">
   <![CDATA[
    .fil2 {fill:none}
    .fil0 {fill:#009846}
    .fil1 {fill:white;fill-rule:nonzero}
   ]]>
  </style>
 </defs>
 <g id="Ebene_x0020_1">
  <metadata id="CorelCorpID_0Corel-Layer"/>
  <g id="_3102623653664">
   <g id="_1860458257104">
    <g id="_2094623006160">
     <path class="fil0" d="M64399 14492l180709 0c27203,0 49668,22471 49668,49907l0 180709c0,27437 -22465,49674 -49668,49674l-180709 0c-27436,0 -49907,-22237 -49907,-49674l0 -180709c0,-27436 22471,-49907 49907,-49907z"/>
     <path class="fil1" d="M189288 174625c0,6153 -1187,11586 -3311,16318 -2129,4737 -4965,8756 -8755,12066 -4018,3310 -8516,5679 -13955,7568 -5440,1656 -11353,2597 -17974,2597 -3550,0 -6860,-228 -9937,-707 -3070,-468 -5913,-948 -8276,-1656 -2602,-707 -4731,-1415 -6147,-2123 -1655,-713 -2842,-1187 -3310,-1661 -480,-468 -714,-942 -948,-1415 -239,-474 -479,-1188 -707,-1895 0,-708 -240,-1655 -240,-2603 0,-1181 0,-2363 0,-4018 0,-1655 0,-2843 240,-4018 0,-1187 228,-2135 468,-2843 239,-707 468,-1181 947,-1421 240,-234 708,-468 1182,-468 473,0 1421,468 2602,1182 1182,473 2837,1181 4732,2129 1895,707 4258,1421 7094,2128 2843,708 6153,948 9932,948 3316,0 6387,-240 9229,-948 2603,-707 4966,-1894 6861,-3310 1895,-1661 3550,-3550 4497,-5919 942,-2123 1655,-4965 1655,-8276 0,-2603 -479,-5205 -1421,-7334 -947,-2123 -2129,-4018 -4024,-5434 -1889,-1655 -4258,-2842 -7328,-3550 -2837,-708 -6387,-947 -10645,-947 -3310,0 -6387,0 -9229,473 -2597,234 -5200,474 -7803,474 -1655,0 -2836,-474 -3544,-1187 -713,-948 -947,-2363 -947,-4726l0 -48732c0,-2363 234,-4024 1181,-4965 947,-942 2369,-1422 4258,-1422l53218 0c474,0 947,240 1421,480 474,228 948,942 1182,1655 473,708 707,1655 707,3071 240,1181 240,2602 240,4492 0,3310 -240,5913 -947,7568 -469,1427 -1416,2135 -2603,2135l-39971 0 0 24126c2129,-240 4018,-474 6147,-474 1895,0 4024,0 6153,0 6147,0 11592,708 16318,2129 4732,1415 8756,3310 11832,6147 3311,2842 5674,6153 7329,10171 1655,4024 2603,8750 2603,14195l-6 0z"/>
    </g>
   </g>
  </g>
  <rect class="fil2" x="-1" width="309273" height="309273"/>
 </g>
</svg>
