<?xml version="1.0" encoding="UTF-8"?>
<!DOCTYPE svg PUBLIC "-//W3C//DTD SVG 1.1//EN" "http://www.w3.org/Graphics/SVG/1.1/DTD/svg11.dtd">
<!-- Creator: CorelDRAW X8 -->
<svg xmlns="http://www.w3.org/2000/svg" xml:space="preserve" width="64px" height="64px" version="1.1" style="shape-rendering:geometricPrecision; text-rendering:geometricPrecision; image-rendering:optimizeQuality; fill-rule:evenodd; clip-rule:evenodd"
viewBox="0 0 2221364 2221364"
 xmlns:xlink="http://www.w3.org/1999/xlink">
 <defs>
  <style type="text/css">
   <![CDATA[
    .fil2 {fill:none}
    .fil0 {fill:#009846}
    .fil1 {fill:white;fill-rule:nonzero}
   ]]>
  </style>
 </defs>
 <g id="Ebene_x0020_1">
  <metadata id="CorelCorpID_0Corel-Layer"/>
  <g id="_3102623654272">
   <g id="_1860458259984">
    <g id="_2094839421920">
     <path class="fil0" d="M462548 104087l1297948 0c195342,0 356740,159717 356740,356781l0 1297947c0,197064 -161398,358462 -356740,358462l-1297948 0c-197063,0 -358461,-161398 -358461,-358462l0 -1297947c0,-197064 161398,-356781 358461,-356781z"/>
     <path class="fil1" d="M1362966 1279746c0,40749 -8527,76415 -23818,106997 -15250,30583 -35666,57762 -62846,78178 -28860,22055 -61165,37388 -98511,49276 -39069,10167 -79859,15250 -125732,15250 -27180,0 -52638,-1680 -76415,-5083 -23818,-5083 -45915,-10167 -64568,-15250 -18693,-5125 -34026,-11889 -45914,-18694 -11889,-5124 -18694,-10208 -23777,-13610 -3362,-3444 -6806,-6806 -8445,-11889 -1722,-3444 -3444,-8527 -5125,-13610 0,-6806 -1681,-13611 -1681,-22097 -1721,-8486 -1721,-18694 -1721,-30582 0,-18694 1721,-33944 5083,-40749 3444,-8527 8527,-11889 15332,-11889 3362,0 10167,3362 20334,8486 10208,5124 23818,11889 39068,18653 16972,5124 35666,11929 56082,17013 22096,5124 45873,8486 73053,8486 22096,0 42512,-3362 59484,-8486 16972,-5084 32263,-11889 44152,-22097 13610,-10166 22096,-22055 28901,-35665 5084,-13611 8486,-28861 8486,-45874 0,-18694 -3402,-35666 -11888,-50916 -6806,-13610 -17013,-27221 -32264,-37388 -13610,-10207 -32304,-18693 -54359,-23818 -20416,-6764 -47595,-8486 -76456,-8486l-69692 0c-5083,0 -10167,-1722 -13569,-3402 -3403,-1681 -6805,-3403 -10208,-8486 -1681,-5084 -3403,-11889 -5083,-18694 0,-8486 -1681,-18694 -1681,-32263 0,-11889 1681,-22097 1681,-28861 1680,-8527 3402,-13610 5083,-17013 3403,-5124 5124,-8486 8486,-10208 3403,-1680 8527,-1680 13610,-1680l69651 0c23777,0 45874,-3403 64568,-8486 18693,-5125 33944,-13611 45832,-23819 13610,-10166 22096,-23777 28902,-37387 6805,-15250 10166,-32222 10166,-49235 0,-13611 -1680,-27180 -6805,-39069 -5083,-13610 -11888,-23818 -20333,-32304 -8527,-8486 -20416,-17013 -33985,-22096 -13611,-5084 -30583,-6806 -49276,-6806 -22097,0 -42471,3444 -61165,10249 -18694,5084 -35707,11889 -50957,20334 -15332,8527 -28902,15291 -39069,22096 -10166,6805 -18693,10167 -23777,10167 -3443,0 -5083,-1640 -8527,-3362 -1681,-1721 -5083,-3402 -6805,-8527 0,-3361 -1681,-10166 -3362,-16972 0,-8486 0,-18693 0,-30582 0,-11889 0,-20375 0,-27180 0,-6805 1722,-11888 1722,-16972 1640,-3443 3362,-8527 5084,-11888 1680,-3444 5083,-6806 8486,-10208 5124,-5084 13569,-10167 27179,-18694 11889,-6764 28861,-15250 47555,-22055 20374,-8527 42512,-13611 67970,-18694 25458,-5084 52638,-8527 83220,-8527 39109,0 73094,5124 103677,13610 28860,10208 54359,22097 74734,40790 20374,16972 37387,37388 47554,62846 10208,25458 15332,54360 15332,84942 0,25499 -3443,47554 -8527,67970 -6805,22055 -15291,40749 -27179,57762 -11889,16972 -27180,30583 -45874,42471 -18694,11889 -39068,20416 -62846,25499l0 1681c28861,3403 54360,11889 76415,22096 22097,10167 40791,25458 57763,40749 15332,17013 27220,35707 35665,57763 6806,20415 11930,42471 11930,66289l0 0z"/>
    </g>
   </g>
  </g>
  <rect class="fil2" x="-7" y="-3" width="2221359" height="2221361"/>
 </g>
</svg>
