<?xml version="1.0" encoding="UTF-8"?>
<!DOCTYPE svg PUBLIC "-//W3C//DTD SVG 1.1//EN" "http://www.w3.org/Graphics/SVG/1.1/DTD/svg11.dtd">
<!-- Creator: CorelDRAW X8 -->
<svg xmlns="http://www.w3.org/2000/svg" xml:space="preserve" width="64px" height="64px" version="1.1" style="shape-rendering:geometricPrecision; text-rendering:geometricPrecision; image-rendering:optimizeQuality; fill-rule:evenodd; clip-rule:evenodd"
viewBox="0 0 9392514 9392514"
 xmlns:xlink="http://www.w3.org/1999/xlink">
 <defs>
  <style type="text/css">
   <![CDATA[
    .fil2 {fill:none}
    .fil0 {fill:#FFED00}
    .fil1 {fill:black;fill-rule:nonzero}
   ]]>
  </style>
 </defs>
 <g id="Ebene_x0020_1">
  <metadata id="CorelCorpID_0Corel-Layer"/>
  <g id="_3102631256096">
   <g id="_1860366675200">
    <g id="_2094634080128">
     <path class="fil0" d="M1955604 439933l5488413 0c825958,0 1508391,682433 1508391,1508564l0 5488240c0,833238 -682433,1515844 -1508391,1515844l-5488413 0c-833238,0 -1515671,-682433 -1515671,-1515844l0 -5488240c0,-826131 682433,-1508564 1515671,-1508564z"/>
     <path class="fil1" d="M5777369 6129245c0,50442 0,93603 -7281,129484 0,35881 -7107,64655 -14387,86149 -14387,28775 -21494,43162 -35881,50269 -14387,14387 -28774,14387 -50268,14387l-1961324 0c-35881,0 -71762,0 -100536,-7281 -28774,-7106 -50268,-21494 -64482,-42988 -21494,-21493 -28774,-50268 -43161,-86149 -7107,-43161 -7107,-93429 -7107,-150977 0,-57375 0,-107644 7107,-150805 7107,-43161 14387,-79042 28774,-107643 14387,-36054 28601,-64829 50268,-93603 28601,-35881 50268,-64482 86149,-107643l596284 -625058c114924,-129137 208353,-236954 280115,-337490 71936,-100536 129311,-193966 172472,-280288 43161,-79042 64655,-158085 78869,-229847 21667,-71762 28774,-136590 28774,-201072 0,-57549 -14214,-107817 -28774,-165192 -21494,-50268 -50268,-93429 -85976,-129310 -36054,-43162 -79042,-71762 -136591,-93430 -50268,-21667 -115096,-35881 -186858,-35881 -107817,0 -201246,14214 -280289,42988 -78869,28774 -150804,57549 -208179,86323 -57375,35881 -107817,64655 -150804,93256 -43162,28774 -71936,36054 -93430,36054 -21667,0 -28774,0 -43161,-14387 -14214,-7280 -21494,-28774 -28774,-50268 -7107,-28774 -14214,-57548 -14214,-100710 -7280,-42988 -7280,-93256 -7280,-150804 0,-42988 0,-71762 0,-100536 7280,-28774 7280,-50268 14387,-71762 7107,-21668 14387,-36055 21494,-50269 7280,-14387 21494,-36054 42988,-57548 21667,-21494 64828,-50268 122377,-79042 64482,-35881 136244,-64655 222566,-93430 86149,-35881 179579,-57548 280115,-79042 107643,-21494 215460,-35708 323276,-35708 179579,0 337490,21494 466974,71763 129310,42987 244233,107643 330383,186685 86322,79042 150804,172472 193965,280115 43162,115096 64656,229846 64656,359330 0,107643 -7281,215460 -28775,323103 -21494,107817 -64482,222740 -129310,344943 -71762,122204 -165192,265728 -287395,416706 -122030,143697 -280115,323276 -481361,517242l-395038 409425 1343372 0c14388,0 28775,7280 43162,14387 21494,14387 28774,28774 43161,50441 7107,21494 14387,50269 21494,85976 7107,36055 7107,79043 7107,129311l347 -174z"/>
    </g>
   </g>
  </g>
  <rect class="fil2" x="-29" y="-13" width="9392494" height="9392505"/>
 </g>
</svg>
