<?xml version="1.0" encoding="UTF-8"?>
<!DOCTYPE svg PUBLIC "-//W3C//DTD SVG 1.1//EN" "http://www.w3.org/Graphics/SVG/1.1/DTD/svg11.dtd">
<!-- Creator: CorelDRAW X8 -->
<svg xmlns="http://www.w3.org/2000/svg" xml:space="preserve" width="64px" height="64px" version="1.1" style="shape-rendering:geometricPrecision; text-rendering:geometricPrecision; image-rendering:optimizeQuality; fill-rule:evenodd; clip-rule:evenodd"
viewBox="0 0 428626 428626"
 xmlns:xlink="http://www.w3.org/1999/xlink">
 <defs>
  <style type="text/css">
   <![CDATA[
    .fil2 {fill:none}
    .fil0 {fill:#009846}
    .fil1 {fill:white;fill-rule:nonzero}
   ]]>
  </style>
 </defs>
 <g id="Ebene_x0020_1">
  <metadata id="CorelCorpID_0Corel-Layer"/>
  <g id="_3102623666336">
   <g id="_1860458239408">
    <g id="_2094576426016">
     <path class="fil0" d="M89260 19918l250447 0c37692,0 68835,31143 68835,69175l0 250440c0,38032 -31135,69175 -68835,69175l-250447 0c-38025,0 -69168,-31143 -69168,-69175l0 -250440c0,-38032 31143,-69175 69168,-69175z"/>
     <path class="fil1" d="M262336 280522c0,2294 -324,4272 -324,5585 -324,1629 -656,2942 -1313,3923 -324,989 -657,1646 -1305,1970 -657,332 -1313,657 -1970,657l-85882 0c-664,0 -1313,-325 -1969,-657 -657,-324 -989,-981 -1313,-1970 -649,-981 -981,-2294 -1314,-3923 0,-1313 -324,-3283 -324,-5585 0,-2294 324,-4256 324,-5893 333,-1637 665,-2626 989,-3607 649,-981 981,-1637 1638,-2294 656,-332 1305,-657 1969,-657l28849 0 0 -100958 -24917 13763c-1638,657 -3283,1306 -4596,1638 -981,0 -1962,0 -2618,-981 -657,-657 -1314,-1645 -1314,-3283 -324,-1637 -324,-4263 -324,-7214 0,-1962 0,-3607 0,-4588 0,-1313 324,-2294 649,-3275 332,-981 664,-1645 1313,-2294 332,-332 1313,-981 2294,-1645l33437 -21635c332,-316 656,-648 1313,-981 656,0 1313,-332 2294,-332 981,0 2294,-316 3931,-316 1645,0 3607,0 5901,0 3275,0 5577,0 7539,316 1969,0 3282,332 4263,332 989,333 1638,665 1970,1314 324,332 324,980 324,1645l0 128494 25566 0c665,0 1313,325 1970,657 656,657 989,1313 1637,2294 333,981 657,1970 981,3607 0,1637 332,3599 332,5893l0 0z"/>
    </g>
   </g>
  </g>
  <rect class="fil2" x="-1" y="-1" width="428625" height="428626"/>
 </g>
</svg>
