<?xml version="1.0" encoding="UTF-8"?>
<!DOCTYPE svg PUBLIC "-//W3C//DTD SVG 1.1//EN" "http://www.w3.org/Graphics/SVG/1.1/DTD/svg11.dtd">
<!-- Creator: CorelDRAW X8 -->
<svg xmlns="http://www.w3.org/2000/svg" xml:space="preserve" width="64px" height="64px" version="1.1" style="shape-rendering:geometricPrecision; text-rendering:geometricPrecision; image-rendering:optimizeQuality; fill-rule:evenodd; clip-rule:evenodd"
viewBox="0 0 819839 819839"
 xmlns:xlink="http://www.w3.org/1999/xlink">
 <defs>
  <style type="text/css">
   <![CDATA[
    .fil2 {fill:none}
    .fil0 {fill:#9FBB2F}
    .fil1 {fill:black;fill-rule:nonzero}
   ]]>
  </style>
 </defs>
 <g id="Ebene_x0020_1">
  <metadata id="CorelCorpID_0Corel-Layer"/>
  <g id="_3102519466976">
   <g id="_1860458258832">
    <g id="_2094839709952">
     <path class="fil0" d="M170713 38113l479034 0c72095,0 131662,59567 131662,132297l0 479019c0,72730 -59567,132298 -131662,132298l-479034 0c-72731,0 -132298,-59568 -132298,-132298l0 -479019c0,-72730 59567,-132297 132298,-132297z"/>
     <path class="fil1" d="M504271 534698c0,4387 0,8775 -620,11907 0,3132 -621,5643 -1256,7520 -1256,1891 -1876,3147 -3132,4402 -1256,621 -2512,1241 -4388,1241l-171182 0c-3132,0 -6264,-635 -8775,-1241 -2512,-635 -4388,-1891 -5629,-3782 -1891,-1241 -2511,-3752 -3767,-7520 -620,-3132 -620,-7519 -620,-13163 0,-5023 0,-9411 620,-12528 620,-3767 1256,-6899 2496,-10031 1271,-2511 2512,-5659 4388,-8155 2512,-2512 4388,-5644 7535,-8791l52032 -55164c10032,-10667 18187,-20698 24466,-29473 6264,-8776 11287,-16916 15039,-23815 3767,-7535 5644,-14434 6899,-20078 1892,-6264 2497,-11907 2497,-17551 0,-5023 -1241,-10031 -2497,-14434 -1891,-4372 -4387,-8760 -7519,-11907 -3132,-3132 -6900,-5629 -11908,-8140 -4387,-1891 -10046,-2512 -16310,-2512 -9411,0 -17566,1256 -24465,3132 -6884,2512 -13163,5023 -18172,8155 -5008,2497 -9410,5008 -13178,7520 -3752,2512 -6264,3752 -8140,3752 -1891,0 -2496,-620 -3767,-1240 -1241,-1271 -1876,-2512 -2512,-5024 -620,-1876 -1240,-5023 -1240,-8140 -636,-3767 -636,-8170 -636,-13178 0,-3767 0,-6899 0,-9411 636,-1876 636,-4388 1256,-6264 620,-1255 1256,-3147 1891,-4387 620,-1256 1876,-2512 3752,-4388 1877,-1876 5644,-4388 10667,-7535 5629,-2496 11892,-5628 19427,-8140 7535,-2496 15675,-5023 24450,-6899 9411,-1876 18807,-2497 28218,-2497 15675,0 29473,1876 40760,5629 11288,3767 21319,9411 28838,16310 7535,6884 13164,15660 16931,25070 3752,9411 5644,19443 5644,30730 0,9411 -636,19427 -2512,28838 -1876,9395 -5628,19442 -11287,30093 -6264,10667 -14419,22559 -25086,35738 -10651,13163 -24435,28217 -42001,45768l-34497 35738 117259 0c1255,0 2496,0 3767,1255 1876,621 2512,1876 3752,4388 636,1876 1256,4388 1876,7535 636,3117 636,6899 636,10651l0 16z"/>
    </g>
   </g>
  </g>
  <rect class="fil2" x="-3" y="-1" width="819838" height="819839"/>
 </g>
</svg>
