<?xml version="1.0" encoding="UTF-8"?>
<!DOCTYPE svg PUBLIC "-//W3C//DTD SVG 1.1//EN" "http://www.w3.org/Graphics/SVG/1.1/DTD/svg11.dtd">
<!-- Creator: CorelDRAW X8 -->
<svg xmlns="http://www.w3.org/2000/svg" xml:space="preserve" width="64px" height="64px" version="1.1" style="shape-rendering:geometricPrecision; text-rendering:geometricPrecision; image-rendering:optimizeQuality; fill-rule:evenodd; clip-rule:evenodd"
viewBox="0 0 639608 639608"
 xmlns:xlink="http://www.w3.org/1999/xlink">
 <defs>
  <style type="text/css">
   <![CDATA[
    .fil2 {fill:none}
    .fil0 {fill:#FFED00}
    .fil1 {fill:black;fill-rule:nonzero}
   ]]>
  </style>
 </defs>
 <g id="Ebene_x0020_1">
  <metadata id="CorelCorpID_0Corel-Layer"/>
  <g id="_3102623664256">
   <g id="_1860458247600">
    <g id="_2094610774576">
     <path class="fil0" d="M133184 29734l373724 0c56246,0 102718,46472 102718,103214l0 373712c0,56742 -46472,103214 -102718,103214l-373724 0c-56742,0 -103214,-46472 -103214,-103214l0 -373712c0,-56742 46472,-103214 103214,-103214z"/>
     <path class="fil1" d="M392445 368720c0,11261 -2455,22014 -6858,30820 -4391,8805 -10269,16147 -18095,22498 -8322,5878 -17612,10765 -28377,13704 -11249,3423 -22982,4887 -36202,4887 -7815,0 -15157,-496 -22003,-1947 -6858,-992 -13209,-2456 -18591,-3919 -5383,-1960 -9786,-3424 -13209,-5383 -3423,-1959 -5382,-3423 -6846,-4403 -980,-980 -1959,-1948 -2443,-2939 -496,-1464 -980,-2443 -1476,-4391 0,-1476 -484,-3423 -484,-5878 -484,-2444 -484,-5383 -484,-8806 0,-5867 484,-9786 1464,-11745 980,-2432 2443,-3423 4403,-3423 979,0 2939,495 5866,2455 2939,1464 6858,2927 11249,4887 4887,1959 10270,3423 16148,5382 6363,1464 13209,2456 21035,2456 6362,0 12229,-992 17127,-2456 4887,-1463 9290,-3919 12713,-6350 3919,-2951 6363,-6374 8310,-10281 1476,-3907 2455,-8806 2455,-13209 0,-5383 -979,-10269 -3423,-14672 -1959,-4403 -4898,-7838 -9289,-10765 -3919,-3424 -9302,-5383 -15652,-7331 -5879,-1475 -13705,-2455 -22015,-2455l-20067 0c-1463,0 -2927,0 -3907,-484 -979,-484 -1959,-1464 -2939,-2443 -484,-1464 -980,-3423 -1463,-5879 0,-1947 -496,-5370 -496,-8794 0,-3423 496,-6362 496,-8321 483,-2444 979,-3907 1463,-5383 980,-980 1476,-1948 2444,-2443 979,-484 2443,-484 3919,-484l20054 0c6847,0 13209,-980 18592,-2444 5382,-1959 9785,-3919 13208,-7342 3907,-2927 6363,-6350 8322,-10765 1948,-3907 2927,-8794 2927,-14177 0,-3918 -495,-7837 -1959,-11260 -1464,-3424 -3423,-6351 -5855,-8806 -2455,-2928 -5878,-4887 -9797,-6351 -3907,-1463 -8794,-2443 -14177,-2443 -6362,0 -12229,980 -17611,2927 -5383,1960 -10281,3919 -14672,6363 -4403,1959 -8322,3918 -11261,5878 -2928,1948 -5383,2927 -6847,2927 -979,0 -1463,0 -2443,-495 -484,-484 -1464,-1464 -1960,-2432 0,-1476 -472,-2951 -967,-5383 0,-1959 0,-4898 0,-8805 0,-2940 0,-5383 0,-7342 0,-1960 495,-3424 495,-4899 472,-1464 968,-2444 1464,-3423 496,-968 1464,-1960 2432,-3423 1487,-968 3919,-2432 7837,-4887 3424,-2455 8310,-4403 13693,-6846 5878,-1960 12241,-3919 19583,-5383 7318,-1464 15156,-1960 23962,-1960 11249,0 21034,1476 29840,3919 8310,2444 15652,6363 21519,11250 5866,4898 10765,11249 13692,18591 2939,7342 4415,15168 4415,24457 0,6847 -992,13705 -2455,19560 -1960,6362 -4403,11745 -7826,16631 -3423,4415 -7826,8806 -13209,12229 -5383,2951 -11249,5879 -18095,7342l0 496c8310,968 15652,2927 22002,6351 6362,2939 11745,6858 16632,11744 4403,4887 7838,10270 10269,16148 1960,5867 3435,12713 3435,19559l-12 -11z"/>
    </g>
   </g>
  </g>
  <rect class="fil2" x="-2" y="-1" width="639607" height="639607"/>
 </g>
</svg>
