<?xml version="1.0" encoding="UTF-8"?>
<!DOCTYPE svg PUBLIC "-//W3C//DTD SVG 1.1//EN" "http://www.w3.org/Graphics/SVG/1.1/DTD/svg11.dtd">
<!-- Creator: CorelDRAW X8 -->
<svg xmlns="http://www.w3.org/2000/svg" xml:space="preserve" width="64px" height="64px" version="1.1" style="shape-rendering:geometricPrecision; text-rendering:geometricPrecision; image-rendering:optimizeQuality; fill-rule:evenodd; clip-rule:evenodd"
viewBox="0 0 263851 263851"
 xmlns:xlink="http://www.w3.org/1999/xlink">
 <defs>
  <style type="text/css">
   <![CDATA[
    .fil2 {fill:none}
    .fil0 {fill:#E31E24}
    .fil1 {fill:white;fill-rule:nonzero}
   ]]>
  </style>
 </defs>
 <g id="Ebene_x0020_1">
  <metadata id="CorelCorpID_0Corel-Layer"/>
  <g id="_3102722147776">
   <g id="_1860458255120">
    <g id="_2094839419072">
     <path class="fil0" d="M54941 12363l154168 0c23203,0 42373,18971 42373,42378l0 154169c0,23407 -19170,42577 -42373,42577l-154168 0c-23407,0 -42578,-19170 -42578,-42577l0 -154169c0,-23407 19171,-42378 42578,-42378z"/>
     <path class="fil1" d="M161487 148978c0,5044 -1013,9685 -2824,13926 -1821,4032 -4236,7465 -7470,10289 -3428,2620 -7260,4840 -11905,6252 -4641,1617 -9685,2221 -15334,2221 -3029,0 -5853,-200 -8477,-604 -2620,-205 -5045,-808 -7061,-1412 -2220,-404 -4037,-1013 -5249,-1617 -1412,-604 -2420,-1008 -2824,-1412 -404,-399 -609,-808 -804,-1208 -204,-409 -409,-1012 -608,-1616 0,-604 -200,-1412 -200,-2425 0,-808 0,-2016 0,-3224 0,-1412 0,-2624 200,-3433 0,-1007 199,-1816 404,-2420 204,-608 399,-1012 808,-1212 200,-404 604,-404 1008,-404 404,0 1212,199 2220,808 1008,604 2420,1208 4032,1816 1617,809 3633,1412 6058,2016 2420,609 5244,809 8472,809 2829,0 5449,-405 7874,-809 2216,-604 4236,-1611 5848,-3024 1617,-1212 3029,-2824 3837,-4845 809,-2016 1412,-4236 1412,-7060 0,-2420 -404,-4436 -1212,-6257 -804,-2016 -1816,-3428 -3433,-4840 -1612,-1213 -3628,-2221 -6252,-2829 -2420,-604 -5449,-1008 -9082,-1008 -2824,0 -5448,204 -7873,404 -2216,404 -4436,604 -6657,604 -1412,0 -2420,-400 -3024,-1208 -608,-604 -808,-2016 -808,-3837l0 -41565c0,-2021 200,-3433 1008,-4241 808,-808 2021,-1412 3633,-1412l45401 0c409,0 809,204 1213,604 404,204 803,608 1008,1412 404,608 604,1417 604,2425 204,1212 204,2420 204,3832 0,3029 -204,5249 -808,6457 -399,1412 -1208,2020 -2221,2020l-34100 0 0 20379c1817,-205 3428,-205 5245,-205 1616,-200 3428,-200 5249,-200 5244,0 9889,609 13921,1817 4037,1207 7465,3024 10094,5448 2825,2221 4841,5250 6253,8678 1412,3428 2220,7464 2220,12110l0 0z"/>
    </g>
   </g>
  </g>
  <rect class="fil2" x="-1" width="263850" height="263850"/>
 </g>
</svg>
