<?xml version="1.0" encoding="UTF-8"?>
<!DOCTYPE svg PUBLIC "-//W3C//DTD SVG 1.1//EN" "http://www.w3.org/Graphics/SVG/1.1/DTD/svg11.dtd">
<!-- Creator: CorelDRAW X8 -->
<svg xmlns="http://www.w3.org/2000/svg" xml:space="preserve" width="64px" height="64px" version="1.1" style="shape-rendering:geometricPrecision; text-rendering:geometricPrecision; image-rendering:optimizeQuality; fill-rule:evenodd; clip-rule:evenodd"
viewBox="0 0 1508047 1508047"
 xmlns:xlink="http://www.w3.org/1999/xlink">
 <defs>
  <style type="text/css">
   <![CDATA[
    .fil2 {fill:none}
    .fil0 {fill:#EB9674}
    .fil1 {fill:black;fill-rule:nonzero}
   ]]>
  </style>
 </defs>
 <g id="Ebene_x0020_1">
  <metadata id="CorelCorpID_0Corel-Layer"/>
  <g id="_3102722154656">
   <g id="_1860458254192">
    <g id="_2094605381632">
     <path class="fil0" d="M314016 70078l881155 0c132615,0 242185,109571 242185,243382l0 881127c0,133783 -109542,243354 -242185,243354l-881155 0c-133783,0 -243353,-109571 -243353,-243354l0 -881127c0,-133811 109570,-243382 243353,-243382z"/>
     <path class="fil1" d="M927577 983545c0,8071 0,16142 -1141,21903 0,5761 -1141,10381 -2310,13860 -2310,3451 -3451,5733 -5761,8071 -2310,1141 -4620,2282 -8071,2282l-314879 0c-5761,0 -11522,-1169 -16142,-2282 -4620,-1169 -8071,-3479 -10353,-6958 -3479,-2282 -4620,-6902 -6930,-13804 -1141,-5789 -1141,-13860 -1141,-24241 0,-9212 0,-17311 1141,-24213 1141,-5789 2310,-11550 4592,-17311 2338,-4620 4620,-10381 8071,-15001 4620,-4592 8071,-10380 13860,-16141l95710 -101472c18452,-19621 33481,-38073 45003,-54243 11522,-16141 20762,-31114 27664,-43805 6930,-13832 10381,-26523 12691,-36932 3479,-11522 4620,-23044 4620,-32284 0,-9212 -2310,-18452 -4620,-26523 -3451,-8071 -8071,-16142 -13832,-21903 -5761,-5761 -12691,-11550 -21903,-15001 -8071,-3451 -18480,-4620 -30002,-4620 -17311,0 -32312,2338 -45002,5789 -12664,4620 -24213,9212 -33425,14973 -9212,4620 -17311,9240 -24241,13832 -6902,4620 -11522,6930 -14973,6930 -3479,0 -4592,-1141 -6930,-2310 -2282,-2310 -3451,-4620 -4620,-9240 -1141,-3451 -2282,-9212 -2282,-16142 -1169,-5761 -1169,-13832 -1169,-24185 0,-5788 0,-11549 0,-16197 1169,-4565 1169,-8043 2310,-11522 1141,-2282 2310,-5733 3479,-8071 1141,-2282 3451,-5761 6902,-9212 3451,-2310 10381,-6930 19621,-12691 10353,-4620 21875,-10381 35735,-15001 13832,-4592 28832,-9212 44974,-12691 17283,-3451 34594,-4592 51905,-4592 28833,0 54187,3451 74977,10353 20761,6930 39213,17311 53045,30002 13860,12691 24213,27692 31143,46116 6902,17311 10381,35762 10381,56524 0,17311 -1169,35763 -4620,51933 -3451,17283 -10353,35735 -20762,56497 -11522,19620 -26523,41523 -46143,65736 -19593,24213 -44947,51905 -77259,84189l-63455 64595 215690 0c2310,0 4592,1141 6930,3451 3451,1169 4620,3479 6902,6902 1169,3479 2310,8071 3451,13860 1169,5789 1169,12691 1169,20762l0 28z"/>
    </g>
   </g>
  </g>
  <rect class="fil2" x="-5" y="-2" width="1508043" height="1508045"/>
 </g>
</svg>
