<?xml version="1.0" encoding="UTF-8"?>
<!DOCTYPE svg PUBLIC "-//W3C//DTD SVG 1.1//EN" "http://www.w3.org/Graphics/SVG/1.1/DTD/svg11.dtd">
<!-- Creator: CorelDRAW X8 -->
<svg xmlns="http://www.w3.org/2000/svg" xml:space="preserve" width="64px" height="64px" version="1.1" style="shape-rendering:geometricPrecision; text-rendering:geometricPrecision; image-rendering:optimizeQuality; fill-rule:evenodd; clip-rule:evenodd"
viewBox="0 0 1508047 1508047"
 xmlns:xlink="http://www.w3.org/1999/xlink">
 <defs>
  <style type="text/css">
   <![CDATA[
    .fil1 {fill:none}
    .fil0 {fill:black}
   ]]>
  </style>
 </defs>
 <g id="Ebene_x0020_1">
  <metadata id="CorelCorpID_0Corel-Layer"/>
  <path class="fil0" d="M842553 1003110l224986 0 0 -188053 -598699 0 0 168516c135008,12357 239234,92287 239234,189167 0,105451 -123458,190864 -275665,190864 -152207,0 -275665,-85413 -275665,-190864 0,-96908 104282,-176894 239346,-189195l0 -204863c0,-20039 16309,-36348 36347,-36348l299405 0 0 -176503 -308422 -194427c-7515,-4732 -6847,-12858 1475,-18090l324648 -204641c8321,-5232 21207,-5678 28721,-919l327598 206478c7514,4731 6846,12858 -1475,18118l-299878 189028 0 180956 299377 0c20038,0 36319,16309 36319,36348l0 224428 189779 0c11717,0 21319,9602 21319,21346l0 303664c0,11744 -9602,21374 -21319,21374l-487431 0c-11772,0 -21374,-9630 -21374,-21374l0 -303664c0,-11744 9602,-21346 21374,-21346z"/>
  <rect class="fil1" x="-5" y="-2" width="1508043" height="1508045"/>
 </g>
</svg>
