<?xml version="1.0" encoding="UTF-8"?>
<!DOCTYPE svg PUBLIC "-//W3C//DTD SVG 1.1//EN" "http://www.w3.org/Graphics/SVG/1.1/DTD/svg11.dtd">
<!-- Creator: CorelDRAW X8 -->
<svg xmlns="http://www.w3.org/2000/svg" xml:space="preserve" width="64px" height="64px" version="1.1" style="shape-rendering:geometricPrecision; text-rendering:geometricPrecision; image-rendering:optimizeQuality; fill-rule:evenodd; clip-rule:evenodd"
viewBox="0 0 346060 346060"
 xmlns:xlink="http://www.w3.org/1999/xlink">
 <defs>
  <style type="text/css">
   <![CDATA[
    .fil0 {fill:none}
    .fil3 {fill:#2B2A29}
    .fil2 {fill:#2B2A29;fill-rule:nonzero}
    .fil1 {fill:#096392;fill-rule:nonzero}
   ]]>
  </style>
 </defs>
 <g id="Ebene_x0020_1">
  <metadata id="CorelCorpID_0Corel-Layer"/>
  <rect class="fil0" x="-1" width="346059" height="346059"/>
  <g id="_2311341842640">
   <path class="fil1" d="M120846 125508c0,-2434 -1878,-4311 -4286,-4311l-8468 0c-2402,0 -4286,1877 -4286,4311l0 47171 -30010 0c-2395,0 -4266,1852 -4266,4266l0 8468c0,2389 1871,4273 4266,4273l42764 0c2408,0 4286,-1884 4286,-4273l0 -59905zm1009 117531c-5774,1481 -11822,2273 -18049,2273 -40203,0 -72889,-32641 -72889,-72633 0,-40210 32686,-72896 72889,-72896 35893,0 65871,26325 71651,60780 8519,-5767 17780,-10512 27609,-14076 -11560,-44143 -51642,-76676 -99260,-76676 -56820,0 -102848,46028 -102848,102868 0,56610 46028,102599 102848,102599 5844,0 11579,-498 17155,-1437 -665,-2823 -1029,-5754 -1029,-8782 0,-7510 658,-14867 1923,-22020z"/>
   <path class="fil2" d="M168598 265053c0,5971 -4841,10812 -10813,10812 -5971,0 -10812,-4841 -10812,-10812 0,-27341 11093,-52114 29020,-70041 17972,-17914 42732,-29014 70054,-29014 10250,0 20149,1571 29461,4477l-14389 18610c-4873,-958 -9912,-1462 -15072,-1462 -21401,0 -40785,8673 -54784,22659 -13993,14031 -22665,33402 -22665,54771zm141921 -75137c1909,1635 3755,3346 5537,5128 17952,17901 29046,42668 29046,70009 0,5971 -4841,10812 -10813,10812 -5971,0 -10812,-4841 -10812,-10812 0,-20871 -8277,-39833 -21721,-53762l8763 -21375z"/>
   <path class="fil3" d="M306572 156808l-45594 111247c-3372,8232 -14325,10365 -22046,5907 -7721,-4458 -11355,-14995 -5907,-22040l73547 -95114z"/>
  </g>
 </g>
</svg>
