<?xml version="1.0" encoding="UTF-8"?>
<!DOCTYPE svg PUBLIC "-//W3C//DTD SVG 1.1//EN" "http://www.w3.org/Graphics/SVG/1.1/DTD/svg11.dtd">
<!-- Creator: CorelDRAW X8 -->
<svg xmlns="http://www.w3.org/2000/svg" xml:space="preserve" width="64px" height="64px" version="1.1" style="shape-rendering:geometricPrecision; text-rendering:geometricPrecision; image-rendering:optimizeQuality; fill-rule:evenodd; clip-rule:evenodd"
viewBox="0 0 819839 819839"
 xmlns:xlink="http://www.w3.org/1999/xlink">
 <defs>
  <style type="text/css">
   <![CDATA[
    .fil0 {fill:none}
    .fil2 {fill:#2B2A29}
    .fil1 {fill:#009846;fill-rule:nonzero}
   ]]>
  </style>
 </defs>
 <g id="Ebene_x0020_1">
  <metadata id="CorelCorpID_0Corel-Layer"/>
  <rect class="fil0" x="-3" y="-1" width="819838" height="819839"/>
  <g id="_2311341836624">
   <path class="fil1" d="M114837 618624c0,24753 -20092,44846 -44845,44846 -24753,0 -44846,-20093 -44846,-44846 0,-106228 43091,-202440 112704,-272054 55376,-55376 127562,-93973 208236,-107454l-12785 94472c-50716,13587 -96031,40352 -132056,76377 -53363,53364 -86408,127169 -86408,208659zm358917 -379478c80507,13496 152647,52078 208038,107424l167 166c69628,69690 112719,165887 112719,271888 0,24753 -20093,44846 -44846,44846 -24752,0 -44845,-20093 -44845,-44846 0,-81612 -32984,-155401 -86257,-208659l-166 -166c-35949,-35965 -81264,-62699 -132026,-76256l-12784 -94397z"/>
   <path class="fil2" d="M409920 149546l62124 458638c4615,33937 -27794,62125 -62124,62125 -34315,0 -66739,-28127 -62125,-62125l62125 -458638z"/>
  </g>
 </g>
</svg>
