<?xml version="1.0" encoding="UTF-8"?>
<!DOCTYPE svg PUBLIC "-//W3C//DTD SVG 1.1//EN" "http://www.w3.org/Graphics/SVG/1.1/DTD/svg11.dtd">
<!-- Creator: CorelDRAW X8 -->
<svg xmlns="http://www.w3.org/2000/svg" xml:space="preserve" width="64px" height="64px" version="1.1" style="shape-rendering:geometricPrecision; text-rendering:geometricPrecision; image-rendering:optimizeQuality; fill-rule:evenodd; clip-rule:evenodd"
viewBox="0 0 263851 263851"
 xmlns:xlink="http://www.w3.org/1999/xlink">
 <defs>
  <style type="text/css">
   <![CDATA[
    .fil1 {fill:none}
    .fil0 {fill:black;fill-rule:nonzero}
   ]]>
  </style>
 </defs>
 <g id="Ebene_x0020_1">
  <metadata id="CorelCorpID_0Corel-Layer"/>
  <path class="fil0" d="M79331 53573c3131,-2659 6555,-5225 10211,-7645 3706,-2372 7694,-4514 11969,-6316 4319,-1806 8970,-3228 13907,-4226 4991,-1042 10357,-1568 16098,-1568 7981,0 15197,1090 21703,3277 6457,2186 12061,5322 16663,9359 4655,4031 8263,8876 10781,14574 2561,5702 3842,12110 3842,19136 0,6885 -994,12772 -2937,17666 -1952,4938 -4372,9208 -7362,12865 -2946,3657 -6223,6885 -9734,9597 -3521,2752 -6837,5269 -9929,7597 -3131,2322 -5838,4601 -8161,6885 -2332,2274 -3705,4840 -4182,7737l-3326 19327 -24069 0 -2664 -21844c-516,-4275 49,-7981 1855,-11161 1753,-3131 4086,-6028 7027,-8687 2897,-2615 6125,-5176 9734,-7645 3559,-2468 6885,-5083 10016,-7932 3092,-2800 5697,-6028 7791,-9636 2089,-3657 3131,-7927 3131,-12821 0,-6126 -2133,-10971 -6408,-14530 -4271,-3560 -9875,-5366 -16858,-5366 -4986,0 -9208,565 -12631,1660 -3462,1140 -6408,2328 -8828,3608 -2474,1335 -4563,2518 -6223,3657 -1665,1091 -3229,1666 -4699,1666 -3180,0 -5653,-1471 -7411,-4320l-9306 -14914zm66491 162412c171,-1860 263,-4193 263,-6934 0,-2849 -92,-5205 -258,-7070 -170,-1924 -457,-3711 -828,-5342 -287,-1232 -676,-2347 -1163,-3326 -336,-750 -804,-1397 -1325,-1952l-73 -69c-467,-496 -1095,-973 -1831,-1397 -847,-497 -1860,-906 -2994,-1227l-68 -34c-1291,-375 -2888,-672 -4748,-867 -1894,-205 -4163,-302 -6754,-302 -2586,0 -4845,97 -6739,302 -1782,185 -3418,492 -4840,901l-137 34c-1183,316 -2191,716 -2994,1169 -687,384 -1281,842 -1748,1353 -463,492 -906,1188 -1320,2040 -477,906 -867,2046 -1169,3375 -379,1685 -667,3467 -837,5342 -175,1874 -258,4251 -258,7070 0,2751 92,5088 263,6948 180,1890 453,3589 798,5011l34 107c297,1291 668,2372 1106,3238 370,750 837,1422 1349,1972 452,458 1056,887 1748,1281 847,477 1879,881 3028,1193l137 34c1417,404 3058,701 4874,901 1875,195 4119,297 6705,297 2586,0 4845,-102 6720,-297 1894,-209 3506,-492 4782,-862 1183,-360 2220,-784 3106,-1281 765,-428 1417,-910 1894,-1402 502,-521 945,-1149 1325,-1904 472,-925 857,-1991 1129,-3170l35 -73c331,-1407 608,-3116 788,-5059z"/>
  <rect class="fil1" x="-1" width="263850" height="263850"/>
 </g>
</svg>
