<?xml version="1.0" encoding="UTF-8"?>
<!DOCTYPE svg PUBLIC "-//W3C//DTD SVG 1.1//EN" "http://www.w3.org/Graphics/SVG/1.1/DTD/svg11.dtd">
<!-- Creator: CorelDRAW X8 -->
<svg xmlns="http://www.w3.org/2000/svg" xml:space="preserve" width="64px" height="64px" version="1.1" style="shape-rendering:geometricPrecision; text-rendering:geometricPrecision; image-rendering:optimizeQuality; fill-rule:evenodd; clip-rule:evenodd"
viewBox="0 0 373589 373589"
 xmlns:xlink="http://www.w3.org/1999/xlink">
 <defs>
  <style type="text/css">
   <![CDATA[
    .fil1 {fill:none}
    .fil0 {fill:black;fill-rule:nonzero}
   ]]>
  </style>
 </defs>
 <g id="Ebene_x0020_1">
  <metadata id="CorelCorpID_0Corel-Layer"/>
  <path class="fil0" d="M294818 124102c5564,9542 9763,19581 12562,30074 2806,10494 4213,21366 4213,32605 0,22634 -5599,43511 -16775,62664 -5584,9501 -12134,18064 -19711,25634l-42 35c-7611,7611 -16167,14182 -25627,19704 -9549,5578 -19566,9763 -30060,12583 -10473,2799 -21346,4199 -32611,4199 -22587,0 -43477,-5599 -62630,-16782 -9536,-5570 -18106,-12134 -25669,-19704 -7556,-7557 -14127,-16120 -19705,-25669 -5577,-9618 -9783,-19622 -12561,-30053 -2813,-10480 -4213,-21353 -4213,-32611 0,-11252 1400,-22111 4213,-32605 2799,-10500 6991,-20532 12561,-30074 5544,-9494 12128,-18057 19767,-25668 7543,-7550 16099,-14114 25620,-19636 9536,-5598 19567,-9790 30040,-12596 10487,-2807 21346,-4206 32577,-4206 11265,0 22138,1399 32611,4206 10494,2806 20511,6998 30060,12575 9508,5543 18057,12100 25620,19657 7626,7611 14231,16181 19760,25668zm-8632 35735c-2275,-8550 -5729,-16796 -10328,-24669 -4647,-7956 -10066,-15051 -16243,-21215 -6233,-6225 -13300,-11645 -21201,-16223 -7922,-4612 -16154,-8052 -24690,-10341 -8556,-2283 -17539,-3427 -26957,-3427 -9391,0 -18354,1144 -26910,3427 -8549,2289 -16767,5729 -24655,10341 -7928,4578 -15002,9998 -21235,16223 -6177,6164 -11603,13252 -16250,21215 -4592,7873 -8039,16119 -10335,24669 -2289,8563 -3420,17539 -3420,26944 0,9397 1131,18394 3420,26943 2302,8591 5743,16823 10321,24662 4619,7888 10059,14962 16292,21201 6253,6247 13320,11673 21207,16278 15713,9177 32915,13782 51565,13782 9418,0 18401,-1158 26957,-3440 8536,-2275 16768,-5743 24655,-10342 7950,-4647 15037,-10052 21201,-16237l42 -41c6212,-6212 11638,-13272 16236,-21166 9184,-15747 13776,-32949 13776,-51640 0,-9405 -1152,-18381 -3448,-26944zm-80432 98068l0 -28454c0,-1386 -441,-2482 -1330,-3413 -890,-882 -2034,-1330 -3406,-1330l-28468 0c-1351,0 -2509,448 -3392,1330 -896,931 -1337,2027 -1337,3413l0 28454c0,1413 441,2523 1337,3413 883,882 2041,1316 3392,1316l28468 0c1372,0 2516,-434 3406,-1316 889,-890 1330,-2000 1330,-3413zm37934 -99599c0,-8666 -2744,-16726 -8232,-24110 -5488,-7433 -12307,-13141 -20490,-17223 -8239,-4026 -16603,-6053 -25228,-6053 -23993,0 -42319,10535 -54984,31549 -1448,2379 -1055,4420 1200,6240l19560 14782c710,620 1634,930 2840,930 1545,0 2786,-627 3682,-1820 5254,-6681 9508,-11224 12741,-13623 3365,-2351 7605,-3544 12741,-3544 4737,0 8991,1282 12666,3847 3709,2579 5570,5502 5570,8770 0,3709 -979,6729 -2964,9025 -1986,2261 -5350,4481 -10087,6646 -6205,2786 -11921,7074 -17092,12838 -5212,5791 -7790,11976 -7790,18581l0 5350c0,1386 441,2537 1337,3413 876,882 2027,1337 3399,1337l28454 0c1386,0 2544,-455 3406,-1337 889,-876 1337,-2027 1337,-3413 0,-1882 1062,-4330 3193,-7343 2116,-3006 4819,-5440 8046,-7349 3192,-1758 5625,-3186 7308,-4199 1641,-1021 3943,-2792 6818,-5171 2834,-2448 5040,-4785 6605,-7129 1483,-2303 2875,-5316 4103,-8991 1248,-3633 1861,-7659 1861,-12003z"/>
  <rect class="fil1" x="-1" y="-1" width="373588" height="373588"/>
 </g>
</svg>
