<?xml version="1.0" encoding="UTF-8"?>
<!DOCTYPE svg PUBLIC "-//W3C//DTD SVG 1.1//EN" "http://www.w3.org/Graphics/SVG/1.1/DTD/svg11.dtd">
<!-- Creator: CorelDRAW X8 -->
<svg xmlns="http://www.w3.org/2000/svg" xml:space="preserve" width="64px" height="64px" version="1.1" style="shape-rendering:geometricPrecision; text-rendering:geometricPrecision; image-rendering:optimizeQuality; fill-rule:evenodd; clip-rule:evenodd"
viewBox="0 0 819839 819839"
 xmlns:xlink="http://www.w3.org/1999/xlink">
 <defs>
  <style type="text/css">
   <![CDATA[
    .fil1 {fill:none}
    .fil0 {fill:black;fill-rule:nonzero}
   ]]>
  </style>
 </defs>
 <g id="Ebene_x0020_1">
  <metadata id="CorelCorpID_0Corel-Layer"/>
  <path class="fil0" d="M277198 630819l0 -132403 265443 0 0 132403 -265443 0zm309366 0l0 -143448c0,-18141 -14752,-32893 -32893,-32893l-287502 0c-18156,0 -32908,14752 -32908,32893l0 143448 -44543 0 0 -441768 44543 0 0 143433c0,18156 14752,32908 32908,32908l199021 0c18156,0 32893,-14752 32893,-32908l0 -143433c6914,0 20516,5462 25373,10303l97241 96939c4539,4539 10410,18655 10410,25161l0 309365 -44543 0zm-132404 -320395c0,5871 -5159,11030 -11030,11030l-66421 0c-5870,0 -11030,-5159 -11030,-11030l0 -110344c0,-5885 5160,-11029 11030,-11029l66421 0c5871,0 11030,5144 11030,11029l0 110344zm220884 11030c0,-18247 -10318,-43408 -23315,-56511l-96727 -96515c-12997,-12997 -38461,-23315 -56919,-23315l-320395 0c-18141,0 -32893,14752 -32893,32908l0 463828c0,18156 14752,32893 32893,32893l464448 0c18156,0 32908,-14737 32908,-32893l0 -320395z"/>
  <rect class="fil1" x="-3" y="-1" width="819838" height="819839"/>
 </g>
</svg>
