<?xml version="1.0" encoding="UTF-8"?>
<!DOCTYPE svg PUBLIC "-//W3C//DTD SVG 1.1//EN" "http://www.w3.org/Graphics/SVG/1.1/DTD/svg11.dtd">
<!-- Creator: CorelDRAW X8 -->
<svg xmlns="http://www.w3.org/2000/svg" xml:space="preserve" width="64px" height="64px" version="1.1" style="shape-rendering:geometricPrecision; text-rendering:geometricPrecision; image-rendering:optimizeQuality; fill-rule:evenodd; clip-rule:evenodd"
viewBox="0 0 2221364 2221364"
 xmlns:xlink="http://www.w3.org/1999/xlink">
 <defs>
  <style type="text/css">
   <![CDATA[
    .fil1 {fill:none}
    .fil0 {fill:black;fill-rule:nonzero}
   ]]>
  </style>
 </defs>
 <g id="Ebene_x0020_1">
  <metadata id="CorelCorpID_0Corel-Layer"/>
  <path class="fil0" d="M522565 1552938l0 -1141388 118435 0 0 381378c0,48211 39233,87443 87443,87443l529124 0c48293,0 87525,-39232 87525,-87443l0 -381378c18325,0 54524,14513 67437,27426l258516 257696c12093,12052 27671,49604 27671,66863l0 822527 -77562 0c-31075,46037 -73054,85516 -126922,116795l233837 0c48251,0 87484,-39233 87484,-87443l0 -851879c0,-48497 -27426,-115361 -61985,-150165l-257163 -256630c-34559,-34559 -102242,-61985 -151313,-61985l-851879 0c-48211,0 -87443,39233 -87443,87443l0 1233216c0,48210 39232,87443 87443,87443l107776 0 -34641 -32714c-29393,-25089 -45136,-59238 -45136,-97938 0,-6559 451,-12995 1353,-19267zm705691 -818674c0,15578 -13692,29271 -29312,29271l-176607 0c-15578,0 -29311,-13693 -29311,-29271l0 -293402c0,-15578 13733,-29312 29311,-29312l176607 0c15620,0 29312,13734 29312,29312l0 293402zm-609065 800349c-11971,10167 -17792,22875 -17792,37592 0,14759 5821,27426 17792,37593l318819 301314c10413,10372 22507,15455 36691,15455 13979,0 26073,-5083 36445,-15455 10412,-10454 15537,-22875 15537,-37633l0 -159512c185954,-1476 324066,-25909 414092,-73136 113761,-60509 170663,-163898 170663,-310005 0,-60673 -16275,-121141 -48785,-181609 -30951,-56163 -69363,-101914 -115073,-137375 -13446,-10453 -27426,-10658 -42184,-1147 -14758,9633 -19227,23244 -13159,40954 29434,99085 34927,175828 16398,230475 -18325,54605 -60140,92936 -125118,115073 -58992,20785 -144549,31730 -256834,33247l0 -159471c0,-14758 -5125,-27303 -15537,-37675 -10372,-10371 -22466,-15496 -36445,-15496 -14184,0 -26278,5125 -36691,15496l-318819 301315z"/>
  <rect class="fil1" x="-7" y="-3" width="2221359" height="2221361"/>
 </g>
</svg>
