<?xml version="1.0" encoding="UTF-8"?>
<!DOCTYPE svg PUBLIC "-//W3C//DTD SVG 1.1//EN" "http://www.w3.org/Graphics/SVG/1.1/DTD/svg11.dtd">
<!-- Creator: CorelDRAW X8 -->
<svg xmlns="http://www.w3.org/2000/svg" xml:space="preserve" width="64px" height="64px" version="1.1" style="shape-rendering:geometricPrecision; text-rendering:geometricPrecision; image-rendering:optimizeQuality; fill-rule:evenodd; clip-rule:evenodd"
viewBox="0 0 993230 993230"
 xmlns:xlink="http://www.w3.org/1999/xlink">
 <defs>
  <style type="text/css">
   <![CDATA[
    .fil1 {fill:none}
    .fil0 {fill:black;fill-rule:nonzero}
   ]]>
  </style>
 </defs>
 <g id="Ebene_x0020_1">
  <metadata id="CorelCorpID_0Corel-Layer"/>
  <path class="fil0" d="M233653 673977l0 -12337c-678,-6598 -1008,-13252 -1008,-20016 0,-7002 366,-13839 1008,-20566l0 -472218 52955 0 0 170506c0,21556 17542,39098 39098,39098l236586 0c21592,0 39134,-17542 39134,-39098l0 -170506c8194,0 24379,6489 30153,12244l115589 115241c5408,5371 12373,22179 12373,29896l0 314837c660,6727 1027,13564 1027,20566 0,6984 -367,13839 -1027,20585l0 11768 -1503 0c-2914,18531 -8340,35981 -15874,52222l30520 0c21556,0 39098,-17524 39098,-39098l0 -380880c0,-21702 -12263,-51599 -27715,-67161l-114985 -114746c-15452,-15452 -45715,-27715 -67656,-27715l-380898 0c-21556,0 -39097,17542 -39097,39116l0 551386c0,21574 17541,39098 39097,39098l31052 0c-7699,-16442 -13271,-33947 -16278,-52222l-1649 0zm315533 -380862c0,6966 -6122,13106 -13088,13106l-78984 0c-6965,0 -13106,-6140 -13106,-13106l0 -131169c0,-6984 6141,-13106 13106,-13106l78984 0c6966,0 13088,6122 13088,13106l0 131169zm-52589 157785c125964,0 228099,85400 228099,190724 0,105361 -102135,190742 -228099,190742 -12758,0 -25241,-898 -37448,-2566 -33416,29475 -72422,49638 -116598,61131 -4160,1081 -8633,2163 -13472,3116 -4143,843 -14756,3116 -18642,2419 -7405,-1356 -11676,-10521 -8138,-16918 1833,-3336 4564,-6159 7057,-8982 1448,-1613 3739,-4143 6727,-7479 4051,-4454 7112,-7717 8853,-9623 5298,-5829 10558,-12409 16094,-23059 5462,-10522 9605,-24269 13839,-39336 -52607,-34919 -86353,-88883 -86353,-149445 0,-105324 102117,-190724 228081,-190724zm182200 166015c-1833,-1814 -4381,-2896 -7002,-2896l-42654 0 -55 -42691c0,-2621 -1045,-5187 -2859,-6983 -1815,-1815 -4381,-2896 -6966,-2896l-19741 0c-2658,0 -5151,1081 -7002,2896 -1833,1833 -2915,4344 -2915,6983l0 42691 -42654 0c-2657,0 -5150,1082 -6983,2896 -1815,1815 -2896,4344 -2896,6984l0 19741c0,2603 1081,5151 2896,6966 1814,1814 4344,2896 6965,2896l42672 18 0 42673c0,2621 1082,5169 2915,6983 1851,1833 4362,2878 7002,2915l19741 0c2603,-37 5151,-1082 6966,-2915 1833,-1814 2896,-4344 2914,-6983l0 -42673 42654 0c2640,-18 5169,-1063 7002,-2914 1797,-1815 2860,-4344 2915,-6966l0 -19741c-55,-2640 -1118,-5169 -2915,-6984zm-203628 -45513c0,-28302 -22949,-51288 -51269,-51288 -28320,0 -51287,22986 -51287,51288 0,28301 22967,51269 51287,51269 28320,0 51269,-22968 51269,-51269zm42727 119218c0,-30189 -7057,-76491 -46191,-76491 -4125,0 -21648,18550 -47805,18550 -26175,0 -43662,-18550 -47823,-18550 -39135,0 -46173,46302 -46173,76491 0,21630 14389,34589 35633,34589l116689 0c21263,0 35670,-12959 35670,-34589z"/>
  <rect class="fil1" x="-3" y="-1" width="993228" height="993230"/>
 </g>
</svg>
