<?xml version="1.0" encoding="UTF-8"?>
<!DOCTYPE svg PUBLIC "-//W3C//DTD SVG 1.1//EN" "http://www.w3.org/Graphics/SVG/1.1/DTD/svg11.dtd">
<!-- Creator: CorelDRAW X8 -->
<svg xmlns="http://www.w3.org/2000/svg" xml:space="preserve" width="64px" height="64px" version="1.1" style="shape-rendering:geometricPrecision; text-rendering:geometricPrecision; image-rendering:optimizeQuality; fill-rule:evenodd; clip-rule:evenodd"
viewBox="0 0 290165 290165"
 xmlns:xlink="http://www.w3.org/1999/xlink">
 <defs>
  <style type="text/css">
   <![CDATA[
    .fil0 {fill:none}
    .fil1 {fill:black;fill-rule:nonzero}
   ]]>
  </style>
 </defs>
 <g id="Ebene_x0020_1">
  <metadata id="CorelCorpID_0Corel-Layer"/>
  <rect class="fil0" x="-1" width="290164" height="290164"/>
  <path class="fil1" d="M23926 272135c0,-2978 1226,-5859 3245,-7878l30084 -30084c-7127,-10239 -10892,-22491 -10892,-34904 0,-34030 27616,-61657 61652,-61657 34036,0 61663,27627 61663,61657 0,34037 -27627,61663 -61663,61663 -12407,0 -24659,-3770 -34898,-10887l-30084 29977c-2009,2116 -4890,3347 -7878,3347 -6227,0 -11229,-4996 -11229,-11234zm213026 -22716c0,3314 -1156,6147 -3502,8455 -2313,2351 -5141,3508 -8498,3508l-75141 0c6511,-4397 12300,-9784 17136,-15953l54015 0c0,-55665 0,-137740 0,-193411l-159680 0 0 88786c-6211,4975 -11615,10924 -15984,17612l0 -110382c0,-3315 1156,-6147 3507,-8461 2308,-2351 5136,-3502 8456,-3502l17328 0 0 -17313c0,-3314 1152,-6147 3503,-8455 2308,-2351 5140,-3508 8455,-3508l167697 0c3352,0 6185,1157 8498,3508 2345,2308 3497,5141 3497,8455 0,58332 0,143053 0,201385 0,3315 -1152,6148 -3497,8456 -2313,2350 -5146,3507 -8498,3507l-17292 0 0 17313zm-146378 -213348l134378 0c3357,0 6185,1151 8498,3502 2346,2314 3502,5146 3502,8461l0 168120 13302 0c0,-55665 0,-137741 0,-193406l-159680 0 0 13323zm-21746 163198c0,21602 17591,39199 39187,39199 21608,0 39193,-17597 39193,-39199 0,-21602 -17585,-39187 -39193,-39187 -21596,0 -39187,17585 -39187,39187z"/>
 </g>
</svg>
