<?xml version="1.0" encoding="UTF-8"?>
<!DOCTYPE svg PUBLIC "-//W3C//DTD SVG 1.1//EN" "http://www.w3.org/Graphics/SVG/1.1/DTD/svg11.dtd">
<!-- Creator: CorelDRAW X8 -->
<svg xmlns="http://www.w3.org/2000/svg" xml:space="preserve" width="64px" height="64px" version="1.1" style="shape-rendering:geometricPrecision; text-rendering:geometricPrecision; image-rendering:optimizeQuality; fill-rule:evenodd; clip-rule:evenodd"
viewBox="0 0 471676 471676"
 xmlns:xlink="http://www.w3.org/1999/xlink">
 <defs>
  <style type="text/css">
   <![CDATA[
    .fil1 {fill:none}
    .fil0 {fill:black;fill-rule:nonzero}
   ]]>
  </style>
 </defs>
 <g id="Ebene_x0020_1">
  <metadata id="CorelCorpID_0Corel-Layer"/>
  <path class="fil0" d="M2385 442358c0,-4839 1993,-9523 5275,-12804l48904 -48904c-11587,-16634 -17706,-36551 -17706,-56737 0,-55310 44890,-100218 100218,-100218 55319,0 100227,44908 100227,100218 0,55336 -44908,100235 -100227,100235 -20169,0 -40085,-6128 -56729,-17697l-48903 48730c-3265,3438 -7948,5440 -12805,5440 -10124,0 -18254,-8122 -18254,-18263zm263041 -300044c59897,0 108443,40590 108443,90669 0,50087 -48546,90669 -108443,90669 -1567,0 -3117,-26 -4666,-79 -44,-14276 -2533,-27977 -7103,-40694l43262 0c11682,0 19577,-7104 19577,-18977 0,-16574 -3882,-41983 -25348,-41983 -2281,0 -11891,10176 -26253,10176 -14363,0 -23965,-10176 -26254,-10176 -9070,0 -14990,4535 -18811,11012 -15947,-14154 -35620,-24200 -57364,-28439 14284,-36125 54979,-62178 102960,-62178zm203874 215539c0,5379 -1881,9993 -5693,13744 -3761,3822 -8357,5693 -13806,5693l-29622 0 0 28143c0,5388 -1881,9993 -5693,13745 -3761,3821 -8357,5701 -13815,5701l-193663 0c10585,-7146 19995,-15903 27855,-25931l159323 0c0,-90486 0,-223895 0,-314381l-259558 0 0 117758c-8931,330 -17627,1601 -25984,3751l0 -127994c0,-5380 1880,-9993 5702,-13745 3751,-3822 8348,-5693 13745,-5693l29674 0 0 -28143c0,-5388 1880,-9993 5702,-13744 3751,-3822 8348,-5702 13744,-5702l272590 0c5449,0 10045,1880 13806,5702 3812,3751 5693,8356 5693,13744 0,94813 0,232531 0,327352zm-49121 -6485l23137 0c0,-90486 0,-223896 0,-314381l-259559 0 0 21657 216914 0c5458,0 10054,1871 13815,5693 3812,3752 5693,8365 5693,13745l0 273286zm-127133 -152899c0,-15538 -12605,-28152 -28151,-28152 -15538,0 -28152,12614 -28152,28152 0,15529 12614,28142 28152,28142 15546,0 28151,-12613 28151,-28142zm-217671 125444c0,35123 28595,63719 63701,63719 35115,0 63710,-28596 63710,-63719 0,-35107 -28595,-63693 -63710,-63693 -35106,0 -63701,28586 -63701,63693z"/>
  <rect class="fil1" x="-1" y="-1" width="471675" height="471676"/>
 </g>
</svg>
