<?xml version="1.0" encoding="UTF-8"?>
<!DOCTYPE svg PUBLIC "-//W3C//DTD SVG 1.1//EN" "http://www.w3.org/Graphics/SVG/1.1/DTD/svg11.dtd">
<!-- Creator: CorelDRAW X8 -->
<svg xmlns="http://www.w3.org/2000/svg" xml:space="preserve" width="64px" height="64px" version="1.1" style="shape-rendering:geometricPrecision; text-rendering:geometricPrecision; image-rendering:optimizeQuality; fill-rule:evenodd; clip-rule:evenodd"
viewBox="0 0 263851 263851"
 xmlns:xlink="http://www.w3.org/1999/xlink">
 <defs>
  <style type="text/css">
   <![CDATA[
    .fil1 {fill:none}
    .fil0 {fill:#2B2A29;fill-rule:nonzero}
   ]]>
  </style>
 </defs>
 <g id="Ebene_x0020_1">
  <metadata id="CorelCorpID_0Corel-Layer"/>
  <path class="fil0" d="M105889 95176c-385,-608 -584,-1285 -584,-2040 0,-3730 -2099,-6593 -6331,-8619 -4202,-2030 -8360,-3043 -12416,-3043 -1013,0 -1890,-360 -2625,-1159 -735,-755 -1120,-1660 -1120,-2712 0,-1047 385,-1953 1120,-2712 735,-760 1612,-1164 2625,-1164 3919,0 7800,652 11642,1957 3886,1266 7280,3472 10216,6515 1631,1734 2810,3643 3530,5727 -2176,2274 -4202,4699 -6057,7250zm21162 -19146c-2634,-4616 -6009,-8458 -10104,-11462 -4334,-3180 -9130,-5673 -14408,-7489 -5240,-1846 -10601,-2747 -15981,-2747 -5391,0 -10698,901 -15987,2747 -5244,1816 -10069,4309 -14413,7489 -4295,3189 -7830,7313 -10522,12309 -2693,5001 -4023,10430 -4023,16259 0,8142 2625,15416 7937,21790 804,901 2002,2245 3570,4022 1611,1768 2795,3112 3603,3979 9968,12378 15494,24395 16507,36125l23709 0c4519,12403 12500,23135 22779,31043 -789,2390 -2357,4377 -4694,5921 1013,1874 1504,3759 1504,5711 0,3701 -1222,6589 -3671,8580 -2449,2031 -5493,3044 -9057,3044 -1573,3549 -3920,6369 -7031,8472 -3151,2133 -6545,3185 -10211,3185 -3677,0 -7066,-1052 -10177,-3185 -3112,-2103 -5464,-4923 -7032,-8472 -3603,0 -6612,-1013 -9057,-3044 -2483,-1991 -3710,-4879 -3710,-8580 0,-1952 521,-3837 1543,-5711 -3535,-2318 -5293,-5620 -5293,-9817 0,-2970 984,-5570 2946,-7747 -1962,-2172 -2946,-4772 -2946,-7737 0,-4393 1831,-7679 5503,-9963 -317,-4047 -1612,-8400 -3959,-13031 -2337,-4635 -4684,-8511 -6992,-11584 -2304,-3043 -5215,-6588 -8712,-10537 -8034,-9120 -12061,-19945 -12061,-32464 0,-8000 1743,-15465 5210,-22375 3462,-6919 8044,-12631 13712,-17193 5663,-4597 12062,-8186 19195,-10786 7144,-2649 14418,-3944 21830,-3944 7416,0 14720,1295 21858,3944 7139,2600 13537,6189 19200,10786 5434,4372 9831,9802 13274,16336 -4870,1534 -9505,3604 -13839,6126zm69797 59494c0,19424 -15815,35249 -35244,35249 -19424,0 -35240,-15825 -35240,-35249 0,-19424 15816,-35240 35240,-35240 19429,0 35244,15816 35244,35240zm40382 65531c0,-2683 -1106,-5278 -2917,-7094l-27059 -27054c6413,-9203 9802,-20228 9802,-31383 0,-30604 -24843,-55448 -55452,-55448 -30604,0 -55447,24844 -55447,55448 0,30608 24843,55447 55447,55447 11165,0 22180,-3389 31388,-9792l27049 26956c1816,1909 4402,3015 7085,3015 5609,0 10104,-4495 10104,-10095z"/>
  <rect class="fil1" x="-1" width="263850" height="263850"/>
 </g>
</svg>
