<?xml version="1.0" encoding="UTF-8"?>
<!DOCTYPE svg PUBLIC "-//W3C//DTD SVG 1.1//EN" "http://www.w3.org/Graphics/SVG/1.1/DTD/svg11.dtd">
<!-- Creator: CorelDRAW X8 -->
<svg xmlns="http://www.w3.org/2000/svg" xml:space="preserve" width="64px" height="64px" version="1.1" style="shape-rendering:geometricPrecision; text-rendering:geometricPrecision; image-rendering:optimizeQuality; fill-rule:evenodd; clip-rule:evenodd"
viewBox="0 0 263851 263851"
 xmlns:xlink="http://www.w3.org/1999/xlink">
 <defs>
  <style type="text/css">
   <![CDATA[
    .fil1 {fill:none}
    .fil0 {fill:black;fill-rule:nonzero}
   ]]>
  </style>
 </defs>
 <g id="Ebene_x0020_1">
  <metadata id="CorelCorpID_0Corel-Layer"/>
  <path class="fil0" d="M1334 247451c0,-2708 1115,-5327 2951,-7163l27356 -27356c-6476,-9306 -9904,-20447 -9904,-31739 0,-30939 25111,-56060 56061,-56060 30949,0 56065,25121 56065,56060 0,30955 -25116,56071 -56065,56071 -11283,0 -22424,-3428 -31734,-9899l-27356 27258c-1826,1924 -4446,3043 -7158,3043 -5668,0 -10216,-4543 -10216,-10215zm233709 -20656c0,3014 -1051,5590 -3184,7689 -2104,2137 -4675,3189 -7723,3189l-108333 0c5916,-3998 11180,-8896 15577,-14506l89128 0c0,-50617 0,-125244 0,-175861l-145194 0 0 65872c-5001,185 -9865,896 -14540,2099l0 -71599c0,-3009 1052,-5590 3190,-7689 2098,-2137 4669,-3184 7688,-3184l16605 0 0 -15743c0,-3014 1047,-5590 3185,-7689 2098,-2137 4674,-3189 7688,-3189l152484 0c3048,0 5624,1052 7728,3189 2132,2099 3179,4675 3179,7689 0,53037 0,130075 0,183117 0,3009 -1047,5590 -3179,7689 -2104,2137 -4680,3184 -7728,3184l-16571 0 0 15743zm-69329 -121281c0,701 -234,1300 -745,1806 -487,507 -1072,770 -1748,770 -677,0 -1257,-263 -1744,-770 -487,-506 -745,-1105 -745,-1806 0,-2479 -1397,-4382 -4212,-5731 -2795,-1349 -5560,-2026 -8263,-2026 -672,0 -1256,-239 -1743,-769 -487,-507 -745,-1106 -745,-1807 0,-696 258,-1300 745,-1806 487,-507 1071,-770 1743,-770 2610,0 5191,434 7752,1300 2581,848 4840,2313 6798,4334 1928,2050 2907,4485 2907,7275zm12475 0c0,-3876 -891,-7489 -2678,-10810 -1797,-3331 -4144,-6072 -7032,-8190 -2882,-2123 -6072,-3784 -9582,-4991 -3492,-1223 -7051,-1826 -10640,-1826 -3584,0 -7119,603 -10635,1826 -3486,1207 -6700,2868 -9582,4991 -2869,2118 -5216,4859 -7007,8190 -1792,3321 -2674,6934 -2674,10810 0,5420 1739,10265 5284,14506 525,599 1324,1490 2366,2668 1076,1179 1865,2074 2401,2649 6632,8239 10308,16234 10985,24040l17754 0c671,-7806 4328,-15801 10980,-24040 516,-575 1305,-1470 2376,-2649 1071,-1178 1860,-2069 2372,-2668 3540,-4241 5312,-9086 5312,-14506zm9977 0c0,8336 -2678,15533 -8024,21605 -2352,2625 -4285,4986 -5824,7012 -1529,2045 -3068,4621 -4626,7708 -1563,3083 -2444,5970 -2654,8668 2445,1514 3677,3710 3677,6622 0,1977 -653,3715 -1958,5157 1305,1446 1958,3174 1958,5151 0,2795 -1184,4992 -3511,6535 672,1247 998,2498 998,3798 0,2459 -813,4387 -2444,5712 -1627,1349 -3652,2021 -6029,2021 -1047,2361 -2605,4236 -4674,5638 -2094,1417 -4349,2119 -6798,2119 -1164,0 -2293,-161 -3374,-482 647,-3764 988,-7636 988,-11585 0,-24517 -12991,-46020 -32459,-58003 -3360,-5181 -5040,-11068 -5040,-17676 0,-5317 1164,-10284 3472,-14881 2303,-4601 5347,-8409 9120,-11443 3769,-3063 8025,-5444 12773,-7177 4747,-1758 9592,-2625 14520,-2625 4933,0 9802,867 14550,2625 4747,1733 9003,4114 12772,7177 3769,3034 6793,6842 9120,11443 2308,4597 3467,9564 3467,14881zm-85374 -72709l121344 0c3048,0 5619,1047 7723,3184 2133,2099 3184,4680 3184,7689l0 152873 12943 0c0,-50617 0,-125244 0,-175861l-145194 0 0 12115zm-60628 148388c0,19648 15996,35644 35634,35644 19647,0 35638,-15996 35638,-35644 0,-19638 -15991,-35629 -35638,-35629 -19638,0 -35634,15991 -35634,35629z"/>
  <rect class="fil1" x="-1" width="263850" height="263850"/>
 </g>
</svg>
