<?xml version="1.0" encoding="UTF-8"?>
<!DOCTYPE svg PUBLIC "-//W3C//DTD SVG 1.1//EN" "http://www.w3.org/Graphics/SVG/1.1/DTD/svg11.dtd">
<!-- Creator: CorelDRAW X8 -->
<svg xmlns="http://www.w3.org/2000/svg" xml:space="preserve" width="64px" height="64px" version="1.1" style="shape-rendering:geometricPrecision; text-rendering:geometricPrecision; image-rendering:optimizeQuality; fill-rule:evenodd; clip-rule:evenodd"
viewBox="0 0 562939 562939"
 xmlns:xlink="http://www.w3.org/1999/xlink">
 <defs>
  <style type="text/css">
   <![CDATA[
    .fil1 {fill:none}
    .fil0 {fill:black;fill-rule:nonzero}
   ]]>
  </style>
 </defs>
 <g id="Ebene_x0020_1">
  <metadata id="CorelCorpID_0Corel-Layer"/>
  <path class="fil0" d="M474913 445096c0,-7927 -3263,-15563 -8613,-20923l-79860 -79861c18908,-27157 28912,-59695 28912,-92628 0,-90322 -73304,-163648 -163678,-163648 -90312,0 -163638,73326 -163638,163648 0,90343 73326,163679 163638,163679 32943,0 65502,-10005 92659,-28934l79840 79591c5350,5620 13007,8893 20913,8893 16570,0 29827,-13278 29827,-29817zm-119173 -193412c0,57327 -46709,104056 -104066,104056 -57296,0 -104005,-46729 -104005,-104056 0,-57327 46709,-104035 104005,-104035 57357,0 104066,46708 104066,104035z"/>
  <rect class="fil1" x="-2" y="-1" width="562937" height="562938"/>
 </g>
</svg>
