<?xml version="1.0" encoding="UTF-8"?>
<!DOCTYPE svg PUBLIC "-//W3C//DTD SVG 1.1//EN" "http://www.w3.org/Graphics/SVG/1.1/DTD/svg11.dtd">
<!-- Creator: CorelDRAW X8 -->
<svg xmlns="http://www.w3.org/2000/svg" xml:space="preserve" width="64px" height="64px" version="1.1" style="shape-rendering:geometricPrecision; text-rendering:geometricPrecision; image-rendering:optimizeQuality; fill-rule:evenodd; clip-rule:evenodd"
viewBox="0 0 373589 373589"
 xmlns:xlink="http://www.w3.org/1999/xlink">
 <defs>
  <style type="text/css">
   <![CDATA[
    .fil1 {fill:none}
    .fil0 {fill:black;fill-rule:nonzero}
   ]]>
  </style>
 </defs>
 <g id="Ebene_x0020_1">
  <metadata id="CorelCorpID_0Corel-Layer"/>
  <path class="fil0" d="M139284 165607l-20801 0c-4302,0 -7874,-3571 -7874,-7880 0,-4302 3572,-7881 7874,-7881l27123 0c4413,-8694 10066,-16657 16740,-23634l-114842 0c-4344,0 -7915,3571 -7915,7880l0 118297c0,4309 3571,7915 7915,7915l112953 0c-15795,-17478 -25420,-40630 -25420,-66029 0,-9976 1489,-19601 4247,-28668zm97579 -86706c0,-4343 -3572,-7915 -7881,-7915l-189393 0c-4310,0 -7881,3572 -7881,7915l0 31557c0,4309 3571,7873 7881,7873l131217 0c17043,-14113 38927,-22593 62761,-22593l3296 62 0 -16899zm47179 115374c0,27819 -22655,50489 -50475,50489 -27820,0 -50475,-22670 -50475,-50489 0,-27820 22655,-50475 50475,-50475 27820,0 50475,22655 50475,50475zm57832 93849c0,-3847 -1586,-7557 -4178,-10156l-38748 -38741c9177,-13182 14024,-28964 14024,-44952 0,-43829 -35576,-79412 -79405,-79412 -43836,0 -79412,35583 -79412,79412 0,43842 35576,79418 79412,79418 15975,0 31763,-4860 44946,-14037l38747 38610c2592,2737 6302,4316 10142,4316 8032,0 14472,-6440 14472,-14458z"/>
  <rect class="fil1" x="-1" y="-1" width="373588" height="373588"/>
 </g>
</svg>
