<?xml version="1.0" encoding="UTF-8"?>
<!DOCTYPE svg PUBLIC "-//W3C//DTD SVG 1.1//EN" "http://www.w3.org/Graphics/SVG/1.1/DTD/svg11.dtd">
<!-- Creator: CorelDRAW X8 -->
<svg xmlns="http://www.w3.org/2000/svg" xml:space="preserve" width="64px" height="64px" version="1.1" style="shape-rendering:geometricPrecision; text-rendering:geometricPrecision; image-rendering:optimizeQuality; fill-rule:evenodd; clip-rule:evenodd"
viewBox="0 0 428626 428626"
 xmlns:xlink="http://www.w3.org/1999/xlink">
 <defs>
  <style type="text/css">
   <![CDATA[
    .fil1 {fill:none}
    .fil0 {fill:black;fill-rule:nonzero}
   ]]>
  </style>
 </defs>
 <g id="Ebene_x0020_1">
  <metadata id="CorelCorpID_0Corel-Layer"/>
  <path class="fil0" d="M255779 95121c-5648,0 -10236,-4588 -10236,-10236 0,-5656 4588,-10236 10236,-10236l84964 0c5656,0 10244,4580 10244,10236 0,5648 -4588,10236 -10244,10236l-84964 0zm34030 59928c-5648,0 -10236,-4588 -10236,-10236 0,-5655 4588,-10243 10236,-10243l104945 0c5648,0 10236,4588 10236,10243 0,5648 -4588,10236 -10236,10236l-104945 0zm6613 57389c-5648,0 -10236,-4588 -10236,-10243 0,-5648 4588,-10236 10236,-10236l75836 0c5648,0 10236,4588 10236,10236 0,5655 -4588,10243 -10236,10243l-75836 0zm21785 126462c0,-6036 -2476,-11850 -6550,-15931l-60806 -60807c14389,-20677 22006,-45452 22006,-70528 0,-68772 -55807,-124602 -124618,-124602 -68772,0 -124603,55830 -124603,124602 0,68788 55831,124627 124603,124627 25075,0 49866,-7618 70551,-22030l60783 60600c4074,4280 9912,6772 15931,6772 12609,0 22703,-10110 22703,-22703zm-90739 -147266c0,43649 -35565,79230 -79229,79230 -43633,0 -79198,-35581 -79198,-79230 0,-43649 35565,-79213 79198,-79213 43664,0 79229,35564 79229,79213z"/>
  <rect class="fil1" x="-1" y="-1" width="428625" height="428626"/>
 </g>
</svg>
