<?xml version="1.0" encoding="UTF-8"?>
<!DOCTYPE svg PUBLIC "-//W3C//DTD SVG 1.1//EN" "http://www.w3.org/Graphics/SVG/1.1/DTD/svg11.dtd">
<!-- Creator: CorelDRAW X8 -->
<svg xmlns="http://www.w3.org/2000/svg" xml:space="preserve" width="64px" height="64px" version="1.1" style="shape-rendering:geometricPrecision; text-rendering:geometricPrecision; image-rendering:optimizeQuality; fill-rule:evenodd; clip-rule:evenodd"
viewBox="0 0 309274 309274"
 xmlns:xlink="http://www.w3.org/1999/xlink">
 <defs>
  <style type="text/css">
   <![CDATA[
    .fil1 {fill:none}
    .fil0 {fill:black;fill-rule:nonzero}
   ]]>
  </style>
 </defs>
 <g id="Ebene_x0020_1">
  <metadata id="CorelCorpID_0Corel-Layer"/>
  <path class="fil0" d="M174317 65050c0,2819 -109,5194 -360,7226 -240,1986 -582,3561 -1079,4754 -496,1233 -1095,2123 -1837,2666 -691,599 -1530,901 -2375,901l-46928 0 0 33128c-12209,14583 -19560,33361 -19560,53845 0,19635 6752,37688 18042,51985 -622,520 -1484,976 -2540,1319 -1438,462 -3419,833 -5896,1136 -2477,296 -5542,439 -9206,439 -3670,0 -6735,-143 -9213,-439 -2477,-303 -4469,-680 -5890,-1136 -1427,-468 -2500,-1136 -3116,-1878 -645,-782 -942,-1684 -942,-2637l0 -135762 -46945 0c-936,0 -1775,-302 -2466,-901 -651,-543 -1233,-1433 -1735,-2666 -440,-1193 -845,-2768 -1090,-4754 -251,-2032 -343,-4407 -343,-7226 0,-2865 92,-5342 343,-7380 245,-2038 650,-3664 1090,-4852 502,-1238 1084,-2071 1735,-2619 691,-548 1530,-799 2466,-799l132194 0c845,0 1638,251 2375,799 742,548 1341,1381 1837,2619 497,1188 839,2814 1079,4852 251,2038 360,4515 360,7380zm54833 102520c0,23710 -19309,43019 -43013,43019 -23709,0 -43012,-19309 -43012,-43019 0,-23703 19303,-43007 43012,-43007 23704,0 43013,19304 43013,43007zm49280 79970c0,-3271 -1347,-6433 -3562,-8647l-33019 -33019c7820,-11232 11952,-24680 11952,-38304 0,-37345 -30307,-67664 -67664,-67664 -37350,0 -67669,30319 -67669,67664 0,37357 30319,67676 67669,67676 13619,0 27066,-4138 38304,-11952l33019 32899c2203,2323 5365,3675 8641,3675 6838,0 12329,-5485 12329,-12328z"/>
  <rect class="fil1" x="-1" width="309273" height="309273"/>
 </g>
</svg>
