<?xml version="1.0" encoding="UTF-8"?>
<!DOCTYPE svg PUBLIC "-//W3C//DTD SVG 1.1//EN" "http://www.w3.org/Graphics/SVG/1.1/DTD/svg11.dtd">
<!-- Creator: CorelDRAW X8 -->
<svg xmlns="http://www.w3.org/2000/svg" xml:space="preserve" width="64px" height="64px" version="1.1" style="shape-rendering:geometricPrecision; text-rendering:geometricPrecision; image-rendering:optimizeQuality; fill-rule:evenodd; clip-rule:evenodd"
viewBox="0 0 471676 471676"
 xmlns:xlink="http://www.w3.org/1999/xlink">
 <defs>
  <style type="text/css">
   <![CDATA[
    .fil1 {fill:none}
    .fil0 {fill:black}
   ]]>
  </style>
 </defs>
 <g id="Ebene_x0020_1">
  <metadata id="CorelCorpID_0Corel-Layer"/>
  <path class="fil0" d="M177281 94882c28064,0 54266,6703 76419,18297 -18219,7669 -34210,19542 -46805,34419 -6807,-9375 -17845,-15468 -30328,-15468 -20673,0 -37456,16782 -37456,37456 0,20657 16783,37439 37456,37439 906,0 1802,-26 2699,-95 -427,2437 -758,4892 -1019,7364l-1680 35c-19115,0 -31885,-13536 -34914,-13536 -28578,0 -33723,33809 -33723,55867 0,15790 10507,25244 26028,25244l55875 0c8931,18471 22285,34410 38684,46422 -15921,5058 -33182,7834 -51236,7834 -8060,0 -15973,-565 -23686,-1627 -21143,18645 -45804,31406 -73755,38684 -2629,679 -5458,1349 -8504,1958 -2647,531 -9341,1976 -11804,1532 -4683,-862 -7399,-6650 -5145,-10698 1149,-2107 2873,-3891 4475,-5675 905,-1019 2350,-2638 4248,-4736 2550,-2820 4482,-4883 5579,-6085 3360,-3690 6686,-7851 10194,-14580 3455,-6659 6067,-15355 8757,-24887 -33287,-22101 -54632,-56224 -54632,-94525 0,-66635 64590,-120639 144273,-120639zm188354 132991c0,35124 -28604,63745 -63728,63745 -35132,0 -63736,-28621 -63736,-63745 0,-35124 28604,-63727 63736,-63727 35124,0 63728,28603 63728,63727zm73015 118489c0,-4857 -2002,-9540 -5284,-12822l-48912 -48912c11578,-16643 17706,-36568 17706,-56755 0,-55336 -44917,-100261 -100253,-100261 -55345,0 -100261,44925 -100261,100261 0,55354 44916,100270 100261,100270 20169,0 40103,-6137 56746,-17714l48921 48747c3265,3447 7956,5449 12805,5449 10141,0 18271,-8130 18271,-18263z"/>
  <rect class="fil1" x="-1" y="-1" width="471675" height="471676"/>
 </g>
</svg>
