<?xml version="1.0" encoding="UTF-8"?>
<!DOCTYPE svg PUBLIC "-//W3C//DTD SVG 1.1//EN" "http://www.w3.org/Graphics/SVG/1.1/DTD/svg11.dtd">
<!-- Creator: CorelDRAW X8 -->
<svg xmlns="http://www.w3.org/2000/svg" xml:space="preserve" width="64px" height="64px" version="1.1" style="shape-rendering:geometricPrecision; text-rendering:geometricPrecision; image-rendering:optimizeQuality; fill-rule:evenodd; clip-rule:evenodd"
viewBox="0 0 309274 309274"
 xmlns:xlink="http://www.w3.org/1999/xlink">
 <defs>
  <style type="text/css">
   <![CDATA[
    .fil1 {fill:none}
    .fil0 {fill:black;fill-rule:nonzero}
   ]]>
  </style>
 </defs>
 <g id="Ebene_x0020_1">
  <metadata id="CorelCorpID_0Corel-Layer"/>
  <path class="fil0" d="M1564 290050c0,-3173 1307,-6244 3459,-8396l32065 -32065c-7591,-10907 -11609,-23966 -11609,-37202 0,-36267 29434,-65712 65712,-65712 36278,0 65717,29445 65717,65712 0,36283 -29439,65723 -65717,65723 -13225,0 -26284,-4018 -37197,-11604l-32065 31952c-2141,2254 -5211,3567 -8391,3567 -6643,0 -11974,-5325 -11974,-11975zm116396 -186274l0 97 0 109 0 97 0 102 0 97 0 103 5 0 0 97 0 103 0 91 0 103 0 91 6 0 0 103 0 91 0 97 6 0 0 97 0 92 0 0 0 91 0 97 5 0 0 91 0 97 6 0 0 92 0 91 6 0 0 86 6 97 0 85 0 0 0 92 11 177 0 85 6 0 0 92 5 0 0 85 0 0 0 91c40,925 103,1776 206,2563l108 765 6 0 23 194 6 0 11 63 6 0 0 68 5 0 12 63 5 63 6 0 12 63 11 68 11 57 0 0 6 69 12 63 11 51 6 0 5 63 6 0 12 62 5 0c120,605 257,1125 423,1593l5 0 52 148 11 40 6 0 11 46 12 46 17 45 0 0 17 46 6 0 28 80 6 0 34 91 6 0 34 80 6 0 28 91 35 80 5 0 34 80 6 0 40 80 0 0 40 80 6 0 28 74 6 0 34 74 6 0 34 69 6 0c285,508 582,902 913,1176 474,422 1039,639 1678,685l23 5 29 0 40 0 22 0 46 6 17 0 46 0 17 0 36249 0 0 53880c7859,12351 12408,27009 12408,42722 0,4395 -365,8698 -1050,12899l103 6 114 0 114 5 6 0 108 6 6 0 114 6 114 0 6 0 114 5 0 0 120 6 6 0 114 0 0 0 120 6 120 6 5 0 120 0 120 0 6 0 114 0 6 0 120 5 0 0 125 0 6 0 120 6 120 0 5 0 126 6 125 0 126 0 131 0 126 5 131 0 131 0 132 0 131 0 137 0 131 0 132 0 137 0 125 0 131 0 126 -5 131 0 126 0 125 0 126 -6 6 0 119 0 126 -6 6 0 120 0 0 0 119 -5 6 0 120 0 6 0 114 0 120 0 5 0 120 -6 120 -6 0 0 114 0 6 0 120 -6 0 0 114 -5 6 0 120 0 108 -6 6 0 108 -6 6 0 114 -5 114 0 114 -6 6 0 109 -6 0 0 108 -6 6 0 108 -5 6 0 108 -6 114 0 6 0 103 -6 108 -5 6 0 103 -6 0 0 108 0 109 -11 0 0 102 -6 0 0 109 -6 6 0 97 -6 5 0 103 -11 6 0 91 0 6 0 103 -11 5 0 97 -12 0 0 103 0 6 0 91 -11 6 0 97 -12 0 0 102 -5 6 0 86 -12 6 0 102 -6 0 0 92 -11 5 0 97 -11 0 0 92 -6 5 0 97 -11 0 0 86 -6 6 0 97 -12 5 0 80 -11 6 0 91 -6 6 0 86 -11 5 0 92 -6 0 0 91 -11 0 0 91 -12 6 0 86 -11 5 0 80 -6 6 0 86 -17 5 0 80 -11 0 0 92 -12 0 0 79 -11 6 0 86 -12 5 0 75 -11 5 0 86 -11 6 0 74 -12 6 0 85 -11 0 0 86 -12 0 0 80 -11 5 0 80 -11 6 0 69 -12 5 0 80 -11 6 0 74 -12 0 0 80 -11 11 0 69 -17 11 0 69 -6 6 -6 74 -11 11 -6 63 -6 6 0 74 -17 6 0 74 -11 5 0 69 -11 6 0 68 -18 12 0 62 -11 6 0 69 -17 11 0 68 -6 6 0 63 -11 6 0 68 -17 12 0 62 -12 0 0 69 -11 6 0 68 -17 6 0 63 -12 0 -5 68 -12 6 0 62 -17 12 0 57 -11 11 0 57 -18 12 0 63 -11 0 -6 62 -5 0 -6 69 -17 0 0 63 -6 5 0 58 -11 5 -6 63 -11 6 0 57 -18 6 0 57 -11 5 -6 57 -11 6 0 57 -17 6 -6 51 -11 12 0 51 -12 6 0 57 -23 6 0 51 -11 0 0 63 -17 5 0 52 -17 5 0 46 -12 6 0 57 -11 6 -6 51 -11 6 0 51 -17 51 -17 6 -6 51 -12 58 -17 45 -17 0 0 57 -17 57 -17 52 -17 17 -12 28 -5 52 -12 0 0 51 -23 23 0 29 -17 45 -11 0 -6 52 -17 17 -11 34 -6 40 -23 11 0 40 -23 17 0 29 -17 40 -17 11 -6 52 -11 5 -6 35 -17 34 -11 11 -6 46 -23 11 -6 35 -11 28 -17 12 -6 45 -23 12 0 34 -17 34 -17 6 -6 40 -22 11 0 34 -18 29 -17 17 -5 40 -23 6 0 40 -23 17 -17 17 -6 40 -23 6 0 34 -23 23 -17 17 -5 40 -17 34 -23 23 -12 17 -17 34 -23 63 -34 17 -17 29 -23 40 -23 11 -11 23 -6 28 -23 6 0 34 -28 12 -12 23 -11 22 -29 6 0 34 -28 12 -6 23 -17 22 -23 6 0 34 -23 6 -11c171,-143 320,-285 445,-434 503,-605 731,-1295 731,-2037l0 -104861 36243 0 17 0 52 0 11 0 46 -6 23 0 40 0 28 0 29 -5c628,-46 1198,-269 1672,-685 325,-274 628,-674 913,-1176l6 0 34 -69 6 0 34 -74 6 0 34 -74 0 0 40 -80 0 0 40 -80 6 0 34 -80 6 0 34 -80 34 -91 0 0 34 -80 6 0 34 -91 6 0 29 -80 5 0 17 -46 0 0 18 -45 17 -46 11 -46 6 0 6 -40 51 -148 6 0c165,-462 314,-988 422,-1593l6 0 11 -62 6 0 6 -63 5 0 12 -51 11 -63 12 -69 0 0 11 -57 11 -68 6 -63 6 0 5 -63 12 -63 6 0 0 -68 5 0 12 -63 5 0 23 -194 6 0 114 -765c74,-805 166,-1689 200,-2654l0 -85 6 0 0 -92 5 0 0 -85 12 -177 0 -92 0 0 0 -85 5 -97 0 -86 6 0 0 -91 0 -92 6 0 0 -97 0 -91 6 0 0 -97 0 -91 0 0 0 -92 0 -97 5 0 0 -97 0 -91 0 -103 6 0 0 -91 0 -103 0 -91 0 -103 0 -97 6 0 0 -103 0 -97 0 -102 0 -97 0 -109 0 -97 0 -103 0 -102 0 -109 0 -97 0 -103 0 -97 -6 0 0 -108 0 -97 0 -103 0 -97 0 -97 -6 0 0 -103 0 -91 0 -103 -5 0 0 -97 0 -97 0 0 0 -91 0 -103 -6 0 0 -91 0 -97 -6 0 0 -91 0 -97 -6 0 0 -92 -5 -97 0 -97 0 0 0 -91 -12 -177 0 -97 -5 0 0 -86 -6 0 0 -97c-34,-987 -103,-1883 -200,-2694l-114 -787 -6 0 -23 -200 -5 0 -12 -63 -5 0 0 -68 -6 0 -12 -63 -5 -69 -6 0 -6 -68 -11 -57 -11 -69 0 0 -12 -63 -11 -62 -12 -63 -5 0 -6 -69 -6 0 -11 -57 -6 0c-114,-616 -257,-1153 -422,-1626l-6 0 -51 -143 -6 -46 -6 0 -11 -40 -17 -45 -18 -40 0 0 -17 -46 -5 0 -29 -91 -6 0 -34 -86 -6 0 -34 -86 0 0 -34 -79 -34 -92 -6 0 -34 -74 -6 0 -40 -74 0 0 -40 -86 0 0 -34 -68 -6 0 -34 -74 -6 0 -34 -75 -6 0c-274,-491 -582,-862 -913,-1141 -428,-337 -936,-537 -1490,-594l-17 0 -108 -6 -23 -5 -34 0 -29 -6 -34 0 -34 0 -23 0 -46 -6 -11 0 -52 0 -17 0 -102092 0 -17 0 -46 0 -17 0 -46 6 -22 0 -35 0 -34 0 -23 6 -40 0 -23 5 -108 6 -11 0c-565,63 -1068,251 -1496,594 -319,279 -622,656 -913,1141l-6 0 -34 75 -6 0 -34 74 -6 0 -28 68 -6 0 -40 86 0 0 -40 74 -6 0 -34 74 -5 0 -35 92 -28 79 -6 0 -34 86 -6 0 -34 86 -6 0 -28 91 -6 0 -17 46 0 0 -17 40 -12 45 -11 40 -6 0 -11 46 -52 143 -5 0c-166,473 -314,1016 -423,1626l-5 0 -12 57 -6 0 -5 69 -6 0 -11 63 -12 62 -6 63 0 0 -11 69 -11 57 -12 68 -6 0 -5 69 -12 63 -5 0 0 68 -6 0 -11 63 -6 0 -23 200 -6 0 -108 787c-97,776 -166,1655 -206,2614l0 80 0 0 0 97 -5 0 0 86 -6 0 0 97 -11 177 0 91 0 0 0 97 -6 97 0 92 -6 0 0 97 0 91 -6 0 0 97 0 91 -5 0 0 103 0 91 0 0 0 97 0 97 -6 0 0 103 0 91 0 103 -6 0 0 97 0 97 0 103 0 97 0 108 -5 0 0 97 0 103 0 97 0 109 0 102 0 103zm157547 162063c0,3533 -1233,6552 -3732,9012 -2466,2506 -5480,3738 -9058,3738l-126978 0c6935,-4686 13105,-10427 18259,-17003l104472 0c0,-59330 0,-146806 0,-206136l-170190 0 0 77212c-5862,217 -11564,1051 -17043,2460l0 -83925c0,-3527 1233,-6552 3738,-9012 2460,-2506 5474,-3733 9013,-3733l19463 0 0 -18452c0,-3533 1227,-6553 3733,-9013 2460,-2505 5479,-3738 9012,-3738l178734 0c3573,0 6587,1233 9058,3738 2500,2460 3727,5480 3727,9013 0,62167 0,152467 0,214641 0,3527 -1227,6552 -3727,9012 -2471,2506 -5485,3733 -9058,3733l-19423 0 0 18453zm-155019 -227387l142229 0c3578,0 6592,1227 9058,3733 2499,2460 3732,5485 3732,9012l0 179191 15171 0c0,-59330 0,-146805 0,-206136l-170190 0 0 14200zm-71066 173935c0,23030 18750,41779 41769,41779 23030,0 41774,-18749 41774,-41779 0,-23019 -18744,-41763 -41774,-41763 -23019,0 -41769,18744 -41769,41763z"/>
  <rect class="fil1" x="-1" width="309273" height="309273"/>
 </g>
</svg>
