<?xml version="1.0" encoding="UTF-8"?>
<!DOCTYPE svg PUBLIC "-//W3C//DTD SVG 1.1//EN" "http://www.w3.org/Graphics/SVG/1.1/DTD/svg11.dtd">
<!-- Creator: CorelDRAW X8 -->
<svg xmlns="http://www.w3.org/2000/svg" xml:space="preserve" width="64px" height="64px" version="1.1" style="shape-rendering:geometricPrecision; text-rendering:geometricPrecision; image-rendering:optimizeQuality; fill-rule:evenodd; clip-rule:evenodd"
viewBox="0 0 639608 639608"
 xmlns:xlink="http://www.w3.org/1999/xlink">
 <defs>
  <style type="text/css">
   <![CDATA[
    .fil1 {fill:none}
    .fil0 {fill:black;fill-rule:nonzero}
   ]]>
  </style>
 </defs>
 <g id="Ebene_x0020_1">
  <metadata id="CorelCorpID_0Corel-Layer"/>
  <path class="fil0" d="M271030 396789c-31587,-661 -52681,-22923 -57733,-22923 -48431,0 -57155,57296 -57155,94668 0,12807 4096,23171 11238,30477l-56140 0c-5453,0 -10163,-1971 -14105,-6008 -4037,-3942 -6020,-8652 -6020,-14105l0 -151114c0,-296 94,-579 188,-945 107,-472 189,-732 189,-1039l181014 -149225 59692 49211c-13421,10411 -25201,22805 -34963,36745 -7602,-3222 -15971,-5005 -24753,-5005 -35046,0 -63481,28424 -63481,63458 0,33736 26393,61346 59668,63317 626,4214 1417,8381 2361,12488zm79087 -183150l-77611 -64709 -217877 181675c-2538,1688 -5064,2360 -7626,2148 -2715,-354 -4887,-1582 -6575,-3470l-19452 -23219c-1712,-2172 -2456,-4615 -2267,-7424 189,-2833 1405,-5088 3471,-6788l226340 -188627c6776,-5453 14767,-8180 23986,-8180 9207,0 17210,2727 23891,8180l76808 64237 0 -61415c0,-2916 944,-5265 2833,-7236 1877,-1889 4332,-2810 7248,-2810l60448 0c2927,0 5370,921 7247,2810 1889,1971 2821,4320 2821,7236l0 85389c-6008,-649 -12122,-991 -18308,-991 -31138,0 -60341,8451 -85377,23194zm171794 145496c0,47640 -38799,86440 -86417,86440 -47640,0 -86428,-38800 -86428,-86440 0,-47617 38788,-86405 86428,-86405 47618,0 86417,38788 86417,86405zm99011 160687c0,-6599 -2714,-12937 -7165,-17387l-66326 -66339c15699,-22569 24009,-49576 24009,-76961 0,-75038 -60908,-135946 -135946,-135946 -75049,0 -135957,60908 -135957,135946 0,75073 60908,135969 135957,135969 27350,0 54381,-8310 76950,-24021l66327 66102c4438,4687 10800,7390 17375,7390 13752,0 24776,-11025 24776,-24753z"/>
  <rect class="fil1" x="-2" y="-1" width="639607" height="639607"/>
 </g>
</svg>
