<?xml version="1.0" encoding="UTF-8"?>
<!DOCTYPE svg PUBLIC "-//W3C//DTD SVG 1.1//EN" "http://www.w3.org/Graphics/SVG/1.1/DTD/svg11.dtd">
<!-- Creator: CorelDRAW X8 -->
<svg xmlns="http://www.w3.org/2000/svg" xml:space="preserve" width="64px" height="64px" version="1.1" style="shape-rendering:geometricPrecision; text-rendering:geometricPrecision; image-rendering:optimizeQuality; fill-rule:evenodd; clip-rule:evenodd"
viewBox="0 0 373589 373589"
 xmlns:xlink="http://www.w3.org/1999/xlink">
 <defs>
  <style type="text/css">
   <![CDATA[
    .fil1 {fill:none}
    .fil0 {fill:black;fill-rule:nonzero}
   ]]>
  </style>
 </defs>
 <g id="Ebene_x0020_1">
  <metadata id="CorelCorpID_0Corel-Layer"/>
  <path class="fil0" d="M1889 350368c0,-3834 1579,-7543 4178,-10142l38734 -38734c-9177,-13175 -14024,-28950 -14024,-44939 0,-43808 35556,-79377 79377,-79377 43815,0 79384,35569 79384,79377 0,43829 -35569,79391 -79384,79391 -15974,0 -31749,-4853 -44931,-14016l-38734 38595c-2586,2724 -6295,4310 -10135,4310 -8025,0 -14465,-6433 -14465,-14465zm225473 -170544c0,3261 -2710,5964 -5971,5964l-23931 0c-3261,0 -5964,-2703 -5964,-5964 0,-3261 2703,-5964 5964,-5964l23931 0c3261,0 5971,2703 5971,5964zm144344 103611c0,4261 -1482,7915 -4502,10887 -2985,3027 -6625,4509 -10941,4509l-23463 0 0 22290c0,4268 -1489,7915 -4509,10887 -2978,3026 -6618,4516 -10941,4516l-153390 0c8383,-5661 15836,-12597 22062,-20539l126198 0c0,-71669 0,-177335 0,-249004l-205589 0 0 93269c-7074,262 -13961,1269 -20580,2972l0 -101378c0,-4261 1489,-7915 4516,-10886 2972,-3027 6612,-4509 10886,-4509l23504 0 0 -22290c0,-4268 1489,-7915 4516,-10887 2972,-3027 6619,-4516 10886,-4516l215904 0c4316,0 7956,1489 10941,4516 3020,2972 4502,6619 4502,10887 0,75095 0,184174 0,259276zm-38906 -5136l18326 0c0,-71669 0,-177335 0,-249004l-205582 0 0 17154 171806 0c4323,0 7963,1482 10941,4509 3020,2971 4509,6625 4509,10886l0 216455zm-51647 -116380c0,-3261 -2702,-5964 -5998,-5964l-131459 0c-3288,0 -5991,2703 -5991,5964l0 2261c39789,11866 68835,48745 68835,92373l-13 959 68628 0c3296,0 5998,-2730 5998,-5992l0 -89601zm5971 -41802c0,-3296 -2710,-5998 -5971,-5998l-143448 0c-3261,0 -5971,2702 -5971,5998l0 23897c0,3261 2710,5977 5971,5977l143448 0c3261,0 5971,-2716 5971,-5977l0 -23897zm-227424 136436c0,27820 22649,50469 50454,50469 27813,0 50462,-22649 50462,-50469 0,-27805 -22649,-50447 -50462,-50447 -27805,0 -50454,22642 -50454,50447z"/>
  <rect class="fil1" x="-1" y="-1" width="373588" height="373588"/>
 </g>
</svg>
