<?xml version="1.0" encoding="UTF-8"?>
<!DOCTYPE svg PUBLIC "-//W3C//DTD SVG 1.1//EN" "http://www.w3.org/Graphics/SVG/1.1/DTD/svg11.dtd">
<!-- Creator: CorelDRAW X8 -->
<svg xmlns="http://www.w3.org/2000/svg" xml:space="preserve" width="64px" height="64px" version="1.1" style="shape-rendering:geometricPrecision; text-rendering:geometricPrecision; image-rendering:optimizeQuality; fill-rule:evenodd; clip-rule:evenodd"
viewBox="0 0 639608 639608"
 xmlns:xlink="http://www.w3.org/1999/xlink">
 <defs>
  <style type="text/css">
   <![CDATA[
    .fil1 {fill:none}
    .fil0 {fill:black;fill-rule:nonzero}
   ]]>
  </style>
 </defs>
 <g id="Ebene_x0020_1">
  <metadata id="CorelCorpID_0Corel-Layer"/>
  <path class="fil0" d="M454617 314882l0 83395c0,3010 -1086,5595 -3270,7778 -2243,2231 -4828,3329 -7838,3329l-30961 0c3942,-4037 6208,-9762 6208,-16832 0,-20610 -4816,-52245 -31540,-52245 -2833,0 -14790,12678 -32661,12678 -17860,0 -29829,-12678 -32650,-12678l-1251 24c-12713,-16927 -28601,-31339 -46779,-42341l80703 -66538 99885 82344c107,260 154,637 154,1086zm-451383 284970c0,-6563 2703,-12913 7153,-17363l66315 -66315c-15711,-22557 -24009,-49564 -24009,-76938 0,-75002 60873,-135898 135898,-135898 75015,0 135911,60896 135911,135898 0,75038 -60896,135923 -135911,135923 -27349,0 -54357,-8310 -76926,-23998l-66314 66079c-4427,4662 -10777,7377 -17364,7377 -13728,0 -24753,-11013 -24753,-24765zm98976 -160616c0,47629 38776,86405 86381,86405 47618,0 86394,-38776 86394,-86405 0,-47605 -38776,-86369 -86394,-86369 -47605,0 -86381,38764 -86381,86369zm534176 46024c0,7295 -2550,13551 -7720,18638 -5099,5182 -11332,7720 -18721,7720l-40169 0 0 38162c0,7307 -2550,13551 -7720,18639 -5099,5181 -11332,7731 -18733,7731l-262614 0c14354,-9691 27114,-21566 37773,-35164l216047 0c0,-122702 0,-303609 0,-426311l-351969 0 0 159684c-12111,448 -23903,2172 -35235,5087l0 -173565c0,-7295 2550,-13551 7732,-18638 5087,-5182 11319,-7720 18638,-7720l40240 0 0 -38162c0,-7307 2549,-13551 7731,-18638 5088,-5182 11320,-7732 18639,-7732l369640 0c7389,0 13622,2550 18721,7732 5170,5087 7720,11331 7720,18638 0,128568 0,315319 0,443899zm-66610 -8794l31375 0c0,-122702 0,-303609 0,-426311l-351970 0 0 29368 294142 0c7401,0 13634,2538 18733,7720 5170,5087 7720,11343 7720,18638l0 370585zm-180187 -165326c0,-19347 -15688,-35022 -35034,-35022 -19335,0 -35011,15675 -35011,35022 0,19311 15676,34999 35011,34999 19346,0 35034,-15688 35034,-34999zm103792 -8227l-10801 12807c-885,1050 -2136,1711 -3635,1912l-508 0c-1511,0 -2715,-413 -3635,-1192l-120224 -100239 -91126 75982c-9372,-4781 -19264,-8700 -29569,-11639l107463 -89568c3730,-2998 8145,-4509 13232,-4509 5088,0 9491,1511 13174,4509l42388 35447 0 -33889c0,-1605 519,-2904 1570,-3990 1038,-1038 2384,-1558 3989,-1558l33370 0c1593,0 2951,520 3990,1558 1038,1086 1558,2385 1558,3990l0 70883 38091 31646c1133,944 1747,2184 1865,3742 154,1558 -260,2915 -1192,4108z"/>
  <rect class="fil1" x="-2" y="-1" width="639607" height="639607"/>
 </g>
</svg>
