<?xml version="1.0" encoding="UTF-8"?>
<!DOCTYPE svg PUBLIC "-//W3C//DTD SVG 1.1//EN" "http://www.w3.org/Graphics/SVG/1.1/DTD/svg11.dtd">
<!-- Creator: CorelDRAW X8 -->
<svg xmlns="http://www.w3.org/2000/svg" xml:space="preserve" width="64px" height="64px" version="1.1" style="shape-rendering:geometricPrecision; text-rendering:geometricPrecision; image-rendering:optimizeQuality; fill-rule:evenodd; clip-rule:evenodd"
viewBox="0 0 639608 639608"
 xmlns:xlink="http://www.w3.org/1999/xlink">
 <defs>
  <style type="text/css">
   <![CDATA[
    .fil0 {fill:none}
    .fil1 {fill:black;fill-rule:nonzero}
   ]]>
  </style>
 </defs>
 <g id="Ebene_x0020_1">
  <metadata id="CorelCorpID_0Corel-Layer"/>
  <rect class="fil0" x="-2" y="-1" width="639607" height="639607"/>
  <g id="_2509272896976">
   <path class="fil1" d="M198637 473149l242334 0c9184,0 17636,-3801 23656,-9821 6043,-6043 9844,-14472 9844,-23655l0 -239762c0,-9183 -3801,-17599 -9844,-23655 -6020,-6008 -14472,-9809 -23656,-9809l-242334 0c-9184,0 -17635,3801 -23655,9809 -6044,6056 -9845,14472 -9845,23655l0 239762c0,9183 3801,17612 9845,23655 6020,6020 14471,9821 23655,9821zm242334 40216l-242334 0c-20303,0 -38788,-8298 -52091,-21601 -13327,-13327 -21625,-31788 -21625,-52091l0 -239762c0,-20290 8298,-38752 21625,-52090 13303,-13292 31788,-21590 52091,-21590l242334 0c20291,0 38788,8298 52091,21590 13327,13338 21625,31800 21625,52090l0 239762c0,20303 -8298,38764 -21625,52091 -13303,13303 -31800,21601 -52091,21601z"/>
   <path class="fil1" d="M449022 245463c3246,3211 4851,7129 4851,11733 0,4651 -1605,8522 -4851,11768l-125228 125217 -23502 23489c-3258,3258 -7188,4864 -11780,4864 -4604,0 -8523,-1606 -11781,-4864l-23501 -23489 -62608 -62608c-3258,-3258 -4863,-7130 -4863,-11781 0,-4591 1605,-8522 4863,-11721l23501 -23549c3258,-3211 7177,-4863 11781,-4863 4591,0 8522,1652 11780,4863l50828 51029 113436 -113637c3258,-3199 7188,-4851 11780,-4851 4604,0 8522,1652 11780,4851l23514 23549z"/>
  </g>
 </g>
</svg>
