<?xml version="1.0" encoding="UTF-8"?>
<!DOCTYPE svg PUBLIC "-//W3C//DTD SVG 1.1//EN" "http://www.w3.org/Graphics/SVG/1.1/DTD/svg11.dtd">
<!-- Creator: CorelDRAW X8 -->
<svg xmlns="http://www.w3.org/2000/svg" xml:space="preserve" width="64px" height="64px" version="1.1" style="shape-rendering:geometricPrecision; text-rendering:geometricPrecision; image-rendering:optimizeQuality; fill-rule:evenodd; clip-rule:evenodd"
viewBox="0 0 471676 471676"
 xmlns:xlink="http://www.w3.org/1999/xlink">
 <defs>
  <style type="text/css">
   <![CDATA[
    .fil4 {fill:none}
    .fil3 {fill:#5B5B5B}
    .fil1 {fill:#C6C6C6}
    .fil0 {fill:#096392;fill-rule:nonzero}
    .fil2 {fill:#5B5B5B;fill-rule:nonzero}
   ]]>
  </style>
 </defs>
 <g id="Ebene_x0020_1">
  <metadata id="CorelCorpID_0Corel-Layer"/>
  <g id="_2311321300144">
   <path class="fil0" d="M167001 171727c0,-3316 -2559,-5875 -5841,-5875l-11543 0c-3273,0 -5840,2559 -5840,5875l0 64294 -40904 0c-3264,0 -5815,2524 -5815,5815l0 11542c0,3256 2551,5824 5815,5824l34923 0c5154,-12492 12727,-23738 22137,-33148 2254,-2255 4613,-4405 7068,-6433l0 -47894zm-29936 163067c-51671,-3447 -92636,-46510 -92636,-98773 0,-54805 44551,-99356 99348,-99356 40468,0 75418,24556 90747,59619l43410 -9c-17096,-58096 -70717,-100462 -134157,-100462 -77447,0 -140182,62735 -140182,140208 0,77159 62735,139842 140182,139842 7129,0 14145,-549 20987,-1576 -1646,-1445 -3247,-2942 -4797,-4491 -9880,-9889 -17740,-21780 -22902,-35002z"/>
   <path class="fil1" d="M231816 233087l244 9 163615 0 244 -9c35794,-452 64815,29022 64815,64816 0,35803 -29021,64824 -64815,64824l-244 -8 -163615 0 -244 8c-35794,0 -64815,-29021 -64815,-64824 0,-35794 29021,-64816 64815,-64816z"/>
   <path class="fil2" d="M232060 240469l-244 -35c-15860,26 -30222,6450 -40616,16818 -10402,10428 -16826,24791 -16826,40651 0,15860 6433,30232 16826,40625 10385,10385 24756,16826 40616,16826 34619,-1236 134306,-4230 164103,26 15860,-26 30231,-6467 40616,-16852 10393,-10393 16826,-24765 16826,-40625l26 -749c-191,-15572 -6607,-29787 -16861,-40085 -10193,-10246 -24251,-16617 -39798,-16617 -52298,-2490 -111578,17 -164668,17zm0 -14728c54771,-9 109889,591 164607,0 19656,-35 37396,8017 50288,20969 12839,12892 20874,30711 21109,50270l8 862c35,19986 -8043,38049 -21109,51114 -13048,13049 -31111,21144 -51044,21144 -29779,-4256 -129484,-1236 -164103,0 -19933,0 -37996,-8095 -51044,-21144 -13066,-13065 -21144,-31128 -21144,-51053 0,-19908 8095,-37944 21144,-51010 13100,-13083 31137,-21179 51044,-21179l244 27z"/>
   <ellipse class="fil3" cx="395267" cy="297904" rx="44221" ry="44222"/>
  </g>
  <rect class="fil4" x="-1" y="-1" width="471675" height="471676"/>
 </g>
</svg>
