<?xml version="1.0" encoding="UTF-8"?>
<!DOCTYPE svg PUBLIC "-//W3C//DTD SVG 1.1//EN" "http://www.w3.org/Graphics/SVG/1.1/DTD/svg11.dtd">
<!-- Creator: CorelDRAW X8 -->
<svg xmlns="http://www.w3.org/2000/svg" xml:space="preserve" width="64px" height="64px" version="1.1" style="shape-rendering:geometricPrecision; text-rendering:geometricPrecision; image-rendering:optimizeQuality; fill-rule:evenodd; clip-rule:evenodd"
viewBox="0 0 263851 263851"
 xmlns:xlink="http://www.w3.org/1999/xlink">
 <defs>
  <style type="text/css">
   <![CDATA[
    .fil3 {fill:none}
    .fil2 {fill:#009846}
    .fil0 {fill:#B6DC70}
    .fil1 {fill:#009846;fill-rule:nonzero}
   ]]>
  </style>
 </defs>
 <g id="Ebene_x0020_1">
  <metadata id="CorelCorpID_0Corel-Layer"/>
  <g id="_2311718157056">
   <path class="fil0" d="M202253 76371l-204 0 -140252 0 -205 0c-30681,-390 -55559,24873 -55559,55559 0,30687 24878,55559 55559,55559l205 0 140252 0 204 0c30687,0 55564,-24872 55564,-55559 0,-30686 -24877,-55559 -55564,-55559z"/>
   <path class="fil1" d="M202253 80495c-46322,0 -95381,1573 -141362,-24 -13926,19 -26518,5731 -35663,14915 -9174,9217 -14910,21926 -15085,35872l-5 672c19,14199 5780,27064 15085,36369 9306,9306 22170,15066 36369,15066l140661 0c14204,0 27069,-5760 36374,-15066 9306,-9305 15066,-22170 15066,-36369 0,-14199 -5760,-27064 -15066,-36369 -9305,-9305 -22170,-15066 -36374,-15066zm-204 -8248l204 0c16478,0 31408,6680 42208,17480 10800,10801 17481,25720 17481,42203 0,16483 -6681,31403 -17481,42203 -10800,10800 -25730,17481 -42208,17481l-140661 0c-16482,0 -31402,-6681 -42202,-17481 -10800,-10800 -17481,-25720 -17481,-42203l24 -735c200,-16210 6842,-30935 17462,-41604 10649,-10693 25306,-17349 41496,-17349 45884,1592 94918,5 141158,5z"/>
   <circle class="fil2" cx="202144" cy="131927" r="41723"/>
  </g>
  <rect class="fil3" x="-1" width="263850" height="263850"/>
 </g>
</svg>
