<?xml version="1.0" encoding="UTF-8"?>
<!DOCTYPE svg PUBLIC "-//W3C//DTD SVG 1.1//EN" "http://www.w3.org/Graphics/SVG/1.1/DTD/svg11.dtd">
<!-- Creator: CorelDRAW X8 -->
<svg xmlns="http://www.w3.org/2000/svg" xml:space="preserve" width="64px" height="64px" version="1.1" style="shape-rendering:geometricPrecision; text-rendering:geometricPrecision; image-rendering:optimizeQuality; fill-rule:evenodd; clip-rule:evenodd"
viewBox="0 0 373589 373589"
 xmlns:xlink="http://www.w3.org/1999/xlink">
 <defs>
  <style type="text/css">
   <![CDATA[
    .fil3 {fill:none}
    .fil2 {fill:#8A1214}
    .fil0 {fill:#E31E24}
    .fil1 {fill:#8A1214;fill-rule:nonzero}
   ]]>
  </style>
 </defs>
 <g id="Ebene_x0020_1">
  <metadata id="CorelCorpID_0Corel-Layer"/>
  <g id="_2311321275888">
   <path class="fil0" d="M286372 108127l-289 0 -198584 0 -290 0c-43442,-551 -78667,35218 -78667,78667 0,43450 35225,78674 78667,78674l290 -7 198584 0 289 7c43450,0 78674,-35224 78674,-78674 0,-43449 -35224,-78667 -78674,-78667z"/>
   <path class="fil1" d="M286372 113967c-65587,0 -135050,2227 -200156,-34 -19718,27 -37547,8115 -50495,21118 -12990,13051 -21111,31046 -21360,50792l-7 951c28,20112 8184,38327 21360,51503 13175,13175 31391,21331 51495,21331 51123,6971 142104,-2564 199163,28 20112,-28 38327,-8184 51503,-21359 13175,-13176 21332,-31391 21332,-51503 0,-20104 -8157,-38320 -21332,-51495 -13176,-13176 -31391,-21332 -51503,-21332zm-289 -11679l289 0c23332,0 44470,9459 59763,24751 15292,15292 24751,36417 24751,59755 0,23332 -9459,44470 -24751,59762 -15293,15293 -36431,24752 -59763,24752 -4371,-876 -194812,-869 -199163,0 -23338,0 -44463,-9459 -59755,-24752 -15292,-15292 -24751,-36430 -24751,-59762l34 -1041c283,-22952 9687,-43801 24724,-58907 15078,-15140 35831,-24565 58755,-24565 64968,2254 134396,7 199867,7z"/>
   <circle class="fil2" cx="88001" cy="186792" r="59076"/>
  </g>
  <rect class="fil3" x="-1" y="-1" width="373588" height="373588"/>
 </g>
</svg>
