<?xml version="1.0" encoding="UTF-8"?>
<!DOCTYPE svg PUBLIC "-//W3C//DTD SVG 1.1//EN" "http://www.w3.org/Graphics/SVG/1.1/DTD/svg11.dtd">
<!-- Creator: CorelDRAW X8 -->
<svg xmlns="http://www.w3.org/2000/svg" xml:space="preserve" width="64px" height="32px" version="1.1" style="shape-rendering:geometricPrecision; text-rendering:geometricPrecision; image-rendering:optimizeQuality; fill-rule:evenodd; clip-rule:evenodd"
viewBox="0 0 1029517 514768"
 xmlns:xlink="http://www.w3.org/1999/xlink">
 <defs>
  <style type="text/css">
   <![CDATA[
    .fil0 {fill:#EE7476}
    .fil1 {fill:#E31E24;fill-rule:nonzero}
   ]]>
  </style>
 </defs>
 <g id="Ebene_x0020_1">
  <metadata id="CorelCorpID_0Corel-Layer"/>
  <rect class="fil0" x="15602" y="16092" width="998307" height="482583" rx="177442" ry="85776"/>
  <path class="fil1" d="M98816 0l831885 0c27207,0 51925,11476 69804,29905 17878,18524 29012,44002 29012,71969l0 311019c0,27967 -11134,53446 -29050,71932 -17841,18467 -42559,29943 -69766,29943l-831885 0c-27208,0 -51926,-11476 -69804,-29905 -17878,-18524 -29012,-44003 -29012,-71970l0 -311019c0,-27967 11134,-53445 29050,-71931 17840,-18467 42558,-29943 69766,-29943zm831885 32185l-831885 0c-18563,0 -35491,7866 -47727,20481 -12273,12578 -19873,30038 -19873,49208l0 311019c0,19171 7600,36631 19797,49209 12312,12615 29240,20481 47803,20481l831885 0c18562,0 35491,-7866 47726,-20481 12274,-12578 19874,-30038 19874,-49209l0 -311019c0,-19170 -7600,-36630 -19798,-49208 -12311,-12615 -29240,-20481 -47802,-20481z"/>
 </g>
</svg>
