<?xml version="1.0" encoding="UTF-8"?>
<!DOCTYPE svg PUBLIC "-//W3C//DTD SVG 1.1//EN" "http://www.w3.org/Graphics/SVG/1.1/DTD/svg11.dtd">
<!-- Creator: CorelDRAW X8 -->
<svg xmlns="http://www.w3.org/2000/svg" xml:space="preserve" width="64px" height="64px" version="1.1" style="shape-rendering:geometricPrecision; text-rendering:geometricPrecision; image-rendering:optimizeQuality; fill-rule:evenodd; clip-rule:evenodd"
viewBox="0 0 373589 373589"
 xmlns:xlink="http://www.w3.org/1999/xlink">
 <defs>
  <style type="text/css">
   <![CDATA[
    .fil0 {fill:none}
    .fil1 {fill:#2B2A29;fill-rule:nonzero}
   ]]>
  </style>
 </defs>
 <g id="Ebene_x0020_1">
  <metadata id="CorelCorpID_0Corel-Layer"/>
  <rect class="fil0" x="-1" y="-1" width="373588" height="373588"/>
  <path class="fil1" d="M186794 147447c10852,0 20698,4406 27820,11528 7122,7122 11528,16967 11528,27819 0,10852 -4406,20698 -11528,27820 -7122,7122 -16968,11528 -27820,11528 -10852,0 -20697,-4406 -27819,-11528 -7122,-7122 -11528,-16968 -11528,-27820 0,-10852 4406,-20697 11528,-27819 7122,-7122 16967,-11528 27819,-11528zm11135 28213c-2841,-2841 -6784,-4606 -11135,-4606 -4350,0 -8294,1765 -11134,4606 -2841,2840 -4606,6784 -4606,11134 0,4351 1765,8294 4606,11135 2840,2841 6784,4606 11134,4606 4351,0 8294,-1765 11135,-4606 2841,-2841 4606,-6784 4606,-11135 0,-4350 -1765,-8294 -4606,-11134z"/>
  <path class="fil1" d="M186794 54315c36528,0 69642,14837 93615,38803l62 62c23965,23972 38802,57087 38802,93614 0,36542 -14837,69642 -38802,93615l-62 62c-23973,23965 -57087,38802 -93615,38802 -36541,0 -69642,-14837 -93614,-38802l-62 -62c-23966,-23973 -38803,-57073 -38803,-93615 0,-36527 14837,-69642 38803,-93614l62 -62c23972,-23966 57073,-38803 93614,-38803zm71462 61017c-18284,-18263 -43546,-29564 -71462,-29564 -27916,0 -53177,11301 -71462,29564 -18263,18285 -29564,43546 -29564,71462 0,27916 11301,53178 29564,71462 18285,18264 43546,29564 71462,29564 27916,0 53178,-11300 71462,-29564 18264,-18284 29564,-43546 29564,-71462 0,-27916 -11300,-53177 -29564,-71462z"/>
 </g>
</svg>
