<?xml version="1.0" encoding="UTF-8"?>
<!DOCTYPE svg PUBLIC "-//W3C//DTD SVG 1.1//EN" "http://www.w3.org/Graphics/SVG/1.1/DTD/svg11.dtd">
<!-- Creator: CorelDRAW Home & Student X8 -->
<svg xmlns="http://www.w3.org/2000/svg" xml:space="preserve" width="64px" height="64px" version="1.1" style="shape-rendering:geometricPrecision; text-rendering:geometricPrecision; image-rendering:optimizeQuality; fill-rule:evenodd; clip-rule:evenodd"
viewBox="0 0 298540 298529"
 xmlns:xlink="http://www.w3.org/1999/xlink">
 <defs>
  <style type="text/css">
   <![CDATA[
    .fil0 {fill:none}
    .fil1 {fill:black;fill-rule:nonzero}
   ]]>
  </style>
 </defs>
 <g id="Ebene_x0020_1">
  <metadata id="CorelCorpID_0Corel-Layer"/>
  <rect class="fil0" y="1" width="298528" height="298529"/>
  <path class="fil1" d="M146791 185125c0,-2441 -1030,-4755 -2744,-6468l-64184 -64272c-1752,-1714 -4021,-2738 -6468,-2738 -2440,0 -4710,1024 -6468,2738l-64183 64272c-1714,1713 -2738,4027 -2738,6468 0,5013 4154,9167 9167,9167l128450 0c5014,0 9168,-4154 9168,-9167z"/>
  <path class="fil1" d="M298540 113399c0,-5014 -4154,-9173 -9168,-9173l-128450 0c-5013,0 -9167,4159 -9167,9173 0,2440 1030,4754 2738,6468l64184 64266c1757,1714 4027,2744 6468,2744 2446,0 4716,-1030 6473,-2744l64184 -64266c1708,-1714 2738,-4028 2738,-6468z"/>
 </g>
</svg>
