<?xml version="1.0" encoding="UTF-8"?>
<!DOCTYPE svg PUBLIC "-//W3C//DTD SVG 1.1//EN" "http://www.w3.org/Graphics/SVG/1.1/DTD/svg11.dtd">
<!-- Creator: CorelDRAW X8 -->
<svg xmlns="http://www.w3.org/2000/svg" xml:space="preserve" width="64px" height="64px" version="1.1" style="shape-rendering:geometricPrecision; text-rendering:geometricPrecision; image-rendering:optimizeQuality; fill-rule:evenodd; clip-rule:evenodd"
viewBox="0 0 309274 309274"
 xmlns:xlink="http://www.w3.org/1999/xlink">
 <defs>
  <style type="text/css">
   <![CDATA[
    .fil1 {fill:none}
    .fil0 {fill:black;fill-rule:nonzero}
   ]]>
  </style>
 </defs>
 <g id="Ebene_x0020_1">
  <metadata id="CorelCorpID_0Corel-Layer"/>
  <path class="fil0" d="M194510 177975l40011 -38834 -55153 -8082 -24708 -49925 0 125848 49257 25998 -9407 -55005zm68857 -46682c0,1952 -1130,4023 -3396,6284l-47425 46254 11244 65387c75,582 115,1444 115,2614 0,4332 -1758,6518 -5348,6518 -1639,0 -3396,-548 -5229,-1564l-58668 -30832 -58709 30832c-1918,1016 -3636,1564 -5234,1564 -1792,0 -3202,-628 -4098,-1918 -902,-1244 -1370,-2808 -1370,-4600 0,-548 80,-1410 240,-2614l11238 -65387 -47544 -46254c-2186,-2340 -3277,-4452 -3277,-6284 0,-3202 2460,-5194 7335,-6011l65580 -9526 29435 -59445c1638,-3595 3784,-5388 6404,-5388 2614,0 4720,1793 6398,5388l29394 59445 65621 9526c4874,817 7294,2809 7294,6011z"/>
  <rect class="fil1" x="-1" width="309273" height="309273"/>
 </g>
</svg>
