<?xml version="1.0" encoding="UTF-8"?>
<!DOCTYPE svg PUBLIC "-//W3C//DTD SVG 1.1//EN" "http://www.w3.org/Graphics/SVG/1.1/DTD/svg11.dtd">
<!-- Creator: CorelDRAW X8 -->
<svg xmlns="http://www.w3.org/2000/svg" xml:space="preserve" width="64px" height="64px" version="1.1" style="shape-rendering:geometricPrecision; text-rendering:geometricPrecision; image-rendering:optimizeQuality; fill-rule:evenodd; clip-rule:evenodd"
viewBox="0 0 1508047 1508047"
 xmlns:xlink="http://www.w3.org/1999/xlink">
 <defs>
  <style type="text/css">
   <![CDATA[
    .fil1 {fill:none}
    .fil0 {fill:black;fill-rule:nonzero}
   ]]>
  </style>
 </defs>
 <g id="Ebene_x0020_1">
  <metadata id="CorelCorpID_0Corel-Layer"/>
  <path class="fil0" d="M1232214 793849c0,64707 -12663,126659 -37961,185633 -25465,58946 -59503,109709 -102084,152485 -42748,42776 -93707,76841 -152653,102112 -58945,25298 -120674,38128 -185576,38128 -64707,0 -126436,-12830 -185382,-38128 -58946,-25271 -109904,-59336 -152653,-102112 -42776,-42776 -76813,-93539 -102083,-152485 -25299,-58974 -37934,-120926 -37934,-185633 0,-75505 16726,-146752 50207,-213519 33286,-66961 80320,-122957 140936,-168126 17867,-13415 37572,-18619 59502,-15641 21764,2978 39047,13192 51877,31059 13387,17478 18424,37210 15252,58974 -2978,21736 -13387,39242 -30670,52628 -40745,30698 -72138,68242 -94486,112715 -22126,44446 -33286,91703 -33286,141910 0,43138 8377,84439 25298,123681 16727,39242 39437,73084 68075,101750 28610,28638 62647,51320 101889,68241 39214,16727 80320,25104 123458,25104 43333,0 84411,-8377 123653,-25104 39241,-16921 73084,-39603 101722,-68241 28638,-28666 51515,-62508 68241,-101750 16726,-39242 25271,-80543 25271,-123681 0,-50207 -11133,-97464 -33258,-141910 -22321,-44473 -53742,-82017 -94459,-112715 -17310,-13386 -27719,-30892 -30697,-52628 -3145,-21764 1865,-41496 15251,-58974 12830,-17867 30308,-28081 52239,-31059 21959,-2978 41663,2226 59141,15641 60615,45169 107678,101165 140963,168126 33453,66767 50207,138014 50207,213519zm-398483 -478191l0 398567c0,21597 -7820,40188 -23628,55996 -15808,15808 -34399,23628 -56163,23628 -21569,0 -40160,-7820 -55968,-23628 -15808,-15808 -23601,-34399 -23601,-55996l0 -398567c0,-21569 7793,-40354 23601,-56162 15808,-15641 34399,-23629 55968,-23629 21764,0 40355,7988 56163,23629 15808,15808 23628,34593 23628,56162z"/>
  <rect class="fil1" x="-5" y="-2" width="1508043" height="1508045"/>
 </g>
</svg>
