<?xml version="1.0" encoding="UTF-8"?>
<!DOCTYPE svg PUBLIC "-//W3C//DTD SVG 1.1//EN" "http://www.w3.org/Graphics/SVG/1.1/DTD/svg11.dtd">
<!-- Creator: CorelDRAW X8 -->
<svg xmlns="http://www.w3.org/2000/svg" xml:space="preserve" width="64px" height="64px" version="1.1" style="shape-rendering:geometricPrecision; text-rendering:geometricPrecision; image-rendering:optimizeQuality; fill-rule:evenodd; clip-rule:evenodd"
viewBox="0 0 373589 373589"
 xmlns:xlink="http://www.w3.org/1999/xlink">
 <defs>
  <style type="text/css">
   <![CDATA[
    .fil1 {fill:none}
    .fil0 {fill:black;fill-rule:nonzero}
   ]]>
  </style>
 </defs>
 <g id="Ebene_x0020_1">
  <metadata id="CorelCorpID_0Corel-Layer"/>
  <path class="fil0" d="M234953 214979l48331 -46910 -66629 -9763 -29847 -60307 -29846 60307 -66629 9763 48289 46910 -11507 66443 59693 -31405 59507 31405 -11362 -66443zm83176 -56390c0,2358 -1365,4860 -4102,7591l-57287 55873 13582 78984c90,703 138,1745 138,3158 0,5233 -2124,7873 -6460,7873 -1979,0 -4103,-661 -6316,-1889l-70876 -37244 -70917 37244c-2310,1228 -4385,1889 -6316,1889 -2172,0 -3868,-758 -4950,-2316 -1089,-1503 -1655,-3392 -1655,-5557 0,-662 97,-1703 290,-3158l13575 -78984 -57431 -55873c-2641,-2827 -3958,-5378 -3958,-7591 0,-3868 2965,-6274 8860,-7260l79218 -11507 35548 -71807c1986,-4344 4578,-6509 7736,-6509 3158,0 5709,2165 7736,6509l35507 71807 79260 11507c5895,986 8818,3392 8818,7260z"/>
  <rect class="fil1" x="-1" y="-1" width="373588" height="373588"/>
 </g>
</svg>
