<?xml version="1.0" encoding="UTF-8"?>
<!DOCTYPE svg PUBLIC "-//W3C//DTD SVG 1.1//EN" "http://www.w3.org/Graphics/SVG/1.1/DTD/svg11.dtd">
<!-- Creator: CorelDRAW X8 -->
<svg xmlns="http://www.w3.org/2000/svg" xml:space="preserve" width="64px" height="64px" version="1.1" style="shape-rendering:geometricPrecision; text-rendering:geometricPrecision; image-rendering:optimizeQuality; fill-rule:evenodd; clip-rule:evenodd"
viewBox="0 0 263851 263851"
 xmlns:xlink="http://www.w3.org/1999/xlink">
 <defs>
  <style type="text/css">
   <![CDATA[
    .fil1 {fill:none}
    .fil0 {fill:black;fill-rule:nonzero}
   ]]>
  </style>
 </defs>
 <g id="Ebene_x0020_1">
  <metadata id="CorelCorpID_0Corel-Layer"/>
  <path class="fil0" d="M224686 112005c0,1665 -964,3433 -2897,5361l-40459 39461 9592 55783c64,497 98,1232 98,2231 0,1529 -365,2863 -1169,3924 -764,1101 -1894,1636 -3394,1636 -1397,0 -2897,-467 -4460,-1334l-50057 -26304 -50081 26304c-1636,867 -3102,1334 -4466,1334 -1533,0 -2731,-535 -3496,-1636 -769,-1061 -1168,-2395 -1168,-3924 0,-468 68,-1203 204,-2231l9588 -55783 -40562 -39461c-1865,-1997 -2795,-3798 -2795,-5361 0,-2732 2094,-4431 6257,-5128l55949 -8127 25106 -50714c1403,-3068 3234,-4597 5464,-4597 2230,0 4032,1529 5463,4597l25077 50714 55983 8127c4159,697 6223,2396 6223,5128z"/>
  <rect class="fil1" x="-1" width="263850" height="263850"/>
 </g>
</svg>
