<?xml version="1.0" encoding="UTF-8"?>
<!DOCTYPE svg PUBLIC "-//W3C//DTD SVG 1.1//EN" "http://www.w3.org/Graphics/SVG/1.1/DTD/svg11.dtd">
<!-- Creator: CorelDRAW X8 -->
<svg xmlns="http://www.w3.org/2000/svg" xml:space="preserve" width="64px" height="64px" version="1.1" style="shape-rendering:geometricPrecision; text-rendering:geometricPrecision; image-rendering:optimizeQuality; fill-rule:evenodd; clip-rule:evenodd"
viewBox="0 0 3356268 3356268"
 xmlns:xlink="http://www.w3.org/1999/xlink">
 <defs>
  <style type="text/css">
   <![CDATA[
    .fil0 {fill:none}
    .fil1 {fill:#EB9674}
    .fil2 {fill:black;fill-rule:nonzero}
   ]]>
  </style>
 </defs>
 <g id="Ebene_x0020_1">
  <metadata id="CorelCorpID_0Corel-Layer"/>
  <rect class="fil0" x="31" y="31" width="3356206" height="3356206"/>
  <g id="_1860545671776">
   <path class="fil1" d="M243724 3160360c953589,0 1907427,0 2861202,0 238769,9476 318606,-128954 190891,-330684l-1430570 -2477933c-109567,-208915 -248617,-208482 -379800,1486l-1431747 2480535c-113965,216595 -44471,336072 190024,326596z"/>
   <path class="fil2" d="M1708917 1331036c61008,0 116257,9167 166426,27501 49860,18271 92535,43728 128149,76926 35242,33199 62742,72900 82377,119663 19634,46763 29172,98295 29172,154596 0,48126 -6813,93216 -20687,134528 -13936,41375 -32579,80705 -55620,117991 -23350,37596 -50479,73892 -81324,109134 -31216,35614 -64105,71166 -98295,106780l-280329 293212c29792,-9476 59646,-16599 89438,-21368 29854,-5079 57664,-7432 83430,-7432l298972 0c25085,0 45400,7122 61009,21678 15608,14555 23412,33879 23412,57602l0 143075 -891838 0 0 -80333c0,-15236 3035,-31898 9477,-49178 6441,-17590 17280,-33880 33198,-49117l383393 -394232c32517,-33879 61008,-66087 85722,-96622 25084,-30164 45771,-60637 62742,-90862 16971,-30164 29482,-60328 38278,-91172 8485,-30845 12883,-63053 12883,-96933 0,-61008 -15237,-106780 -45710,-137934 -30535,-31217 -73582,-46825 -129202,-46825 -23722,0 -45710,3778 -65406,10839 -20006,7494 -37596,17342 -53576,29854 -15918,12573 -29482,27438 -40631,44719 -11520,17342 -20006,35985 -26137,55620 -10468,30535 -24713,50479 -43047,59645 -18271,9167 -43356,11211 -74882,6132l-127158 -22050c9848,-64043 27810,-120344 53576,-168160 25766,-48125 57973,-88075 96932,-120282 38649,-32208 83058,-56302 133599,-72591 50170,-16228 104055,-24404 161657,-24404z"/>
  </g>
 </g>
</svg>
