<?xml version="1.0" encoding="UTF-8"?>
<!DOCTYPE svg PUBLIC "-//W3C//DTD SVG 1.1//EN" "http://www.w3.org/Graphics/SVG/1.1/DTD/svg11.dtd">
<!-- Creator: CorelDRAW X8 -->
<svg xmlns="http://www.w3.org/2000/svg" xml:space="preserve" width="64px" height="64px" version="1.1" style="shape-rendering:geometricPrecision; text-rendering:geometricPrecision; image-rendering:optimizeQuality; fill-rule:evenodd; clip-rule:evenodd"
viewBox="0 0 309274 309274"
 xmlns:xlink="http://www.w3.org/1999/xlink">
 <defs>
  <style type="text/css">
   <![CDATA[
    .fil2 {fill:none;fill-rule:nonzero}
    .fil0 {fill:#E31E24}
    .fil1 {fill:white;fill-rule:nonzero}
   ]]>
  </style>
 </defs>
 <g id="Ebene_x0020_1">
  <metadata id="CorelCorpID_0Corel-Layer"/>
  <path class="fil0" d="M102246 14492l104793 0c2203,0 8082,2437 9645,4001l74103 74102c1564,1564 3989,7437 3989,9646l0 104792c0,2209 -2431,8088 -3989,9651l-74103 74097c-1563,1570 -7442,4001 -9645,4001l-104793 0c-2208,0 -8093,-2431 -9651,-3990l-74102 -74108c-1564,-1558 -4001,-7437 -4001,-9651l0 -104792c0,-2209 2437,-8082 3995,-9646l74108 -74102c1558,-1564 7437,-4001 9651,-4001l0 0z"/>
  <path class="fil1" d="M123068 200532l25022 0 0 -72447c0,-2991 103,-6113 303,-9338l-16849 14486c-1096,931 -2192,1467 -3288,1667 -1130,194 -2163,194 -3128,0 -964,-200 -1826,-537 -2591,-1033 -730,-463 -1296,-999 -1695,-1496l-7409 -10136 38847 -33698 19274 0 0 111989 22100 0 0 17511 -70586 0 0 -17511 0 6z"/>
  <rect class="fil2" x="2" y="3" width="309270" height="309272"/>
 </g>
</svg>
