<?xml version="1.0" encoding="UTF-8"?>
<!DOCTYPE svg PUBLIC "-//W3C//DTD SVG 1.1//EN" "http://www.w3.org/Graphics/SVG/1.1/DTD/svg11.dtd">
<!-- Creator: CorelDRAW X8 -->
<svg xmlns="http://www.w3.org/2000/svg" xml:space="preserve" width="64px" height="64px" version="1.1" style="shape-rendering:geometricPrecision; text-rendering:geometricPrecision; image-rendering:optimizeQuality; fill-rule:evenodd; clip-rule:evenodd"
viewBox="0 0 3356268 3356268"
 xmlns:xlink="http://www.w3.org/1999/xlink">
 <defs>
  <style type="text/css">
   <![CDATA[
    .fil0 {fill:none}
    .fil1 {fill:#A0E6C8}
    .fil2 {fill:black;fill-rule:nonzero}
   ]]>
  </style>
 </defs>
 <g id="Ebene_x0020_1">
  <metadata id="CorelCorpID_0Corel-Layer"/>
  <rect class="fil0" x="31" y="31" width="3356206" height="3356206"/>
  <g id="_1860501973648">
   <path class="fil1" d="M243724 195908c953589,0 1907427,0 2861202,0 238769,-9476 318606,128954 190891,330684l-1430570 2477933c-109567,208915 -248617,208482 -379800,-1486l-1431747 -2480534c-113965,-216596 -44471,-336073 190024,-326597z"/>
   <path class="fil2" d="M1948801 1497710l151871 0 0 136944c0,13193 -4088,24403 -12883,33570 -8486,9477 -20316,13874 -35614,13874l-103374 0 0 316934 -208482 0 0 -316934 -535201 0c-15299,0 -29173,-4769 -41375,-14245 -12201,-9477 -20005,-22050 -23412,-37287l-24713 -119973 604696 -831510 228487 0 0 818627zm-208482 -408477c0,-19015 372,-40012 1363,-63053 1053,-22731 3035,-46453 6441,-70856l-380296 542386 372492 0 0 -408477z"/>
  </g>
 </g>
</svg>
