<?xml version="1.0" encoding="UTF-8"?>
<!DOCTYPE svg PUBLIC "-//W3C//DTD SVG 1.1//EN" "http://www.w3.org/Graphics/SVG/1.1/DTD/svg11.dtd">
<!-- Creator: CorelDRAW X8 -->
<svg xmlns="http://www.w3.org/2000/svg" xml:space="preserve" width="64px" height="64px" version="1.1" style="shape-rendering:geometricPrecision; text-rendering:geometricPrecision; image-rendering:optimizeQuality; fill-rule:evenodd; clip-rule:evenodd"
viewBox="0 0 229362963 229324868"
 xmlns:xlink="http://www.w3.org/1999/xlink">
 <defs>
  <style type="text/css">
   <![CDATA[
    .fil0 {fill:none}
    .fil1 {fill:#009846}
    .fil2 {fill:white;fill-rule:nonzero}
   ]]>
  </style>
 </defs>
 <g id="Ebene_x0020_1">
  <metadata id="CorelCorpID_0Corel-Layer"/>
  <rect class="fil0" x="59496" y="18362" width="229288486" height="229288144"/>
  <path class="fil1" d="M5007407 103813757l99657143 -99657143c5544974,-5540741 14531217,-5540741 20071958,4233l100469841 100465608c5540741,5540741 5540741,14526984 0,20067725l-100469841 100474074c-5540741,5536508 -14526984,5536508 -20071958,-4233l-100469841 -100465608c-6243386,-6247619 -5138624,-14920635 812698,-20884656z"/>
  <path class="fil2" d="M130061376 67796825c3390476,1223281 6256084,2920635 8588359,5053969 2349207,2141799 4139683,4639153 5409524,7504762 1269842,2874074 1904762,5955555 1904762,9202116 0,2895238 -304762,5460317 -939682,7669841 -613757,2184127 -1528043,4114286 -2730159,5786244 -1176720,1642328 -2658201,3034920 -4402117,4190476 -1735449,1151323 -3716402,2091005 -5925925,2819047 10421164,3555556 15644444,10607408 15644444,21172487 0,4634921 -846561,8706879 -2518519,12228572 -1667724,3508994 -3928042,6476190 -6751322,8850793 -2827513,2400000 -6116402,4186244 -9858201,5384127 -3737566,1202117 -7691006,1790476 -11809524,1790476 -4372487,0 -8232804,-520634 -11551323,-1506878 -3339682,-1011640 -6256085,-2539682 -8753439,-4584127 -2514286,-2048677 -4651852,-4592592 -6488889,-7623280 -1811640,-3034921 -3365079,-6543916 -4634921,-10539683l7293122 -3106878c1925926,-774603 3741799,-990476 5409524,-588360 1671958,397884 2869841,1295238 3551323,2730159 825397,1549206 1693121,3009524 2611640,4372487 918518,1341799 1972487,2539682 3153439,3580952 1151323,1028571 2518519,1853968 4021164,2442328 1532275,613757 3267725,897355 5248677,897355 2421164,0 4562963,-402117 6374604,-1197884 1807407,-804233 3314285,-1862434 4516402,-3178836 1176719,-1295238 2069841,-2776720 2683598,-4444444 588359,-1646561 893121,-3293122 893121,-4969313 0,-2112169 -190476,-4042328 -588360,-5782010 -402116,-1743916 -1269841,-3250794 -2615873,-4469842 -1358730,-1248677 -3339682,-2213756 -5972486,-2895238 -2611641,-706878 -6162963,-1032804 -10683598,-1032804l0 -11788360c3767196,-46560 6869841,-397883 9269841,-1037037 2425397,-660317 4304762,-1549206 5693122,-2730158 1388359,-1172487 2328042,-2560847 2823280,-4165080 516402,-1616931 753439,-3407407 753439,-5384127 0,-4165079 -1032804,-7318518 -3128042,-9434920 -2095238,-2116403 -5011640,-3174604 -8800000,-3174604 -3339683,0 -6137566,939683 -8397884,2823281 -2260317,1883598 -3809523,4211640 -4681481,6962963 -732275,2116402 -1718519,3504762 -2941799,4139682 -1202116,634921 -2937566,774604 -5197884,427514l-8753439 -1532276c634921,-4444444 1862434,-8351322 3648677,-11669841 1786244,-3335450 4042328,-6112169 6751323,-8351323 2725926,-2234920 5811640,-3902645 9269841,-5037037 6907937,-2239153 15767196,-2336508 22611641,194709z"/>
 </g>
</svg>
