<?xml version="1.0" encoding="UTF-8"?>
<!DOCTYPE svg PUBLIC "-//W3C//DTD SVG 1.1//EN" "http://www.w3.org/Graphics/SVG/1.1/DTD/svg11.dtd">
<!-- Creator: CorelDRAW X8 -->
<svg xmlns="http://www.w3.org/2000/svg" xml:space="preserve" width="64px" height="64px" version="1.1" style="shape-rendering:geometricPrecision; text-rendering:geometricPrecision; image-rendering:optimizeQuality; fill-rule:evenodd; clip-rule:evenodd"
viewBox="0 0 562939 562939"
 xmlns:xlink="http://www.w3.org/1999/xlink">
 <defs>
  <style type="text/css">
   <![CDATA[
    .fil1 {fill:none}
    .fil0 {fill:black;fill-rule:nonzero}
   ]]>
  </style>
 </defs>
 <g id="Ebene_x0020_1">
  <metadata id="CorelCorpID_0Corel-Layer"/>
  <path class="fil0" d="M452150 344593l0 18201c0,15646 -5277,28903 -15812,39863 -10545,10950 -23302,16383 -38211,16383l-15739 0 -71643 74209 0 -74209 -145840 0c-14909,0 -27677,-5433 -38221,-16383 -10618,-10960 -15885,-24217 -15885,-39863l0 -18201 341351 0zm0 -89855l0 70334 -341351 0 0 -70334 341351 0zm0 -90426l0 70334 -341351 0 0 -70334 341351 0zm0 -38626l0 18451 -341351 0 0 -18451c0,-15490 5267,-28663 15885,-39530 10544,-10960 23312,-16477 38221,-16477l233222 0c14909,0 27666,5517 38211,16477 10535,10867 15812,24040 15812,39530z"/>
  <rect class="fil1" x="-2" y="-1" width="562937" height="562938"/>
 </g>
</svg>
