<?xml version="1.0" encoding="UTF-8"?>
<!DOCTYPE svg PUBLIC "-//W3C//DTD SVG 1.1//EN" "http://www.w3.org/Graphics/SVG/1.1/DTD/svg11.dtd">
<!-- Creator: CorelDRAW X8 -->
<svg xmlns="http://www.w3.org/2000/svg" xml:space="preserve" width="64px" height="64px" version="1.1" style="shape-rendering:geometricPrecision; text-rendering:geometricPrecision; image-rendering:optimizeQuality; fill-rule:evenodd; clip-rule:evenodd"
viewBox="0 0 373589 373589"
 xmlns:xlink="http://www.w3.org/1999/xlink">
 <defs>
  <style type="text/css">
   <![CDATA[
    .fil1 {fill:none}
    .fil0 {fill:black}
   ]]>
  </style>
 </defs>
 <g id="Ebene_x0020_1">
  <metadata id="CorelCorpID_0Corel-Layer"/>
  <path class="fil0" d="M114905 96069l-33025 78005 0 0 209836 0 -33025 -78005c-47931,0 -95855,0 -143786,0zm156410 -17430l38706 95435c7839,21 15133,6501 14258,14320l-10445 92263c-904,7818 -6461,14299 -14327,14299l-225446 0c-7853,0 -13416,-6488 -14299,-14299l-10452 -92263c-896,-7819 6398,-14299 14258,-14320l38706 -95435c56349,0 112698,0 169041,0zm-43436 153687c-1338,-5012 1648,-10176 6667,-11514 5019,-1337 10163,1648 11514,6667l5067 18919c1331,5012 -1634,10176 -6653,11514 -813,227 -1634,331 -2420,331l0 0 -110513 0c-5184,0 -9404,-4220 -9404,-9398 0,-1027 166,-2027 462,-2950l4950 -18416c1338,-5019 6481,-8004 11500,-6667 5020,1338 8005,6502 6668,11514l-1903 7088 85968 0 -1903 -7088 0 0z"/>
  <rect class="fil1" x="-1" y="-1" width="373588" height="373588"/>
 </g>
</svg>
