<?xml version="1.0" encoding="UTF-8"?>
<!DOCTYPE svg PUBLIC "-//W3C//DTD SVG 1.1//EN" "http://www.w3.org/Graphics/SVG/1.1/DTD/svg11.dtd">
<!-- Creator: CorelDRAW X8 -->
<svg xmlns="http://www.w3.org/2000/svg" xml:space="preserve" width="64px" height="64px" version="1.1" style="shape-rendering:geometricPrecision; text-rendering:geometricPrecision; image-rendering:optimizeQuality; fill-rule:evenodd; clip-rule:evenodd"
viewBox="0 0 819839 819839"
 xmlns:xlink="http://www.w3.org/1999/xlink">
 <defs>
  <style type="text/css">
   <![CDATA[
    .fil0 {fill:none}
    .fil2 {fill:black}
    .fil1 {fill:black;fill-rule:nonzero}
    .fil3 {fill:#D65C51;fill-rule:nonzero}
   ]]>
  </style>
 </defs>
 <g id="Ebene_x0020_1">
  <metadata id="CorelCorpID_0Corel-Layer"/>
  <rect class="fil0" x="-3" y="-1" width="819838" height="819839"/>
  <path class="fil1" d="M250100 337280c0,-5069 -3918,-8987 -8896,-8987l-17642 0c-4993,0 -8896,3918 -8896,8987l0 98119 -62442 0c-4993,0 -8897,3903 -8897,8896l0 17627c0,4993 3904,8896 8897,8896l88980 0c4978,0 8896,-3903 8896,-8896l0 -124642zm6083 243474c-13194,3782 -27128,5810 -41517,5810 -83655,0 -151664,-67935 -151664,-151165 0,-83655 68009,-151664 151664,-151664 46873,0 88904,21560 116668,55346 4584,-984 9381,-1498 14328,-1498l58977 0c-35465,-69024 -107272,-116215 -189973,-116215 -118242,0 -214031,95789 -214031,214031 0,117818 95789,213531 214031,213531 16386,0 32333,-1846 47660,-5356 -6930,-11575 -10395,-25268 -8746,-39823l2603 -22997z"/>
  <path class="fil2" d="M609425 502864c-2920,-10924 3586,-22166 14510,-25071 10939,-2920 22135,3586 25086,14510l11014 41214c2920,10909 -3540,22151 -14464,25071 -1785,499 -3556,726 -5281,726l0 0 -169441 0c-11287,0 -20487,-9199 -20487,-20486 0,-2224 364,-4403 999,-6415l10788 -40110c2920,-10924 14116,-17430 25040,-14510 10924,2905 17445,14147 14525,25071l-4146 15433 115988 0 -4146 -15433 15 0zm178898 136398c17067,-31 32954,-14162 31047,-31183l-22755 -200928c-1967,-17021 -14071,-31153 -31199,-31153l-77072 0c-1876,3465 -4267,6672 -7096,9502l-27189 27188c-7792,7792 -18489,12195 -29504,12195 -10939,0 -21530,-4372 -29488,-12195l-36691 -36690 -12558 0 -36705 36690c-7792,7792 -18474,12195 -29489,12195 -11015,0 -21697,-4403 -29489,-12195l-27355 -27340c-2738,-2799 -5068,-5946 -6914,-9350l-70204 0c-17112,0 -29231,14132 -31138,31153l-22770 200928c-1952,17021 13934,31152 31062,31183l465507 0z"/>
  <path class="fil3" d="M671020 355996c0,-5008 -2028,-10046 -5629,-13617l-58825 -58841 58825 -58901c3601,-3571 5629,-8610 5629,-13557 0,-5038 -2028,-10046 -5629,-13647l-27204 -27204c-3631,-3632 -8609,-5614 -13617,-5614 -5038,0 -9986,1982 -13647,5614l-58826 58841 -58841 -58841c-3646,-3632 -8609,-5614 -13632,-5614 -5023,0 -9986,1982 -13632,5614l-27204 27204c-3586,3601 -5613,8609 -5613,13647 0,4947 2027,9986 5613,13557l58841 58901 -58841 58841c-3586,3571 -5613,8609 -5613,13617 0,5038 2027,9986 5613,13647l27204 27189c3646,3586 8609,5629 13632,5629 5023,0 9986,-2043 13632,-5629l58841 -58826 58826 58826c3661,3586 8609,5629 13647,5629 5008,0 9986,-2043 13617,-5629l27204 -27189c3601,-3661 5629,-8609 5629,-13647z"/>
 </g>
</svg>
