<?xml version="1.0" encoding="UTF-8"?>
<!DOCTYPE svg PUBLIC "-//W3C//DTD SVG 1.1//EN" "http://www.w3.org/Graphics/SVG/1.1/DTD/svg11.dtd">
<!-- Creator: CorelDRAW X8 -->
<svg xmlns="http://www.w3.org/2000/svg" xml:space="preserve" width="64px" height="64px" version="1.1" style="shape-rendering:geometricPrecision; text-rendering:geometricPrecision; image-rendering:optimizeQuality; fill-rule:evenodd; clip-rule:evenodd"
viewBox="0 0 1508047 1508047"
 xmlns:xlink="http://www.w3.org/1999/xlink">
 <defs>
  <style type="text/css">
   <![CDATA[
    .fil0 {fill:none}
    .fil2 {fill:black}
    .fil1 {fill:black;fill-rule:nonzero}
    .fil3 {fill:#AFCE64;fill-rule:nonzero}
   ]]>
  </style>
 </defs>
 <g id="Ebene_x0020_1">
  <metadata id="CorelCorpID_0Corel-Layer"/>
  <rect class="fil0" x="-5" y="-2" width="1508043" height="1508045"/>
  <path class="fil1" d="M460045 624637c0,-9323 -7208,-16531 -16364,-16531l-32451 0c-9184,0 -16365,7208 -16365,16531l0 180484 -114858 0c-9184,0 -16365,7180 -16365,16364l0 32424c0,9184 7181,16364 16365,16364l163674 0c9156,0 16364,-7180 16364,-16364l0 -229272zm11188 447856c-24268,6957 -49901,10687 -76368,10687 -153877,0 -278977,-124961 -278977,-278059 0,-153877 125100,-278977 278977,-278977 86220,0 163535,39659 214604,101805 8433,-1809 17256,-2755 26356,-2755l108485 0c-65235,-126965 -197321,-213769 -349445,-213769 -217499,0 -393696,176197 -393696,393696 0,216719 176197,392778 393696,392778 30141,0 59475,-3396 87668,-9852 -12747,-21291 -19120,-46478 -16087,-73251l4787 -42303z"/>
  <path class="fil2" d="M1121002 929219c-5371,-20094 6596,-40772 26690,-46116 20122,-5371 40716,6596 46143,26690l20261 75811c5372,20067 -6512,40745 -26606,46116 -3284,919 -6540,1336 -9713,1336l0 0 -311679 0c-20761,0 -37683,-16921 -37683,-37683 0,-4091 668,-8099 1837,-11800l19844 -73780c5371,-20094 25966,-32061 46060,-26690 20094,5344 32089,26022 26718,46116l-7626 28388 213352 0 -7626 -28388 28 0zm329073 250896c31393,-56 60616,-26050 57109,-57360l-41858 -369594c-3618,-31310 -25883,-57304 -57387,-57304l-251759 0 -78177 77425c-31421,31115 -81851,31143 -113160,-167l-77231 -77258 -251787 0c-31476,0 -53769,25994 -57276,57304l-41885 369594c-3590,31310 25632,57304 57137,57360l856274 0z"/>
  <path class="fil3" d="M1044856 739802c-12969,12885 -33731,13052 -46700,0l-185938 -185994c-13053,-13053 -13053,-33871 0,-46923l52962 -52963c12886,-13024 33675,-13024 46728,0l109654 109682 252621 -249448c13164,-12942 33787,-12942 46701,0l52990 53129c12969,12885 13052,33786 0,46700l-329018 325817z"/>
 </g>
</svg>
