<?xml version="1.0" encoding="UTF-8"?>
<!DOCTYPE svg PUBLIC "-//W3C//DTD SVG 1.1//EN" "http://www.w3.org/Graphics/SVG/1.1/DTD/svg11.dtd">
<!-- Creator: CorelDRAW X8 -->
<svg xmlns="http://www.w3.org/2000/svg" xml:space="preserve" width="64px" height="64px" version="1.1" style="shape-rendering:geometricPrecision; text-rendering:geometricPrecision; image-rendering:optimizeQuality; fill-rule:evenodd; clip-rule:evenodd"
viewBox="0 0 2221364 2221364"
 xmlns:xlink="http://www.w3.org/1999/xlink">
 <defs>
  <style type="text/css">
   <![CDATA[
    .fil2 {fill:none}
    .fil0 {fill:black}
    .fil1 {fill:#C6C6C6;fill-rule:nonzero}
   ]]>
  </style>
 </defs>
 <g id="Ebene_x0020_1">
  <metadata id="CorelCorpID_0Corel-Layer"/>
  <g id="_2474203497952">
   <path class="fil0" d="M1373707 1445202c-8527,-32099 10576,-65141 42676,-73709 32140,-8609 65059,10536 73750,42676l32386 121100c8568,32099 -10454,65141 -42553,73750 -5206,1435 -10454,2091 -15496,2091l0 0 -707494 0c-33166,0 -60222,-27016 -60222,-60181 0,-6559 1066,-12996 2951,-18899l31731 -117861c8568,-32140 41487,-51285 73586,-42676 32140,8568 51285,41610 42717,73709l-12217 45382 550360 0 -12175 -45382 0 0zm525886 400933c50178,-123 96871,-41610 91296,-91665l-66904 -590617c-5781,-50056 -41405,-91584 -91665,-91584l-240929 0c-3731,27508 -16439,53376 -36240,73177l-96584 96543c-23941,23900 -56738,37470 -90518,37470 -33821,0 -66658,-13529 -90558,-37470l-166768 -166809 -166891 166809c-23860,23941 -56697,37470 -90477,37470 -33780,0 -66576,-13570 -90476,-37470l-97077 -96994c-19472,-19842 -32017,-45464 -35788,-72726l-241052 0c-50219,0 -85885,41528 -91501,91584l-66904 590617c-5740,50055 40954,91542 91296,91665l1577740 0z"/>
   <path class="fil1" d="M1533014 1054887c0,-17833 -7215,-35665 -19965,-48374l-208911 -208952 208911 -209117c12750,-12749 19965,-30582 19965,-48169 0,-17874 -7215,-35707 -19965,-48456l-96625 -96585c-12914,-12954 -30583,-20005 -48375,-20005 -17873,0 -35460,7051 -48415,20005l-208911 208912 -208994 -208912c-12913,-12954 -30541,-20005 -48374,-20005 -17833,0 -35461,7051 -48374,20005l-96667 96585c-12708,12790 -19923,30582 -19923,48456 0,17587 7215,35420 19923,48169l208994 209117 -208994 208952c-12708,12709 -19923,30541 -19923,48374 0,17833 7215,35461 19923,48416l96667 96584c12913,12750 30541,19965 48374,19965 17833,0 35461,-7215 48374,-19965l208994 -208911 208911 208911c12955,12750 30542,19965 48415,19965 17792,0 35461,-7215 48375,-19965l96625 -96584c12750,-12955 19965,-30583 19965,-48416z"/>
  </g>
  <rect class="fil2" x="-7" y="-3" width="2221359" height="2221361"/>
 </g>
</svg>
