<?xml version="1.0" encoding="UTF-8"?>
<!DOCTYPE svg PUBLIC "-//W3C//DTD SVG 1.1//EN" "http://www.w3.org/Graphics/SVG/1.1/DTD/svg11.dtd">
<!-- Creator: CorelDRAW X8 -->
<svg xmlns="http://www.w3.org/2000/svg" xml:space="preserve" width="64px" height="64px" version="1.1" style="shape-rendering:geometricPrecision; text-rendering:geometricPrecision; image-rendering:optimizeQuality; fill-rule:evenodd; clip-rule:evenodd"
viewBox="0 0 562939 562939"
 xmlns:xlink="http://www.w3.org/1999/xlink">
 <defs>
  <style type="text/css">
   <![CDATA[
    .fil0 {fill:none}
    .fil1 {fill:black}
    .fil2 {fill:black;fill-rule:nonzero}
   ]]>
  </style>
 </defs>
 <g id="Ebene_x0020_1">
  <metadata id="CorelCorpID_0Corel-Layer"/>
  <rect class="fil0" x="-2" y="-1" width="562937" height="562938"/>
  <path class="fil1" d="M348946 378160c-2192,-8239 2711,-16716 10950,-18908 8238,-2203 16685,2701 18918,10939l8311 31084c2193,8228 -2680,16706 -10918,18908 -1341,374 -2681,540 -3979,540l0 0 -181517 0c-8509,0 -15449,-6929 -15449,-15438 0,-1683 271,-3324 759,-4841l8134 -30253c2203,-8238 10649,-13142 18888,-10939 8238,2192 13152,10669 10950,18908l-3127 11635 141197 0 -3117 -11635 0 0zm134922 102872c12872,-32 24850,-10680 23417,-23521l-17163 -151534c-1486,-12841 -10618,-23490 -23521,-23490l-49306 0 -28216 28217c-13091,13100 -34523,13173 -47624,62 -6316,-6327 -9765,-14918 -9765,-23832l0 -4447 -81107 0 -80692 46595c-5454,3148 -12176,4073 -18263,2410 -6068,-1672 -11439,-5890 -14400,-11178l-15552 -26960c-1964,-3272 -3106,-7043 -3345,-10867l-22035 0c-12893,0 -22035,10649 -23479,23490l-17163 151534c-1475,12841 10503,23489 23417,23521l404797 0z"/>
  <path class="fil2" d="M349268 286923c-10,4250 1589,8395 4623,11418 6202,6223 16498,6192 22762,-62l79715 -79715c6234,-6213 6254,-16539 31,-22762l-79704 -79715c-6265,-6265 -16602,-6254 -22835,-31 -3034,3023 -4602,7178 -4592,11417l-10 34544 -10234 0 -14742 0 -56796 -11 -106747 -61638c-1455,-852 -3335,-1091 -4821,-675 -1506,384 -3033,1569 -3833,2982l-15719 27229c-821,1413 -1101,3335 -686,4810 416,1507 1611,3034 2992,3834l118923 68661 -118538 68453c-1403,810 -2597,2337 -3003,3854 -415,1465 -145,3387 696,4789l15709 27230c789,1413 2327,2597 3823,3002 1496,416 3387,156 4820,-675l106477 -61492 56703 -11 14742 0 10234 0 10 34564z"/>
 </g>
</svg>
