<?xml version="1.0" encoding="UTF-8"?>
<!DOCTYPE svg PUBLIC "-//W3C//DTD SVG 1.1//EN" "http://www.w3.org/Graphics/SVG/1.1/DTD/svg11.dtd">
<!-- Creator: CorelDRAW X8 -->
<svg xmlns="http://www.w3.org/2000/svg" xml:space="preserve" width="64px" height="64px" version="1.1" style="shape-rendering:geometricPrecision; text-rendering:geometricPrecision; image-rendering:optimizeQuality; fill-rule:evenodd; clip-rule:evenodd"
viewBox="0 0 428626 428626"
 xmlns:xlink="http://www.w3.org/1999/xlink">
 <defs>
  <style type="text/css">
   <![CDATA[
    .fil0 {fill:none}
    .fil1 {fill:black}
    .fil2 {fill:black;fill-rule:nonzero}
   ]]>
  </style>
 </defs>
 <g id="Ebene_x0020_1">
  <metadata id="CorelCorpID_0Corel-Layer"/>
  <rect class="fil0" x="-1" y="-1" width="428625" height="428626"/>
  <path class="fil1" d="M265690 313097c-1669,-6273 2065,-12728 8338,-14397 6273,-1677 12704,2057 14404,8330l6329 23667c1669,6265 -2041,12720 -8314,14397 -1020,285 -2041,411 -3030,411l0 0 -138208 0c-6479,0 -11763,-5276 -11763,-11755 0,-1281 206,-2531 578,-3686l6194 -23034c1677,-6273 8108,-10007 14380,-8330 6273,1669 10015,8124 8338,14397l-2381 8859 107508 0 -2373 -8859 0 0zm102731 78327c9801,-23 18922,-8131 17830,-17909l-13068 -115379c-1131,-9777 -8084,-17885 -17909,-17885l-52342 0c-4216,15291 -16177,28485 -33081,28485l-111076 0c-17007,0 -29094,-13107 -33207,-28485l-52248 0c-9816,0 -16777,8108 -17877,17885l-13068 115379c-1123,9778 7998,17886 17830,17909l308216 0z"/>
  <path class="fil2" d="M188834 216884c0,2436 -1875,4272 -4303,4272l-8606 0c-2437,0 -4312,-1836 -4312,-4272l0 -93855c0,-2429 1875,-4264 4312,-4264l8606 -158c2428,0 4303,1874 4303,4263l0 94014 0 0zm34212 0c0,2436 -1875,4272 -4303,4272l-8614 0c-2437,0 -4311,-1836 -4311,-4272l0 -94014c0,-2389 1874,-4263 4311,-4263l8614 0c2428,0 4303,1874 4303,4263l0 94014 0 0zm33967 0c0,2436 -1835,4272 -4224,4272l-8535 0c-2389,0 -4225,-1836 -4225,-4272l0 -94014c0,-2389 1828,-4263 4225,-4263l8535 0c2389,0 4224,1874 4224,4263l0 94014zm-72482 -132323l6573 -15552c404,-522 1440,-1313 2239,-1431l42296 0c681,118 1875,909 2239,1431l6376 15552 -59723 0zm123756 4264c0,-2389 -1874,-4264 -4263,-4264l-41268 0 -9334 -22173c-2627,-6494 -10600,-11802 -17656,-11802l-42660 0c-7096,0 -15196,5308 -17862,11802l-9373 22173 -41268 0c-2389,0 -4264,1875 -4264,4303l0 8417c0,2515 1875,4382 4264,4382l12799 0 0 126984c0,14673 9650,26713 21373,26713l111076 0c11763,0 21374,-12562 21374,-27228l0 -126588 12799 0c2389,0 4263,-1875 4263,-4263l0 -8449 0 -7z"/>
 </g>
</svg>
