<?xml version="1.0" encoding="UTF-8"?>
<!DOCTYPE svg PUBLIC "-//W3C//DTD SVG 1.1//EN" "http://www.w3.org/Graphics/SVG/1.1/DTD/svg11.dtd">
<!-- Creator: CorelDRAW X8 -->
<svg xmlns="http://www.w3.org/2000/svg" xml:space="preserve" width="64px" height="64px" version="1.1" style="shape-rendering:geometricPrecision; text-rendering:geometricPrecision; image-rendering:optimizeQuality; fill-rule:evenodd; clip-rule:evenodd"
viewBox="0 0 346060 346060"
 xmlns:xlink="http://www.w3.org/1999/xlink">
 <defs>
  <style type="text/css">
   <![CDATA[
    .fil0 {fill:none}
    .fil1 {fill:black;fill-rule:nonzero}
   ]]>
  </style>
 </defs>
 <g id="Ebene_x0020_1">
  <metadata id="CorelCorpID_0Corel-Layer"/>
  <rect class="fil0" x="-1" width="346059" height="346059"/>
  <path class="fil1" d="M277468 93230c-255,2791 -862,5403 -1596,7185 -709,1878 -1597,3238 -2676,4068 -1009,894 -2414,1341 -3468,1341l-69313 0 0 176926c0,1111 -434,2765 -1360,3947 -952,1143 -2478,2101 -4573,2861 -2095,671 -5090,1341 -8609,1718 -8392,894 -17301,1003 -25648,0 -3602,-421 -6514,-1047 -8628,-1718 -2095,-760 -3775,-1852 -4554,-2861 -817,-1022 -1379,-2542 -1379,-3947l0 -176926 -69288 0c-1213,0 -2701,-536 -3627,-1341 -862,-741 -1814,-2190 -2542,-4068 -652,-1782 -1297,-4285 -1597,-7185 -670,-6654 -670,-19983 0,-26638 300,-2995 945,-5562 1597,-7344 728,-1878 1590,-3149 2542,-3979 1015,-824 2241,-1201 3627,-1201l193352 0c1226,0 2388,377 3468,1201 1079,830 1967,2101 2676,3979 734,1782 1296,4349 1596,7344 690,6451 582,20226 0,26638z"/>
 </g>
</svg>
