<?xml version="1.0" encoding="UTF-8"?>
<!DOCTYPE svg PUBLIC "-//W3C//DTD SVG 1.1//EN" "http://www.w3.org/Graphics/SVG/1.1/DTD/svg11.dtd">
<!-- Creator: CorelDRAW X8 -->
<svg xmlns="http://www.w3.org/2000/svg" xml:space="preserve" width="64px" height="64px" version="1.1" style="shape-rendering:geometricPrecision; text-rendering:geometricPrecision; image-rendering:optimizeQuality; fill-rule:evenodd; clip-rule:evenodd"
viewBox="0 0 993230 993230"
 xmlns:xlink="http://www.w3.org/1999/xlink">
 <defs>
  <style type="text/css">
   <![CDATA[
    .fil2 {fill:none}
    .fil0 {fill:black}
    .fil1 {fill:#D65C51;fill-rule:nonzero}
   ]]>
  </style>
 </defs>
 <g id="Ebene_x0020_1">
  <metadata id="CorelCorpID_0Corel-Layer"/>
  <g id="_2474203496256">
   <path class="fil0" d="M614221 646188c-3831,-14352 4729,-29126 19081,-32957 14353,-3849 29072,4711 32976,19081l14481 54147c3812,14353 -4675,29127 -19027,32976 -2346,642 -4674,935 -6947,935l0 0 -316340 0c-14828,0 -26908,-12080 -26908,-26909 0,-2951 458,-5810 1320,-8450l14169 -52699c3849,-14370 18568,-22930 32921,-19081 14352,3831 22912,18605 19081,32957l-5444 20292 246062 0 -5425 -20292 0 0zm235137 179268c22418,-55 43296,-18605 40803,-40986l-29915 -264081c-2584,-22381 -18495,-40949 -40986,-40949l-107707 0c-1686,12299 -7350,23866 -16204,32719l-43204 43167c-10704,10687 -25368,16754 -40472,16754 -15104,0 -29786,-6049 -40473,-16754l-74585 -74585 -74603 74585c-10686,10705 -25369,16754 -40473,16754 -15104,0 -29768,-6067 -40436,-16754l-43423 -43369c-8689,-8871 -14298,-20328 -15984,-32517l-107781 0c-22472,0 -38401,18568 -40912,40949l-29915 264081c-2566,22381 18293,40931 40803,40986l705467 0z"/>
   <path class="fil1" d="M685451 471668c0,-7973 -3244,-15947 -8945,-21648l-93391 -93409 93391 -93520c5719,-5683 8945,-13656 8945,-21538 0,-7974 -3244,-15947 -8945,-21648l-43185 -43185c-5793,-5793 -13675,-8945 -21648,-8945 -7974,0 -15856,3152 -21648,8945l-93410 93410 -93428 -93410c-5792,-5793 -13674,-8945 -21648,-8945 -7955,0 -15837,3152 -21629,8945l-43204 43185c-5701,5719 -8927,13674 -8927,21648 0,7882 3226,15855 8927,21538l93428 93520 -93428 93409c-5701,5701 -8927,13675 -8927,21648 0,7974 3226,15856 8927,21648l43204 43185c5792,5701 13674,8927 21629,8927 7974,0 15856,-3226 21648,-8927l93428 -93409 93410 93409c5792,5701 13674,8927 21648,8927 7973,0 15855,-3226 21648,-8927l43185 -43185c5719,-5792 8945,-13674 8945,-21648z"/>
  </g>
  <rect class="fil2" x="-3" y="-1" width="993228" height="993230"/>
 </g>
</svg>
