<?xml version="1.0" encoding="UTF-8"?>
<!DOCTYPE svg PUBLIC "-//W3C//DTD SVG 1.1//EN" "http://www.w3.org/Graphics/SVG/1.1/DTD/svg11.dtd">
<!-- Creator: CorelDRAW X8 -->
<svg xmlns="http://www.w3.org/2000/svg" xml:space="preserve" width="64px" height="64px" version="1.1" style="shape-rendering:geometricPrecision; text-rendering:geometricPrecision; image-rendering:optimizeQuality; fill-rule:evenodd; clip-rule:evenodd"
viewBox="0 0 471676 471676"
 xmlns:xlink="http://www.w3.org/1999/xlink">
 <defs>
  <style type="text/css">
   <![CDATA[
    .fil1 {fill:none}
    .fil0 {fill:black}
   ]]>
  </style>
 </defs>
 <g id="Ebene_x0020_1">
  <metadata id="CorelCorpID_0Corel-Layer"/>
  <path class="fil0" d="M291696 232852c-1819,-6816 2238,-13832 9062,-15651 6816,-1819 13806,2246 15651,9062l6877 25714c1819,6815 -2211,13832 -9035,15660 -1106,304 -2212,443 -3291,443l0 0 -150227 0c-7042,0 -12778,-5736 -12778,-12778 0,-1393 226,-2751 618,-4013l6737 -25026c1820,-6816 8810,-10881 15634,-9062 6816,1819 10881,8835 9062,15651l-2586 9636 116853 0 -2585 -9636 8 0zm111656 85133c10664,-26 20570,-8835 19386,-19464l-14206 -125409c-1228,-10629 -8783,-19438 -19473,-19438l-306460 0c-10672,0 -18236,8809 -19437,19438l-14206 125409c-1219,10629 8696,19438 19385,19464l335011 0z"/>
  <rect class="fil1" x="-1" y="-1" width="471675" height="471676"/>
 </g>
</svg>
