<?xml version="1.0" encoding="UTF-8"?>
<!DOCTYPE svg PUBLIC "-//W3C//DTD SVG 1.1//EN" "http://www.w3.org/Graphics/SVG/1.1/DTD/svg11.dtd">
<!-- Creator: CorelDRAW X8 -->
<svg xmlns="http://www.w3.org/2000/svg" xml:space="preserve" width="64px" height="64px" version="1.1" style="shape-rendering:geometricPrecision; text-rendering:geometricPrecision; image-rendering:optimizeQuality; fill-rule:evenodd; clip-rule:evenodd"
viewBox="0 0 263851 263851"
 xmlns:xlink="http://www.w3.org/1999/xlink">
 <defs>
  <style type="text/css">
   <![CDATA[
    .fil1 {fill:none}
    .fil0 {fill:black;fill-rule:nonzero}
   ]]>
  </style>
 </defs>
 <g id="Ebene_x0020_1">
  <metadata id="CorelCorpID_0Corel-Layer"/>
  <path class="fil0" d="M108260 95308c0,-1899 -1461,-3360 -3335,-3360l-6593 0c-1870,0 -3331,1461 -3331,3360l0 36710 -23363 0c-1870,0 -3336,1470 -3336,3335l0 6593c0,1870 1466,3331 3336,3331l33287 0c1538,0 2804,-988 3204,-2381l0 -41872 131 151 0 -5867zm-131 91733c-4217,1008 -8614,1549 -13128,1549 -31300,0 -56757,-25423 -56757,-56572 0,-31300 25457,-56752 56757,-56752 16765,0 31870,7381 42251,19078l28272 0c-13454,-25238 -40007,-42417 -70523,-42417 -44243,0 -80091,35848 -80091,80091 0,44097 35848,79911 80091,79911 5668,0 11204,-599 16541,-1724 -2245,-3939 -3413,-8380 -3413,-13094l0 -10070zm140812 -45484l0 55554c0,3078 -1081,5707 -3277,7903 -2197,2191 -4831,3297 -7923,3297l-102962 0c-3092,0 -5727,-1106 -7928,-3297 -2191,-2196 -3272,-4825 -3272,-7903l0 -55554c2045,2298 4402,4329 7061,6101 16882,11472 28476,19516 34772,24133 2649,1967 4825,3491 6471,4572 1651,1110 3871,2220 6603,3365 2761,1134 5332,1714 7713,1714l58 0 64 0c2381,0 4952,-580 7713,-1714 2732,-1145 4952,-2255 6598,-3365 1651,-1081 3827,-2605 6476,-4572 7927,-5746 19541,-13790 34835,-24133 2649,-1816 4996,-3866 6998,-6101zm0 -20559c0,3677 -1145,7202 -3428,10567 -2274,3345 -5138,6233 -8546,8594 -17530,12183 -28432,19765 -32717,22750 -477,316 -1461,1027 -2985,2128 -1505,1091 -2781,1991 -3789,2659 -998,667 -2210,1446 -3632,2274 -1422,837 -2761,1460 -4012,1884 -1271,414 -2425,623 -3511,623l-64 0 -58 0c-1091,0 -2240,-209 -3511,-623 -1251,-424 -2595,-1047 -4012,-1884 -1422,-828 -2634,-1607 -3633,-2274 -1008,-668 -2283,-1568 -3788,-2659 -1524,-1101 -2508,-1812 -2985,-2128 -4241,-2985 -10342,-7251 -18323,-12767 -7962,-5537 -12748,-8858 -14336,-9983 -2882,-1947 -5619,-4645 -8190,-8068 -2571,-3428 -3842,-6622 -3842,-9549 0,-3637 955,-6686 2902,-9111 1943,-2424 4699,-3632 8298,-3632l102962 0c3029,0 5663,1105 7879,3297 2210,2200 3321,4825 3321,7902z"/>
  <rect class="fil1" x="-1" width="263850" height="263850"/>
 </g>
</svg>
