<?xml version="1.0" encoding="UTF-8"?>
<!DOCTYPE svg PUBLIC "-//W3C//DTD SVG 1.1//EN" "http://www.w3.org/Graphics/SVG/1.1/DTD/svg11.dtd">
<!-- Creator: CorelDRAW X8 -->
<svg xmlns="http://www.w3.org/2000/svg" xml:space="preserve" width="64px" height="64px" version="1.1" style="shape-rendering:geometricPrecision; text-rendering:geometricPrecision; image-rendering:optimizeQuality; fill-rule:evenodd; clip-rule:evenodd"
viewBox="0 0 471676 471676"
 xmlns:xlink="http://www.w3.org/1999/xlink">
 <defs>
  <style type="text/css">
   <![CDATA[
    .fil0 {fill:none}
    .fil1 {fill:black;fill-rule:nonzero}
   ]]>
  </style>
 </defs>
 <g id="Ebene_x0020_1">
  <metadata id="CorelCorpID_0Corel-Layer"/>
  <rect class="fil0" x="-1" y="-1" width="471675" height="471676"/>
  <path class="fil1" d="M371119 236056c0,-77264 -60812,-140251 -135194,-140251 -34697,0 -68385,14441 -93237,38692l-22893 -23537c-3160,-3491 -8113,-4362 -12169,-2568 -4205,1854 -7051,6049 -7051,10794l0 81781c0,6433 5109,11716 11264,11716l78969 0c4579,0 8635,-2942 10420,-7303 1741,-4196 897,-9314 -2472,-12587l-24165 -25340c16426,-15903 38275,-25008 61334,-25008 49539,0 90025,42009 90025,93611 0,51218 -40486,93062 -90025,93062 -28003,0 -53908,-13074 -71179,-36177 -888,-1314 -2472,-2019 -4047,-2176 -1585,0 -3212,540 -4422,1628l-24165 25122c-1950,1958 -2106,5449 -322,7791 25697,32094 63806,50557 104135,50557 74382,0 135194,-62927 135194,-139807zm-112770 -52577c0,-3325 -2473,-5885 -5632,-5885l-11160 0c-3160,0 -5632,2560 -5632,5885l0 64241 -39485 0c-3160,0 -5632,2559 -5632,5824l0 11551c0,3273 2472,5832 5632,5832l56277 0c3159,0 5632,-2559 5632,-5832l0 -81616z"/>
 </g>
</svg>
