<?xml version="1.0" encoding="UTF-8"?>
<!DOCTYPE svg PUBLIC "-//W3C//DTD SVG 1.1//EN" "http://www.w3.org/Graphics/SVG/1.1/DTD/svg11.dtd">
<!-- Creator: CorelDRAW X8 -->
<svg xmlns="http://www.w3.org/2000/svg" xml:space="preserve" width="64px" height="64px" version="1.1" style="shape-rendering:geometricPrecision; text-rendering:geometricPrecision; image-rendering:optimizeQuality; fill-rule:evenodd; clip-rule:evenodd"
viewBox="0 0 309274 309274"
 xmlns:xlink="http://www.w3.org/1999/xlink">
 <defs>
  <style type="text/css">
   <![CDATA[
    .fil1 {fill:none}
    .fil0 {fill:black;fill-rule:nonzero}
   ]]>
  </style>
 </defs>
 <g id="Ebene_x0020_1">
  <metadata id="CorelCorpID_0Corel-Layer"/>
  <path class="fil0" d="M145893 112600c0,-2180 -1684,-3864 -3824,-3864l-7574 0c-2152,0 -3830,1684 -3830,3864l0 42140 -26820 0c-2141,0 -3819,1678 -3819,3824l0 7579c0,2141 1678,3813 3819,3813l38224 0c2140,0 3824,-1672 3824,-3813l0 -53543zm14868 99661c-9001,4737 -19246,7420 -30096,7420 -35935,0 -65147,-29183 -65147,-64941 0,-35936 29212,-65147 65147,-65147 16900,0 32328,6523 43903,17202l34371 0c-16124,-26392 -45164,-43994 -78274,-43994 -50787,0 -91944,41152 -91944,91939 0,50621 41157,91733 91944,91733 6221,0 12288,-623 18156,-1810l-17 -1084 0 -4195c0,-7734 3949,-14532 9942,-18482 525,-2916 1199,-5810 2015,-8641zm101299 -77013l6364 0c1193,0 2123,-930 2123,-2118l0 -4200c0,-1188 -930,-2118 -2123,-2118l-97498 0c-1181,0 -2117,930 -2117,2118l0 4200c0,1188 936,2118 2117,2118l6370 0c0,24571 11695,42368 24686,51003 -12991,8642 -24686,26444 -24686,51015l-6370 0c-1181,0 -2117,931 -2117,2118l0 4201c0,1192 936,2123 2117,2123l97498 0c1193,0 2123,-931 2123,-2123l0 -4201c0,-1187 -930,-2118 -2123,-2118l-6364 0c0,-24571 -11683,-42373 -24685,-51015 13002,-8635 24685,-26432 24685,-51003zm-35347 47025c-1661,594 -2791,2203 -2791,3978 0,1810 1130,3391 2791,3990 5707,2118 11472,6638 16169,13019l-46408 0c4697,-6381 10462,-10901 16169,-13019 1661,-599 2792,-2180 2792,-3990 0,-1775 -1131,-3384 -2792,-3978 -13390,-5057 -26911,-22790 -26911,-47025l67892 0c0,24235 -13515,41968 -26911,47025z"/>
  <rect class="fil1" x="-1" width="309273" height="309273"/>
 </g>
</svg>
