<?xml version="1.0" encoding="UTF-8"?>
<!DOCTYPE svg PUBLIC "-//W3C//DTD SVG 1.1//EN" "http://www.w3.org/Graphics/SVG/1.1/DTD/svg11.dtd">
<!-- Creator: CorelDRAW X8 -->
<svg xmlns="http://www.w3.org/2000/svg" xml:space="preserve" width="64px" height="64px" version="1.1" style="shape-rendering:geometricPrecision; text-rendering:geometricPrecision; image-rendering:optimizeQuality; fill-rule:evenodd; clip-rule:evenodd"
viewBox="0 0 373589 373589"
 xmlns:xlink="http://www.w3.org/1999/xlink">
 <defs>
  <style type="text/css">
   <![CDATA[
    .fil1 {fill:none}
    .fil0 {fill:black;fill-rule:nonzero}
   ]]>
  </style>
 </defs>
 <g id="Ebene_x0020_1">
  <metadata id="CorelCorpID_0Corel-Layer"/>
  <path class="fil0" d="M205065 136650c0,-2599 -2006,-4598 -4557,-4598l-9032 0c-2558,0 -4558,1999 -4558,4598l0 50268 -31990 0c-2558,0 -4565,2000 -4565,4558l0 9032c0,2557 2007,4557 4565,4557l45580 0c2551,0 4557,-2000 4557,-4557l0 -63858zm59293 50268c0,42636 -34804,77440 -77440,77440 -42856,0 -77701,-34804 -77701,-77440 0,-42856 34845,-77701 77701,-77701 42636,0 77440,34845 77440,77701zm31956 0c0,-60575 -49034,-109644 -109396,-109644 -60575,0 -109651,49069 -109651,109644 0,60362 49076,109390 109651,109390 60362,0 109396,-49028 109396,-109390z"/>
  <rect class="fil1" x="-1" y="-1" width="373588" height="373588"/>
 </g>
</svg>
