<?xml version="1.0" encoding="UTF-8"?>
<!DOCTYPE svg PUBLIC "-//W3C//DTD SVG 1.1//EN" "http://www.w3.org/Graphics/SVG/1.1/DTD/svg11.dtd">
<!-- Creator: CorelDRAW X8 -->
<svg xmlns="http://www.w3.org/2000/svg" xml:space="preserve" width="64px" height="64px" version="1.1" style="shape-rendering:geometricPrecision; text-rendering:geometricPrecision; image-rendering:optimizeQuality; fill-rule:evenodd; clip-rule:evenodd"
viewBox="0 0 1508047 1508047"
 xmlns:xlink="http://www.w3.org/1999/xlink">
 <defs>
  <style type="text/css">
   <![CDATA[
    .fil1 {fill:none}
    .fil0 {fill:black}
   ]]>
  </style>
 </defs>
 <g id="Ebene_x0020_1">
  <metadata id="CorelCorpID_0Corel-Layer"/>
  <path class="fil0" d="M754051 339816c102223,0 185076,82880 185076,185103 0,102223 -82853,185076 -185076,185076 -102223,0 -185076,-82853 -185076,-185076 0,-102223 82853,-185103 185076,-185103zm0 -195429c210151,0 380505,170381 380505,380532 0,195874 -134813,263142 -222425,410729 -70023,117892 -121649,251731 -158080,428012 -36625,-177172 -88586,-311456 -159165,-429793 -87584,-146948 -221339,-213463 -221339,-408948 0,-210151 170353,-380532 380504,-380532z"/>
  <rect class="fil1" x="-5" y="-2" width="1508043" height="1508045"/>
 </g>
</svg>
