<?xml version="1.0" encoding="UTF-8"?>
<!DOCTYPE svg PUBLIC "-//W3C//DTD SVG 1.1//EN" "http://www.w3.org/Graphics/SVG/1.1/DTD/svg11.dtd">
<!-- Creator: CorelDRAW X8 -->
<svg xmlns="http://www.w3.org/2000/svg" xml:space="preserve" width="64px" height="64px" version="1.1" style="shape-rendering:geometricPrecision; text-rendering:geometricPrecision; image-rendering:optimizeQuality; fill-rule:evenodd; clip-rule:evenodd"
viewBox="0 0 995557 995557"
 xmlns:xlink="http://www.w3.org/1999/xlink">
 <defs>
  <style type="text/css">
   <![CDATA[
    .fil1 {fill:none}
    .fil0 {fill:black;fill-rule:nonzero}
   ]]>
  </style>
 </defs>
 <g id="Ebene_x0020_1">
  <metadata id="CorelCorpID_0Corel-Layer"/>
  <path class="fil0" d="M417562 698999c0,7662 -5897,13431 -13559,13431l-27100 0c-7662,0 -13559,-5769 -13559,-13431l0 -295474c0,-7643 5897,-13430 13559,-13430l27100 -496c7662,0 13559,5897 13559,13430l0 295970 0 0zm107703 0c0,7662 -5898,13431 -13560,13431l-27118 0c-7662,0 -13559,-5769 -13559,-13431l0 -295970c0,-7533 5897,-13430 13559,-13430l27118 0c7662,0 13560,5897 13560,13430l0 295970 0 0zm106930 0c0,7662 -5769,13431 -13302,13431l-26861 0c-7533,0 -13302,-5769 -13302,-13431l0 -295970c0,-7533 5769,-13430 13302,-13430l26861 0c7533,0 13302,5897 13302,13430l0 295970zm-228192 -416588l20706 -48964c1268,-1635 4520,-4134 7037,-4502l133167 0c2132,368 5898,2867 7037,4502l20082 48964 -188029 0zm389617 13430c0,-7533 -5898,-13430 -13431,-13430l-129915 0 -29378 -69799c-8268,-20449 -33384,-37150 -55597,-37150l-134306 0c-22342,0 -47825,16701 -56221,37150l-29507 69799 -129916 0c-7532,0 -13430,5897 -13430,13541l0 26493c0,7919 5898,13817 13430,13817l40292 0 0 399759c0,46189 30371,84093 67282,84093l349693 0c37021,0 67281,-39539 67281,-85728l0 -398510 40292 0c7533,0 13431,-5898 13431,-13431l0 -26604z"/>
  <rect class="fil1" x="-3" y="-1" width="995555" height="995556"/>
 </g>
</svg>
