<?xml version="1.0" encoding="UTF-8"?>
<!DOCTYPE svg PUBLIC "-//W3C//DTD SVG 1.1//EN" "http://www.w3.org/Graphics/SVG/1.1/DTD/svg11.dtd">
<!-- Creator: CorelDRAW X8 -->
<svg xmlns="http://www.w3.org/2000/svg" xml:space="preserve" width="64px" height="64px" version="1.1" style="shape-rendering:geometricPrecision; text-rendering:geometricPrecision; image-rendering:optimizeQuality; fill-rule:evenodd; clip-rule:evenodd"
viewBox="0 0 9392514 9392514"
 xmlns:xlink="http://www.w3.org/1999/xlink">
 <defs>
  <style type="text/css">
   <![CDATA[
    .fil2 {fill:none}
    .fil1 {fill:#5B5B5B;fill-rule:nonzero}
    .fil0 {fill:white;fill-rule:nonzero}
   ]]>
  </style>
 </defs>
 <g id="Ebene_x0020_1">
  <metadata id="CorelCorpID_0Corel-Layer"/>
  <g id="_2474203525696">
   <path class="fil0" d="M7239131 3540263c0,-180098 -142831,-329516 -315129,-329516l-4414755 0c-172299,0 -315130,149418 -315130,329516 0,87883 35361,171085 94296,232620l2205905 2310081c60322,61535 138324,98630 222220,98630 84069,0 162071,-37095 222393,-98630l2206077 -2310081c58762,-61535 94123,-144737 94123,-232620z"/>
   <path class="fil1" d="M7024018 3608385c0,-41948 -17680,-80775 -45934,-109030 -27908,-28427 -66736,-46108 -109030,-46108l-4345247 0c-41948,0 -80776,17854 -109030,46108 -28601,27908 -46108,66562 -46108,109030 0,20454 3987,40041 11440,57202 7627,18200 19934,36054 35881,52001l2170197 2173664c16294,15774 34841,28427 54428,36748 16814,7106 35535,11093 55815,11093 19934,0 38828,-3987 55815,-10920 19414,-8494 38135,-21147 54429,-36921l2170196 -2172970c15774,-16641 28081,-34495 35881,-52695 7280,-17161 11267,-36748 11267,-57202zm172992 -328476c84589,84242 137284,200899 137284,328476 0,60842 -13000,121164 -36748,177325 -24094,56855 -58762,108684 -101403,151151l-2173143 2175397c-43681,42642 -94470,76963 -149765,100537 -56508,23574 -116136,36574 -176805,36574 -60841,0 -120470,-13000 -176285,-36574 -55815,-23574 -106776,-57895 -150458,-100537l-2172796 -2175570c-42988,-42294 -77483,-94123 -101577,-150978 -23747,-56161 -36921,-116483 -36921,-177325 0,-126883 53042,-243540 137458,-327956 83722,-84589 200379,-137457 327956,-137457l4345247 0c127230,0 243540,52868 327956,136937z"/>
  </g>
  <rect class="fil2" x="-29" y="-13" width="9392494" height="9392505"/>
 </g>
</svg>
