<?xml version="1.0" encoding="UTF-8"?>
<!DOCTYPE svg PUBLIC "-//W3C//DTD SVG 1.1//EN" "http://www.w3.org/Graphics/SVG/1.1/DTD/svg11.dtd">
<!-- Creator: CorelDRAW X8 -->
<svg xmlns="http://www.w3.org/2000/svg" xml:space="preserve" width="64px" height="64px" version="1.1" style="shape-rendering:geometricPrecision; text-rendering:geometricPrecision; image-rendering:optimizeQuality; fill-rule:evenodd; clip-rule:evenodd"
viewBox="0 0 9392514 9392514"
 xmlns:xlink="http://www.w3.org/1999/xlink">
 <defs>
  <style type="text/css">
   <![CDATA[
    .fil0 {fill:none}
    .fil1 {fill:black;fill-rule:nonzero}
   ]]>
  </style>
 </defs>
 <g id="Ebene_x0020_1">
  <metadata id="CorelCorpID_0Corel-Layer"/>
  <rect class="fil0" x="-29" y="-13" width="9392494" height="9392505"/>
  <g id="_1622643024240">
   <path class="fil1" d="M5354596 4109160c77309,-65522 161898,-128964 251861,-188766 91523,-58415 189805,-111110 295195,-155484 106777,-44895 221527,-79909 343210,-104177 122897,-26000 255501,-38827 396945,-38827 196739,0 374931,26694 535269,80602 159125,53908 297795,131564 410985,231060 114750,99496 204193,219100 266075,359157 63095,140751 94816,299009 94816,472001 0,170218 -24441,315302 -72456,435946 -48188,122030 -107989,227420 -181658,317209 -72802,90483 -153231,169872 -240074,237127 -86842,67602 -168658,129484 -244927,187205 -77136,57202 -143871,113710 -201419,169872 -57202,55988 -91176,119430 -103310,190846l-81989 476680 -593511 0 -65695 -539082c-12654,-105217 1213,-196739 45588,-274915 43508,-77309 100883,-148724 173512,-214420 71415,-64481 151324,-127923 240074,-188765 87882,-60842 169871,-125324 247180,-195179 76269,-69335 140577,-148724 191886,-238167 52001,-89963 77309,-195179 77309,-316169 0,-150978 -52349,-270582 -157738,-358291 -105737,-87882 -243887,-132257 -416186,-132257 -122723,0 -226900,13867 -311489,40908 -85282,27907 -157738,57548 -217713,88749 -61188,33281 -112497,62402 -153231,90309 -41255,27215 -79736,41255 -115963,41255 -78696,0 -139711,-36401 -182872,-106603l-229674 -367824zm1473030 3587931c2600,-30161 3987,-67948 3987,-112150 0,-46281 -1387,-84589 -3987,-114750 -2947,-31027 -7280,-60148 -13521,-86842 -4680,-19588 -10920,-37788 -18893,-53562 -5547,-12307 -12828,-22881 -21494,-31721l-1214 -1040c-7627,-7973 -17680,-15947 -29467,-22534 -13867,-8493 -30161,-14907 -48362,-19934l-1040 -866c-21147,-5894 -47148,-10574 -77309,-13868 -30681,-3293 -67602,-5200 -109550,-5200 -41774,0 -78522,1907 -109203,5200 -28774,2947 -55468,7974 -78349,14734l-2080 174c-19414,5546 -35881,11613 -48534,19067 -11441,6413 -20801,13694 -28428,22187 -7627,7627 -15080,19414 -21494,32761 -7627,14907 -13867,33108 -18894,54602 -6413,27560 -10920,56681 -13520,86842 -2947,30161 -4507,68816 -4507,114750 0,44548 1560,82336 4507,112497 2947,30681 7107,58068 12653,81296l867 1560c4680,21147 10920,38654 17681,52694 6240,12134 13693,23054 22014,31721 7107,7454 16987,14734 28254,20801 14040,7800 30681,14387 49401,19241l2080 866c22881,6587 49575,11267 79043,14561 30334,2946 66735,4853 108509,4853 41948,0 78523,-1907 109030,-4853 30681,-3294 57029,-7974 77829,-14214 18894,-5720 35535,-12307 50268,-20801 12307,-6933 22881,-14387 30508,-22534 7973,-8493 15254,-18547 21494,-31027 7627,-14907 13867,-32068 18200,-51308l694 -1214c5200,-22360 9880,-50268 12827,-81989z"/>
   <path class="fil1" d="M6792958 2051113c0,105043 -3813,193619 -13174,269368 -9187,74016 -21840,132777 -40387,177152 -18374,46108 -40735,79215 -68469,99669 -25828,22361 -57028,33455 -88576,33455l-1749678 0 0 5061827c0,34668 -11267,69336 -35014,98110 -23574,27734 -62749,52695 -116310,70029 -53562,17333 -127404,31201 -219793,42294 -92390,11267 -206620,16641 -343384,16641 -136590,0 -250820,-5374 -343210,-16641 -92389,-11093 -166751,-25307 -219793,-42294 -53215,-17334 -93256,-42295 -116310,-70029 -23747,-28774 -35014,-62749 -35014,-98110l0 -5061827 -1750198 0c-35014,0 -66215,-11094 -91869,-33455 -24267,-20454 -46281,-53561 -64655,-99669 -16641,-44375 -31721,-103136 -40908,-177152 -9187,-75749 -12654,-164325 -12654,-269368 0,-106950 3467,-199339 12654,-275088 9187,-75922 24267,-136764 40908,-180965 18374,-46108 40388,-77309 64655,-97763 25654,-20454 56855,-29641 91869,-29641l4928704 0c31548,0 61188,9187 88576,29641 27734,20454 50095,51655 68469,97763 18547,44201 31200,105043 40387,180965 9361,75749 13174,168138 13174,275088z"/>
  </g>
 </g>
</svg>
