<?xml version="1.0" encoding="UTF-8"?>
<!DOCTYPE svg PUBLIC "-//W3C//DTD SVG 1.1//EN" "http://www.w3.org/Graphics/SVG/1.1/DTD/svg11.dtd">
<!-- Creator: CorelDRAW X8 -->
<svg xmlns="http://www.w3.org/2000/svg" xml:space="preserve" width="64px" height="64px" version="1.1" style="shape-rendering:geometricPrecision; text-rendering:geometricPrecision; image-rendering:optimizeQuality; fill-rule:evenodd; clip-rule:evenodd"
viewBox="0 0 2221364 2221364"
 xmlns:xlink="http://www.w3.org/1999/xlink">
 <defs>
  <style type="text/css">
   <![CDATA[
    .fil0 {fill:none}
    .fil1 {fill:black;fill-rule:nonzero}
   ]]>
  </style>
 </defs>
 <g id="Ebene_x0020_1">
  <metadata id="CorelCorpID_0Corel-Layer"/>
  <rect class="fil0" x="-7" y="-3" width="2221359" height="2221361"/>
  <g id="_1622688263568">
   <path class="fil1" d="M1578232 485260c0,24843 -902,45791 -3075,63747 -2214,17505 -5206,31443 -9593,41897 -4345,10946 -9634,18776 -16193,23613 -6108,5289 -13487,7912 -20949,7912l-414174 0 0 1198125c0,8199 -2664,16398 -8281,23244 -5575,6559 -14881,12463 -27548,16562 -12668,4100 -30132,7379 -52023,10044 -21851,2624 -48907,3895 -81253,3895 -32345,0 -59402,-1271 -81252,-3895 -21891,-2665 -39478,-6026 -52023,-10044 -12585,-4099 -22055,-10003 -27508,-16562 -5657,-6846 -8322,-14840 -8322,-23244l0 -1198125 -414256 0c-8281,0 -15660,-2623 -21768,-7912 -5739,-4837 -10905,-12667 -15291,-23613 -3936,-10454 -7461,-24392 -9675,-41897 -2173,-17956 -2993,-38904 -2993,-63747 0,-25335 820,-47227 2993,-65142 2214,-17956 5739,-32345 9675,-42840 4386,-10904 9552,-18283 15291,-23121 6108,-4837 13487,-7010 21768,-7010l1166640 0c7462,0 14472,2173 20949,7010 6559,4838 11848,12217 16193,23121 4387,10495 7379,24884 9593,42840 2173,17915 3075,39807 3075,65142z"/>
   <path class="fil1" d="M1906931 1693756c-2255,-4018 -10946,-13405 -25868,-28082 -14881,-14635 -31935,-31115 -51449,-49563 -19637,-18325 -30705,-28983 -33288,-31976 -1312,-1148 -5002,-5657 -11315,-13160 -6354,-7420 -11847,-13118 -16357,-17095 -4550,-4181 -9388,-6764 -14348,-7584 -8527,-2254 -19432,738 -32919,8527 -8486,4879 -20867,13365 -37142,25417 -16275,12094 -28820,20580 -37797,25786 -12627,7338 -22425,10290 -29558,9101 -3198,-574 -7092,-2296 -11110,-5083 -4181,-2952 -7543,-5821 -10617,-8691 -2993,-2952 -6724,-6764 -11397,-11397 -4592,-4427 -7420,-7461 -8609,-8732 -41077,-39396 -75267,-82769 -102447,-129790 -27180,-47186 -47595,-98307 -61247,-153732 -533,-1722 -1722,-5699 -3279,-11848 -1558,-6190 -2993,-11315 -4018,-15373 -1107,-4305 -1927,-8691 -2214,-13569 -574,-5043 0,-9101 1107,-12176 2419,-6928 9962,-13938 22507,-21236 9019,-5165 22670,-11683 41241,-19841 18735,-7830 32263,-14348 40749,-19227 13405,-7830 21358,-15906 23859,-24228 1558,-4878 1845,-10331 574,-16357 -1230,-5862 -3403,-13447 -6764,-22834 -3321,-9101 -5289,-14390 -5617,-16235 -1270,-3689 -5001,-18570 -11027,-44766 -6272,-26114 -12094,-49317 -17341,-69528 -5248,-20252 -8937,-32304 -11274,-36404 -4714,-8158 -18530,-13282 -41159,-15250 -22588,-1968 -41077,-1763 -55630,656 -9019,1230 -18202,4550 -27508,9921 -12668,7256 -28984,21153 -48661,41569 -17546,18571 -31075,36281 -40709,53417 -9633,17300 -15783,37059 -18324,59525 -2624,22629 -3649,40421 -3075,53580 451,13488 2132,35707 4960,67355 492,5740 779,10208 1148,13529 4674,49973 15250,97322 31648,141884 16153,44480 38741,91665 67683,141802 28861,50014 58419,93223 88960,129586 30336,36322 66084,69077 107038,98306 46899,33206 79572,54196 97897,62887 42922,20169 89697,24638 140449,13036 1148,-205 2624,-369 4018,-656 27384,-7051 47595,-14266 60140,-21522 9347,-5411 16767,-11684 22383,-18940 9470,-11151 18776,-27221 28410,-47800 9551,-20580 12052,-35133 7297,-43209z"/>
  </g>
 </g>
</svg>
