<?xml version="1.0" encoding="UTF-8"?>
<!DOCTYPE svg PUBLIC "-//W3C//DTD SVG 1.1//EN" "http://www.w3.org/Graphics/SVG/1.1/DTD/svg11.dtd">
<!-- Creator: CorelDRAW X8 -->
<svg xmlns="http://www.w3.org/2000/svg" xml:space="preserve" width="64px" height="64px" version="1.1" style="shape-rendering:geometricPrecision; text-rendering:geometricPrecision; image-rendering:optimizeQuality; fill-rule:evenodd; clip-rule:evenodd"
viewBox="0 0 1508047 1508047"
 xmlns:xlink="http://www.w3.org/1999/xlink">
 <defs>
  <style type="text/css">
   <![CDATA[
    .fil0 {fill:none}
    .fil1 {fill:black;fill-rule:nonzero}
   ]]>
  </style>
 </defs>
 <g id="Ebene_x0020_1">
  <metadata id="CorelCorpID_0Corel-Layer"/>
  <rect class="fil0" x="-5" y="-2" width="1508043" height="1508045"/>
  <g id="_1622671712224">
   <path class="fil1" d="M1208280 1214347c584,-6290 890,-14194 890,-23462 0,-9629 -306,-17617 -862,-23906 -585,-6513 -1531,-12580 -2811,-18090 -947,-4175 -2283,-7932 -3925,-11244 -1141,-2533 -2699,-4731 -4480,-6596l-251 -251c-1586,-1669 -3701,-3284 -6178,-4703 -2895,-1698 -6290,-3061 -10131,-4175l-250 -111c-4370,-1252 -9769,-2282 -16059,-2922 -6401,-696 -14082,-1030 -22849,-1030 -8739,0 -16392,334 -22793,1030 -6040,640 -11550,1670 -16365,3033l-473 112c-4008,1085 -7403,2449 -10131,3952 -2310,1308 -4313,2866 -5900,4592 -1586,1670 -3061,4035 -4480,6902 -1615,3061 -2923,6930 -3952,11411 -1281,5705 -2255,11744 -2839,18090 -585,6317 -863,14360 -863,23906 0,9324 306,17228 891,23518 612,6373 1530,12134 2699,16949l112 334c1001,4397 2282,8043 3757,10965 1252,2533 2811,4815 4536,6679 1559,1531 3590,2978 5928,4314 2867,1614 6373,3006 10242,4063l473 112c4787,1363 10325,2365 16476,3033 6345,668 13943,1002 22682,1002 8767,0 16393,-334 22738,-1002 6401,-695 11856,-1642 16170,-2922 4007,-1224 7514,-2644 10520,-4314 2588,-1447 4787,-3089 6401,-4759 1698,-1753 3201,-3868 4481,-6429 1586,-3145 2894,-6735 3813,-10742l111 -223c1141,-4759 2059,-10548 2672,-17116zm-12441 -187525c3813,-7514 17283,-375077 19120,-417269l-946 -3590 -1086 -891c-1363,-974 -3200,-1920 -5399,-2783 -3145,-1169 -7013,-2477 -11271,-3534 -3590,-891 -7709,-1726 -12302,-2283 -5566,-779 -11939,-1363 -18925,-1669l-24379 -474 -24158 418 -19593 1447c-4926,501 -9267,1253 -12941,2060 -4314,1057 -7960,2198 -10965,3367 -1726,640 -3201,1475 -4370,2366 -918,501 -1364,2254 -1781,3284l-334 2282c1781,41273 15530,410868 18953,417269l3367 1865 6986 2282 11383 2032c8516,1280 19621,1920 33453,1920l18646 -445c9713,-975 16699,-1754 26189,-3479l6652 -2171 3701 -2004z"/>
   <path class="fil1" d="M1152674 329435c0,16865 -613,31087 -2088,43277 -1503,11884 -3534,21346 -6512,28443 -2950,7431 -6541,12747 -10993,16031 -4147,3590 -9157,5371 -14222,5371l-281176 0 0 813387c0,5566 -1809,11132 -5622,15780 -3785,4453 -10102,8460 -18674,11243 -8600,2784 -20484,5010 -35318,6819 -14861,1781 -33230,2644 -55188,2644 -21959,0 -40328,-863 -55161,-2644 -14834,-1809 -26774,-4091 -35318,-6819 -8544,-2783 -14973,-6790 -18674,-11243 -3841,-4648 -5622,-10075 -5622,-15780l0 -813387 -281232 0c-5649,0 -10659,-1781 -14778,-5371 -3924,-3284 -7431,-8600 -10409,-16031 -2644,-7097 -5065,-16559 -6540,-28443 -1503,-12190 -2060,-26412 -2060,-43277 0,-17200 557,-32062 2060,-44224 1475,-12190 3896,-21958 6540,-29083 2978,-7403 6485,-12413 10409,-15697 4119,-3284 9129,-4759 14778,-4759l791985 0c5065,0 9824,1475 14222,4759 4452,3284 8043,8294 10993,15697 2978,7125 5009,16893 6512,29083 1475,12162 2088,27024 2088,44224z"/>
  </g>
 </g>
</svg>
