<?xml version="1.0" encoding="UTF-8"?>
<!DOCTYPE svg PUBLIC "-//W3C//DTD SVG 1.1//EN" "http://www.w3.org/Graphics/SVG/1.1/DTD/svg11.dtd">
<!-- Creator: CorelDRAW X8 -->
<svg xmlns="http://www.w3.org/2000/svg" xml:space="preserve" width="64px" height="64px" version="1.1" style="shape-rendering:geometricPrecision; text-rendering:geometricPrecision; image-rendering:optimizeQuality; fill-rule:evenodd; clip-rule:evenodd"
viewBox="0 0 346060 346060"
 xmlns:xlink="http://www.w3.org/1999/xlink">
 <defs>
  <style type="text/css">
   <![CDATA[
    .fil2 {fill:none}
    .fil1 {fill:black}
    .fil0 {fill:black;fill-rule:nonzero}
   ]]>
  </style>
 </defs>
 <g id="Ebene_x0020_1">
  <metadata id="CorelCorpID_0Corel-Layer"/>
  <g id="_2367007852224">
   <path class="fil0" d="M129895 111579c2568,-2178 5371,-4286 8373,-6272 3040,-1948 6310,-3704 9816,-5179 3545,-1482 7357,-2651 11413,-3468 4093,-856 8487,-1284 13201,-1284 6546,0 12466,894 17805,2689 5295,1788 9887,4362 13667,7670 3820,3308 6776,7287 8846,11956 2101,4681 3148,9931 3148,15698 0,5652 -817,10480 -2407,14491 -1597,4049 -3583,7555 -6042,10557 -2414,3001 -5103,5645 -7983,7868 -2887,2261 -5614,4323 -8137,6233 -2573,1903 -4796,3781 -6699,5646 -1910,1871 -3040,3972 -3430,6348l-2727 15851 -19747 0 -2184 -17914c-428,-3506 38,-6546 1520,-9158 1443,-2568 3353,-4943 5767,-7128 2376,-2139 5026,-4240 7983,-6271 2919,-2018 5646,-4164 8220,-6502 2529,-2292 4675,-4943 6386,-7906 1712,-3002 2568,-6502 2568,-10519 0,-5019 -1750,-8992 -5257,-11917 -3506,-2919 -8098,-4400 -13826,-4400 -4088,0 -7556,466 -10359,1360 -2842,939 -5263,1910 -7249,2963 -2025,1086 -3736,2063 -5096,3002 -1367,888 -2651,1360 -3858,1360 -2612,0 -4637,-1207 -6080,-3544l-7632 -12230zm20220 129544c0,-2370 421,-4630 1277,-6732 901,-2146 2108,-3972 3666,-5498 1558,-1514 3391,-2721 5531,-3660 2139,-894 4400,-1360 6853,-1360 2420,0 4713,466 6852,1360 2108,939 3979,2146 5531,3660 1558,1526 2804,3352 3704,5498 894,2102 1367,4362 1367,6732 0,2420 -473,4713 -1367,6821 -900,2145 -2146,3972 -3704,5492 -1552,1520 -3423,2727 -5531,3583 -2139,894 -4432,1328 -6852,1328 -2453,0 -4714,-434 -6853,-1328 -2140,-856 -3973,-2063 -5531,-3583 -1558,-1520 -2765,-3347 -3666,-5492 -856,-2108 -1277,-4401 -1277,-6821z"/>
   <g>
    <path class="fil1" d="M268655 295338c-4841,0 -8769,-3928 -8769,-8769 0,-4841 3928,-8769 8769,-8769l9203 0 0 -11846c0,-4848 3921,-8769 8769,-8769 4841,0 8768,3921 8768,8769l0 12785c0,5601 -2088,16599 -13948,16599l-12792 0z"/>
    <path class="fil1" d="M194846 295338c-4847,0 -8775,-3928 -8775,-8769 0,-4841 3928,-8769 8775,-8769l3621 0 22941 0 3621 0c4841,0 8768,3928 8768,8769 0,4841 -3927,8769 -8768,8769l-3621 0 -22941 0 -3621 0z"/>
    <path class="fil1" d="M77411 295338c4841,0 8769,-3928 8769,-8769 0,-4841 -3928,-8769 -8769,-8769l-9197 0 0 -11846c0,-4848 -3927,-8769 -8775,-8769 -4841,0 -8768,3921 -8768,8769l0 12785c0,5601 2088,16599 13948,16599l12792 0z"/>
    <path class="fil1" d="M77411 50728c4841,0 8769,3928 8769,8769 0,4841 -3928,8768 -8769,8768l-9197 0 0 11847c0,4848 -3927,8775 -8775,8775 -4841,0 -8768,-3927 -8768,-8775l0 -12785c0,-5601 2088,-16599 13948,-16599l12792 0z"/>
    <path class="fil1" d="M121031 295338c-4841,0 -8769,-3928 -8769,-8769 0,-4841 3928,-8769 8769,-8769l3621 0 22947 0 3621 0c4841,0 8769,3928 8769,8769 0,4841 -3928,8769 -8769,8769l-3621 0 -22947 0 -3621 0z"/>
    <path class="fil1" d="M68170 152120c0,4848 -3928,8775 -8769,8775 -4841,0 -8775,-3927 -8775,-8775l0 -3621 0 -22940 0 -3621c0,-4848 3934,-8775 8775,-8775 4841,0 8769,3927 8769,8775l0 3621 0 22940 0 3621z"/>
    <path class="fil1" d="M68170 224135c0,4841 -3928,8768 -8769,8768 -4841,0 -8775,-3927 -8775,-8768l0 -3622 0 -22946 0 -3621c0,-4841 3934,-8769 8775,-8769 4841,0 8769,3928 8769,8769l0 3621 0 22946 0 3622z"/>
    <path class="fil1" d="M268655 50728c-4841,0 -8769,3928 -8769,8769 0,4841 3928,8768 8769,8768l9203 0 0 11847c0,4848 3921,8775 8769,8775 4841,0 8768,-3927 8768,-8775l0 -12785c0,-5601 -2088,-16599 -13948,-16599l-12792 0z"/>
    <path class="fil1" d="M194846 50728c-4847,0 -8775,3928 -8775,8769 0,4841 3928,8775 8775,8775l3621 0 22941 0 3621 0c4841,0 8768,-3934 8768,-8775 0,-4841 -3927,-8769 -8768,-8769l-3621 0 -22941 0 -3621 0z"/>
    <path class="fil1" d="M121031 50728c-4841,0 -8769,3928 -8769,8769 0,4841 3928,8775 8769,8775l3621 0 22947 0 3621 0c4841,0 8769,-3934 8769,-8775 0,-4841 -3928,-8769 -8769,-8769l-3621 0 -22947 0 -3621 0z"/>
    <path class="fil1" d="M277903 152120c0,4848 3927,8775 8762,8775 4841,0 8775,-3927 8775,-8775l0 -3621 0 -22940 0 -3621c0,-4848 -3934,-8775 -8775,-8775 -4835,0 -8762,3927 -8762,8775l0 3621 0 22940 0 3621z"/>
    <path class="fil1" d="M277903 224135c0,4841 3927,8768 8762,8768 4841,0 8775,-3927 8775,-8768l0 -3622 0 -22946 0 -3621c0,-4841 -3934,-8769 -8775,-8769 -4835,0 -8762,3928 -8762,8769l0 3621 0 22946 0 3622z"/>
   </g>
  </g>
  <rect class="fil2" x="-1" width="346059" height="346059"/>
 </g>
</svg>
