<?xml version="1.0" encoding="UTF-8"?>
<!DOCTYPE svg PUBLIC "-//W3C//DTD SVG 1.1//EN" "http://www.w3.org/Graphics/SVG/1.1/DTD/svg11.dtd">
<!-- Creator: CorelDRAW X8 -->
<svg xmlns="http://www.w3.org/2000/svg" xml:space="preserve" width="64px" height="64px" version="1.1" style="shape-rendering:geometricPrecision; text-rendering:geometricPrecision; image-rendering:optimizeQuality; fill-rule:evenodd; clip-rule:evenodd"
viewBox="0 0 993236 993236"
 xmlns:xlink="http://www.w3.org/1999/xlink">
 <defs>
  <style type="text/css">
   <![CDATA[
    .fil0 {fill:none}
    .fil1 {fill:black;fill-rule:nonzero}
   ]]>
  </style>
 </defs>
 <g id="Ebene_x0020_1">
  <metadata id="CorelCorpID_0Corel-Layer"/>
  <rect class="fil0" x="5" y="2" width="993234" height="993235"/>
  <path class="fil1" d="M714563 664449l0 -288626 61498 -61516c623,4747 953,9586 953,14517l0 335625c0,31509 -12904,60196 -33617,80891 -20823,20694 -49455,33562 -80818,33562l-331904 0c-6048,0 -12061,-513 -17835,-1375l61003 -61076 288736 0c14353,0 27385,-5829 36679,-15122 9385,-9532 15305,-22601 15305,-36880zm-435194 8743l395033 -395014c-3794,-898 -7772,-1375 -11823,-1375l-331904 0c-14260,0 -27330,5884 -36751,15251 -9440,9312 -15306,22399 -15306,36770l0 335625c0,2969 257,5902 751,8743zm434039 -355036l-396517 396462 -15379 15361 -31491 31491c-7332,-4637 -14151,-10045 -20236,-16130 -20713,-20695 -33581,-49382 -33581,-80891l0 -335625c0,-31381 12813,-60104 33636,-80854 20639,-20750 49326,-33618 80835,-33618l331904 0c31510,0 60178,12868 80891,33563 6709,6764 12629,14297 17560,22619l-34497 34479 -13125 13143z"/>
 </g>
</svg>
