<?xml version="1.0" encoding="UTF-8"?>
<!DOCTYPE svg PUBLIC "-//W3C//DTD SVG 1.1//EN" "http://www.w3.org/Graphics/SVG/1.1/DTD/svg11.dtd">
<!-- Creator: CorelDRAW X8 -->
<svg xmlns="http://www.w3.org/2000/svg" xml:space="preserve" width="64px" height="64px" version="1.1" style="shape-rendering:geometricPrecision; text-rendering:geometricPrecision; image-rendering:optimizeQuality; fill-rule:evenodd; clip-rule:evenodd"
viewBox="0 0 566651 566651"
 xmlns:xlink="http://www.w3.org/1999/xlink">
 <defs>
  <style type="text/css">
   <![CDATA[
    .fil0 {fill:none}
    .fil1 {fill:black;fill-rule:nonzero}
   ]]>
  </style>
 </defs>
 <g id="Ebene_x0020_1">
  <metadata id="CorelCorpID_0Corel-Layer"/>
  <rect class="fil0" x="-2" y="-1" width="566650" height="566650"/>
  <path class="fil1" d="M408962 226081c2813,-6818 1705,-12591 -3482,-17328l-111017 -111017c-2960,-3190 -6662,-4737 -11106,-4737 -4507,0 -8209,1547 -11169,4737l-111027 111017c-5103,4737 -6285,10510 -3472,17328 2803,6431 7697,9694 14651,9694l63425 0 0 111017c0,4288 1558,8000 4664,11106 3189,3179 6891,4737 11179,4737l63425 0c4298,0 8073,-1558 11179,-4737 3116,-3106 4737,-6818 4737,-11106l0 -111017 63425 0c6891,0 11775,-3263 14588,-9694zm80523 144481l0 79341c0,6589 -2290,12215 -6881,16805 -4664,4665 -10280,6955 -16868,6955l-364821 0c-6588,0 -12214,-2290 -16805,-6955 -4664,-4590 -6954,-10216 -6954,-16805l0 -79341c0,-6588 2290,-12214 6954,-16878 4591,-4591 10217,-6892 16805,-6892l103864 0c0,12570 4863,24157 13762,33035 8910,8900 20455,13794 33067,13794l63425 0c12643,0 24303,-4936 33202,-13919 8785,-8889 13700,-20382 13700,-32910l103801 0c6588,0 12204,2301 16868,6892 4591,4664 6881,10290 6881,16878zm-99838 66677c3106,-3179 4727,-6881 4727,-11168 0,-4298 -1621,-7990 -4727,-11179 -3106,-3106 -6881,-4665 -11179,-4665 -4298,0 -7990,1559 -11106,4665 -3179,3189 -4727,6881 -4727,11179 0,4287 1548,7989 4727,11168 3116,3117 6808,4664 11106,4664 4298,0 8073,-1547 11179,-4664zm63425 0c3179,-3179 4737,-6881 4737,-11168 0,-4298 -1558,-7990 -4737,-11179 -3106,-3106 -6808,-4665 -11096,-4665 -4298,0 -8073,1559 -11179,4665 -3116,3189 -4737,6881 -4737,11179 0,4287 1621,7989 4737,11168 3106,3117 6881,4664 11179,4664 4288,0 7990,-1547 11096,-4664z"/>
 </g>
</svg>
