<?xml version="1.0" encoding="UTF-8"?>
<!DOCTYPE svg PUBLIC "-//W3C//DTD SVG 1.1//EN" "http://www.w3.org/Graphics/SVG/1.1/DTD/svg11.dtd">
<!-- Creator: CorelDRAW X8 -->
<svg xmlns="http://www.w3.org/2000/svg" xml:space="preserve" width="64px" height="64px" version="1.1" style="shape-rendering:geometricPrecision; text-rendering:geometricPrecision; image-rendering:optimizeQuality; fill-rule:evenodd; clip-rule:evenodd"
viewBox="0 0 993230 993230"
 xmlns:xlink="http://www.w3.org/1999/xlink">
 <defs>
  <style type="text/css">
   <![CDATA[
    .fil1 {fill:none}
    .fil0 {fill:black;fill-rule:nonzero}
   ]]>
  </style>
 </defs>
 <g id="Ebene_x0020_1">
  <metadata id="CorelCorpID_0Corel-Layer"/>
  <path class="fil0" d="M546143 706164c0,6819 -5426,12593 -12464,12593l-74127 0c-7057,0 -12464,-5774 -12464,-12593l0 -73082c0,-6928 5407,-12702 12464,-12702l74127 0c7038,0 12464,5774 12464,12702l0 73082zm-807 -143854c-458,5077 -6250,8890 -13161,8890l-71468 0c-7387,0 -13161,-3813 -13161,-8890l-6581 -176646c0,-2310 1155,-6123 3813,-8102 2310,-1943 5884,-4271 9348,-4271l84960 0c3483,0 7057,2328 9367,4271 2657,1979 3812,4967 3812,7405l-6929 177343zm-5425 -361028c-8542,-15837 -25167,-25864 -43296,-25864 -18128,0 -34753,10027 -43295,25864l-296855 543448c-8542,15013 -8083,33599 807,48722 8890,15012 25057,24360 42489,24360l593691 0c17431,0 33599,-9348 42489,-24360 8890,-15123 9348,-33709 806,-48722l-296836 -543448z"/>
  <rect class="fil1" x="-3" y="-1" width="993228" height="993230"/>
 </g>
</svg>
