<?xml version="1.0" encoding="UTF-8"?>
<!DOCTYPE svg PUBLIC "-//W3C//DTD SVG 1.1//EN" "http://www.w3.org/Graphics/SVG/1.1/DTD/svg11.dtd">
<!-- Creator: CorelDRAW X8 -->
<svg xmlns="http://www.w3.org/2000/svg" xml:space="preserve" width="64px" height="64px" version="1.1" style="shape-rendering:geometricPrecision; text-rendering:geometricPrecision; image-rendering:optimizeQuality; fill-rule:evenodd; clip-rule:evenodd"
viewBox="0 0 428626 428626"
 xmlns:xlink="http://www.w3.org/1999/xlink">
 <defs>
  <style type="text/css">
   <![CDATA[
    .fil0 {fill:none}
    .fil1 {fill:black;fill-rule:nonzero}
   ]]>
  </style>
 </defs>
 <g id="Ebene_x0020_1">
  <metadata id="CorelCorpID_0Corel-Layer"/>
  <rect class="fil0" x="-1" y="-1" width="428625" height="428626"/>
  <path class="fil1" d="M235339 231431c-198,2191 -2824,3836 -5680,3836l-30842 0c-3061,0 -5680,-1645 -5680,-3836l-2839 -96403c0,-996 498,-2642 1645,-3496 997,-838 2539,-1843 4034,-1843l36664 0c1503,0 3046,1005 4042,1843 1147,854 1646,2144 1646,3196l-2990 96703zm102920 -89046c6384,10948 11201,22465 14413,34505 3219,12039 4833,24514 4833,37407 0,25970 -6423,49922 -19246,71897 -6407,10900 -13922,20725 -22615,29410l-48 40c-8733,8733 -18549,16271 -29402,22607 -10956,6400 -22450,11201 -34489,14437 -12016,3211 -24490,4817 -37416,4817 -25914,0 -49882,-6423 -71857,-19254 -10939,-6391 -20772,-13922 -29450,-22607 -8669,-8670 -16208,-18494 -22607,-29450 -6399,-11035 -11225,-22513 -14413,-34481 -3227,-12024 -4833,-24498 -4833,-37416 0,-12909 1606,-25368 4833,-37407 3212,-12048 8021,-23557 14413,-34505 6360,-10892 13914,-20717 22679,-29450 8654,-8662 18470,-16192 29394,-22528 10940,-6424 22450,-11233 34465,-14453 12032,-3219 24491,-4825 37376,-4825 12926,0 25400,1606 37416,4825 12039,3220 23533,8029 34489,14429 10908,6360 20717,13882 29394,22552 8749,8733 16327,18565 22671,29450zm-9903 40999c-2611,-9809 -6574,-19269 -11850,-28303 -5331,-9128 -11549,-17268 -18637,-24340 -7150,-7143 -15259,-13360 -24324,-18613 -9089,-5292 -18533,-9239 -28326,-11865 -9817,-2619 -20124,-3932 -30930,-3932 -10773,0 -21057,1313 -30873,3932 -9809,2626 -19238,6573 -28288,11865 -9096,5253 -17212,11470 -24363,18613 -7088,7072 -13313,15204 -18645,24340 -5268,9034 -9223,18494 -11857,28303 -2626,9825 -3924,20124 -3924,30913 0,10782 1298,21105 3924,30914 2642,9856 6589,19301 11841,28295 5300,9049 11542,17165 18692,24324 7175,7167 15283,13392 24332,18676 18028,10529 37764,15813 59161,15813 10806,0 21113,-1329 30930,-3948 9793,-2610 19237,-6589 28287,-11865 9120,-5331 17252,-11533 24324,-18629l47 -47c7127,-7127 13353,-15227 18629,-24285 10537,-18067 15805,-37803 15805,-59248 0,-10789 -1321,-21088 -3955,-30913zm-92669 110127c0,2689 -2468,5434 -5379,5434l-31989 0c-2919,0 -5379,-2492 -5379,-5434l0 -31538c0,-2991 2333,-5482 5379,-5482l31989 0c3037,0 5379,2618 5379,5482l0 31538z"/>
 </g>
</svg>
